<?xml version="1.0" encoding="UTF-8"?>
<!DOCTYPE svg PUBLIC "-//W3C//DTD SVG 1.1//EN" "http://www.w3.org/Graphics/SVG/1.1/DTD/svg11.dtd">
<svg xmlns="http://www.w3.org/2000/svg" version="1.1" width="1678px" height="2000px" style="shape-rendering:geometricPrecision; text-rendering:geometricPrecision; image-rendering:optimizeQuality; fill-rule:evenodd; clip-rule:evenodd" xmlns:xlink="http://www.w3.org/1999/xlink">
<g><path style="opacity:0.999" fill="#fefefe" d="M 701.5,226.5 C 707.507,235.175 712.507,244.508 716.5,254.5C 716.957,255.298 717.624,255.631 718.5,255.5C 732.546,302.187 720.879,341.021 683.5,372C 678.102,375.698 672.435,378.864 666.5,381.5C 648.401,388.653 629.734,391.987 610.5,391.5C 571.886,386.118 544.386,365.784 528,330.5C 513.072,289.731 519.405,252.731 547,219.5C 584.065,185.685 625.565,179.185 671.5,200C 683.546,206.548 693.546,215.381 701.5,226.5 Z"/></g>
<g><path style="opacity:0.996" fill="#fefefe" d="M 924.5,380.5 C 870.863,381.487 817.196,381.82 763.5,381.5C 756.501,380.347 752.001,376.014 750,368.5C 749.333,316.167 749.333,263.833 750,211.5C 751.675,205.159 755.508,200.659 761.5,198C 815.167,197.333 868.833,197.333 922.5,198C 928.333,199.833 932.167,203.667 934,209.5C 934.667,263.167 934.667,316.833 934,370.5C 932.388,375.452 929.221,378.785 924.5,380.5 Z"/></g>
<g><path style="opacity:0.993" fill="#fefefe" d="M 1141.5,381.5 C 1087.8,381.82 1034.14,381.487 980.5,380.5C 975.299,378.478 971.799,374.811 970,369.5C 969.333,316.167 969.333,262.833 970,209.5C 972.562,203.939 976.728,200.106 982.5,198C 1035.83,197.333 1089.17,197.333 1142.5,198C 1147.53,199.689 1151.36,202.856 1154,207.5C 1155.65,261.442 1155.99,315.442 1155,369.5C 1152.58,376.454 1148.08,380.454 1141.5,381.5 Z"/></g>
<g><path style="opacity:0.151" fill="#dbdbdb" d="M 701.5,226.5 C 709.446,234.711 715.113,244.377 718.5,255.5C 717.624,255.631 716.957,255.298 716.5,254.5C 712.507,244.508 707.507,235.175 701.5,226.5 Z"/></g>
<g><path style="opacity:0.294" fill="#dfdfdf" d="M 924.5,380.5 C 923.653,381.966 922.32,382.8 920.5,383C 868.5,383.667 816.5,383.667 764.5,383C 763.944,382.617 763.611,382.117 763.5,381.5C 817.196,381.82 870.863,381.487 924.5,380.5 Z"/></g>
<g><path style="opacity:0.294" fill="#dfdfdf" d="M 980.5,380.5 C 1034.14,381.487 1087.8,381.82 1141.5,381.5C 1141.39,382.117 1141.06,382.617 1140.5,383C 1088.5,383.667 1036.5,383.667 984.5,383C 982.68,382.8 981.347,381.966 980.5,380.5 Z"/></g>
<g><path style="opacity:0.246" fill="#dddddd" d="M 666.5,381.5 C 665.251,383.136 663.584,384.303 661.5,385C 644.903,391.635 627.903,393.802 610.5,391.5C 629.734,391.987 648.401,388.653 666.5,381.5 Z"/></g>
<g><path style="opacity:0.286" fill="#dfdfdf" d="M 704.5,419.5 C 650.863,418.513 597.196,418.18 543.5,418.5C 543.611,417.883 543.944,417.383 544.5,417C 596.167,416.333 647.833,416.333 699.5,417C 701.491,417.374 703.158,418.207 704.5,419.5 Z"/></g>
<g><path style="opacity:0.286" fill="#dfdfdf" d="M 921.5,418.5 C 867.81,418.184 814.144,418.517 760.5,419.5C 761.556,418.123 762.889,417.29 764.5,417C 816.167,416.333 867.833,416.333 919.5,417C 920.416,417.278 921.082,417.778 921.5,418.5 Z"/></g>
<g><path style="opacity:0.995" fill="#fefefe" d="M 543.5,418.5 C 597.196,418.18 650.863,418.513 704.5,419.5C 710.357,421.36 713.69,425.36 714.5,431.5C 713.667,483.998 713.167,536.665 713,589.5C 712.64,591.421 711.806,593.088 710.5,594.5C 706.674,597.724 702.674,600.391 698.5,602.5C 646.166,602.667 593.832,602.5 541.5,602C 535.667,600.167 531.833,596.333 530,590.5C 529.333,536.833 529.333,483.167 530,429.5C 532.806,423.142 537.306,419.475 543.5,418.5 Z"/></g>
<g><path style="opacity:0.996" fill="#fefefe" d="M 921.5,418.5 C 927.536,419.95 931.703,423.617 934,429.5C 934.667,483.167 934.667,536.833 934,590.5C 932.167,596.333 928.333,600.167 922.5,602C 868.833,602.667 815.167,602.667 761.5,602C 755.48,599.317 751.647,594.817 750,588.5C 749.333,536.167 749.333,483.833 750,431.5C 751.245,425.428 754.745,421.428 760.5,419.5C 814.144,418.517 867.81,418.184 921.5,418.5 Z"/></g>
<g><path style="opacity:0.051" fill="#e1e1e1" d="M 714.5,431.5 C 715.665,483.998 715.832,536.665 715,589.5C 714.439,591.725 713.439,593.725 712,595.5C 708.377,599.561 703.877,601.895 698.5,602.5C 702.674,600.391 706.674,597.724 710.5,594.5C 711.806,593.088 712.64,591.421 713,589.5C 713.167,536.665 713.667,483.998 714.5,431.5 Z"/></g>
<g><path style="opacity:0.993" fill="#fefefe" d="M 714.5,652.5 C 713.667,704.665 713.167,756.998 713,809.5C 711.167,815.333 707.333,819.167 701.5,821C 648.5,821.667 595.5,821.667 542.5,821C 540.35,819.589 538.016,818.755 535.5,818.5C 533.672,814.306 531.672,810.306 529.5,806.5C 529.333,754.499 529.5,702.499 530,650.5C 531.766,644.402 535.599,640.235 541.5,638C 594.833,637.333 648.167,637.333 701.5,638C 708.88,640.208 713.213,645.041 714.5,652.5 Z"/></g>
<g><path style="opacity:0.994" fill="#fefefe" d="M 932.5,813.5 C 929.516,816.982 925.849,819.482 921.5,821C 868.5,821.667 815.5,821.667 762.5,821C 760.655,819.872 758.655,819.372 756.5,819.5C 753.101,817.053 750.935,813.72 750,809.5C 749.333,757.167 749.333,704.833 750,652.5C 751.354,645.152 755.521,640.319 762.5,638C 815.833,637.333 869.167,637.333 922.5,638C 928.333,639.833 932.167,643.667 934,649.5C 934.667,703.5 934.667,757.5 934,811.5C 933.722,812.416 933.222,813.082 932.5,813.5 Z"/></g>
<g><path style="opacity:0.99" fill="#fefefe" d="M 1152.5,646.5 C 1153.65,700.815 1153.81,755.149 1153,809.5C 1151.94,815.562 1148.44,819.395 1142.5,821C 1089.5,821.667 1036.5,821.667 983.5,821C 981.754,820.529 980.087,819.862 978.5,819C 974.399,815.767 971.399,811.934 969.5,807.5C 969.333,755.166 969.5,702.832 970,650.5C 972.167,644.333 976.333,640.167 982.5,638C 1035.83,637.333 1089.17,637.333 1142.5,638C 1147.23,639.231 1150.56,642.064 1152.5,646.5 Z"/></g>
<g><path style="opacity:0.96" fill="#eeeeee" d="M 932.5,813.5 C 930.559,818.497 926.893,821.664 921.5,823C 868.833,823.667 816.167,823.667 763.5,823C 760.826,822.33 758.493,821.163 756.5,819.5C 758.655,819.372 760.655,819.872 762.5,821C 815.5,821.667 868.5,821.667 921.5,821C 925.849,819.482 929.516,816.982 932.5,813.5 Z"/></g>
<g><path style="opacity:0.278" fill="#e7e7e7" d="M 714.5,652.5 C 715.665,704.665 715.832,756.998 715,809.5C 712.685,816.095 708.185,820.595 701.5,823C 648.5,823.667 595.5,823.667 542.5,823C 534.476,820.469 530.142,814.969 529.5,806.5C 531.672,810.306 533.672,814.306 535.5,818.5C 538.016,818.755 540.35,819.589 542.5,821C 595.5,821.667 648.5,821.667 701.5,821C 707.333,819.167 711.167,815.333 713,809.5C 713.167,756.998 713.667,704.665 714.5,652.5 Z"/></g>
<g><path style="opacity:0.278" fill="#e9e9e9" d="M 1152.5,646.5 C 1153.79,647.842 1154.63,649.509 1155,651.5C 1155.67,704.167 1155.67,756.833 1155,809.5C 1153.24,816.262 1149.07,820.762 1142.5,823C 1089.5,823.667 1036.5,823.667 983.5,823C 975.957,820.404 971.291,815.238 969.5,807.5C 971.399,811.934 974.399,815.767 978.5,819C 980.087,819.862 981.754,820.529 983.5,821C 1036.5,821.667 1089.5,821.667 1142.5,821C 1148.44,819.395 1151.94,815.562 1153,809.5C 1153.81,755.149 1153.65,700.815 1152.5,646.5 Z"/></g>
<g><path style="opacity:0.994" fill="#fefefe" d="M 705.5,860.5 C 708.727,863.935 711.227,867.935 713,872.5C 713.167,925.002 713.667,977.335 714.5,1029.5C 714.5,1029.83 714.5,1030.17 714.5,1030.5C 712.085,1033.1 709.751,1035.93 707.5,1039C 705.283,1040.28 702.949,1041.28 700.5,1042C 648.167,1042.67 595.833,1042.67 543.5,1042C 539.865,1041.18 536.865,1039.35 534.5,1036.5C 533.015,1033.18 531.348,1030.18 529.5,1027.5C 529.333,975.166 529.5,922.832 530,870.5C 531.859,864.64 535.693,860.807 541.5,859C 595.167,858.333 648.833,858.333 702.5,859C 703.527,859.513 704.527,860.013 705.5,860.5 Z"/></g>
<g><path style="opacity:0.995" fill="#fefefe" d="M 920.5,1043.5 C 868.335,1042.67 816.002,1042.17 763.5,1042C 758.642,1040.93 754.975,1038.43 752.5,1034.5C 751.207,1033.16 750.374,1031.49 750,1029.5C 749.333,977.167 749.333,924.833 750,872.5C 751.675,866.159 755.508,861.659 761.5,859C 815.5,858.333 869.5,858.333 923.5,859C 928.333,861.167 931.833,864.667 934,869.5C 934.667,923.5 934.667,977.5 934,1031.5C 931.796,1038.21 927.296,1042.21 920.5,1043.5 Z"/></g>
<g><path style="opacity:0.047" fill="#e0e0e0" d="M 705.5,860.5 C 710.71,862.877 713.877,866.877 715,872.5C 715.832,925.002 715.665,977.335 714.5,1029.5C 713.667,977.335 713.167,925.002 713,872.5C 711.227,867.935 708.727,863.935 705.5,860.5 Z"/></g>
<g><path style="opacity:0.727" fill="#e3e3e3" d="M 529.5,1027.5 C 531.348,1030.18 533.015,1033.18 534.5,1036.5C 536.865,1039.35 539.865,1041.18 543.5,1042C 595.833,1042.67 648.167,1042.67 700.5,1042C 702.949,1041.28 705.283,1040.28 707.5,1039C 709.751,1035.93 712.085,1033.1 714.5,1030.5C 712.316,1037.52 707.649,1042.02 700.5,1044C 648.167,1044.67 595.833,1044.67 543.5,1044C 535.032,1041.7 530.365,1036.2 529.5,1027.5 Z"/></g>
<g><path style="opacity:0.086" fill="#e1e1e1" d="M 752.5,1034.5 C 754.975,1038.43 758.642,1040.93 763.5,1042C 816.002,1042.17 868.335,1042.67 920.5,1043.5C 868.335,1044.67 816.002,1044.83 763.5,1044C 757.767,1043.09 754.101,1039.93 752.5,1034.5 Z"/></g>
<g><path style="opacity:0.998" fill="#fcfcfc" d="M 575.5,1191.5 C 574.624,1191.37 573.957,1191.7 573.5,1192.5C 570.95,1198.99 568.117,1205.33 565,1211.5C 555.538,1206.84 545.705,1204.17 535.5,1203.5C 525.706,1201.31 516.373,1202.48 507.5,1207C 498.791,1217.24 499.791,1226.57 510.5,1235C 527.486,1243.49 544.152,1252.49 560.5,1262C 561.71,1263.04 562.71,1264.21 563.5,1265.5C 565.759,1268.94 568.259,1272.27 571,1275.5C 573.322,1280.49 575.822,1285.16 578.5,1289.5C 580.563,1297.11 580.896,1304.77 579.5,1312.5C 575.415,1331.58 564.082,1344.58 545.5,1351.5C 544.702,1351.96 544.369,1352.62 544.5,1353.5C 524.353,1359.35 504.02,1360.02 483.5,1355.5C 483.38,1354.41 482.713,1353.75 481.5,1353.5C 474.549,1351.96 467.882,1349.63 461.5,1346.5C 460.501,1334.85 460.168,1323.19 460.5,1311.5C 464.149,1312.41 467.649,1313.74 471,1315.5C 471.383,1314.94 471.883,1314.61 472.5,1314.5C 483.309,1318.29 494.309,1321.29 505.5,1323.5C 514.394,1326.28 523.394,1325.78 532.5,1322C 542.587,1313.89 544.087,1304.39 537,1293.5C 535.644,1292.62 534.144,1292.29 532.5,1292.5C 532.5,1292.17 532.5,1291.83 532.5,1291.5C 531.718,1289.55 530.384,1288.05 528.5,1287C 511.893,1279.36 495.893,1270.7 480.5,1261C 473.717,1255.06 468.717,1247.89 465.5,1239.5C 465.043,1238.7 464.376,1238.37 463.5,1238.5C 454.292,1200.75 468.626,1177.58 506.5,1169C 532.46,1165.4 556.794,1169.73 579.5,1182C 578.565,1185.37 577.232,1188.53 575.5,1191.5 Z"/></g>
<g><path style="opacity:0.998" fill="#fcfcfc" d="M 1468.5,1343.5 C 1457.99,1349.67 1446.66,1353.67 1434.5,1355.5C 1433.29,1355.75 1432.62,1356.41 1432.5,1357.5C 1363.66,1363.33 1328.66,1331.66 1327.5,1262.5C 1327.6,1252.69 1328.6,1243.02 1330.5,1233.5C 1333.57,1226.5 1336.4,1219.17 1339,1211.5C 1347.66,1193.34 1361.5,1181 1380.5,1174.5C 1381.3,1174.04 1381.63,1173.38 1381.5,1172.5C 1407.39,1165.2 1433.06,1166.04 1458.5,1175C 1479.76,1185.22 1493.09,1201.56 1498.5,1224C 1500.39,1225.08 1500.73,1226.41 1499.5,1228C 1501.5,1231.15 1502.67,1234.65 1503,1238.5C 1508.51,1269.43 1503.51,1298.43 1488,1325.5C 1482.56,1332.78 1476.06,1338.78 1468.5,1343.5 Z M 1408.5,1202.5 C 1434.15,1200.18 1450.65,1210.85 1458,1234.5C 1463.68,1256.98 1462.34,1278.98 1454,1300.5C 1446.24,1316.05 1433.58,1323.72 1416,1323.5C 1396.42,1323.57 1383.09,1314.57 1376,1296.5C 1369.91,1276.39 1369.07,1256.06 1373.5,1235.5C 1378.39,1217.27 1390.06,1206.27 1408.5,1202.5 Z"/></g>
<g><path style="opacity:0.969" fill="#ededed" d="M 732.5,1170.5 C 732.5,1171.17 732.5,1171.83 732.5,1172.5C 686.5,1172.5 640.5,1172.5 594.5,1172.5C 640.155,1170.5 686.155,1169.84 732.5,1170.5 Z"/></g>
<g><path style="opacity:0.97" fill="#ededed" d="M 965.5,1170.5 C 965.5,1171.17 965.5,1171.83 965.5,1172.5C 919.5,1172.5 873.5,1172.5 827.5,1172.5C 873.155,1170.5 919.155,1169.84 965.5,1170.5 Z"/></g>
<g><path style="opacity:0.968" fill="#ededed" d="M 1308.5,1170.5 C 1308.83,1181.68 1308.49,1192.68 1307.5,1203.5C 1307.5,1193.17 1307.5,1182.83 1307.5,1172.5C 1261.5,1172.5 1215.5,1172.5 1169.5,1172.5C 1215.49,1170.5 1261.82,1169.84 1308.5,1170.5 Z"/></g>
<g><path style="opacity:0.285" fill="#d5d5d5" d="M 178.5,1170.5 C 178.5,1232.17 178.5,1293.83 178.5,1355.5C 177.883,1355.39 177.383,1355.06 177,1354.5C 176.333,1293.5 176.333,1232.5 177,1171.5C 177.383,1170.94 177.883,1170.61 178.5,1170.5 Z"/></g>
<g><path style="opacity:0.994" fill="#fdfdfd" d="M 178.5,1170.5 C 191.833,1170.5 205.167,1170.5 218.5,1170.5C 218.5,1232.17 218.5,1293.83 218.5,1355.5C 205.167,1355.5 191.833,1355.5 178.5,1355.5C 178.5,1293.83 178.5,1232.17 178.5,1170.5 Z"/></g>
<g><path style="opacity:0.928" fill="#e8e8e8" d="M 332.5,1203.5 C 331.504,1203.59 330.671,1203.25 330,1202.5C 324.5,1192.83 319,1183.17 313.5,1173.5C 297.18,1172.5 280.847,1172.17 264.5,1172.5C 264.5,1233.5 264.5,1294.5 264.5,1355.5C 262.504,1294.18 261.837,1232.51 262.5,1170.5C 279.846,1170.17 297.179,1170.5 314.5,1171.5C 320.928,1181.93 326.928,1192.59 332.5,1203.5 Z"/></g>
<g><path style="opacity:0.987" fill="#fefefe" d="M 332.5,1203.5 C 347.083,1228.33 361.416,1253.33 375.5,1278.5C 375.995,1280.48 376.495,1282.48 377,1284.5C 381.679,1291.2 386.346,1297.87 391,1304.5C 392.084,1301.12 392.584,1297.62 392.5,1294C 392.481,1290.75 391.814,1287.92 390.5,1285.5C 390.5,1283.83 390.5,1282.17 390.5,1280.5C 391.493,1244.57 391.826,1208.57 391.5,1172.5C 403.167,1172.5 414.833,1172.5 426.5,1172.5C 426.5,1233.5 426.5,1294.5 426.5,1355.5C 409.167,1355.5 391.833,1355.5 374.5,1355.5C 374.649,1354.45 374.483,1353.45 374,1352.5C 354.224,1318.61 334.724,1284.61 315.5,1250.5C 315.938,1250.57 316.272,1250.4 316.5,1250C 310.331,1239.01 303.997,1228.18 297.5,1217.5C 296.702,1217.96 296.369,1218.62 296.5,1219.5C 296.328,1220.49 296.662,1221.16 297.5,1221.5C 298.403,1266.16 298.736,1310.83 298.5,1355.5C 287.167,1355.5 275.833,1355.5 264.5,1355.5C 264.5,1294.5 264.5,1233.5 264.5,1172.5C 280.847,1172.17 297.18,1172.5 313.5,1173.5C 319,1183.17 324.5,1192.83 330,1202.5C 330.671,1203.25 331.504,1203.59 332.5,1203.5 Z"/></g>
<g><path style="opacity:0.527" fill="#e7e7e7" d="M 426.5,1172.5 C 414.833,1172.5 403.167,1172.5 391.5,1172.5C 391.826,1208.57 391.493,1244.57 390.5,1280.5C 389.502,1244 389.168,1207.34 389.5,1170.5C 402.212,1169.85 414.545,1170.52 426.5,1172.5 Z"/></g>
<g><path style="opacity:0.979" fill="#fefefe" d="M 594.5,1172.5 C 640.5,1172.5 686.5,1172.5 732.5,1172.5C 732.5,1182.83 732.5,1193.17 732.5,1203.5C 716.167,1203.5 699.833,1203.5 683.5,1203.5C 683.5,1254.17 683.5,1304.83 683.5,1355.5C 670.167,1355.5 656.833,1355.5 643.5,1355.5C 643.5,1305.5 643.5,1255.5 643.5,1205.5C 644.043,1205.44 644.376,1205.11 644.5,1204.5C 627.847,1203.5 611.18,1203.17 594.5,1203.5C 594.5,1193.17 594.5,1182.83 594.5,1172.5 Z"/></g>
<g><path style="opacity:0.881" fill="#e5e5e5" d="M 799.5,1170.5 C 799.5,1171.17 799.5,1171.83 799.5,1172.5C 786.833,1172.5 774.167,1172.5 761.5,1172.5C 761.5,1233.5 761.5,1294.5 761.5,1355.5C 759.504,1294.18 758.837,1232.51 759.5,1170.5C 772.833,1170.5 786.167,1170.5 799.5,1170.5 Z"/></g>
<g><path style="opacity:0.993" fill="#fefefe" d="M 799.5,1172.5 C 799.5,1233.5 799.5,1294.5 799.5,1355.5C 786.833,1355.5 774.167,1355.5 761.5,1355.5C 761.5,1294.5 761.5,1233.5 761.5,1172.5C 774.167,1172.5 786.833,1172.5 799.5,1172.5 Z"/></g>
<g><path style="opacity:0.043" fill="#cccccc" d="M 799.5,1170.5 C 800.833,1200.99 801.5,1231.83 801.5,1263C 801.5,1294.17 800.833,1325.01 799.5,1355.5C 799.5,1294.5 799.5,1233.5 799.5,1172.5C 799.5,1171.83 799.5,1171.17 799.5,1170.5 Z"/></g>
<g><path style="opacity:0.98" fill="#fefefe" d="M 827.5,1172.5 C 873.5,1172.5 919.5,1172.5 965.5,1172.5C 965.5,1182.83 965.5,1193.17 965.5,1203.5C 949.167,1203.5 932.833,1203.5 916.5,1203.5C 916.5,1254.17 916.5,1304.83 916.5,1355.5C 903.167,1355.5 889.833,1355.5 876.5,1355.5C 876.5,1305.5 876.5,1255.5 876.5,1205.5C 877.043,1205.44 877.376,1205.11 877.5,1204.5C 860.847,1203.5 844.18,1203.17 827.5,1203.5C 827.5,1193.17 827.5,1182.83 827.5,1172.5 Z"/></g>
<g><path style="opacity:0.999" fill="#fdfdfd" d="M 1033.5,1287.5 C 1035.71,1316.96 1051.38,1328.46 1080.5,1322C 1095.56,1317.09 1103.23,1306.59 1103.5,1290.5C 1105.49,1251.51 1106.16,1212.18 1105.5,1172.5C 1117.83,1172.5 1130.17,1172.5 1142.5,1172.5C 1142.17,1215.91 1142.51,1259.24 1143.5,1302.5C 1143.1,1308.09 1141.77,1313.42 1139.5,1318.5C 1138.5,1318.41 1137.67,1318.75 1137,1319.5C 1130.55,1334.45 1119.71,1344.79 1104.5,1350.5C 1103.7,1350.96 1103.37,1351.62 1103.5,1352.5C 1084.55,1358.76 1065.22,1360.1 1045.5,1356.5C 1045.53,1355.5 1045.03,1354.84 1044,1354.5C 1036.87,1352.79 1030.04,1350.29 1023.5,1347C 1017.32,1342.31 1011.32,1337.48 1005.5,1332.5C 998.173,1323.2 994.173,1312.53 993.5,1300.5C 994.494,1257.91 994.828,1215.24 994.5,1172.5C 1006.83,1172.5 1019.17,1172.5 1031.5,1172.5C 1030.84,1211.18 1031.51,1249.51 1033.5,1287.5 Z"/></g>
<g><path style="opacity:0.434" fill="#e6e6e6" d="M 1033.5,1287.5 C 1031.51,1249.51 1030.84,1211.18 1031.5,1172.5C 1019.17,1172.5 1006.83,1172.5 994.5,1172.5C 994.828,1215.24 994.494,1257.91 993.5,1300.5C 992.501,1257.34 992.168,1214 992.5,1170.5C 1006.17,1170.5 1019.83,1170.5 1033.5,1170.5C 1033.5,1209.5 1033.5,1248.5 1033.5,1287.5 Z"/></g>
<g><path style="opacity:0.306" fill="#e5e5e5" d="M 1143.5,1302.5 C 1142.51,1259.24 1142.17,1215.91 1142.5,1172.5C 1130.17,1172.5 1117.83,1172.5 1105.5,1172.5C 1106.16,1212.18 1105.49,1251.51 1103.5,1290.5C 1103.5,1250.5 1103.5,1210.5 1103.5,1170.5C 1117.17,1170.5 1130.83,1170.5 1144.5,1170.5C 1144.83,1214.67 1144.5,1258.67 1143.5,1302.5 Z"/></g>
<g><path style="opacity:0.99" fill="#fefefe" d="M 1169.5,1172.5 C 1215.5,1172.5 1261.5,1172.5 1307.5,1172.5C 1307.5,1182.83 1307.5,1193.17 1307.5,1203.5C 1291.17,1203.5 1274.83,1203.5 1258.5,1203.5C 1258.5,1254.17 1258.5,1304.83 1258.5,1355.5C 1245.5,1355.5 1232.5,1355.5 1219.5,1355.5C 1219.5,1305.5 1219.5,1255.5 1219.5,1205.5C 1203.2,1203.51 1186.53,1202.85 1169.5,1203.5C 1169.5,1193.17 1169.5,1182.83 1169.5,1172.5 Z"/></g>
<g><path style="opacity:0.153" fill="#dadada" d="M 1381.5,1172.5 C 1381.63,1173.38 1381.3,1174.04 1380.5,1174.5C 1361.5,1181 1347.66,1193.34 1339,1211.5C 1336.4,1219.17 1333.57,1226.5 1330.5,1233.5C 1335.07,1202.66 1352.07,1182.33 1381.5,1172.5 Z"/></g>
<g><path style="opacity:0.458" fill="#dbdbdb" d="M 575.5,1191.5 C 572.633,1198.77 569.966,1206.1 567.5,1213.5C 556.806,1209.93 546.139,1206.6 535.5,1203.5C 545.705,1204.17 555.538,1206.84 565,1211.5C 568.117,1205.33 570.95,1198.99 573.5,1192.5C 573.957,1191.7 574.624,1191.37 575.5,1191.5 Z"/></g>
<g><path style="opacity:0.731" fill="#dadada" d="M 594.5,1203.5 C 611.18,1203.17 627.847,1203.5 644.5,1204.5C 644.376,1205.11 644.043,1205.44 643.5,1205.5C 626.799,1206.15 610.466,1205.49 594.5,1203.5 Z"/></g>
<g><path style="opacity:0.732" fill="#dadada" d="M 827.5,1203.5 C 844.18,1203.17 860.847,1203.5 877.5,1204.5C 877.376,1205.11 877.043,1205.44 876.5,1205.5C 859.799,1206.15 843.466,1205.49 827.5,1203.5 Z"/></g>
<g><path style="opacity:0.089" fill="#d7d7d7" d="M 1169.5,1203.5 C 1186.53,1202.85 1203.2,1203.51 1219.5,1205.5C 1202.47,1206.15 1185.8,1205.49 1169.5,1203.5 Z"/></g>
<g><path style="opacity:0.258" fill="#d6d6d6" d="M 1308.5,1170.5 C 1309.49,1181.99 1309.83,1193.65 1309.5,1205.5C 1293.17,1205.5 1276.83,1205.5 1260.5,1205.5C 1260.67,1255.17 1260.5,1304.83 1260,1354.5C 1259.62,1355.06 1259.12,1355.39 1258.5,1355.5C 1258.5,1304.83 1258.5,1254.17 1258.5,1203.5C 1274.83,1203.5 1291.17,1203.5 1307.5,1203.5C 1308.49,1192.68 1308.83,1181.68 1308.5,1170.5 Z"/></g>
<g><path style="opacity:0.417" fill="#d5d5d5" d="M 732.5,1170.5 C 734.478,1181.79 735.145,1193.45 734.5,1205.5C 717.833,1205.5 701.167,1205.5 684.5,1205.5C 684.832,1255.67 684.499,1305.67 683.5,1355.5C 683.5,1304.83 683.5,1254.17 683.5,1203.5C 699.833,1203.5 716.167,1203.5 732.5,1203.5C 732.5,1193.17 732.5,1182.83 732.5,1172.5C 732.5,1171.83 732.5,1171.17 732.5,1170.5 Z"/></g>
<g><path style="opacity:0.354" fill="#d4d4d4" d="M 965.5,1170.5 C 967.478,1181.79 968.145,1193.45 967.5,1205.5C 950.833,1205.5 934.167,1205.5 917.5,1205.5C 917.832,1255.67 917.499,1305.67 916.5,1355.5C 916.5,1304.83 916.5,1254.17 916.5,1203.5C 932.833,1203.5 949.167,1203.5 965.5,1203.5C 965.5,1193.17 965.5,1182.83 965.5,1172.5C 965.5,1171.83 965.5,1171.17 965.5,1170.5 Z"/></g>
<g><path style="opacity:0.949" fill="#d6d6d6" d="M 315.5,1250.5 C 309.5,1240.83 303.5,1231.17 297.5,1221.5C 297.672,1220.51 297.338,1219.84 296.5,1219.5C 296.369,1218.62 296.702,1217.96 297.5,1217.5C 303.997,1228.18 310.331,1239.01 316.5,1250C 316.272,1250.4 315.938,1250.57 315.5,1250.5 Z"/></g>
<g><path style="opacity:0.498" fill="#d9d9d9" d="M 1408.5,1202.5 C 1390.06,1206.27 1378.39,1217.27 1373.5,1235.5C 1375.99,1216.83 1386.83,1205.49 1406,1201.5C 1407.07,1201.53 1407.9,1201.86 1408.5,1202.5 Z"/></g>
<g><path style="opacity:0.243" fill="#d9d9d9" d="M 563.5,1265.5 C 571.665,1271.37 576.665,1279.37 578.5,1289.5C 575.822,1285.16 573.322,1280.49 571,1275.5C 568.259,1272.27 565.759,1268.94 563.5,1265.5 Z"/></g>
<g><path style="opacity:0.256" fill="#d4d4d4" d="M 463.5,1238.5 C 464.376,1238.37 465.043,1238.7 465.5,1239.5C 468.717,1247.89 473.717,1255.06 480.5,1261C 495.893,1270.7 511.893,1279.36 528.5,1287C 530.384,1288.05 531.718,1289.55 532.5,1291.5C 516.395,1283.28 500.395,1274.78 484.5,1266C 474.462,1259.06 467.462,1249.9 463.5,1238.5 Z"/></g>
<g><path style="opacity:0.18" fill="#d5d5d5" d="M 375.5,1278.5 C 380.809,1285.76 385.642,1293.43 390,1301.5C 390.499,1296.18 390.666,1290.84 390.5,1285.5C 391.814,1287.92 392.481,1290.75 392.5,1294C 392.584,1297.62 392.084,1301.12 391,1304.5C 386.346,1297.87 381.679,1291.2 377,1284.5C 376.495,1282.48 375.995,1280.48 375.5,1278.5 Z"/></g>
<g><path style="opacity:0.807" fill="#dddddd" d="M 472.5,1314.5 C 471.883,1314.61 471.383,1314.94 471,1315.5C 467.649,1313.74 464.149,1312.41 460.5,1311.5C 460.168,1323.19 460.501,1334.85 461.5,1346.5C 467.882,1349.63 474.549,1351.96 481.5,1353.5C 482.713,1353.75 483.38,1354.41 483.5,1355.5C 475.031,1354.23 467.031,1351.57 459.5,1347.5C 458.519,1334.88 458.186,1322.22 458.5,1309.5C 463.638,1310.08 468.305,1311.75 472.5,1314.5 Z"/></g>
<g><path style="opacity:0.77" fill="#e1e1e1" d="M 532.5,1292.5 C 534.144,1292.29 535.644,1292.62 537,1293.5C 544.087,1304.39 542.587,1313.89 532.5,1322C 523.394,1325.78 514.394,1326.28 505.5,1323.5C 511.509,1323.67 517.509,1323.5 523.5,1323C 535.425,1320.64 540.592,1313.47 539,1301.5C 537.773,1297.78 535.607,1294.78 532.5,1292.5 Z"/></g>
<g><path style="opacity:0.141" fill="#d5d5d5" d="M 579.5,1312.5 C 576.136,1333.2 564.47,1346.87 544.5,1353.5C 544.369,1352.62 544.702,1351.96 545.5,1351.5C 564.082,1344.58 575.415,1331.58 579.5,1312.5 Z"/></g>
<g><path style="opacity:0.094" fill="#d1d1d1" d="M 1139.5,1318.5 C 1132.37,1334.96 1120.37,1346.29 1103.5,1352.5C 1103.37,1351.62 1103.7,1350.96 1104.5,1350.5C 1119.71,1344.79 1130.55,1334.45 1137,1319.5C 1137.67,1318.75 1138.5,1318.41 1139.5,1318.5 Z"/></g>
<g><path style="opacity:0.263" fill="#d8d8d8" d="M 1005.5,1332.5 C 1011.32,1337.48 1017.32,1342.31 1023.5,1347C 1030.04,1350.29 1036.87,1352.79 1044,1354.5C 1045.03,1354.84 1045.53,1355.5 1045.5,1356.5C 1028.89,1353.88 1015.56,1345.88 1005.5,1332.5 Z"/></g>
<g><path style="opacity:0.027" fill="#d8d8d8" d="M 1468.5,1343.5 C 1468.09,1344.64 1467.43,1345.64 1466.5,1346.5C 1455.94,1352.58 1444.61,1356.24 1432.5,1357.5C 1432.62,1356.41 1433.29,1355.75 1434.5,1355.5C 1446.66,1353.67 1457.99,1349.67 1468.5,1343.5 Z"/></g>
<g><path style="opacity:0.471" fill="#d3d3d3" d="M 1184.5,1394.5 C 1182.26,1393.7 1181.26,1392.03 1181.5,1389.5C 1165.5,1389.33 1149.5,1389.5 1133.5,1390C 1132.74,1391.44 1132.07,1392.94 1131.5,1394.5C 1131.04,1395.3 1130.38,1395.63 1129.5,1395.5C 1130.46,1393.25 1131.12,1390.92 1131.5,1388.5C 1148.51,1388.17 1165.51,1388.5 1182.5,1389.5C 1183.46,1391.08 1184.12,1392.74 1184.5,1394.5 Z"/></g>
<g><path style="opacity:0.149" fill="#dadada" d="M 410.5,1423.5 C 410.5,1412.5 410.5,1401.5 410.5,1390.5C 375.833,1390.5 341.167,1390.5 306.5,1390.5C 306.5,1451.5 306.5,1512.5 306.5,1573.5C 304.504,1512.51 303.837,1451.18 304.5,1389.5C 340.5,1389.5 376.5,1389.5 412.5,1389.5C 412.667,1400.51 412.5,1411.51 412,1422.5C 411.617,1423.06 411.117,1423.39 410.5,1423.5 Z"/></g>
<g><path style="opacity:0.305" fill="#d2d2d2" d="M 447.5,1389.5 C 446.504,1450.76 446.171,1512.1 446.5,1573.5C 445.833,1543 445.5,1512.34 445.5,1481.5C 445.5,1450.49 446.167,1419.83 447.5,1389.5 Z"/></g>
<g><path style="opacity:0.992" fill="#eeeeee" d="M 447.5,1389.5 C 482.833,1389.5 518.167,1389.5 553.5,1389.5C 553.667,1400.51 553.5,1411.51 553,1422.5C 552.617,1423.06 552.117,1423.39 551.5,1423.5C 551.5,1412.83 551.5,1402.17 551.5,1391.5C 516.833,1391.5 482.167,1391.5 447.5,1391.5C 447.5,1452.17 447.5,1512.83 447.5,1573.5C 447.167,1573.5 446.833,1573.5 446.5,1573.5C 446.171,1512.1 446.504,1450.76 447.5,1389.5 Z"/></g>
<g><path style="opacity:0.462" fill="#d6d6d6" d="M 662.5,1390.5 C 638.167,1390.5 613.833,1390.5 589.5,1390.5C 589.5,1451.5 589.5,1512.5 589.5,1573.5C 588.501,1512.34 588.168,1451 588.5,1389.5C 613.339,1389.17 638.006,1389.5 662.5,1390.5 Z"/></g>
<g><path style="opacity:0.996" fill="#fdfdfd" d="M 662.5,1390.5 C 682.728,1391.46 700.395,1398.46 715.5,1411.5C 724.4,1420.93 731.067,1431.93 735.5,1444.5C 735.957,1445.3 736.624,1445.63 737.5,1445.5C 743.151,1465.9 743.984,1486.57 740,1507.5C 739.097,1512.48 737.597,1517.14 735.5,1521.5C 734.624,1521.37 733.957,1521.7 733.5,1522.5C 729.071,1532.37 723.405,1541.37 716.5,1549.5C 704.766,1560.54 690.766,1567.7 674.5,1571C 670.181,1571.76 665.848,1572.43 661.5,1573C 637.502,1573.5 613.502,1573.67 589.5,1573.5C 589.5,1512.5 589.5,1451.5 589.5,1390.5C 613.833,1390.5 638.167,1390.5 662.5,1390.5 Z M 630.5,1423.5 C 644.017,1422.78 657.351,1423.95 670.5,1427C 685.942,1433.45 695.108,1444.95 698,1461.5C 702.239,1482.6 699.405,1502.6 689.5,1521.5C 687.401,1523.99 685.068,1526.33 682.5,1528.5C 676.696,1532.4 670.696,1535.73 664.5,1538.5C 663.85,1538.2 663.183,1537.86 662.5,1537.5C 659.442,1539.14 656.108,1539.97 652.5,1540C 645.174,1540.5 637.841,1540.67 630.5,1540.5C 630.5,1501.5 630.5,1462.5 630.5,1423.5 Z"/></g>
<g><path style="opacity:0.188" fill="#d3d3d3" d="M 780.5,1389.5 C 779.504,1450.76 779.171,1512.1 779.5,1573.5C 778.833,1543 778.5,1512.34 778.5,1481.5C 778.5,1450.49 779.167,1419.83 780.5,1389.5 Z"/></g>
<g><path style="opacity:0.992" fill="#ececec" d="M 780.5,1389.5 C 815.833,1389.5 851.167,1389.5 886.5,1389.5C 886.667,1400.51 886.5,1411.51 886,1422.5C 885.617,1423.06 885.117,1423.39 884.5,1423.5C 884.5,1412.83 884.5,1402.17 884.5,1391.5C 849.833,1391.5 815.167,1391.5 780.5,1391.5C 780.5,1452.17 780.5,1512.83 780.5,1573.5C 780.167,1573.5 779.833,1573.5 779.5,1573.5C 779.171,1512.1 779.504,1450.76 780.5,1389.5 Z"/></g>
<g><path style="opacity:0.337" fill="#d5d5d5" d="M 992.5,1390.5 C 969.167,1390.5 945.833,1390.5 922.5,1390.5C 922.5,1451.5 922.5,1512.5 922.5,1573.5C 921.501,1512.34 921.168,1451 921.5,1389.5C 945.339,1389.17 969.006,1389.5 992.5,1390.5 Z"/></g>
<g><path style="opacity:0.998" fill="#fdfdfd" d="M 1184.5,1394.5 C 1185.9,1397.7 1186.9,1401.03 1187.5,1404.5C 1186.96,1404.56 1186.62,1404.89 1186.5,1405.5C 1191.23,1419.54 1196.07,1433.54 1201,1447.5C 1201.42,1448.76 1202.25,1449.42 1203.5,1449.5C 1204.57,1451.7 1205.23,1454.03 1205.5,1456.5C 1204.96,1456.56 1204.62,1456.89 1204.5,1457.5C 1211.77,1478.13 1218.93,1498.8 1226,1519.5C 1226.55,1521.76 1227.72,1523.43 1229.5,1524.5C 1235.76,1540.62 1241.43,1556.95 1246.5,1573.5C 1231.5,1573.5 1216.5,1573.5 1201.5,1573.5C 1198.71,1562.45 1195.71,1551.45 1192.5,1540.5C 1193.25,1536.86 1192.58,1533.36 1190.5,1530C 1168.16,1529.17 1145.83,1529.33 1123.5,1530.5C 1123.62,1531.11 1123.96,1531.44 1124.5,1531.5C 1120.96,1545.31 1116.96,1558.98 1112.5,1572.5C 1083.21,1573.48 1053.88,1573.82 1024.5,1573.5C 1011,1552.51 998.001,1531.17 985.5,1509.5C 985.451,1506.9 984.451,1504.73 982.5,1503C 975.508,1502.5 968.508,1502.33 961.5,1502.5C 961.5,1526.17 961.5,1549.83 961.5,1573.5C 948.5,1573.5 935.5,1573.5 922.5,1573.5C 922.5,1512.5 922.5,1451.5 922.5,1390.5C 945.833,1390.5 969.167,1390.5 992.5,1390.5C 1005.97,1390.77 1018.3,1394.44 1029.5,1401.5C 1029.41,1402.5 1029.75,1403.33 1030.5,1404C 1033.78,1405.56 1036.62,1407.73 1039,1410.5C 1042.44,1415.55 1044.94,1421.05 1046.5,1427C 1046.84,1428.03 1047.5,1428.53 1048.5,1428.5C 1051.13,1438.84 1051.13,1449.17 1048.5,1459.5C 1044.97,1465.27 1041.47,1471.27 1038,1477.5C 1035.96,1479.37 1034.13,1481.37 1032.5,1483.5C 1028.17,1487.43 1023.33,1490.76 1018,1493.5C 1018.13,1495.19 1018.63,1496.86 1019.5,1498.5C 1031.42,1517.6 1043.58,1536.6 1056,1555.5C 1057.11,1556.31 1058.28,1556.97 1059.5,1557.5C 1062.48,1561.43 1065.48,1565.43 1068.5,1569.5C 1084.55,1524.1 1100.55,1478.76 1116.5,1433.5C 1117.75,1433.42 1118.58,1432.76 1119,1431.5C 1121.73,1423.13 1124.57,1414.8 1127.5,1406.5C 1127.38,1405.89 1127.04,1405.56 1126.5,1405.5C 1127.1,1402.03 1128.1,1398.7 1129.5,1395.5C 1130.38,1395.63 1131.04,1395.3 1131.5,1394.5C 1132.07,1392.94 1132.74,1391.44 1133.5,1390C 1149.5,1389.5 1165.5,1389.33 1181.5,1389.5C 1181.26,1392.03 1182.26,1393.7 1184.5,1394.5 Z M 963.5,1423.5 C 975.47,1422.79 987.137,1424.29 998.5,1428C 1003.81,1429.98 1006.98,1433.82 1008,1439.5C 1009.5,1447.41 1008.17,1454.74 1004,1461.5C 996.266,1467.58 987.432,1470.58 977.5,1470.5C 972.833,1470.5 968.167,1470.5 963.5,1470.5C 963.5,1454.83 963.5,1439.17 963.5,1423.5 Z M 1177.5,1488.5 C 1177.66,1490.83 1178.33,1492.99 1179.5,1495C 1164.83,1495.67 1150.17,1495.67 1135.5,1495C 1137,1492 1138,1488.83 1138.5,1485.5C 1138.5,1485.17 1138.5,1484.83 1138.5,1484.5C 1142.94,1472.84 1146.61,1460.84 1149.5,1448.5C 1152.26,1440.37 1154.76,1432.04 1157,1423.5C 1163.77,1445.3 1170.6,1466.97 1177.5,1488.5 Z"/></g>
<g><path style="opacity:0.991" fill="#fefefe" d="M 410.5,1423.5 C 388.758,1423.82 367.091,1423.49 345.5,1422.5C 343.516,1437.8 342.849,1453.46 343.5,1469.5C 364.167,1469.5 384.833,1469.5 405.5,1469.5C 405.5,1479.83 405.5,1490.17 405.5,1500.5C 384.924,1500.17 364.424,1500.51 344,1501.5C 343.5,1525.5 343.333,1549.5 343.5,1573.5C 331.167,1573.5 318.833,1573.5 306.5,1573.5C 306.5,1512.5 306.5,1451.5 306.5,1390.5C 341.167,1390.5 375.833,1390.5 410.5,1390.5C 410.5,1401.5 410.5,1412.5 410.5,1423.5 Z"/></g>
<g><path style="opacity:0.989" fill="#fefefe" d="M 551.5,1423.5 C 530.167,1423.5 508.833,1423.5 487.5,1423.5C 487.44,1422.96 487.107,1422.62 486.5,1422.5C 485.501,1435.82 485.167,1449.15 485.5,1462.5C 506.167,1462.5 526.833,1462.5 547.5,1462.5C 547.5,1473.17 547.5,1483.83 547.5,1494.5C 527.5,1494.5 507.5,1494.5 487.5,1494.5C 485.516,1509.8 484.849,1525.46 485.5,1541.5C 507.5,1541.5 529.5,1541.5 551.5,1541.5C 551.5,1552.17 551.5,1562.83 551.5,1573.5C 516.833,1573.5 482.167,1573.5 447.5,1573.5C 447.5,1512.83 447.5,1452.17 447.5,1391.5C 482.167,1391.5 516.833,1391.5 551.5,1391.5C 551.5,1402.17 551.5,1412.83 551.5,1423.5 Z"/></g>
<g><path style="opacity:0.99" fill="#fefefe" d="M 884.5,1423.5 C 863.167,1423.5 841.833,1423.5 820.5,1423.5C 820.44,1422.96 820.107,1422.62 819.5,1422.5C 818.501,1435.82 818.167,1449.15 818.5,1462.5C 839.167,1462.5 859.833,1462.5 880.5,1462.5C 880.5,1473.17 880.5,1483.83 880.5,1494.5C 860.5,1494.5 840.5,1494.5 820.5,1494.5C 818.516,1509.8 817.849,1525.46 818.5,1541.5C 840.5,1541.5 862.5,1541.5 884.5,1541.5C 884.5,1552.17 884.5,1562.83 884.5,1573.5C 849.833,1573.5 815.167,1573.5 780.5,1573.5C 780.5,1512.83 780.5,1452.17 780.5,1391.5C 815.167,1391.5 849.833,1391.5 884.5,1391.5C 884.5,1402.17 884.5,1412.83 884.5,1423.5 Z"/></g>
<g><path style="opacity:0.121" fill="#d8d8d8" d="M 1382.5,1573.5 C 1382.5,1562.83 1382.5,1552.17 1382.5,1541.5C 1357.5,1541.5 1332.5,1541.5 1307.5,1541.5C 1307.5,1491.17 1307.5,1440.83 1307.5,1390.5C 1294.83,1390.5 1282.17,1390.5 1269.5,1390.5C 1269.5,1451.5 1269.5,1512.5 1269.5,1573.5C 1267.5,1512.51 1266.84,1451.18 1267.5,1389.5C 1281.5,1389.5 1295.5,1389.5 1309.5,1389.5C 1309.5,1439.83 1309.5,1490.17 1309.5,1540.5C 1334.17,1540.5 1358.83,1540.5 1383.5,1540.5C 1383.83,1551.68 1383.49,1562.68 1382.5,1573.5 Z"/></g>
<g><path style="opacity:0.996" fill="#fefefe" d="M 1382.5,1573.5 C 1344.83,1573.5 1307.17,1573.5 1269.5,1573.5C 1269.5,1512.5 1269.5,1451.5 1269.5,1390.5C 1282.17,1390.5 1294.83,1390.5 1307.5,1390.5C 1307.5,1440.83 1307.5,1491.17 1307.5,1541.5C 1332.5,1541.5 1357.5,1541.5 1382.5,1541.5C 1382.5,1552.17 1382.5,1562.83 1382.5,1573.5 Z"/></g>
<g><path style="opacity:0.369" fill="#d7d7d7" d="M 1187.5,1404.5 C 1193.6,1419.12 1198.93,1434.12 1203.5,1449.5C 1202.25,1449.42 1201.42,1448.76 1201,1447.5C 1196.07,1433.54 1191.23,1419.54 1186.5,1405.5C 1186.62,1404.89 1186.96,1404.56 1187.5,1404.5 Z"/></g>
<g><path style="opacity:0.122" fill="#d6d6d6" d="M 1029.5,1401.5 C 1040.07,1407.42 1046.41,1416.42 1048.5,1428.5C 1047.5,1428.53 1046.84,1428.03 1046.5,1427C 1044.94,1421.05 1042.44,1415.55 1039,1410.5C 1036.62,1407.73 1033.78,1405.56 1030.5,1404C 1029.75,1403.33 1029.41,1402.5 1029.5,1401.5 Z"/></g>
<g><path style="opacity:0.565" fill="#d9d9d9" d="M 1126.5,1405.5 C 1127.04,1405.56 1127.38,1405.89 1127.5,1406.5C 1124.57,1414.8 1121.73,1423.13 1119,1431.5C 1118.58,1432.76 1117.75,1433.42 1116.5,1433.5C 1119.26,1423.88 1122.6,1414.54 1126.5,1405.5 Z"/></g>
<g><path style="opacity:0.474" fill="#d1d1d1" d="M 963.5,1423.5 C 963.5,1439.17 963.5,1454.83 963.5,1470.5C 968.167,1470.5 972.833,1470.5 977.5,1470.5C 972.36,1471.49 967.026,1471.82 961.5,1471.5C 961.167,1455.15 961.501,1438.82 962.5,1422.5C 963.107,1422.62 963.44,1422.96 963.5,1423.5 Z"/></g>
<g><path style="opacity:0.203" fill="#cacaca" d="M 630.5,1423.5 C 630.5,1462.5 630.5,1501.5 630.5,1540.5C 629.167,1521.18 628.5,1501.51 628.5,1481.5C 628.833,1461.83 629.167,1442.17 629.5,1422.5C 630.107,1422.62 630.44,1422.96 630.5,1423.5 Z"/></g>
<g><path style="opacity:0.2" fill="#d8d8d8" d="M 715.5,1411.5 C 720.102,1414.27 723.936,1417.93 727,1422.5C 731.591,1429.68 735.091,1437.35 737.5,1445.5C 736.624,1445.63 735.957,1445.3 735.5,1444.5C 731.067,1431.93 724.4,1420.93 715.5,1411.5 Z"/></g>
<g><path style="opacity:0.67" fill="#d8d8d8" d="M 487.5,1423.5 C 487.5,1436.17 487.5,1448.83 487.5,1461.5C 508.167,1461.5 528.833,1461.5 549.5,1461.5C 550.144,1472.88 549.477,1483.88 547.5,1494.5C 547.5,1483.83 547.5,1473.17 547.5,1462.5C 526.833,1462.5 506.167,1462.5 485.5,1462.5C 485.167,1449.15 485.501,1435.82 486.5,1422.5C 487.107,1422.62 487.44,1422.96 487.5,1423.5 Z"/></g>
<g><path style="opacity:0.667" fill="#dadada" d="M 820.5,1423.5 C 820.5,1436.17 820.5,1448.83 820.5,1461.5C 841.167,1461.5 861.833,1461.5 882.5,1461.5C 883.144,1472.88 882.477,1483.88 880.5,1494.5C 880.5,1483.83 880.5,1473.17 880.5,1462.5C 859.833,1462.5 839.167,1462.5 818.5,1462.5C 818.167,1449.15 818.501,1435.82 819.5,1422.5C 820.107,1422.62 820.44,1422.96 820.5,1423.5 Z"/></g>
<g><path style="opacity:0.388" fill="#d4d4d4" d="M 1048.5,1459.5 C 1047.02,1466.13 1044.18,1472.13 1040,1477.5C 1037.89,1480.12 1035.39,1482.12 1032.5,1483.5C 1034.13,1481.37 1035.96,1479.37 1038,1477.5C 1041.47,1471.27 1044.97,1465.27 1048.5,1459.5 Z"/></g>
<g><path style="opacity:0.239" fill="#dadada" d="M 1149.5,1448.5 C 1146.61,1460.84 1142.94,1472.84 1138.5,1484.5C 1137.9,1484.26 1137.57,1483.76 1137.5,1483C 1140.87,1472.56 1144.04,1462.06 1147,1451.5C 1147.24,1449.88 1148.07,1448.88 1149.5,1448.5 Z"/></g>
<g><path style="opacity:0.606" fill="#d8d8d8" d="M 1138.5,1485.5 C 1138,1488.83 1137,1492 1135.5,1495C 1150.17,1495.67 1164.83,1495.67 1179.5,1495C 1178.33,1492.99 1177.66,1490.83 1177.5,1488.5C 1179.96,1490.82 1181.29,1493.82 1181.5,1497.5C 1165.5,1497.5 1149.5,1497.5 1133.5,1497.5C 1134.04,1492.84 1135.71,1488.84 1138.5,1485.5 Z"/></g>
<g><path style="opacity:0.576" fill="#dadada" d="M 1205.5,1456.5 C 1214.07,1478.87 1222.07,1501.53 1229.5,1524.5C 1227.72,1523.43 1226.55,1521.76 1226,1519.5C 1218.93,1498.8 1211.77,1478.13 1204.5,1457.5C 1204.62,1456.89 1204.96,1456.56 1205.5,1456.5 Z"/></g>
<g><path style="opacity:0.365" fill="#e3e3e3" d="M 345.5,1422.5 C 345.5,1437.83 345.5,1453.17 345.5,1468.5C 366.167,1468.5 386.833,1468.5 407.5,1468.5C 407.821,1479.75 407.487,1490.91 406.5,1502C 386.26,1502.83 366.094,1502.66 346,1501.5C 346.159,1525.85 345.326,1549.85 343.5,1573.5C 343.333,1549.5 343.5,1525.5 344,1501.5C 364.424,1500.51 384.924,1500.17 405.5,1500.5C 405.5,1490.17 405.5,1479.83 405.5,1469.5C 384.833,1469.5 364.167,1469.5 343.5,1469.5C 342.849,1453.46 343.516,1437.8 345.5,1422.5 Z"/></g>
<g><path style="opacity:0.472" fill="#d5d5d5" d="M 985.5,1509.5 C 984.035,1508.59 983.035,1507.26 982.5,1505.5C 976.202,1504.5 969.868,1504.17 963.5,1504.5C 964.156,1527.86 963.49,1550.86 961.5,1573.5C 961.5,1549.83 961.5,1526.17 961.5,1502.5C 968.508,1502.33 975.508,1502.5 982.5,1503C 984.451,1504.73 985.451,1506.9 985.5,1509.5 Z"/></g>
<g><path style="opacity:0.075" fill="#cccccc" d="M 1192.5,1540.5 C 1191.52,1537.95 1190.52,1535.28 1189.5,1532.5C 1167.84,1531.5 1146.18,1531.17 1124.5,1531.5C 1123.96,1531.44 1123.62,1531.11 1123.5,1530.5C 1145.83,1529.33 1168.16,1529.17 1190.5,1530C 1192.58,1533.36 1193.25,1536.86 1192.5,1540.5 Z"/></g>
<g><path style="opacity:0.067" fill="#d7d7d7" d="M 1019.5,1498.5 C 1033.61,1517.61 1046.94,1537.28 1059.5,1557.5C 1058.28,1556.97 1057.11,1556.31 1056,1555.5C 1043.58,1536.6 1031.42,1517.6 1019.5,1498.5 Z"/></g>
<g><path style="opacity:0.42" fill="#dbdbdb" d="M 689.5,1521.5 C 689.649,1522.55 689.483,1523.55 689,1524.5C 682.58,1532.13 674.413,1536.8 664.5,1538.5C 670.696,1535.73 676.696,1532.4 682.5,1528.5C 685.068,1526.33 687.401,1523.99 689.5,1521.5 Z"/></g>
<g><path style="opacity:0.357" fill="#d5d5d5" d="M 735.5,1521.5 C 732.107,1532.99 725.774,1542.32 716.5,1549.5C 723.405,1541.37 729.071,1532.37 733.5,1522.5C 733.957,1521.7 734.624,1521.37 735.5,1521.5 Z"/></g>
<g><path style="opacity:0.681" fill="#dfdfdf" d="M 487.5,1494.5 C 487.5,1509.83 487.5,1525.17 487.5,1540.5C 509.5,1540.5 531.5,1540.5 553.5,1540.5C 554.144,1551.88 553.477,1562.88 551.5,1573.5C 551.5,1562.83 551.5,1552.17 551.5,1541.5C 529.5,1541.5 507.5,1541.5 485.5,1541.5C 484.849,1525.46 485.516,1509.8 487.5,1494.5 Z"/></g>
<g><path style="opacity:0.678" fill="#e0e0e0" d="M 820.5,1494.5 C 820.5,1509.83 820.5,1525.17 820.5,1540.5C 842.5,1540.5 864.5,1540.5 886.5,1540.5C 887.144,1551.88 886.477,1562.88 884.5,1573.5C 884.5,1562.83 884.5,1552.17 884.5,1541.5C 862.5,1541.5 840.5,1541.5 818.5,1541.5C 817.849,1525.46 818.516,1509.8 820.5,1494.5 Z"/></g>
<g><path style="opacity:0.285" fill="#c6c6c6" d="M 1112.5,1572.5 C 1098.18,1573.83 1083.52,1574.5 1068.5,1574.5C 1053.66,1574.5 1039,1574.17 1024.5,1573.5C 1053.88,1573.82 1083.21,1573.48 1112.5,1572.5 Z"/></g>
<g><path style="opacity:0.976" fill="#fbfbfb" d="M 849.5,1696.5 C 848.371,1698.63 848.204,1700.96 849,1703.5C 851.825,1700.04 854.991,1696.88 858.5,1694C 864.893,1691.02 871.226,1688.52 877.5,1686.5C 889.286,1684.64 899.953,1687.14 909.5,1694C 915.479,1699.12 918.979,1705.62 920,1713.5C 920.5,1740.16 920.667,1766.83 920.5,1793.5C 914.833,1793.5 909.167,1793.5 903.5,1793.5C 903.953,1767.79 903.453,1742.12 902,1716.5C 898.471,1706.06 891.138,1701.39 880,1702.5C 867.279,1701.69 858.279,1707.02 853,1718.5C 851.202,1723.68 850.202,1729.01 850,1734.5C 849.5,1754.16 849.333,1773.83 849.5,1793.5C 843.833,1793.5 838.167,1793.5 832.5,1793.5C 832.5,1743.83 832.5,1694.17 832.5,1644.5C 838.167,1644.5 843.833,1644.5 849.5,1644.5C 849.5,1661.83 849.5,1679.17 849.5,1696.5 Z"/></g>
<g><path style="opacity:0.983" fill="#f4f4f4" d="M 957.5,1649.5 C 969.679,1650.42 973.512,1656.75 969,1668.5C 965.606,1673.08 961.106,1674.58 955.5,1673C 953,1671.83 951.167,1670 950,1667.5C 949.333,1663.17 949.333,1658.83 950,1654.5C 951.913,1651.72 954.413,1650.05 957.5,1649.5 Z"/></g>
<g><path style="opacity:0.19" fill="#c4c4c4" d="M 653.5,1654.5 C 636.5,1654.5 619.5,1654.5 602.5,1654.5C 602.5,1700.83 602.5,1747.17 602.5,1793.5C 601.501,1747 601.168,1700.34 601.5,1653.5C 619.008,1653.17 636.341,1653.5 653.5,1654.5 Z"/></g>
<g><path style="opacity:0.989" fill="#fbfbfb" d="M 653.5,1654.5 C 657.234,1654.32 660.901,1654.66 664.5,1655.5C 671.119,1658.34 677.785,1661.51 684.5,1665C 686.618,1668.95 689.285,1672.45 692.5,1675.5C 696.032,1687.22 694.866,1698.56 689,1709.5C 684.108,1715.2 677.941,1718.7 670.5,1720C 689.601,1723.05 699.268,1734.22 699.5,1753.5C 698.632,1776.2 686.966,1789.37 664.5,1793C 643.836,1793.5 623.169,1793.67 602.5,1793.5C 602.5,1747.17 602.5,1700.83 602.5,1654.5C 619.5,1654.5 636.5,1654.5 653.5,1654.5 Z M 651.5,1670.5 C 673.328,1672.18 680.495,1683.18 673,1703.5C 668.931,1708.29 663.764,1711.12 657.5,1712C 644.866,1713.26 632.199,1713.76 619.5,1713.5C 620.482,1699.25 620.816,1684.91 620.5,1670.5C 630.833,1670.5 641.167,1670.5 651.5,1670.5 Z M 653.5,1728.5 C 676.205,1730.69 684.371,1742.69 678,1764.5C 676.623,1766.75 675.123,1768.92 673.5,1771C 667.279,1774.46 660.613,1776.63 653.5,1777.5C 642.5,1777.5 631.5,1777.5 620.5,1777.5C 620.825,1761.26 620.491,1745.09 619.5,1729C 630.828,1728.5 642.162,1728.33 653.5,1728.5 Z"/></g>
<g><path style="opacity:0.575" fill="#d7d7d7" d="M 664.5,1655.5 C 675.685,1656.51 684.519,1661.51 691,1670.5C 691.608,1672.15 692.108,1673.82 692.5,1675.5C 689.285,1672.45 686.618,1668.95 684.5,1665C 677.785,1661.51 671.119,1658.34 664.5,1655.5 Z"/></g>
<g><path style="opacity:0.332" fill="#dedede" d="M 651.5,1670.5 C 641.167,1670.5 630.833,1670.5 620.5,1670.5C 620.816,1684.91 620.482,1699.25 619.5,1713.5C 618.504,1698.68 618.171,1683.68 618.5,1668.5C 629.884,1667.86 640.884,1668.52 651.5,1670.5 Z"/></g>
<g><path style="opacity:0.987" fill="#f8f8f8" d="M 739.5,1707.5 C 737.5,1707.5 735.5,1707.5 733.5,1707.5C 732.519,1704.19 731.519,1700.86 730.5,1697.5C 733.671,1695.34 736.671,1693.01 739.5,1690.5C 751.515,1686.7 763.848,1685.54 776.5,1687C 790.546,1689.38 799.046,1697.55 802,1711.5C 802.5,1738.83 802.667,1766.16 802.5,1793.5C 797.821,1793.67 793.155,1793.5 788.5,1793C 787.335,1789.18 786.168,1785.35 785,1781.5C 772.862,1794.25 758.029,1798.75 740.5,1795C 720.134,1788.45 712.634,1774.62 718,1753.5C 722.179,1744.48 729.013,1738.31 738.5,1735C 742.123,1733.84 745.789,1732.84 749.5,1732C 761.14,1730.8 772.807,1729.97 784.5,1729.5C 787.091,1712.95 780.258,1703.62 764,1701.5C 755.567,1702.48 747.4,1704.48 739.5,1707.5 Z M 779.5,1743.5 C 781.167,1743.5 782.833,1743.5 784.5,1743.5C 785.896,1772.27 772.562,1784.1 744.5,1779C 738.838,1775.84 736.172,1771.01 736.5,1764.5C 736.297,1760.59 737.13,1756.92 739,1753.5C 742.597,1750.9 746.43,1748.73 750.5,1747C 760.244,1745.25 769.911,1744.08 779.5,1743.5 Z"/></g>
<g><path style="opacity:0.988" fill="#f8f8f8" d="M 1027.5,1686.5 C 1035.51,1686.33 1043.51,1686.5 1051.5,1687C 1064.96,1689.79 1073.13,1697.96 1076,1711.5C 1076.5,1738.83 1076.67,1766.16 1076.5,1793.5C 1072.15,1793.67 1067.82,1793.5 1063.5,1793C 1062.21,1788.9 1061.04,1784.73 1060,1780.5C 1055.26,1786.9 1049.09,1791.4 1041.5,1794C 1032.89,1795.51 1024.22,1795.84 1015.5,1795C 999.668,1791.36 991.668,1781.36 991.5,1765C 991.356,1749.94 998.356,1739.94 1012.5,1735C 1016.42,1733.69 1020.42,1732.69 1024.5,1732C 1036.14,1730.8 1047.81,1729.97 1059.5,1729.5C 1062.14,1712.4 1054.97,1703.06 1038,1701.5C 1033.46,1702.15 1028.96,1702.98 1024.5,1704C 1018.96,1706.35 1013.3,1708.18 1007.5,1709.5C 1006.63,1706.09 1005.47,1702.76 1004,1699.5C 1003.2,1697.74 1003.37,1696.07 1004.5,1694.5C 1011.98,1690.91 1019.65,1688.24 1027.5,1686.5 Z M 1053.5,1743.5 C 1055.5,1743.5 1057.5,1743.5 1059.5,1743.5C 1060.05,1772.13 1046.38,1783.96 1018.5,1779C 1012.84,1775.84 1010.17,1771.01 1010.5,1764.5C 1010.93,1754.89 1015.93,1749.06 1025.5,1747C 1034.91,1745.27 1044.24,1744.1 1053.5,1743.5 Z"/></g>
<g><path style="opacity:0.514" fill="#e5e5e5" d="M 968.5,1689.5 C 963.167,1689.5 957.833,1689.5 952.5,1689.5C 952.5,1724.17 952.5,1758.83 952.5,1793.5C 951.167,1776.35 950.5,1758.85 950.5,1741C 950.667,1723.5 950.833,1706 951,1688.5C 953.914,1687.86 956.914,1687.52 960,1687.5C 963.252,1687.52 966.085,1688.19 968.5,1689.5 Z"/></g>
<g><path style="opacity:0.939" fill="#fefefe" d="M 968.5,1689.5 C 968.5,1724.17 968.5,1758.83 968.5,1793.5C 963.167,1793.5 957.833,1793.5 952.5,1793.5C 952.5,1758.83 952.5,1724.17 952.5,1689.5C 957.833,1689.5 963.167,1689.5 968.5,1689.5 Z"/></g>
<g><path style="opacity:0.404" fill="#d9d9d9" d="M 877.5,1686.5 C 871.226,1688.52 864.893,1691.02 858.5,1694C 854.991,1696.88 851.825,1700.04 849,1703.5C 848.204,1700.96 848.371,1698.63 849.5,1696.5C 849.343,1697.87 849.51,1699.21 850,1700.5C 856.868,1691.48 866.035,1686.82 877.5,1686.5 Z"/></g>
<g><path style="opacity:0.245" fill="#d3d3d3" d="M 739.5,1690.5 C 736.671,1693.01 733.671,1695.34 730.5,1697.5C 731.519,1700.86 732.519,1704.19 733.5,1707.5C 735.5,1707.5 737.5,1707.5 739.5,1707.5C 737.562,1709.16 735.228,1709.83 732.5,1709.5C 730.796,1704.9 729.629,1700.24 729,1695.5C 732.172,1693.16 735.672,1691.5 739.5,1690.5 Z"/></g>
<g><path style="opacity:0.357" fill="#e7e7e7" d="M 653.5,1728.5 C 642.162,1728.33 630.828,1728.5 619.5,1729C 620.491,1745.09 620.825,1761.26 620.5,1777.5C 631.5,1777.5 642.5,1777.5 653.5,1777.5C 642.215,1779.48 630.548,1780.15 618.5,1779.5C 618.5,1761.83 618.5,1744.17 618.5,1726.5C 630.548,1725.85 642.215,1726.52 653.5,1728.5 Z"/></g>
</svg>
