<?xml version="1.0" encoding="UTF-8"?>
<!DOCTYPE svg PUBLIC "-//W3C//DTD SVG 1.1//EN" "http://www.w3.org/Graphics/SVG/1.1/DTD/svg11.dtd">
<svg xmlns="http://www.w3.org/2000/svg" version="1.1" width="2875px" height="720px" style="shape-rendering:geometricPrecision; text-rendering:geometricPrecision; image-rendering:optimizeQuality; fill-rule:evenodd; clip-rule:evenodd" xmlns:xlink="http://www.w3.org/1999/xlink">
<g><path style="opacity:0.876" fill="#fefefe" d="M 208.5,-0.5 C 216.167,-0.5 223.833,-0.5 231.5,-0.5C 234.87,0.408521 238.203,1.74185 241.5,3.5C 243.56,5.76693 245.893,7.76693 248.5,9.5C 250.033,11.289 251.033,13.289 251.5,15.5C 252.5,15.5 253.5,15.5 254.5,15.5C 255.136,19.5866 256.636,23.2533 259,26.5C 259.2,32.367 260.034,37.367 261.5,41.5C 260.282,50.0272 258.449,59.0272 256,68.5C 255.667,68.1667 255.333,67.8333 255,67.5C 249.084,86.917 241.251,104.917 231.5,121.5C 229.393,124.448 227.06,127.281 224.5,130C 221.833,130.667 219.167,130.667 216.5,130C 212.971,126.482 209.971,122.482 207.5,118C 203.641,109.887 199.475,102.054 195,94.5C 194.667,92.8333 194.333,91.1667 194,89.5C 193.667,89.8333 193.333,90.1667 193,90.5C 192.814,88.0995 192.314,85.7662 191.5,83.5C 189.869,81.9412 189.036,79.9412 189,77.5C 188.667,77.8333 188.333,78.1667 188,78.5C 187.316,73.7636 186.316,69.0969 185,64.5C 184.586,64.0426 184.086,63.7093 183.5,63.5C 182.676,60.2152 182.176,56.8818 182,53.5C 181.667,53.8333 181.333,54.1667 181,54.5C 179.887,43.6615 180.72,32.9948 183.5,22.5C 186.29,17.2315 189.29,12.2315 192.5,7.5C 197.536,4.1357 202.87,1.46903 208.5,-0.5 Z"/></g>
<g><path style="opacity:0.927" fill="#fefefe" d="M -0.5,400.5 C -0.5,397.167 -0.5,393.833 -0.5,390.5C 3.84615,371.562 7.34615,352.228 10,332.5C 10.6667,331.833 11.3333,331.167 12,330.5C 12.8682,322.826 14.0348,315.159 15.5,307.5C 16.086,307.291 16.586,306.957 17,306.5C 17.3333,302.5 17.6667,298.5 18,294.5C 18.3333,294.833 18.6667,295.167 19,295.5C 19.0372,290.27 20.0372,285.27 22,280.5C 24.9099,262.086 28.2432,243.086 32,223.5C 32.6667,222.833 33.3333,222.167 34,221.5C 34.9493,213.804 36.1159,206.137 37.5,198.5C 38.086,198.291 38.586,197.957 39,197.5C 40.2011,189.526 41.2011,181.526 42,173.5C 42.3333,173.833 42.6667,174.167 43,174.5C 45.4224,162.633 47.4224,150.633 49,138.5C 49.414,138.043 49.914,137.709 50.5,137.5C 51.8333,129.5 53.1667,121.5 54.5,113.5C 55.086,113.291 55.586,112.957 56,112.5C 58.9412,92.226 62.2745,72.8927 66,54.5C 66.6667,53.8333 67.3333,53.1667 68,52.5C 68.3333,48.5 68.6667,44.5 69,40.5C 69.3333,40.8333 69.6667,41.1667 70,41.5C 72.0199,31.2231 74.1866,20.8898 76.5,10.5C 79.438,9.42517 82.438,9.2585 85.5,10C 87.4196,12.4645 89.2529,14.9645 91,17.5C 134.567,95.0005 178.567,171.334 223,246.5C 223.833,247.5 224.667,248.5 225.5,249.5C 227.275,244.819 229.608,240.486 232.5,236.5C 233.452,234.955 233.785,233.288 233.5,231.5C 234.5,231.5 235.5,231.5 236.5,231.5C 238.473,225.27 240.973,219.27 244,213.5C 244.333,213.833 244.667,214.167 245,214.5C 267.159,172.006 289.826,130.34 313,89.5C 315.172,84.4814 317.839,79.8148 321,75.5C 322.383,72.6318 323.216,69.6318 323.5,66.5C 324.5,66.5 325.5,66.5 326.5,66.5C 327.258,63.5127 328.091,60.5127 329,57.5C 329.333,57.8333 329.667,58.1667 330,58.5C 337.752,42.8271 346.419,26.8271 356,10.5C 360.406,8.8003 364.406,9.46697 368,12.5C 368.783,19.8639 369.783,27.1973 371,34.5C 371.308,35.3081 371.808,35.9747 372.5,36.5C 375.723,52.3623 378.723,68.3623 381.5,84.5C 382.086,84.7093 382.586,85.0426 383,85.5C 386.518,104.789 389.851,124.122 393,143.5C 393.414,143.957 393.914,144.291 394.5,144.5C 395.833,152.5 397.167,160.5 398.5,168.5C 399.086,168.709 399.586,169.043 400,169.5C 400.333,173.5 400.667,177.5 401,181.5C 401.333,181.167 401.667,180.833 402,180.5C 403.155,188.883 404.489,197.217 406,205.5C 406.333,205.167 406.667,204.833 407,204.5C 407.81,212.951 409.143,221.284 411,229.5C 411.333,229.167 411.667,228.833 412,228.5C 412.891,236.181 413.891,243.848 415,251.5C 415.667,252.167 416.333,252.833 417,253.5C 420.593,273.487 424.26,293.487 428,313.5C 428.333,313.167 428.667,312.833 429,312.5C 430,320.5 431,328.5 432,336.5C 432.414,336.957 432.914,337.291 433.5,337.5C 434.965,345.159 436.132,352.826 437,360.5C 437.667,361.167 438.333,361.833 439,362.5C 439.333,366.167 439.667,369.833 440,373.5C 440.333,373.167 440.667,372.833 441,372.5C 442.725,381.357 443.725,390.357 444,399.5C 414.667,400.833 385.333,400.833 356,399.5C 355.981,396.692 354.981,394.359 353,392.5C 352.667,388.5 352.333,384.5 352,380.5C 351.667,380.833 351.333,381.167 351,381.5C 350.828,376.798 350.328,372.132 349.5,367.5C 346.325,355.8 344.158,343.134 343,329.5C 342.586,329.043 342.086,328.709 341.5,328.5C 340.167,319.833 338.833,311.167 337.5,302.5C 336.914,302.291 336.414,301.957 336,301.5C 332.506,279.042 328.839,257.375 325,236.5C 304.617,273.4 285.617,308.734 268,342.5C 267.667,342.167 267.333,341.833 267,341.5C 261.222,354.288 254.555,366.621 247,378.5C 245.766,381.42 244.766,384.42 244,387.5C 243.667,387.167 243.333,386.833 243,386.5C 241.14,389.623 239.807,392.957 239,396.5C 238.667,396.167 238.333,395.833 238,395.5C 237.755,397.663 236.755,399.33 235,400.5C 233.617,403.368 232.784,406.368 232.5,409.5C 231.5,409.5 230.5,409.5 229.5,409.5C 229.5,411.167 229.5,412.833 229.5,414.5C 225.233,414.797 221.066,414.464 217,413.5C 209.293,399.411 201.626,385.411 194,371.5C 193.667,371.833 193.333,372.167 193,372.5C 187.923,362.012 182.589,351.678 177,341.5C 176.667,341.833 176.333,342.167 176,342.5C 173.01,336.512 170.01,330.512 167,324.5C 166.667,324.833 166.333,325.167 166,325.5C 165,322.833 164,320.167 163,317.5C 153.617,302.97 145.283,288.636 138,274.5C 137.667,274.833 137.333,275.167 137,275.5C 136.798,273.744 136.298,272.078 135.5,270.5C 130.111,262.087 125.278,253.42 121,244.5C 120.667,244.833 120.333,245.167 120,245.5C 117.696,241.079 115.696,236.745 114,232.5C 113.667,236.5 113.333,240.5 113,244.5C 112.333,245.167 111.667,245.833 111,246.5C 107.94,263.399 105.273,280.399 103,297.5C 102.667,297.167 102.333,296.833 102,296.5C 99.4944,309.765 97.4944,322.432 96,334.5C 95.3333,335.167 94.6667,335.833 94,336.5C 93,344.5 92,352.5 91,360.5C 90.3333,361.167 89.6667,361.833 89,362.5C 87.8994,370.821 86.8994,379.154 86,387.5C 84.984,386.366 84.3173,386.699 84,388.5C 83.6667,392.167 83.3333,395.833 83,399.5C 55.2407,400.495 27.4073,400.828 -0.5,400.5 Z"/></g>
<g><path style="opacity:0.925" fill="#fefefe" d="M 1763.5,9.5 C 1766.51,9.7196 1768.85,11.0529 1770.5,13.5C 1789.19,51.8311 1807.02,89.1645 1824,125.5C 1824.33,125.167 1824.67,124.833 1825,124.5C 1826.15,127.779 1826.98,131.113 1827.5,134.5C 1828.5,134.5 1829.5,134.5 1830.5,134.5C 1830.89,137.983 1831.89,141.316 1833.5,144.5C 1836.49,149.545 1838.99,154.878 1841,160.5C 1841.33,160.167 1841.67,159.833 1842,159.5C 1844.15,166.338 1846.82,173.005 1850,179.5C 1852.33,183.5 1854.67,187.5 1857,191.5C 1861.56,201.075 1865.9,210.742 1870,220.5C 1870.33,220.167 1870.67,219.833 1871,219.5C 1878.29,237.262 1886.79,255.096 1896.5,273C 1895.4,274.131 1895.73,274.965 1897.5,275.5C 1912.79,307.68 1927.96,339.68 1943,371.5C 1943.33,371.167 1943.67,370.833 1944,370.5C 1944.87,374.356 1946.2,378.023 1948,381.5C 1948.33,381.167 1948.67,380.833 1949,380.5C 1950.54,385.627 1952.38,390.627 1954.5,395.5C 1954.45,397.1 1954.12,398.6 1953.5,400C 1921.5,400.667 1889.5,400.667 1857.5,400C 1850.41,384.496 1843.91,369.329 1838,354.5C 1837.67,354.833 1837.33,355.167 1837,355.5C 1836.46,352.375 1835.62,349.375 1834.5,346.5C 1785.17,346.5 1735.83,346.5 1686.5,346.5C 1678.65,364.197 1670.98,382.03 1663.5,400C 1632.17,400.5 1600.84,400.667 1569.5,400.5C 1569.27,395.902 1570.11,391.568 1572,387.5C 1572.33,387.833 1572.67,388.167 1573,388.5C 1584.21,363.895 1596.04,340.395 1608.5,318C 1608.17,317.667 1607.83,317.333 1607.5,317C 1610.78,311.281 1613.61,305.448 1616,299.5C 1616.33,299.833 1616.67,300.167 1617,300.5C 1621.08,290.131 1625.91,280.131 1631.5,270.5C 1633.11,267.316 1634.11,263.983 1634.5,260.5C 1635.5,260.5 1636.5,260.5 1637.5,260.5C 1638.02,257.113 1638.85,253.779 1640,250.5C 1640.33,250.833 1640.67,251.167 1641,251.5C 1642.85,247.996 1644.18,244.33 1645,240.5C 1645.33,240.833 1645.67,241.167 1646,241.5C 1670.46,190.103 1695.62,139.103 1721.5,88.5C 1723.11,85.3161 1724.11,81.9828 1724.5,78.5C 1725.5,78.5 1726.5,78.5 1727.5,78.5C 1728.02,75.1127 1728.85,71.7794 1730,68.5C 1730.33,68.8333 1730.67,69.1667 1731,69.5C 1739.88,50.7299 1749.38,31.3966 1759.5,11.5C 1760.95,10.8281 1762.28,10.1614 1763.5,9.5 Z M 1759.5,169.5 C 1760.12,169.611 1760.62,169.944 1761,170.5C 1763.69,178.177 1766.35,185.843 1769,193.5C 1769.33,193.167 1769.67,192.833 1770,192.5C 1771.33,196.831 1772.66,201.164 1774,205.5C 1774.33,205.167 1774.67,204.833 1775,204.5C 1780.62,218.264 1785.96,232.264 1791,246.5C 1791.33,246.167 1791.67,245.833 1792,245.5C 1792.05,248.329 1793.05,250.663 1795,252.5C 1795.33,254.5 1795.67,256.5 1796,258.5C 1796.33,258.167 1796.67,257.833 1797,257.5C 1799.34,263.282 1801.51,269.282 1803.5,275.5C 1804.31,275.808 1804.97,276.308 1805.5,277C 1775.49,277.833 1745.49,277.667 1715.5,276.5C 1729.61,242.622 1743.95,208.956 1758.5,175.5C 1759.47,173.604 1759.8,171.604 1759.5,169.5 Z"/></g>
<g><path style="opacity:0.937" fill="#fefefe" d="M 490.5,22.5 C 521.167,22.5 551.833,22.5 582.5,22.5C 582.333,93.1675 582.5,163.834 583,234.5C 584.585,248.51 586.251,261.844 588,274.5C 588.333,274.167 588.667,273.833 589,273.5C 589.333,275.833 589.667,278.167 590,280.5C 591.844,285.117 593.511,289.117 595,292.5C 599.399,300.796 605.232,307.963 612.5,314C 617.165,315.873 621.165,318.206 624.5,321C 631.025,322.211 637.358,323.878 643.5,326C 650.5,326.667 657.5,326.667 664.5,326C 664.957,325.586 665.291,325.086 665.5,324.5C 669.459,323.673 673.459,323.173 677.5,323C 702.035,313.754 716.702,294.92 721.5,266.5C 722.333,186.169 722.833,105.835 723,25.5C 723.692,24.9747 724.192,24.3081 724.5,23.5C 752.492,22.5002 780.492,22.1669 808.5,22.5C 808.667,104.501 808.5,186.501 808,268.5C 807.667,268.167 807.333,267.833 807,267.5C 805.504,287.808 801.004,307.475 793.5,326.5C 790.582,332.267 787.249,338.6 783.5,345.5C 777.874,352.939 772.54,360.606 767.5,368.5C 764.5,368.833 762.833,370.5 762.5,373.5C 752.879,380.916 742.879,387.916 732.5,394.5C 730.922,395.298 729.256,395.798 727.5,396C 727.833,396.333 728.167,396.667 728.5,397C 721.962,399.748 715.296,402.415 708.5,405C 670.012,414.944 630.678,414.944 590.5,405C 586.03,402.953 581.363,401.286 576.5,400C 570.18,396.682 563.847,393.516 557.5,390.5C 557.5,389.5 557.5,388.5 557.5,387.5C 554.845,387.341 552.512,386.341 550.5,384.5C 535.391,373.579 523.558,359.913 515,343.5C 514.667,343.833 514.333,344.167 514,344.5C 508.878,333.016 503.878,321.682 499,310.5C 497.591,304.437 495.925,297.77 494,290.5C 492.093,278.678 490.926,266.011 490.5,252.5C 489.17,175.765 489.17,99.0987 490.5,22.5 Z"/></g>
<g><path style="opacity:0.937" fill="#fefefe" d="M 885.5,22.5 C 916.507,22.1668 947.507,22.5002 978.5,23.5C 979.331,120.793 979.831,218.126 980,315.5C 1027.76,314.336 1075.6,314.17 1123.5,315C 1124.19,316.067 1124.69,317.234 1125,318.5C 1125.81,345.863 1125.64,373.197 1124.5,400.5C 1044.93,400.832 965.429,400.498 886,399.5C 885.5,273.834 885.333,148.167 885.5,22.5 Z"/></g>
<g><path style="opacity:0.93" fill="#fefefe" d="M 1082.5,22.5 C 1192.17,22.1667 1301.84,22.5 1411.5,23.5C 1412.83,50.5 1412.83,77.5 1411.5,104.5C 1372.84,105.5 1334.17,105.833 1295.5,105.5C 1295.67,203.501 1295.5,301.501 1295,399.5C 1279.41,400.163 1263.74,400.496 1248,400.5C 1232.12,400.493 1216.29,400.159 1200.5,399.5C 1199.5,301.502 1199.17,203.502 1199.5,105.5C 1160.5,105.5 1121.5,105.5 1082.5,105.5C 1082.5,77.8333 1082.5,50.1667 1082.5,22.5 Z"/></g>
<g><path style="opacity:0.943" fill="#fefefe" d="M 1452.5,22.5 C 1483.5,22.5 1514.5,22.5 1545.5,22.5C 1545.67,148.167 1545.5,273.834 1545,399.5C 1529.57,400.163 1514.07,400.496 1498.5,400.5C 1482.93,400.496 1467.43,400.163 1452,399.5C 1451.17,273.764 1451.34,148.097 1452.5,22.5 Z"/></g>
<g><path style="opacity:0.923" fill="#fefefe" d="M 1978.5,22.5 C 2021.84,22.1667 2065.17,22.5001 2108.5,23.5C 2120.87,24.3097 2133.21,25.4764 2145.5,27C 2152.11,28.8838 2158.11,30.5505 2163.5,32C 2167.24,34.2016 2171.24,36.0349 2175.5,37.5C 2184.78,42.4685 2193.78,47.8018 2202.5,53.5C 2202.5,54.5 2202.5,55.5 2202.5,56.5C 2206.72,58.7091 2210.39,61.7091 2213.5,65.5C 2227.64,81.9867 2236.14,100.32 2239,120.5C 2239.67,130.5 2239.67,140.5 2239,150.5C 2237.41,159.183 2235.74,167.183 2234,174.5C 2230.89,180.739 2227.72,187.739 2224.5,195.5C 2223.5,195.5 2222.5,195.5 2221.5,195.5C 2217.44,203.58 2212.11,210.914 2205.5,217.5C 2203.62,218.875 2201.62,220.042 2199.5,221C 2199.83,221.333 2200.17,221.667 2200.5,222C 2196.01,225.414 2191.34,228.581 2186.5,231.5C 2181.71,233.675 2177.04,235.842 2172.5,238C 2174.27,242.069 2176.44,245.902 2179,249.5C 2213.13,297.277 2247.29,344.944 2281.5,392.5C 2282.48,395.086 2282.81,397.753 2282.5,400.5C 2247.5,400.667 2212.5,400.5 2177.5,400C 2176.58,399.626 2175.75,399.126 2175,398.5C 2171.05,391.164 2166.55,384.164 2161.5,377.5C 2160.57,376.311 2160.24,374.978 2160.5,373.5C 2159.5,373.5 2158.5,373.5 2157.5,373.5C 2156.41,369.417 2154.57,365.75 2152,362.5C 2132.42,334.075 2112.75,305.409 2093,276.5C 2092.52,275.552 2092.35,274.552 2092.5,273.5C 2091.5,273.5 2090.5,273.5 2089.5,273.5C 2088.52,269.392 2086.69,265.726 2084,262.5C 2083.67,262.833 2083.33,263.167 2083,263.5C 2082,255.989 2077.83,253.156 2070.5,255C 2071.83,302.804 2071.83,350.637 2070.5,398.5C 2069.97,399.192 2069.31,399.692 2068.5,400C 2038.26,400.828 2008.09,400.662 1978,399.5C 1977.17,273.764 1977.34,148.097 1978.5,22.5 Z M 2070.5,97.5 C 2081.66,96.3407 2092.99,96.1741 2104.5,97C 2104.17,97.3333 2103.83,97.6667 2103.5,98C 2134.63,98.9625 2150.96,114.129 2152.5,143.5C 2151.34,169.413 2137.34,185.413 2110.5,191.5C 2097.52,192.499 2084.52,192.832 2071.5,192.5C 2071.83,160.662 2071.5,128.996 2070.5,97.5 Z"/></g>
<g><path style="opacity:0.926" fill="#fefefe" d="M 2272.5,22.5 C 2382.17,22.5 2491.83,22.5 2601.5,22.5C 2601.5,50.1667 2601.5,77.8333 2601.5,105.5C 2562.5,105.5 2523.5,105.5 2484.5,105.5C 2484.67,203.501 2484.5,301.501 2484,399.5C 2468.41,400.163 2452.74,400.496 2437,400.5C 2421.12,400.493 2405.29,400.159 2389.5,399.5C 2388.5,301.502 2388.17,203.502 2388.5,105.5C 2349.83,105.667 2311.17,105.5 2272.5,105C 2271.18,77.5297 2271.18,50.0297 2272.5,22.5 Z"/></g>
<g><path style="opacity:0.933" fill="#fefefe" d="M 2874.5,316.5 C 2874.5,344.5 2874.5,372.5 2874.5,400.5C 2796.26,400.832 2718.1,400.498 2640,399.5C 2639.5,273.834 2639.33,148.167 2639.5,22.5C 2717.5,22.5 2795.5,22.5 2873.5,22.5C 2873.5,50.1667 2873.5,77.8333 2873.5,105.5C 2825.83,105.5 2778.17,105.5 2730.5,105.5C 2730.33,126.169 2730.5,146.836 2731,167.5C 2750.95,166.173 2771.12,165.506 2791.5,165.5C 2811.5,165.667 2831.5,165.833 2851.5,166C 2852.33,166.833 2853.17,167.667 2854,168.5C 2854.67,194.833 2854.67,221.167 2854,247.5C 2853.5,248 2853,248.5 2852.5,249C 2811.93,249.83 2771.43,249.663 2731,248.5C 2730.5,271.164 2730.33,293.831 2730.5,316.5C 2778.5,316.5 2826.5,316.5 2874.5,316.5 Z"/></g>
<g><path style="opacity:0.672" fill="#fefefe" d="M 1577.5,498.5 C 1580.66,497.964 1583.33,498.797 1585.5,501C 1588.23,501.182 1590.89,501.682 1593.5,502.5C 1597.86,505.388 1602.7,507.388 1608,508.5C 1609.37,508.156 1610.53,507.489 1611.5,506.5C 1612.06,503.189 1613.73,500.689 1616.5,499C 1621.09,498.201 1625.59,498.368 1630,499.5C 1630.83,505.859 1630.66,512.193 1629.5,518.5C 1627.64,523.525 1624.31,527.025 1619.5,529C 1614.17,529.667 1608.83,529.667 1603.5,529C 1598.34,526.844 1593.34,524.511 1588.5,522C 1585.52,521.502 1582.52,521.335 1579.5,521.5C 1578.65,524.036 1577.65,526.536 1576.5,529C 1571.11,529.784 1565.78,529.618 1560.5,528.5C 1559.34,524.541 1559.17,520.541 1560,516.5C 1560.33,516.833 1560.67,517.167 1561,517.5C 1561.18,514.774 1561.68,512.107 1562.5,509.5C 1564.66,508.017 1565.99,506.017 1566.5,503.5C 1569.38,502.377 1572.38,501.544 1575.5,501C 1576.38,500.292 1577.05,499.458 1577.5,498.5 Z"/></g>
<g><path style="opacity:0.805" fill="#fefefe" d="M 283.5,533.5 C 292.828,534.746 302.161,536.246 311.5,538C 317.468,540.986 323.135,544.486 328.5,548.5C 332.458,552.388 335.958,556.722 339,561.5C 340.57,566.57 342.403,571.403 344.5,576C 345.012,579.154 343.679,580.82 340.5,581C 340.833,581.333 341.167,581.667 341.5,582C 334.023,582.782 326.69,584.116 319.5,586C 319.833,586.333 320.167,586.667 320.5,587C 317.518,587.498 314.518,587.665 311.5,587.5C 309.283,578.008 303.95,570.841 295.5,566C 292.833,565.667 290.167,565.333 287.5,565C 287.833,564.667 288.167,564.333 288.5,564C 273.213,562.371 262.213,569.204 255.5,584.5C 254.682,587.107 254.182,589.774 254,592.5C 253.333,593.167 252.667,593.833 252,594.5C 251.333,604.5 251.333,614.5 252,624.5C 252.414,624.957 252.914,625.291 253.5,625.5C 253.861,634.49 257.861,642.323 265.5,649C 266.448,649.483 267.448,649.649 268.5,649.5C 268.5,650.5 268.5,651.5 268.5,652.5C 277.896,655.271 287.23,655.104 296.5,652C 301.736,648.057 305.903,643.224 309,637.5C 310.512,633.629 311.345,629.629 311.5,625.5C 316.933,625.857 322.266,626.857 327.5,628.5C 327.709,629.086 328.043,629.586 328.5,630C 333.978,630.823 339.144,632.323 344,634.5C 344.167,636 344.333,637.5 344.5,639C 342.465,642.445 341.299,646.278 341,650.5C 340.667,650.167 340.333,649.833 340,649.5C 332.979,668.461 319.479,679.628 299.5,683C 299.833,683.333 300.167,683.667 300.5,684C 289.5,684.667 278.5,684.667 267.5,684C 267.833,683.667 268.167,683.333 268.5,683C 261.977,681.053 255.311,679.22 248.5,677.5C 248.5,676.5 248.5,675.5 248.5,674.5C 245.845,674.341 243.512,673.341 241.5,671.5C 228.637,659.871 220.637,644.871 217.5,626.5C 216.167,615.833 216.167,605.167 217.5,594.5C 218.192,593.975 218.692,593.308 219,592.5C 220.652,573.261 229.152,557.761 244.5,546C 250.979,541.525 257.979,538.525 265.5,537C 265.167,536.667 264.833,536.333 264.5,536C 270.167,535.667 275.833,535.333 281.5,535C 282.416,534.722 283.082,534.222 283.5,533.5 Z"/></g>
<g><path style="opacity:0.824" fill="#fefefe" d="M 436.5,533.5 C 446.899,534.509 457.232,536.176 467.5,538.5C 467.709,539.086 468.043,539.586 468.5,540C 473.951,541.538 479.618,544.205 485.5,548C 485.167,548.333 484.833,548.667 484.5,549C 495.296,557.283 502.796,567.783 507,580.5C 507.333,583.5 507.667,586.5 508,589.5C 508.333,589.167 508.667,588.833 509,588.5C 509.833,602.512 509.666,616.512 508.5,630.5C 505.016,648.077 496.016,662.577 481.5,674C 473.865,678.218 465.865,681.385 457.5,683.5C 445.167,684.833 432.833,684.833 420.5,683.5C 417.833,682.833 415.167,682.167 412.5,681.5C 412.291,680.914 411.957,680.414 411.5,680C 407.776,679.203 404.11,678.203 400.5,677C 400.833,676.667 401.167,676.333 401.5,676C 399.008,674.396 396.341,673.062 393.5,672C 391.052,669.552 388.218,666.718 385,663.5C 381.216,658.825 377.883,653.825 375,648.5C 373.645,644.591 372.645,640.591 372,636.5C 371.333,635.833 370.667,635.167 370,634.5C 369.667,630.167 369.333,625.833 369,621.5C 368.667,621.833 368.333,622.167 368,622.5C 367.333,614.167 367.333,605.833 368,597.5C 368.333,598.167 368.667,598.833 369,599.5C 369.333,594.833 369.667,590.167 370,585.5C 370.667,584.833 371.333,584.167 372,583.5C 374.489,570.108 381.322,558.442 392.5,548.5C 394.512,546.659 396.845,545.659 399.5,545.5C 399.5,544.5 399.5,543.5 399.5,542.5C 401.199,542.66 402.866,542.494 404.5,542C 404.167,541.667 403.833,541.333 403.5,541C 407.762,538.763 412.428,537.43 417.5,537C 417.167,536.667 416.833,536.333 416.5,536C 422.5,535.667 428.5,535.333 434.5,535C 435.416,534.722 436.082,534.222 436.5,533.5 Z M 434.5,564.5 C 446.964,562.552 457.798,566.885 467,577.5C 473.27,586.9 475.77,597.4 474.5,609C 475.809,622.391 472.476,634.391 464.5,645C 460.22,648.632 455.553,651.466 450.5,653.5C 442.833,654.833 435.167,654.833 427.5,653.5C 420.832,649.839 414.832,645.506 409.5,640.5C 407.457,633.431 405.29,626.431 403,619.5C 402.833,616 402.667,612.5 402.5,609C 402.986,595.811 406.486,584.311 413,574.5C 413.333,574.833 413.667,575.167 414,575.5C 414.483,574.552 414.649,573.552 414.5,572.5C 418.315,570.849 421.982,568.849 425.5,566.5C 429.236,565.913 432.236,565.246 434.5,564.5 Z"/></g>
<g><path style="opacity:0.805" fill="#fefefe" d="M 1142.5,533.5 C 1149.36,535.007 1156.36,536.007 1163.5,536.5C 1168.82,539.254 1174.49,541.254 1180.5,542.5C 1180.5,543.5 1180.5,544.5 1180.5,545.5C 1182.71,545.967 1184.71,546.967 1186.5,548.5C 1195.92,557.584 1201.09,567.917 1202,579.5C 1201.08,580.047 1200.24,580.713 1199.5,581.5C 1191.18,583.886 1182.68,585.886 1174,587.5C 1172.5,587.167 1171,586.833 1169.5,586.5C 1168.23,582.081 1166.73,578.414 1165,575.5C 1161.62,572.276 1158.12,569.276 1154.5,566.5C 1149.49,565.908 1145.32,564.908 1142,563.5C 1132.53,564.253 1124.53,568.253 1118,575.5C 1111.84,585.671 1109.34,596.838 1110.5,609C 1110.85,617.877 1111.51,626.711 1112.5,635.5C 1113.5,635.5 1114.5,635.5 1115.5,635.5C 1115.56,638.394 1116.39,641.061 1118,643.5C 1126.82,653.743 1137.98,657.076 1151.5,653.5C 1156.39,650.616 1160.73,646.949 1164.5,642.5C 1166.44,639.137 1168.28,635.137 1170,630.5C 1170.49,628.866 1170.66,627.199 1170.5,625.5C 1173.19,625.336 1175.85,625.503 1178.5,626C 1178.17,626.333 1177.83,626.667 1177.5,627C 1180.97,626.943 1183.97,627.943 1186.5,630C 1191.5,631 1196.5,632 1201.5,633C 1202.12,634.569 1202.46,636.236 1202.5,638C 1196.64,662.683 1181.97,677.85 1158.5,683.5C 1143.92,685.327 1130.26,684.66 1117.5,681.5C 1113.33,679.822 1109.5,677.489 1106,674.5C 1105.67,674.833 1105.33,675.167 1105,675.5C 1100.75,671.717 1097.08,668.051 1094,664.5C 1093.67,664.833 1093.33,665.167 1093,665.5C 1092.05,663.058 1090.55,661.058 1088.5,659.5C 1082.16,649.954 1078.32,639.621 1077,628.5C 1076.67,628.833 1076.33,629.167 1076,629.5C 1074.68,612.598 1075.51,596.598 1078.5,581.5C 1089.06,550.91 1110.4,534.91 1142.5,533.5 Z"/></g>
<g><path style="opacity:0.801" fill="#fefefe" d="M 1451.5,719.5 C 1438.83,719.5 1426.17,719.5 1413.5,719.5C 1413.5,714.167 1413.5,708.833 1413.5,703.5C 1423.17,703.666 1432.84,703.5 1442.5,703C 1444.19,701.312 1445.86,699.645 1447.5,698C 1443.41,693.765 1438.41,692.098 1432.5,693C 1432.83,693.333 1433.17,693.667 1433.5,694C 1430.17,694.667 1426.83,694.667 1423.5,694C 1423.34,690.28 1423.18,686.446 1423,682.5C 1417.06,679.265 1411.23,675.931 1405.5,672.5C 1398.01,666.347 1392.01,659.014 1387.5,650.5C 1381.64,637.805 1378.98,624.305 1379.5,610C 1378.68,592.746 1383.01,576.246 1392.5,560.5C 1395.66,555.839 1399.66,552.005 1404.5,549C 1404.17,548.667 1403.83,548.333 1403.5,548C 1410.78,542.69 1418.78,539.024 1427.5,537C 1427.17,536.667 1426.83,536.333 1426.5,536C 1432.5,535.667 1438.5,535.333 1444.5,535C 1446.59,533.173 1448.59,533.173 1450.5,535C 1456.5,535.333 1462.5,535.667 1468.5,536C 1468.17,536.333 1467.83,536.667 1467.5,537C 1469.9,537.186 1472.23,537.686 1474.5,538.5C 1476.06,540.131 1478.06,540.964 1480.5,541C 1480.17,541.333 1479.83,541.667 1479.5,542C 1481.13,542.494 1482.8,542.66 1484.5,542.5C 1484.5,543.5 1484.5,544.5 1484.5,545.5C 1487.79,546.6 1490.79,548.267 1493.5,550.5C 1500.5,559.027 1504.67,568.693 1506,579.5C 1505.08,580.047 1504.24,580.713 1503.5,581.5C 1495.29,583.899 1486.96,585.899 1478.5,587.5C 1473.22,586.377 1470.72,583.043 1471,577.5C 1468.25,574.749 1465.08,571.583 1461.5,568C 1448.9,561.483 1436.57,563.149 1424.5,573C 1416.69,583.543 1413.36,595.543 1414.5,609C 1411.9,626.954 1417.57,641.288 1431.5,652C 1440.83,655.333 1450.17,655.333 1459.5,652C 1462.35,648.656 1465.35,645.489 1468.5,642.5C 1470.24,638.423 1472.08,634.423 1474,630.5C 1474.49,628.866 1474.66,627.199 1474.5,625.5C 1477.19,625.336 1479.85,625.503 1482.5,626C 1482.17,626.333 1481.83,626.667 1481.5,627C 1489.33,629.365 1497.33,631.365 1505.5,633C 1506.75,638.64 1506.08,644.14 1503.5,649.5C 1501.84,652.749 1500.17,656.083 1498.5,659.5C 1490.03,671.953 1478.03,679.787 1462.5,683C 1463.45,683.483 1464.45,683.649 1465.5,683.5C 1466.36,686.043 1467.69,688.377 1469.5,690.5C 1472.58,706.001 1466.58,715.668 1451.5,719.5 Z"/></g>
<g><path style="opacity:0.824" fill="#fefefe" d="M 1751.5,533.5 C 1759.39,534.942 1767.39,535.942 1775.5,536.5C 1788.31,540.032 1799.31,546.699 1808.5,556.5C 1811.65,561.063 1814.65,565.729 1817.5,570.5C 1819.47,574.783 1821.3,579.783 1823,585.5C 1823.33,589.833 1823.67,594.167 1824,598.5C 1824.33,598.167 1824.67,597.833 1825,597.5C 1825.67,605.833 1825.67,614.167 1825,622.5C 1824.67,622.167 1824.33,621.833 1824,621.5C 1823.67,625.5 1823.33,629.5 1823,633.5C 1820.88,638.298 1819.21,643.298 1818,648.5C 1816.11,650.026 1815.11,652.026 1815,654.5C 1814.67,654.167 1814.33,653.833 1814,653.5C 1813.51,654.793 1813.34,656.127 1813.5,657.5C 1812.5,657.5 1811.5,657.5 1810.5,657.5C 1808.46,663.742 1804.46,668.242 1798.5,671C 1798.83,671.333 1799.17,671.667 1799.5,672C 1791.08,677.302 1782.08,681.136 1772.5,683.5C 1757.05,685.169 1741.71,684.502 1726.5,681.5C 1717.03,677.921 1708.87,672.254 1702,664.5C 1701.67,664.833 1701.33,665.167 1701,665.5C 1697.59,661.006 1694.42,656.34 1691.5,651.5C 1690.7,649.922 1690.2,648.256 1690,646.5C 1689.67,646.833 1689.33,647.167 1689,647.5C 1687.08,642.124 1685.58,636.457 1684.5,630.5C 1683.17,616.833 1683.17,603.167 1684.5,589.5C 1686.81,582.397 1688.81,575.064 1690.5,567.5C 1691.5,567.5 1692.5,567.5 1693.5,567.5C 1697.93,557.396 1704.93,549.396 1714.5,543.5C 1725.17,537.1 1736.83,534.267 1749.5,535C 1750.42,534.722 1751.08,534.222 1751.5,533.5 Z M 1749.5,564.5 C 1750.79,563.842 1752.29,563.508 1754,563.5C 1765.18,563.929 1774.85,568.929 1783,578.5C 1785.65,585.126 1787.98,591.793 1790,598.5C 1790.83,605.856 1790.66,613.189 1789.5,620.5C 1788.81,621.025 1788.31,621.692 1788,622.5C 1787.29,634.584 1781.45,644.417 1770.5,652C 1759.54,655.164 1748.54,655.33 1737.5,652.5C 1737.5,651.5 1737.5,650.5 1737.5,649.5C 1735.07,649.116 1732.74,648.449 1730.5,647.5C 1730.65,646.448 1730.48,645.448 1730,644.5C 1729.09,645.654 1728.25,645.487 1727.5,644C 1727.83,643.667 1728.17,643.333 1728.5,643C 1727.58,642.626 1726.75,642.126 1726,641.5C 1724.75,638.19 1723.09,635.19 1721,632.5C 1717.7,616.843 1717.7,601.177 1721,585.5C 1723.59,579.206 1728.42,574.039 1735.5,570C 1734.35,569.086 1734.51,568.253 1736,567.5C 1737.24,568.336 1738.41,568.003 1739.5,566.5C 1743.57,565.905 1746.9,565.238 1749.5,564.5 Z"/></g>
<g><path style="opacity:0.811" fill="#fefefe" d="M 2161.5,533.5 C 2172.17,534.671 2182.83,536.171 2193.5,538C 2203.57,542.572 2211.24,549.739 2216.5,559.5C 2217.19,561.444 2217.69,563.444 2218,565.5C 2218.33,565.167 2218.67,564.833 2219,564.5C 2219,569.847 2219.83,575.014 2221.5,580C 2221.09,580.945 2220.43,581.612 2219.5,582C 2208.83,582.667 2198.17,582.667 2187.5,582C 2186.44,578.46 2185.28,575.293 2184,572.5C 2176.96,563.647 2167.13,560.814 2154.5,564C 2154.83,564.333 2155.17,564.667 2155.5,565C 2144.65,565.674 2141.65,570.84 2146.5,580.5C 2154.51,585.173 2163.18,588.007 2172.5,589C 2173.17,589.667 2173.83,590.333 2174.5,591C 2184.95,592.081 2195.28,595.581 2205.5,601.5C 2214.16,607.175 2220.16,614.841 2223.5,624.5C 2224.67,633.816 2224.83,643.149 2224,652.5C 2223.67,652.167 2223.33,651.833 2223,651.5C 2217.05,670.853 2204.55,681.353 2185.5,683C 2185.83,683.333 2186.17,683.667 2186.5,684C 2173.15,684.833 2159.82,684.666 2146.5,683.5C 2125.87,678.766 2113.04,666.766 2108,647.5C 2107.67,647.833 2107.33,648.167 2107,648.5C 2106.67,644.5 2106.33,640.5 2106,636.5C 2104.98,637.706 2104.48,637.373 2104.5,635.5C 2105.36,633.728 2106.69,632.395 2108.5,631.5C 2116.48,630.668 2124.48,630.168 2132.5,630C 2134.96,628.136 2137.12,628.302 2139,630.5C 2139.99,640.645 2144.82,648.312 2153.5,653.5C 2162.17,654.833 2170.83,654.833 2179.5,653.5C 2192.37,646.356 2194.03,638.19 2184.5,629C 2180.28,627.528 2175.95,626.528 2171.5,626C 2171.83,625.667 2172.17,625.333 2172.5,625C 2163.14,622.75 2154.47,620.75 2146.5,619C 2145.83,618.333 2145.17,617.667 2144.5,617C 2129.68,614.273 2119.01,605.44 2112.5,590.5C 2111.17,581.167 2111.17,571.833 2112.5,562.5C 2114.67,556.166 2118.34,550.832 2123.5,546.5C 2124.32,545.614 2125.32,545.281 2126.5,545.5C 2126.5,544.5 2126.5,543.5 2126.5,542.5C 2132.42,541.096 2138.09,539.262 2143.5,537C 2143.17,536.667 2142.83,536.333 2142.5,536C 2148.5,535.667 2154.5,535.333 2160.5,535C 2161.06,534.617 2161.39,534.117 2161.5,533.5 Z"/></g>
<g><path style="opacity:0.829" fill="#fefefe" d="M 538.5,537.5 C 553.848,537.167 569.181,537.501 584.5,538.5C 587.052,546.4 589.218,554.4 591,562.5C 591.333,562.167 591.667,561.833 592,561.5C 592.333,564.833 592.667,568.167 593,571.5C 593.333,571.167 593.667,570.833 594,570.5C 594.333,573.5 594.667,576.5 595,579.5C 595.667,580.167 596.333,580.833 597,581.5C 598.142,587.141 599.142,592.807 600,598.5C 602.004,601.475 603.004,604.808 603,608.5C 603.333,608.167 603.667,607.833 604,607.5C 604.462,613.31 605.629,618.976 607.5,624.5C 612.276,606.359 616.776,587.359 621,567.5C 621.333,567.833 621.667,568.167 622,568.5C 622.333,565.833 622.667,563.167 623,560.5C 623.667,559.833 624.333,559.167 625,558.5C 625.696,551.526 627.363,544.859 630,538.5C 645.756,537.509 661.589,537.175 677.5,537.5C 677.667,585.501 677.5,633.501 677,681.5C 666.91,682.652 656.744,682.819 646.5,682C 646,681.5 645.5,681 645,680.5C 644.667,652.5 644.333,624.5 644,596.5C 641.082,609.059 638.416,621.725 636,634.5C 635.333,635.167 634.667,635.833 634,636.5C 633.667,639.833 633.333,643.167 633,646.5C 632.667,646.167 632.333,645.833 632,645.5C 631.667,648.5 631.333,651.5 631,654.5C 630.333,655.167 629.667,655.833 629,656.5C 627.603,665.365 625.77,674.032 623.5,682.5C 612.833,682.5 602.167,682.5 591.5,682.5C 591.716,680.319 590.883,678.653 589,677.5C 587.445,672.123 586.445,666.123 586,659.5C 585.085,658.672 584.419,657.672 584,656.5C 582.27,648.935 580.604,640.602 579,631.5C 576.993,627.814 575.993,623.814 576,619.5C 575.667,619.833 575.333,620.167 575,620.5C 574.667,617.167 574.333,613.833 574,610.5C 573.586,610.043 573.086,609.709 572.5,609.5C 571.167,603.167 569.833,596.833 568.5,590.5C 568.609,620.442 568.442,650.442 568,680.5C 563.25,681.804 558.25,682.47 553,682.5C 547.92,682.488 542.92,682.154 538,681.5C 537.172,633.429 537.339,585.429 538.5,537.5 Z"/></g>
<g><path style="opacity:0.814" fill="#fefefe" d="M 711.5,537.5 C 722.748,537.179 733.915,537.513 745,538.5C 745.167,572.505 745.667,606.505 746.5,640.5C 748.864,644.713 751.864,648.546 755.5,652C 765.5,655.333 775.5,655.333 785.5,652C 788.373,649.067 790.873,645.9 793,642.5C 793.167,607.829 793.667,573.162 794.5,538.5C 805.697,537.175 816.863,537.175 828,538.5C 828.833,573.171 828.667,607.838 827.5,642.5C 826.292,649.594 824.626,655.927 822.5,661.5C 819.818,665.517 816.818,669.35 813.5,673C 806.588,678.122 798.921,681.622 790.5,683.5C 776.833,684.833 763.167,684.833 749.5,683.5C 723.844,677.269 711.344,660.935 712,634.5C 711.667,634.833 711.333,635.167 711,635.5C 710.175,602.762 710.341,570.095 711.5,537.5 Z"/></g>
<g><path style="opacity:0.837" fill="#fefefe" d="M 864.5,537.5 C 875.167,537.5 885.833,537.5 896.5,537.5C 904.883,552.736 914.05,568.402 924,584.5C 924.333,584.167 924.667,583.833 925,583.5C 926.14,586.102 926.973,588.769 927.5,591.5C 928.5,591.5 929.5,591.5 930.5,591.5C 930.754,594.014 931.587,596.348 933,598.5C 938.601,606.406 943.601,614.74 948,623.5C 948.333,595.167 948.667,566.833 949,538.5C 959.47,537.176 969.97,537.176 980.5,538.5C 981.833,586.167 981.833,633.833 980.5,681.5C 969.218,682.478 957.885,682.812 946.5,682.5C 943.378,677.921 941.045,672.921 939.5,667.5C 938.5,667.5 937.5,667.5 936.5,667.5C 936.246,664.986 935.413,662.652 934,660.5C 931.589,656.968 929.089,653.468 926.5,650C 926.833,649.667 927.167,649.333 927.5,649C 925.286,646.075 922.953,643.241 920.5,640.5C 912.475,627.301 904.641,613.968 897,600.5C 896.667,600.833 896.333,601.167 896,601.5C 895.667,599.833 895.333,598.167 895,596.5C 894.667,624.833 894.333,653.167 894,681.5C 884,682.833 874,682.833 864,681.5C 863.172,633.429 863.339,585.429 864.5,537.5 Z"/></g>
<g><path style="opacity:0.838" fill="#fefefe" d="M 1014.5,537.5 C 1025.51,537.333 1036.51,537.5 1047.5,538C 1048,538.5 1048.5,539 1049,539.5C 1049.67,586.5 1049.67,633.5 1049,680.5C 1048.5,681 1048,681.5 1047.5,682C 1036.59,682.82 1025.76,682.653 1015,681.5C 1014.5,633.501 1014.33,585.501 1014.5,537.5 Z"/></g>
<g><path style="opacity:0.823" fill="#fefefe" d="M 1272.5,537.5 C 1284.55,537.187 1296.55,537.521 1308.5,538.5C 1311.91,546.824 1315.08,555.157 1318,563.5C 1318.33,563.167 1318.67,562.833 1319,562.5C 1322.69,573.242 1326.36,583.909 1330,594.5C 1330.33,594.167 1330.67,593.833 1331,593.5C 1332.69,597.698 1334.02,602.031 1335,606.5C 1335.33,606.167 1335.67,605.833 1336,605.5C 1338.65,613.483 1341.32,621.483 1344,629.5C 1345.95,631.337 1346.95,633.671 1347,636.5C 1347.33,636.167 1347.67,635.833 1348,635.5C 1348.19,637.9 1348.69,640.234 1349.5,642.5C 1354.13,652.337 1358.46,662.337 1362.5,672.5C 1363.79,675.709 1363.79,678.875 1362.5,682C 1351.17,682.5 1339.84,682.667 1328.5,682.5C 1325.39,671.661 1321.39,661.161 1316.5,651C 1298.84,650.5 1281.17,650.333 1263.5,650.5C 1263.17,654.914 1262.34,659.248 1261,663.5C 1260.59,663.957 1260.09,664.291 1259.5,664.5C 1257.47,670.585 1255.47,676.585 1253.5,682.5C 1242.16,682.667 1230.83,682.5 1219.5,682C 1218.89,680.769 1218.56,679.436 1218.5,678C 1224.36,664.112 1229.52,649.945 1234,635.5C 1234.33,635.833 1234.67,636.167 1235,636.5C 1235.05,633.671 1236.05,631.337 1238,629.5C 1242.68,616.941 1247.02,604.275 1251,591.5C 1251.33,591.833 1251.67,592.167 1252,592.5C 1254.38,586.398 1256.54,580.065 1258.5,573.5C 1261.06,569.657 1262.56,565.323 1263,560.5C 1263.33,560.833 1263.67,561.167 1264,561.5C 1265.11,560.24 1265.28,559.073 1264.5,558C 1267.55,551.203 1270.22,544.37 1272.5,537.5 Z M 1290.5,581.5 C 1294.95,594.894 1299.61,607.56 1304.5,619.5C 1294.83,620.833 1285.17,620.833 1275.5,619.5C 1277.92,617.047 1279.09,614.047 1279,610.5C 1279.33,610.833 1279.67,611.167 1280,611.5C 1279.91,608.044 1280.91,605.044 1283,602.5C 1283.33,600.5 1283.67,598.5 1284,596.5C 1284.33,596.833 1284.67,597.167 1285,597.5C 1285.88,591.73 1287.71,586.397 1290.5,581.5 Z"/></g>
<g><path style="opacity:0.824" fill="#fefefe" d="M 1576.5,537.5 C 1588.75,537.178 1600.91,537.512 1613,538.5C 1626.96,573.82 1641.29,610.487 1656,648.5C 1656.33,648.167 1656.67,647.833 1657,647.5C 1656.95,650.633 1657.95,653.3 1660,655.5C 1660.33,657.167 1660.67,658.833 1661,660.5C 1661.33,660.167 1661.67,659.833 1662,659.5C 1662.44,664.323 1663.94,668.657 1666.5,672.5C 1667.49,675.768 1667.82,679.102 1667.5,682.5C 1655.83,682.5 1644.17,682.5 1632.5,682.5C 1632.66,680.801 1632.49,679.134 1632,677.5C 1630.05,675.663 1629.05,673.329 1629,670.5C 1628.67,670.833 1628.33,671.167 1628,671.5C 1625.84,664.702 1623.67,657.869 1621.5,651C 1603.83,650.333 1586.17,650.333 1568.5,651C 1567.73,653.405 1567.23,655.905 1567,658.5C 1566.67,658.167 1566.33,657.833 1566,657.5C 1563.49,665.851 1560.66,674.184 1557.5,682.5C 1546.16,682.667 1534.83,682.5 1523.5,682C 1522.9,680.938 1522.57,679.772 1522.5,678.5C 1533.97,647.448 1545.47,617.115 1557,587.5C 1559.01,585.318 1560.01,582.651 1560,579.5C 1560.33,579.833 1560.67,580.167 1561,580.5C 1561.05,577.671 1562.05,575.337 1564,573.5C 1566.69,565.155 1569.36,556.821 1572,548.5C 1572.33,548.833 1572.67,549.167 1573,549.5C 1573.05,546.671 1574.05,544.337 1576,542.5C 1576.49,540.866 1576.66,539.199 1576.5,537.5 Z M 1594.5,580.5 C 1598.66,593.18 1603.66,606.347 1609.5,620C 1599.48,620.832 1589.48,620.666 1579.5,619.5C 1581.81,617.041 1582.97,614.041 1583,610.5C 1583.33,610.833 1583.67,611.167 1584,611.5C 1587.66,602.047 1591.16,591.714 1594.5,580.5 Z"/></g>
<g><path style="opacity:0.819" fill="#fefefe" d="M 1892.5,537.5 C 1904.17,537.333 1915.84,537.5 1927.5,538C 1928,538.5 1928.5,539 1929,539.5C 1935.94,562.546 1943.94,586.546 1953,611.5C 1953.33,611.167 1953.67,610.833 1954,610.5C 1955.58,618.019 1957.58,625.353 1960,632.5C 1960.67,631.167 1961.33,631.167 1962,632.5C 1963.94,627.334 1965.28,622 1966,616.5C 1966.33,616.833 1966.67,617.167 1967,617.5C 1969.46,609.61 1971.46,602.277 1973,595.5C 1975.33,590.167 1977.67,584.833 1980,579.5C 1984.11,565.327 1988.27,551.327 1992.5,537.5C 2004.17,537.5 2015.83,537.5 2027.5,537.5C 2028.11,541.635 2027.28,545.301 2025,548.5C 2022.09,559.382 2018.75,570.049 2015,580.5C 2014.33,581.167 2013.67,581.833 2013,582.5C 2009.3,592.654 2005.96,602.988 2003,613.5C 2001,619.045 1998.66,624.378 1996,629.5C 1995.67,631.833 1995.33,634.167 1995,636.5C 1994.67,636.167 1994.33,635.833 1994,635.5C 1990.35,647.084 1986.69,658.751 1983,670.5C 1982.67,670.167 1982.33,669.833 1982,669.5C 1982.01,672.651 1981.01,675.318 1979,677.5C 1978.51,679.134 1978.34,680.801 1978.5,682.5C 1966.25,682.822 1954.09,682.488 1942,681.5C 1941.67,679.5 1941.33,677.5 1941,675.5C 1938.99,673.318 1937.99,670.651 1938,667.5C 1937.67,667.833 1937.33,668.167 1937,668.5C 1925.46,634.235 1913.79,600.235 1902,566.5C 1899.34,561.378 1897,556.045 1895,550.5C 1893.37,546.311 1892.54,541.978 1892.5,537.5 Z"/></g>
<g><path style="opacity:0.792" fill="#fefefe" d="M 2046.5,537.5 C 2057.83,537.5 2069.17,537.5 2080.5,537.5C 2080.5,585.833 2080.5,634.167 2080.5,682.5C 2069.49,682.667 2058.49,682.5 2047.5,682C 2047,681.5 2046.5,681 2046,680.5C 2045.17,632.763 2045.34,585.096 2046.5,537.5 Z"/></g>
<g><path style="opacity:0.838" fill="#fefefe" d="M 2255.5,537.5 C 2266.17,537.5 2276.83,537.5 2287.5,537.5C 2287.33,570.502 2287.5,603.502 2288,636.5C 2289.87,638.808 2290.87,641.475 2291,644.5C 2291.33,644.167 2291.67,643.833 2292,643.5C 2292.32,646.988 2294.16,648.988 2297.5,649.5C 2297.5,650.5 2297.5,651.5 2297.5,652.5C 2306.73,654.6 2316.06,654.934 2325.5,653.5C 2328.78,650.718 2331.95,647.718 2335,644.5C 2335.33,641.167 2335.67,637.833 2336,634.5C 2336.33,634.833 2336.67,635.167 2337,635.5C 2337.33,603.167 2337.67,570.833 2338,538.5C 2348.75,537.513 2359.59,537.18 2370.5,537.5C 2370.67,574.502 2370.5,611.502 2370,648.5C 2369.67,648.167 2369.33,647.833 2369,647.5C 2365.47,667.487 2353.63,679.487 2333.5,683.5C 2319.83,684.833 2306.17,684.833 2292.5,683.5C 2283.25,681.374 2274.92,677.374 2267.5,671.5C 2265.37,667.888 2262.87,664.555 2260,661.5C 2258.47,656.109 2256.8,650.775 2255,645.5C 2254.17,609.429 2254.34,573.429 2255.5,537.5 Z"/></g>
<g><path style="opacity:0.822" fill="#fefefe" d="M 2446.5,537.5 C 2458.17,537.333 2469.84,537.5 2481.5,538C 2482.23,539.399 2482.73,540.899 2483,542.5C 2483.33,542.167 2483.67,541.833 2484,541.5C 2483.95,544.633 2484.95,547.3 2487,549.5C 2487.33,551.167 2487.67,552.833 2488,554.5C 2488.33,554.167 2488.67,553.833 2489,553.5C 2491.18,561.673 2493.85,569.673 2497,577.5C 2499.34,582.193 2501.67,586.86 2504,591.5C 2505.8,597.574 2507.8,603.574 2510,609.5C 2510.33,609.167 2510.67,608.833 2511,608.5C 2512.48,615.15 2514.48,621.483 2517,627.5C 2517.33,627.167 2517.67,626.833 2518,626.5C 2518.19,628.9 2518.69,631.234 2519.5,633.5C 2521.13,635.059 2521.96,637.059 2522,639.5C 2522.33,639.167 2522.67,638.833 2523,638.5C 2523.47,642.317 2524.47,645.983 2526,649.5C 2530.74,659.031 2534.9,668.864 2538.5,679C 2538.41,680.107 2538.08,681.107 2537.5,682C 2525.45,682.812 2513.45,682.646 2501.5,681.5C 2497.6,670.206 2493.93,660.039 2490.5,651C 2473.17,650.5 2455.84,650.333 2438.5,650.5C 2434.71,661.033 2431.05,671.533 2427.5,682C 2415.83,682.667 2404.17,682.667 2392.5,682C 2391.94,681.275 2391.61,680.442 2391.5,679.5C 2409.85,632.157 2428.18,584.824 2446.5,537.5 Z M 2463.5,580.5 C 2465.33,583.865 2466.66,587.532 2467.5,591.5C 2469.48,592.105 2469.81,593.105 2468.5,594.5C 2472.06,602.438 2475.39,611.105 2478.5,620.5C 2469.17,620.5 2459.83,620.5 2450.5,620.5C 2450.34,618.473 2450.5,616.473 2451,614.5C 2455.48,603.147 2459.65,591.813 2463.5,580.5 Z"/></g>
<g><path style="opacity:0.818" fill="#fefefe" d="M 2559.5,537.5 C 2570.55,537.189 2581.55,537.522 2592.5,538.5C 2593.17,576.733 2593.84,614.9 2594.5,653C 2594.17,653.333 2593.83,653.667 2593.5,654C 2616.5,654.333 2639.5,654.667 2662.5,655C 2663.8,659.077 2664.46,663.411 2664.5,668C 2664.33,672.167 2664.17,676.333 2664,680.5C 2663.5,681 2663,681.5 2662.5,682C 2628.16,682.833 2593.83,682.667 2559.5,681.5C 2558.18,633.512 2558.18,585.512 2559.5,537.5 Z"/></g>
</svg>
