<?xml version="1.0" encoding="UTF-8" standalone="no"?>
<svg
   version="1.1"
   width="3556px"
   height="2000px"
   style="shape-rendering:geometricPrecision; text-rendering:geometricPrecision; image-rendering:optimizeQuality; fill-rule:evenodd; clip-rule:evenodd"
   id="svg62"
   sodipodi:docname="PsDrone.svg"
   inkscape:version="1.3.2 (091e20e, 2023-11-25, custom)"
   xmlns:inkscape="http://www.inkscape.org/namespaces/inkscape"
   xmlns:sodipodi="http://sodipodi.sourceforge.net/DTD/sodipodi-0.dtd"
   xmlns="http://www.w3.org/2000/svg"
   xmlns:svg="http://www.w3.org/2000/svg">
  <defs
     id="defs62" />
  <sodipodi:namedview
     id="namedview62"
     pagecolor="#505050"
     bordercolor="#eeeeee"
     borderopacity="1"
     inkscape:showpageshadow="0"
     inkscape:pageopacity="0"
     inkscape:pagecheckerboard="0"
     inkscape:deskcolor="#505050"
     inkscape:zoom="0.27474691"
     inkscape:cx="1683.3675"
     inkscape:cy="991.8219"
     inkscape:window-width="1920"
     inkscape:window-height="991"
     inkscape:window-x="-9"
     inkscape:window-y="-9"
     inkscape:window-maximized="1"
     inkscape:current-layer="svg62" />
  <g
     id="g1"
     style="fill:#f9f9f9">
    <path
       style="opacity:0.182;fill:#f9f9f9"
       fill="#efefef"
       d="M 1717.5,88.5 C 1698.96,85.7778 1680.29,84.4444 1661.5,84.5C 1498.1,85.0061 1334.6,85.6728 1171,86.5C 1164.32,86.3732 1157.66,86.0398 1151,85.5C 1144.13,84.5277 1139.46,87.1944 1137,93.5C 1136.18,94.8228 1135.02,95.4894 1133.5,95.5C 1134.67,89.7604 1137.17,84.7604 1141,80.5C 1141.27,78.8988 1141.77,77.3988 1142.5,76C 1328.17,75.1667 1513.83,75.3333 1699.5,76.5C 1702.45,77.3214 1705.45,77.8214 1708.5,78C 1711.17,79.6667 1711.17,81.3333 1708.5,83C 1711.32,85.4143 1714.32,87.2476 1717.5,88.5 Z"
       id="path1" />
  </g>
  <g
     id="g2"
     style="fill:#f9f9f9">
    <path
       style="opacity:0.183;fill:#f9f9f9"
       fill="#efefef"
       d="M 2375.5,88.5 C 2367.01,87.5872 2358.51,86.5872 2350,85.5C 2201.92,85.4246 2053.75,85.4246 1905.5,85.5C 1905.17,83.5 1904.83,81.5 1904.5,79.5C 1901.1,79.8204 1897.77,79.487 1894.5,78.5C 1895.91,77.7568 1897.24,76.9234 1898.5,76C 2049.17,75.3333 2199.83,75.3333 2350.5,76C 2352.83,77.8151 2355.33,77.9818 2358,76.5C 2361.58,77.0579 2365.08,77.8912 2368.5,79C 2367.95,79.9246 2367.29,80.7579 2366.5,81.5C 2363.72,80.6439 2360.89,79.9773 2358,79.5C 2356.34,79.3875 2355.17,80.0542 2354.5,81.5C 2357.66,82.1851 2360.66,83.1851 2363.5,84.5C 2364.44,84.3918 2365.28,84.0585 2366,83.5C 2369.14,85.4621 2372.3,87.1287 2375.5,88.5 Z"
       id="path2" />
  </g>
  <g
     id="g3"
     style="fill:#f9f9f9">
    <path
       style="opacity:0.9;fill:#f9f9f9"
       fill="#f7f7f7"
       d="M 1717.5,88.5 C 1725.49,89.1745 1733.16,91.0079 1740.5,94C 1747.01,98.0862 1753.34,102.42 1759.5,107C 1763.26,110.679 1766.43,114.846 1769,119.5C 1771.77,127.698 1773.94,136.032 1775.5,144.5C 1770.33,137.949 1766.33,130.616 1763.5,122.5C 1762.45,122.649 1761.45,122.483 1760.5,122C 1746.84,107.501 1730.17,98.8347 1710.5,96C 1700.19,95.0343 1689.85,94.3677 1679.5,94C 1502.04,93.9044 1324.38,94.5711 1146.5,96C 1145.07,96.4652 1143.9,97.2986 1143,98.5C 1134.26,124.385 1124.93,150.052 1115,175.5C 1110.29,179.712 1105.46,183.712 1100.5,187.5C 1101.61,180.942 1104.11,174.942 1108,169.5C 1115.09,147.883 1122.76,126.55 1131,105.5C 1131.94,102.176 1132.78,98.8426 1133.5,95.5C 1135.02,95.4894 1136.18,94.8228 1137,93.5C 1139.46,87.1944 1144.13,84.5277 1151,85.5C 1157.66,86.0398 1164.32,86.3732 1171,86.5C 1334.6,85.6728 1498.1,85.0061 1661.5,84.5C 1680.29,84.4444 1698.96,85.7778 1717.5,88.5 Z"
       id="path3" />
  </g>
  <g
     id="g4"
     style="fill:#f9f9f9">
    <path
       style="opacity:0.886;fill:#f9f9f9"
       fill="#f7f7f7"
       d="M 2375.5,88.5 C 2389.51,89.9286 2402.18,94.762 2413.5,103C 2417.07,106.905 2420.9,110.405 2425,113.5C 2424.87,117.462 2426.21,120.795 2429,123.5C 2430.33,127.5 2431.67,131.5 2433,135.5C 2433.88,149.208 2433.55,162.875 2432,176.5C 2428.53,195.733 2423.19,214.399 2416,232.5C 2414.47,239.062 2412.63,245.395 2410.5,251.5C 2410.38,248.52 2409.71,245.687 2408.5,243C 2415.98,223.647 2421.65,204.314 2425.5,185C 2425.36,184.228 2425.02,183.561 2424.5,183C 2426.44,181.278 2427.44,179.111 2427.5,176.5C 2427.59,165.806 2427.59,155.139 2427.5,144.5C 2423.99,138.154 2421.16,131.487 2419,124.5C 2405.79,107.491 2388.79,98.4914 2368,97.5C 2354.09,95.9724 2340.09,94.9724 2326,94.5C 2322.18,95.0198 2318.35,95.3531 2314.5,95.5C 2192.03,94.6485 2070.19,93.9818 1949,93.5C 1933.82,93.5726 1918.65,94.0726 1903.5,95C 1895.18,96.7481 1886.85,98.4148 1878.5,100C 1869.7,103.482 1861.36,107.815 1853.5,113C 1849.61,117.391 1845.28,121.224 1840.5,124.5C 1839.17,126.167 1839.17,127.833 1840.5,129.5C 1837.4,135.641 1834.4,141.808 1831.5,148C 1832.21,152.782 1830.71,156.948 1827,160.5C 1826.67,162.833 1826.33,165.167 1826,167.5C 1823.6,168.781 1821.76,170.614 1820.5,173C 1821.17,173.333 1821.83,173.667 1822.5,174C 1821.33,174.5 1820.5,175.333 1820,176.5C 1818.28,181.138 1817.12,185.971 1816.5,191C 1814.9,191.29 1813.4,192.123 1812,193.5C 1811.69,195.556 1811.19,197.556 1810.5,199.5C 1810.83,200.167 1811.17,200.833 1811.5,201.5C 1809.29,203.215 1807.62,205.381 1806.5,208C 1806.83,208.333 1807.17,208.667 1807.5,209C 1806.36,210.53 1805.36,211.863 1804.5,213C 1805.87,215.239 1805.37,217.073 1803,218.5C 1791.14,251.169 1778.64,283.836 1765.5,316.5C 1765.34,314.473 1765.5,312.473 1766,310.5C 1775.8,282.957 1785.13,255.291 1794,227.5C 1798.05,219.367 1801.71,211.034 1805,202.5C 1814.91,174.995 1824.58,147.328 1834,119.5C 1839.61,112.561 1845.77,106.394 1852.5,101C 1859.92,97.5252 1867.25,93.8586 1874.5,90C 1885.09,89.2423 1895.42,87.7423 1905.5,85.5C 2053.75,85.4246 2201.92,85.4246 2350,85.5C 2358.51,86.5872 2367.01,87.5872 2375.5,88.5 Z"
       id="path4" />
  </g>
  <g
     id="g5"
     style="fill:#f9f9f9">
    <path
       style="opacity:0.996;fill:#f9f9f9"
       fill="#fefefe"
       d="M 1775.5,144.5 C 1775.42,151.851 1775.75,159.184 1776.5,166.5C 1775.01,190.048 1770.51,213.048 1763,235.5C 1746.97,276.594 1732.3,318.261 1719,360.5C 1717.67,362.5 1716.33,364.5 1715,366.5C 1708.91,383.782 1702.24,400.782 1695,417.5C 1691.17,422.667 1686.67,427.167 1681.5,431C 1664.37,439.076 1646.37,443.742 1627.5,445C 1534.5,445.667 1441.5,445.667 1348.5,445C 1344.61,441.61 1341.27,437.777 1338.5,433.5C 1339.85,430.807 1341.18,428.14 1342.5,425.5C 1346.93,423.405 1349.93,420.071 1351.5,415.5C 1353.39,415.703 1354.89,415.037 1356,413.5C 1357.08,411.004 1358.41,408.67 1360,406.5C 1365.08,390.262 1370.75,374.262 1377,358.5C 1378,354.167 1379,349.833 1380,345.5C 1382.35,342.495 1385.35,340.495 1389,339.5C 1395.42,340.157 1401.92,340.491 1408.5,340.5C 1426.17,340.039 1443.83,339.539 1461.5,339C 1485.17,330.999 1501.34,315.166 1510,291.5C 1516.6,272.072 1523.27,253.072 1530,234.5C 1532.35,227.94 1531.85,221.607 1528.5,215.5C 1525,209.497 1520.33,204.663 1514.5,201C 1512.15,200.564 1509.82,200.064 1507.5,199.5C 1489.95,201.912 1472.45,202.578 1455,201.5C 1441.81,202.199 1428.65,203.199 1415.5,204.5C 1406.68,203.447 1397.84,203.447 1389,204.5C 1376.58,203.002 1364.08,202.169 1351.5,202C 1342.63,199.828 1333.63,198.494 1324.5,198C 1249.82,197.371 1175.15,197.371 1100.5,198C 1098.08,196.491 1097.08,194.325 1097.5,191.5C 1098.03,189.77 1099.03,188.436 1100.5,187.5C 1105.46,183.712 1110.29,179.712 1115,175.5C 1124.93,150.052 1134.26,124.385 1143,98.5C 1143.9,97.2986 1145.07,96.4652 1146.5,96C 1324.38,94.5711 1502.04,93.9044 1679.5,94C 1689.85,94.3677 1700.19,95.0343 1710.5,96C 1730.17,98.8347 1746.84,107.501 1760.5,122C 1761.45,122.483 1762.45,122.649 1763.5,122.5C 1766.33,130.616 1770.33,137.949 1775.5,144.5 Z"
       id="path5" />
  </g>
  <g
     id="g6"
     style="fill:#f9f9f9">
    <path
       style="opacity:0.996;fill:#f9f9f9"
       fill="#fefefe"
       d="M 2410.5,251.5 C 2409.59,255.407 2407.26,258.074 2403.5,259.5C 2401.98,259.511 2400.82,260.177 2400,261.5C 2399.25,260.874 2398.42,260.374 2397.5,260C 2397.83,259.667 2398.17,259.333 2398.5,259C 2387.25,257.118 2375.92,255.784 2364.5,255C 2300.5,254.333 2236.5,254.333 2172.5,255C 2170.13,257.039 2168.13,259.372 2166.5,262C 2165.21,262.49 2163.87,262.657 2162.5,262.5C 2165.41,254.447 2167.74,246.281 2169.5,238C 2168.52,230.162 2165.18,223.662 2159.5,218.5C 2161.44,213.933 2163.44,209.266 2165.5,204.5C 2164.29,202.931 2162.62,202.098 2160.5,202C 2134.61,201.524 2108.78,201.024 2083,200.5C 2065.85,199.866 2051.52,205.866 2040,218.5C 2034.83,225.173 2031,232.507 2028.5,240.5C 2027.16,243.838 2025.83,247.171 2024.5,250.5C 2022.66,251.122 2021.5,252.456 2021,254.5C 2021.08,259.075 2019.92,263.242 2017.5,267C 2019.36,279.74 2026.36,288.073 2038.5,292C 2117.16,293.663 2195.83,293.996 2274.5,293C 2291.34,293.943 2307.67,297.277 2323.5,303C 2336.2,308.691 2345.03,317.858 2350,330.5C 2352.64,334.124 2354.81,337.957 2356.5,342C 2355.39,344.737 2355.22,347.571 2356,350.5C 2356.33,348.833 2356.67,347.167 2357,345.5C 2358.15,349.437 2358.98,353.437 2359.5,357.5C 2355.19,391.096 2345.85,423.096 2331.5,453.5C 2331.71,454.086 2332.04,454.586 2332.5,455C 2329.6,460.644 2327.1,466.477 2325,472.5C 2320.65,484.706 2316.82,497.039 2313.5,509.5C 2308.25,530.866 2300.41,551.199 2290,570.5C 2289.49,572.878 2288.82,575.212 2288,577.5C 2284.78,580.206 2281.61,583.04 2278.5,586C 2269.03,591.834 2259.36,597.167 2249.5,602C 2231.26,607.967 2212.6,611.134 2193.5,611.5C 2040.62,611.209 1887.62,611.209 1734.5,611.5C 1728.25,611.514 1722.25,610.348 1716.5,608C 1703.3,598.113 1694.13,585.28 1689,569.5C 1687.06,560.272 1685.9,550.938 1685.5,541.5C 1688.69,527.443 1692.19,513.443 1696,499.5C 1704.24,477.511 1712.07,455.344 1719.5,433C 1797.83,432.333 1876.17,432.333 1954.5,433C 1957.21,434.864 1958.04,437.364 1957,440.5C 1953.72,448.235 1950.55,456.068 1947.5,464C 1949.22,468.72 1950.72,473.554 1952,478.5C 1955.17,481.667 1958.33,484.833 1961.5,488C 1992.77,489.644 2024.11,489.977 2055.5,489C 2058.5,488.667 2061.5,488.333 2064.5,488C 2075.56,482.599 2084.4,474.765 2091,464.5C 2097.65,450.852 2102.32,436.519 2105,421.5C 2105.67,419.167 2105.67,416.833 2105,414.5C 2103.86,412.257 2103.03,409.924 2102.5,407.5C 2104.62,405.139 2105.29,402.472 2104.5,399.5C 2097.87,392.387 2089.87,390.554 2080.5,394C 2048.5,394.333 2016.5,394.667 1984.5,395C 1977.78,395.204 1971.12,395.704 1964.5,396.5C 1960.46,394.324 1956.13,393.157 1951.5,393C 1950.83,392.333 1950.17,391.667 1949.5,391C 1945.14,390.369 1940.81,390.535 1936.5,391.5C 1932.5,390.833 1928.5,390.167 1924.5,389.5C 1892.43,390.02 1860.26,390.353 1828,390.5C 1819.54,389.709 1811.04,389.209 1802.5,389C 1800.05,388.275 1797.72,387.275 1795.5,386C 1782.78,376.037 1772.78,363.871 1765.5,349.5C 1765.5,338.5 1765.5,327.5 1765.5,316.5C 1778.64,283.836 1791.14,251.169 1803,218.5C 1805.37,217.073 1805.87,215.239 1804.5,213C 1805.36,211.863 1806.36,210.53 1807.5,209C 1807.17,208.667 1806.83,208.333 1806.5,208C 1807.62,205.381 1809.29,203.215 1811.5,201.5C 1811.17,200.833 1810.83,200.167 1810.5,199.5C 1811.19,197.556 1811.69,195.556 1812,193.5C 1813.4,192.123 1814.9,191.29 1816.5,191C 1817.12,185.971 1818.28,181.138 1820,176.5C 1820.5,175.333 1821.33,174.5 1822.5,174C 1821.83,173.667 1821.17,173.333 1820.5,173C 1821.76,170.614 1823.6,168.781 1826,167.5C 1826.33,165.167 1826.67,162.833 1827,160.5C 1830.71,156.948 1832.21,152.782 1831.5,148C 1834.4,141.808 1837.4,135.641 1840.5,129.5C 1839.17,127.833 1839.17,126.167 1840.5,124.5C 1845.28,121.224 1849.61,117.391 1853.5,113C 1861.36,107.815 1869.7,103.482 1878.5,100C 1886.85,98.4148 1895.18,96.7481 1903.5,95C 1918.65,94.0726 1933.82,93.5726 1949,93.5C 2070.19,93.9818 2192.03,94.6485 2314.5,95.5C 2318.35,95.3531 2322.18,95.0198 2326,94.5C 2340.09,94.9724 2354.09,95.9724 2368,97.5C 2388.79,98.4914 2405.79,107.491 2419,124.5C 2421.16,131.487 2423.99,138.154 2427.5,144.5C 2427.59,155.139 2427.59,165.806 2427.5,176.5C 2427.44,179.111 2426.44,181.278 2424.5,183C 2425.02,183.561 2425.36,184.228 2425.5,185C 2421.65,204.314 2415.98,223.647 2408.5,243C 2409.71,245.687 2410.38,248.52 2410.5,251.5 Z"
       id="path6" />
  </g>
  <g
     id="g7"
     style="fill:#f9f9f9">
    <path
       style="opacity:0.913;fill:#f9f9f9"
       fill="#f5f5f5"
       d="M 1097.5,191.5 C 1097.08,194.325 1098.08,196.491 1100.5,198C 1175.15,197.371 1249.82,197.371 1324.5,198C 1333.63,198.494 1342.63,199.828 1351.5,202C 1364.08,202.169 1376.58,203.002 1389,204.5C 1397.84,203.447 1406.68,203.447 1415.5,204.5C 1428.65,203.199 1441.81,202.199 1455,201.5C 1472.45,202.578 1489.95,201.912 1507.5,199.5C 1509.82,200.064 1512.15,200.564 1514.5,201C 1520.33,204.663 1525,209.497 1528.5,215.5C 1531.85,221.607 1532.35,227.94 1530,234.5C 1523.27,253.072 1516.6,272.072 1510,291.5C 1501.34,315.166 1485.17,330.999 1461.5,339C 1443.83,339.539 1426.17,340.039 1408.5,340.5C 1401.92,340.491 1395.42,340.157 1389,339.5C 1385.35,340.495 1382.35,342.495 1380,345.5C 1379,349.833 1378,354.167 1377,358.5C 1370.75,374.262 1365.08,390.262 1360,406.5C 1358.41,408.67 1357.08,411.004 1356,413.5C 1354.89,415.037 1353.39,415.703 1351.5,415.5C 1349.93,420.071 1346.93,423.405 1342.5,425.5C 1354.34,393.696 1365.67,361.862 1376.5,330C 1403.85,329.799 1431.18,329.299 1458.5,328.5C 1469.49,325.336 1478.99,319.67 1487,311.5C 1489.14,308.061 1491.64,304.894 1494.5,302C 1504.06,280.733 1512.56,258.566 1520,235.5C 1521.4,230.999 1521.9,226.499 1521.5,222C 1521.3,219.594 1520.3,217.594 1518.5,216C 1507.93,214.064 1497.26,213.23 1486.5,213.5C 1441.72,213.648 1396.89,213.648 1352,213.5C 1347.76,213.714 1343.6,214.381 1339.5,215.5C 1327.54,214.379 1315.54,213.712 1303.5,213.5C 1257.46,213.988 1211.62,214.321 1166,214.5C 1160.42,213.188 1154.75,212.521 1149,212.5C 1137.34,214.417 1125.5,214.917 1113.5,214C 1111.5,213 1109.5,212 1107.5,211C 1103.11,205.949 1098.78,200.949 1094.5,196C 1094.91,193.974 1095.91,192.474 1097.5,191.5 Z"
       id="path7" />
  </g>
  <g
     id="g8"
     style="fill:#f9f9f9">
    <path
       style="opacity:0.824;fill:#f9f9f9"
       fill="#f2f2f2"
       d="M 2159.5,218.5 C 2157.86,217.343 2156.2,216.176 2154.5,215C 2132.83,214.578 2111.16,214.078 2089.5,213.5C 2076.84,212.764 2064.51,214.264 2052.5,218C 2047.5,221.5 2042.5,225 2037.5,228.5C 2034.44,232.542 2031.44,236.542 2028.5,240.5C 2031,232.507 2034.83,225.173 2040,218.5C 2051.52,205.866 2065.85,199.866 2083,200.5C 2108.78,201.024 2134.61,201.524 2160.5,202C 2162.62,202.098 2164.29,202.931 2165.5,204.5C 2163.44,209.266 2161.44,213.933 2159.5,218.5 Z"
       id="path8" />
  </g>
  <g
     id="g9"
     style="fill:#f9f9f9">
    <path
       style="opacity:0.044;fill:#f9f9f9"
       fill="#ececec"
       d="M 1344.5,220.5 C 1348.52,220.948 1352.52,221.614 1356.5,222.5C 1356.29,223.086 1355.96,223.586 1355.5,224C 1349.11,224.428 1342.78,223.928 1336.5,222.5C 1339.31,221.832 1341.97,221.166 1344.5,220.5 Z"
       id="path9" />
  </g>
  <g
     id="g10"
     style="fill:#f9f9f9">
    <path
       style="opacity:0.894;fill:#f9f9f9"
       fill="#f7f7f7"
       d="M 1361.5,233.5 C 1359.06,235.263 1356.23,236.597 1353,237.5C 1335.22,236.303 1317.39,236.469 1299.5,238C 1305.77,238.202 1311.93,239.035 1318,240.5C 1320.77,240.245 1323.43,239.578 1326,238.5C 1327.22,238.862 1328.39,239.362 1329.5,240C 1336.17,240.333 1342.83,240.667 1349.5,241C 1348.83,241.667 1348.17,242.333 1347.5,243C 1279.83,243.333 1212.17,243.667 1144.5,244C 1142.39,245.141 1140.56,246.641 1139,248.5C 1100.52,356.292 1061.85,463.959 1023,571.5C 1021.19,575.918 1019.19,580.251 1017,584.5C 1012.03,588.466 1007.37,592.799 1003,597.5C 1001.95,599.921 1001.79,602.254 1002.5,604.5C 998.929,604.592 997.762,602.926 999,599.5C 1000.33,598.167 1001.67,596.833 1003,595.5C 1005.12,589.264 1007.78,583.264 1011,577.5C 1023.51,544.523 1035.17,511.189 1046,477.5C 1048.27,473.286 1050.27,468.953 1052,464.5C 1055.94,452.949 1059.6,441.283 1063,429.5C 1064.25,427.999 1065.25,426.332 1066,424.5C 1074.14,399.874 1083.14,375.54 1093,351.5C 1097.38,338.402 1102.05,325.402 1107,312.5C 1108.8,302.616 1112.14,293.283 1117,284.5C 1118,280.167 1119,275.833 1120,271.5C 1125.75,259.314 1130.42,246.647 1134,233.5C 1209.78,233.485 1285.61,233.485 1361.5,233.5 Z"
       id="path10" />
  </g>
  <g
     id="g11"
     style="fill:#f9f9f9">
    <path
       style="opacity:0.992;fill:#f9f9f9"
       fill="#fdfdfd"
       d="M 1002.5,604.5 C 1001.79,602.254 1001.95,599.921 1003,597.5C 1007.37,592.799 1012.03,588.466 1017,584.5C 1019.19,580.251 1021.19,575.918 1023,571.5C 1061.85,463.959 1100.52,356.292 1139,248.5C 1140.56,246.641 1142.39,245.141 1144.5,244C 1212.17,243.667 1279.83,243.333 1347.5,243C 1348.17,242.333 1348.83,241.667 1349.5,241C 1342.83,240.667 1336.17,240.333 1329.5,240C 1328.39,239.362 1327.22,238.862 1326,238.5C 1323.43,239.578 1320.77,240.245 1318,240.5C 1311.93,239.035 1305.77,238.202 1299.5,238C 1317.39,236.469 1335.22,236.303 1353,237.5C 1356.23,236.597 1359.06,235.263 1361.5,233.5C 1365.49,232.81 1369.49,232.643 1373.5,233C 1378.22,238.801 1381.06,245.301 1382,252.5C 1339,372.401 1295.66,491.734 1252,610.5C 1178.79,610.338 1105.45,610.671 1032,611.5C 1021.29,612.307 1011.46,609.973 1002.5,604.5 Z"
       id="path11" />
  </g>
  <g
     id="g12"
     style="fill:#f9f9f9">
    <path
       style="opacity:0.866;fill:#f9f9f9"
       fill="#f7f7f7"
       d="M 2024.5,250.5 C 2022.23,260.864 2024.9,269.697 2032.5,277C 2035.19,278.368 2037.85,279.701 2040.5,281C 2090.84,281.786 2141.17,281.619 2191.5,280.5C 2193.17,280.5 2194.83,280.5 2196.5,280.5C 2204.44,281.437 2212.44,281.77 2220.5,281.5C 2227.98,282.492 2235.65,282.825 2243.5,282.5C 2247.06,283.787 2250.73,283.787 2254.5,282.5C 2258.5,282.5 2262.5,282.5 2266.5,282.5C 2270.4,283.43 2274.4,283.763 2278.5,283.5C 2282.67,284.405 2286.67,284.405 2290.5,283.5C 2298.91,285.978 2307.57,287.811 2316.5,289C 2323.15,291.989 2329.82,294.989 2336.5,298C 2338.88,301.035 2341.88,303.369 2345.5,305C 2348.31,309.802 2351.81,313.969 2356,317.5C 2357.26,323.934 2358.92,330.268 2361,336.5C 2362,351.579 2361.33,366.579 2359,381.5C 2350.17,415.828 2338.5,449.162 2324,481.5C 2322.74,491.81 2319.24,501.143 2313.5,509.5C 2316.82,497.039 2320.65,484.706 2325,472.5C 2327.1,466.477 2329.6,460.644 2332.5,455C 2332.04,454.586 2331.71,454.086 2331.5,453.5C 2345.85,423.096 2355.19,391.096 2359.5,357.5C 2358.98,353.437 2358.15,349.437 2357,345.5C 2356.67,347.167 2356.33,348.833 2356,350.5C 2355.22,347.571 2355.39,344.737 2356.5,342C 2354.81,337.957 2352.64,334.124 2350,330.5C 2345.03,317.858 2336.2,308.691 2323.5,303C 2307.67,297.277 2291.34,293.943 2274.5,293C 2195.83,293.996 2117.16,293.663 2038.5,292C 2026.36,288.073 2019.36,279.74 2017.5,267C 2019.92,263.242 2021.08,259.075 2021,254.5C 2021.5,252.456 2022.66,251.122 2024.5,250.5 Z"
       id="path12" />
  </g>
  <g
     id="g14"
     style="fill:#f9f9f9">
    <path
       style="opacity:0.883;fill:#f9f9f9"
       fill="#f4f4f4"
       d="M 1765.5,349.5 C 1772.78,363.871 1782.78,376.037 1795.5,386C 1797.72,387.275 1800.05,388.275 1802.5,389C 1811.04,389.209 1819.54,389.709 1828,390.5C 1860.26,390.353 1892.43,390.02 1924.5,389.5C 1928.5,390.167 1932.5,390.833 1936.5,391.5C 1940.81,390.535 1945.14,390.369 1949.5,391C 1950.17,391.667 1950.83,392.333 1951.5,393C 1956.13,393.157 1960.46,394.324 1964.5,396.5C 1971.12,395.704 1977.78,395.204 1984.5,395C 2016.5,394.667 2048.5,394.333 2080.5,394C 2089.87,390.554 2097.87,392.387 2104.5,399.5C 2105.29,402.472 2104.62,405.139 2102.5,407.5C 2101.71,406.206 2100.71,405.039 2099.5,404C 2094.99,402.145 2090.49,400.312 2086,398.5C 2084.89,398.585 2083.89,398.919 2083,399.5C 2067.56,398.795 2052.06,398.128 2036.5,397.5C 2012.31,398.418 1988.14,398.418 1964,397.5C 1956.98,398.084 1949.98,398.751 1943,399.5C 1916.01,398.175 1889.01,398.175 1862,399.5C 1842.85,398.697 1823.69,398.197 1804.5,398C 1800.39,397.378 1796.39,396.378 1792.5,395C 1777.1,383.618 1768.1,368.451 1765.5,349.5 Z"
       id="path14" />
  </g>
  <g
     id="g15"
     style="fill:#f9f9f9">
    <path
       style="opacity:0.983;fill:#f9f9f9"
       fill="#fefefe"
       d="M 2366.5,489.5 C 2366.41,490.496 2366.75,491.329 2367.5,492C 2371.92,493.244 2374.26,496.077 2374.5,500.5C 2444.56,501.737 2514.56,502.404 2584.5,502.5C 2584.42,503.93 2584.75,505.264 2585.5,506.5C 2576.48,533.388 2566.98,560.055 2557,586.5C 2557.09,590.608 2557.92,594.608 2559.5,598.5C 2559.27,600.207 2558.94,601.874 2558.5,603.5C 2551.35,606.829 2543.85,609.495 2536,611.5C 2460.12,610.724 2384.29,610.558 2308.5,611C 2307.94,610.275 2307.61,609.442 2307.5,608.5C 2320.02,573.083 2332.86,537.75 2346,502.5C 2352,497.833 2358,493.167 2364,488.5C 2364.67,489.252 2365.5,489.586 2366.5,489.5 Z"
       id="path15" />
  </g>
  <g
     id="g16"
     style="fill:#f9f9f9">
    <path
       style="opacity:0.903;fill:#f9f9f9"
       fill="#f7f7f7"
       d="M 2366.5,489.5 C 2444.17,489.167 2521.84,489.5 2599.5,490.5C 2587.29,522.466 2575.29,554.466 2563.5,586.5C 2562.19,591.757 2561.36,597.091 2561,602.5C 2560.33,603.252 2559.5,603.586 2558.5,603.5C 2558.94,601.874 2559.27,600.207 2559.5,598.5C 2557.92,594.608 2557.09,590.608 2557,586.5C 2566.98,560.055 2576.48,533.388 2585.5,506.5C 2584.75,505.264 2584.42,503.93 2584.5,502.5C 2514.56,502.404 2444.56,501.737 2374.5,500.5C 2374.26,496.077 2371.92,493.244 2367.5,492C 2366.75,491.329 2366.41,490.496 2366.5,489.5 Z"
       id="path16" />
  </g>
  <g
     id="g17"
     style="fill:#f9f9f9">
    <path
       style="opacity:0.462;fill:#f9f9f9"
       fill="#ededed"
       d="M 1137.5,702.5 C 1118.47,703.822 1099.47,703.822 1080.5,702.5C 1080.86,700.629 1081.86,699.129 1083.5,698C 1088.25,696.923 1093.08,696.423 1098,696.5C 1108.17,696.93 1118.34,697.43 1128.5,698C 1131.65,699.424 1134.65,700.924 1137.5,702.5 Z"
       id="path17" />
  </g>
  <g
     id="g18"
     style="fill:#f9f9f9">
    <path
       style="opacity:0.968;fill:#f9f9f9"
       fill="#fefefe"
       d="M 1080.5,702.5 C 1099.47,703.822 1118.47,703.822 1137.5,702.5C 1219.5,701.905 1301.5,701.905 1383.5,702.5C 1398.14,701.216 1412.8,700.216 1427.5,699.5C 1435.55,699.606 1443.55,700.273 1451.5,701.5C 1441.41,705.971 1430.74,707.804 1419.5,707C 1406.36,708.561 1393.36,710.894 1380.5,714C 1311.17,714.333 1241.83,714.667 1172.5,715C 1162.82,715.168 1153.15,715.668 1143.5,716.5C 1143,717.5 1142.5,718.5 1142,719.5C 1141.79,728.035 1141.29,736.535 1140.5,745C 1140.64,745.772 1140.98,746.439 1141.5,747C 1152.81,747.487 1163.98,748.32 1175,749.5C 1180.17,749.333 1185.33,749.167 1190.5,749C 1192.71,747.368 1195.04,747.368 1197.5,749C 1207.5,749.333 1217.5,749.667 1227.5,750C 1230.47,751.698 1233.47,751.531 1236.5,749.5C 1237.79,750.098 1239.13,750.598 1240.5,751C 1334.24,753.248 1427.91,755.748 1521.5,758.5C 1522.43,760.022 1523.6,761.355 1525,762.5C 1527.86,763.046 1530.53,764.046 1533,765.5C 1533.33,767.833 1533.67,770.167 1534,772.5C 1534.02,791.221 1534.85,809.888 1536.5,828.5C 1536.39,829.442 1536.06,830.275 1535.5,831C 1533.51,831.374 1531.84,832.207 1530.5,833.5C 1529.71,833.217 1529.04,832.717 1528.5,832C 1435.01,829.258 1341.34,827.258 1247.5,826C 1216.95,824.742 1186.28,823.576 1155.5,822.5C 1151.2,823.21 1146.86,823.71 1142.5,824C 1140.83,825.667 1139.17,827.333 1137.5,829C 1110.16,829.672 1082.83,829.505 1055.5,828.5C 1049.4,828.376 1043.4,828.876 1037.5,830C 1033.6,833.531 1029.44,836.697 1025,839.5C 1022.3,851.086 1019.96,862.753 1018,874.5C 1016.96,930.33 1017.96,985.996 1021,1041.5C 1021.67,1057.83 1021.67,1074.17 1021,1090.5C 1017.25,1099 1010.75,1102 1001.5,1099.5C 999.836,1098.26 998.669,1096.59 998,1094.5C 994.201,1017.51 990.367,940.513 986.5,863.5C 987.739,850.161 987.739,836.827 986.5,823.5C 987.916,818.107 988.583,812.607 988.5,807C 988.057,795.543 988.057,784.209 988.5,773C 989.027,767.945 991.361,763.945 995.5,761C 1013.07,757.2 1029.4,750.534 1044.5,741C 1041.53,740.206 1038.53,739.539 1035.5,739C 1034.67,738.167 1033.83,737.333 1033,736.5C 1032.83,729.144 1032.33,721.811 1031.5,714.5C 1030.2,721.041 1029.54,721.041 1029.5,714.5C 1017.29,713.662 1004.96,713.495 992.5,714C 991.584,714.278 990.918,714.778 990.5,715.5C 904.833,715.667 819.166,715.5 733.5,715C 731.051,714.275 728.717,713.275 726.5,712C 718.756,711.897 711.089,711.231 703.5,710C 699.562,707.939 699.562,705.773 703.5,703.5C 702.833,702.5 702.167,701.5 701.5,700.5C 706.167,700.167 710.833,699.833 715.5,699.5C 720.671,699.356 725.671,699.856 730.5,701C 748.37,701.226 766.204,701.392 784,701.5C 795.455,700.101 806.955,699.601 818.5,700C 819.649,701.744 820.983,701.911 822.5,700.5C 885.932,701.672 949.265,702.339 1012.5,702.5C 1014.9,701.611 1016.9,700.111 1018.5,698C 1030.49,696.367 1042.49,696.367 1054.5,698C 1056.69,699.064 1058.69,700.398 1060.5,702C 1067.16,702.5 1073.83,702.666 1080.5,702.5 Z"
       id="path18" />
  </g>
  <g
     id="g19"
     style="fill:#f9f9f9">
    <path
       style="opacity:0.016;fill:#f9f9f9"
       fill="#ebeceb"
       d="M 681.5,704.5 C 685.491,704.648 686.324,706.314 684,709.5C 682.117,708.347 681.284,706.681 681.5,704.5 Z"
       id="path19" />
  </g>
  <g
     id="g20"
     style="fill:#f9f9f9">
    <path
       style="opacity:0.971;fill:#f9f9f9"
       fill="#fefefe"
       d="M 2621.5,742.5 C 2614.25,741.536 2606.92,741.203 2599.5,741.5C 2590.35,740.506 2581.01,740.173 2571.5,740.5C 2571.46,748.879 2571.63,757.212 2572,765.5C 2570.83,766.893 2569.33,767.727 2567.5,768C 2562.52,769.107 2557.52,770.107 2552.5,771C 2567.81,775.437 2582.48,781.437 2596.5,789C 2603.02,789.488 2608.52,791.988 2613,796.5C 2613.92,798.034 2614.42,799.701 2614.5,801.5C 2613.69,827.817 2613.19,854.15 2613,880.5C 2606.98,958.5 2600.15,1036.83 2592.5,1115.5C 2594.67,1120.68 2593.67,1125.01 2589.5,1128.5C 2584.27,1128.22 2579.27,1127.06 2574.5,1125C 2573.21,1123.59 2572.05,1122.09 2571,1120.5C 2570.41,1104.82 2570.75,1089.15 2572,1073.5C 2573.97,1049.83 2575.97,1026.16 2578,1002.5C 2578.84,973.678 2580.34,945.011 2582.5,916.5C 2582.33,912.5 2582.17,908.5 2582,904.5C 2580.96,903.627 2580.12,902.627 2579.5,901.5C 2579.08,899.248 2577.75,897.748 2575.5,897C 2578.44,896.06 2579.78,894.06 2579.5,891C 2578.54,884.182 2577.71,877.348 2577,870.5C 2573.14,865.976 2568.64,862.142 2563.5,859C 2528.84,858.175 2494.17,857.509 2459.5,857C 2456.94,854.046 2454.28,851.212 2451.5,848.5C 2317.17,846.187 2182.84,844.02 2048.5,842C 2047.02,840.701 2046.35,839.034 2046.5,837C 2048.73,817.559 2050.23,798.059 2051,778.5C 2052.37,773.802 2055.54,771.302 2060.5,771C 2061.25,770.329 2061.59,769.496 2061.5,768.5C 2082.17,768.333 2102.84,768.5 2123.5,769C 2127.88,770.973 2132.21,770.806 2136.5,768.5C 2138.43,769.366 2140.43,770.033 2142.5,770.5C 2183.22,770.439 2223.89,770.439 2264.5,770.5C 2326.27,772.213 2387.94,773.38 2449.5,774C 2452.83,773 2456.17,772 2459.5,771C 2458.77,760.544 2458.11,750.044 2457.5,739.5C 2457.95,738.542 2458.62,737.708 2459.5,737C 2375.5,733.934 2291.5,731.101 2207.5,728.5C 2205.36,728.738 2203.69,729.738 2202.5,731.5C 2197.5,732.833 2192.5,732.833 2187.5,731.5C 2186.38,730.086 2185.38,728.586 2184.5,727C 2161.52,726.835 2138.52,726.168 2115.5,725C 2112.36,724.034 2109.36,722.701 2106.5,721C 2114.12,719.854 2121.78,719.188 2129.5,719C 2126.13,716.995 2122.8,714.995 2119.5,713C 2126.33,712.833 2133.17,712.667 2140,712.5C 2254.49,716.774 2368.99,720.274 2483.5,723C 2483.17,722.667 2482.83,722.333 2482.5,722C 2483.43,721.009 2484.6,720.509 2486,720.5C 2491.96,721.057 2497.79,722.224 2503.5,724C 2669.82,729.66 2836.15,734.827 3002.5,739.5C 3002.5,740.5 3002.5,741.5 3002.5,742.5C 2990.74,744.736 2990.74,745.736 3002.5,745.5C 3002.71,747.144 3002.38,748.644 3001.5,750C 2991.5,750.333 2981.5,750.667 2971.5,751C 2965.86,753.213 2960.03,754.38 2954,754.5C 2930.67,753.377 2907.34,752.377 2884,751.5C 2847.99,753.487 2812.16,752.32 2776.5,748C 2724.81,746.73 2673.14,744.896 2621.5,742.5 Z"
       id="path20" />
  </g>
  <g
     id="g21"
     style="fill:#f9f9f9">
    <path
       style="opacity:0.998;fill:#f9f9f9"
       fill="#f4f4f4"
       d="M 1001.5,1099.5 C 992.148,1096.63 982.481,1094.79 972.5,1094C 968.544,1090.83 967.211,1086.83 968.5,1082C 966.696,1062.03 965.362,1042.03 964.5,1022C 964.283,982.521 962.616,943.021 959.5,903.5C 959.711,901.314 960.044,899.147 960.5,897C 958.276,864.214 956.943,831.381 956.5,798.5C 957.391,787.451 957.557,776.451 957,765.5C 959.814,761.025 962.981,756.859 966.5,753C 970.095,752.439 973.428,751.272 976.5,749.5C 977.665,750.491 978.832,751.491 980,752.5C 980.5,752.333 981,752.167 981.5,752C 982.854,746.145 986.521,742.979 992.5,742.5C 990.621,733.713 989.955,724.713 990.5,715.5C 990.918,714.778 991.584,714.278 992.5,714C 1004.96,713.495 1017.29,713.662 1029.5,714.5C 1029.54,721.041 1030.2,721.041 1031.5,714.5C 1032.33,721.811 1032.83,729.144 1033,736.5C 1033.83,737.333 1034.67,738.167 1035.5,739C 1038.53,739.539 1041.53,740.206 1044.5,741C 1029.4,750.534 1013.07,757.2 995.5,761C 991.361,763.945 989.027,767.945 988.5,773C 988.057,784.209 988.057,795.543 988.5,807C 988.583,812.607 987.916,818.107 986.5,823.5C 987.739,836.827 987.739,850.161 986.5,863.5C 990.367,940.513 994.201,1017.51 998,1094.5C 998.669,1096.59 999.836,1098.26 1001.5,1099.5 Z"
       id="path21" />
  </g>
  <g
     id="g22"
     style="fill:#f9f9f9">
    <path
       style="opacity:0.99;fill:#f9f9f9"
       fill="#fdfdfd"
       d="M 2043.5,751.5 C 2042.54,753.333 2041.87,755.333 2041.5,757.5C 2042.72,775.836 2042.55,794.17 2041,812.5C 2040.3,815.004 2039.47,817.337 2038.5,819.5C 2035.99,826.869 2033.16,834.203 2030,841.5C 2023.67,845.167 2018.67,850.167 2015,856.5C 2011.67,859.167 2008.33,861.833 2005,864.5C 2002.07,870.033 1998.4,875.033 1994,879.5C 1986.89,885.694 1980.23,892.36 1974,899.5C 1968.84,909.829 1966.34,920.829 1966.5,932.5C 1965.78,938.499 1964.95,944.499 1964,950.5C 1963.31,986.566 1961.47,1022.57 1958.5,1058.5C 1955.7,1065.27 1953.53,1072.27 1952,1079.5C 1946.86,1088.49 1939.02,1092.99 1928.5,1093C 1898.63,1093.42 1868.79,1093.59 1839,1093.5C 1834.14,1091.95 1829.31,1090.45 1824.5,1089C 1797.62,1088.91 1770.79,1088.07 1744,1086.5C 1742.13,1087.38 1740.97,1088.88 1740.5,1091C 1718.47,1091.25 1696.47,1090.75 1674.5,1089.5C 1672.69,1089.97 1670.86,1090.31 1669,1090.5C 1659.54,1089.08 1650.04,1087.91 1640.5,1087C 1629.89,1084.89 1622.89,1078.72 1619.5,1068.5C 1617.82,1052.55 1616.66,1036.55 1616,1020.5C 1616,989.13 1615.16,957.797 1613.5,926.5C 1613.95,911.978 1610.79,898.311 1604,885.5C 1601.37,883.874 1599.04,881.874 1597,879.5C 1593.83,873.819 1590.16,868.486 1586,863.5C 1585.71,861.048 1585.04,858.715 1584,856.5C 1578.87,852.027 1573.37,848.193 1567.5,845C 1565.47,842.906 1563.81,840.573 1562.5,838C 1559.44,836.782 1556.78,834.949 1554.5,832.5C 1551.68,827.537 1548.85,822.537 1546,817.5C 1544.49,812.607 1543.49,807.607 1543,802.5C 1542.8,782.469 1542.3,762.469 1541.5,742.5C 1555.29,738.474 1568.95,734.307 1582.5,730C 1591.55,729.463 1600.21,727.796 1608.5,725C 1628.04,724.077 1647.54,723.244 1667,722.5C 1676.5,722.667 1686,722.833 1695.5,723C 1697.97,724.114 1700.64,724.614 1703.5,724.5C 1707.71,724.588 1711.71,723.921 1715.5,722.5C 1726.33,725.152 1737.17,725.152 1748,722.5C 1750.05,722.423 1751.88,722.923 1753.5,724C 1777.83,724.333 1802.17,724.667 1826.5,725C 1841.5,726 1856.5,727 1871.5,728C 1899.54,728.579 1927.54,729.245 1955.5,730C 1961.66,731.292 1968,731.959 1974.5,732C 1982.52,734.39 1990.85,736.056 1999.5,737C 2013.92,742.263 2028.58,747.096 2043.5,751.5 Z"
       id="path22" />
  </g>
  <g
     id="g23"
     style="fill:#f9f9f9">
    <path
       style="opacity:0.153;fill:#f9f9f9"
       fill="#ececec"
       d="M 2207.5,728.5 C 2291.5,731.101 2375.5,733.934 2459.5,737C 2458.62,737.708 2457.95,738.542 2457.5,739.5C 2381.11,737.58 2304.77,735.747 2228.5,734C 2224.15,733.427 2219.82,732.76 2215.5,732C 2214.83,731.333 2214.17,730.667 2213.5,730C 2211.29,729.809 2209.29,729.309 2207.5,728.5 Z"
       id="path23" />
  </g>
  <g
     id="g24"
     style="fill:#f9f9f9">
    <path
       style="opacity:0.998;fill:#f9f9f9"
       fill="#f5f5f5"
       d="M 2599.5,741.5 C 2593.17,741.5 2586.83,741.5 2580.5,741.5C 2580.81,746.223 2580.14,750.723 2578.5,755C 2580.13,759.055 2580.63,763.222 2580,767.5C 2577.72,769.037 2575.22,770.203 2572.5,771C 2579.64,772.639 2586.64,774.639 2593.5,777C 2594.85,778.635 2594.68,780.135 2593,781.5C 2588.89,779.407 2584.73,777.407 2580.5,775.5C 2579.33,775.919 2578.33,776.585 2577.5,777.5C 2592.16,786.733 2608.16,791.233 2625.5,791C 2627.33,793.5 2629.5,795.667 2632,797.5C 2631.58,807.626 2631.58,817.626 2632,827.5C 2633.57,819.179 2634.24,810.845 2634,802.5C 2634.41,802.043 2634.91,801.709 2635.5,801.5C 2635.83,806.5 2636.17,811.5 2636.5,816.5C 2633.99,862.219 2630.83,907.885 2627,953.5C 2622.53,996.45 2618.53,1039.45 2615,1082.5C 2613.57,1093.92 2611.73,1105.25 2609.5,1116.5C 2612.46,1078.22 2615.96,1039.89 2620,1001.5C 2621.06,993.624 2620.56,985.957 2618.5,978.5C 2621.86,946.551 2624.36,914.551 2626,882.5C 2619.09,959.251 2611.42,1035.92 2603,1112.5C 2602.06,1116.11 2601.39,1119.78 2601,1123.5C 2599.96,1124.37 2599.12,1125.37 2598.5,1126.5C 2595.73,1127.66 2592.73,1128.32 2589.5,1128.5C 2593.67,1125.01 2594.67,1120.68 2592.5,1115.5C 2600.15,1036.83 2606.98,958.5 2613,880.5C 2613.19,854.15 2613.69,827.817 2614.5,801.5C 2614.42,799.701 2613.92,798.034 2613,796.5C 2608.52,791.988 2603.02,789.488 2596.5,789C 2582.48,781.437 2567.81,775.437 2552.5,771C 2557.52,770.107 2562.52,769.107 2567.5,768C 2569.33,767.727 2570.83,766.893 2572,765.5C 2571.63,757.212 2571.46,748.879 2571.5,740.5C 2581.01,740.173 2590.35,740.506 2599.5,741.5 Z"
       id="path24" />
  </g>
  <g
     id="g25"
     style="fill:#f9f9f9">
    <path
       style="opacity:0.9;fill:#f9f9f9"
       fill="#f0f0f0"
       d="M 2599.5,741.5 C 2606.92,741.203 2614.25,741.536 2621.5,742.5C 2620.5,743.683 2619.66,745.016 2619,746.5C 2618.08,755.147 2617.42,763.814 2617,772.5C 2615.76,773.399 2614.93,774.566 2614.5,776C 2615.74,777.856 2615.74,779.689 2614.5,781.5C 2615.28,783.455 2616.78,784.455 2619,784.5C 2631.28,782.474 2639.44,787.307 2643.5,799C 2642.71,823.174 2641.55,847.341 2640,871.5C 2633.72,944.47 2627.72,1017.47 2622,1090.5C 2620.1,1098.74 2618.76,1107.07 2618,1115.5C 2617.7,1117.89 2616.86,1120.06 2615.5,1122C 2609.57,1122.77 2603.9,1124.27 2598.5,1126.5C 2599.12,1125.37 2599.96,1124.37 2601,1123.5C 2601.39,1119.78 2602.06,1116.11 2603,1112.5C 2611.42,1035.92 2619.09,959.251 2626,882.5C 2624.36,914.551 2621.86,946.551 2618.5,978.5C 2620.56,985.957 2621.06,993.624 2620,1001.5C 2615.96,1039.89 2612.46,1078.22 2609.5,1116.5C 2611.73,1105.25 2613.57,1093.92 2615,1082.5C 2618.53,1039.45 2622.53,996.45 2627,953.5C 2630.83,907.885 2633.99,862.219 2636.5,816.5C 2636.17,811.5 2635.83,806.5 2635.5,801.5C 2634.91,801.709 2634.41,802.043 2634,802.5C 2634.24,810.845 2633.57,819.179 2632,827.5C 2631.58,817.626 2631.58,807.626 2632,797.5C 2629.5,795.667 2627.33,793.5 2625.5,791C 2608.16,791.233 2592.16,786.733 2577.5,777.5C 2578.33,776.585 2579.33,775.919 2580.5,775.5C 2584.73,777.407 2588.89,779.407 2593,781.5C 2594.68,780.135 2594.85,778.635 2593.5,777C 2586.64,774.639 2579.64,772.639 2572.5,771C 2575.22,770.203 2577.72,769.037 2580,767.5C 2580.63,763.222 2580.13,759.055 2578.5,755C 2580.14,750.723 2580.81,746.223 2580.5,741.5C 2586.83,741.5 2593.17,741.5 2599.5,741.5 Z M 2609.5,746.5 C 2610.5,746.414 2611.33,746.748 2612,747.5C 2612.06,750.78 2612.89,753.78 2614.5,756.5C 2613.74,757.719 2612.74,758.719 2611.5,759.5C 2612.5,760.333 2613.5,761.167 2614.5,762C 2612.71,763.78 2611.04,765.613 2609.5,767.5C 2607,764.417 2607.33,761.417 2610.5,758.5C 2608.26,754.687 2607.93,750.687 2609.5,746.5 Z"
       id="path25" />
  </g>
  <g
     id="g26"
     style="fill:#f9f9f9">
    <path
       style="opacity:1;fill:#f9f9f9"
       fill="#f0f0f0"
       d="M 1625.5,750.5 C 1626.83,750.5 1628.17,750.5 1629.5,750.5C 1629.5,765.322 1628,779.989 1625,794.5C 1621.75,800.008 1618.75,805.675 1616,811.5C 1611.12,816.046 1605.96,820.213 1600.5,824C 1589.17,825.368 1578.17,824.368 1567.5,821C 1571.29,819.181 1571.29,817.181 1567.5,815C 1570.31,812.73 1573.31,811.73 1576.5,812C 1562.36,809.186 1557.36,800.853 1561.5,787C 1559.64,778.964 1559.14,770.797 1560,762.5C 1562.88,760.49 1566.04,759.157 1569.5,758.5C 1583.85,757.258 1598.18,757.425 1612.5,759C 1614.59,759.792 1616.42,760.959 1618,762.5C 1619.19,760.377 1619.86,758.043 1620,755.5C 1622.19,754.167 1624.02,752.5 1625.5,750.5 Z"
       id="path26" />
  </g>
  <g
     id="g27"
     style="fill:#f9f9f9">
    <path
       style="opacity:1;fill:#f9f9f9"
       fill="#f0f0f0"
       d="M 1955.5,756.5 C 1962.14,758.6 1965.31,762.933 1965,769.5C 1966.21,767.951 1967.71,766.785 1969.5,766C 1982.48,764.707 1995.48,764.374 2008.5,765C 2012.77,765.884 2016.94,767.051 2021,768.5C 2024.01,777.595 2024.17,786.761 2021.5,796C 2024.37,806.591 2021.03,814.424 2011.5,819.5C 2013.86,819.974 2016.19,820.308 2018.5,820.5C 2017.47,822.361 2015.97,823.695 2014,824.5C 2013.52,825.448 2013.35,826.448 2013.5,827.5C 2015.2,827.34 2016.87,827.506 2018.5,828C 2016.02,828.96 2013.52,829.793 2011,830.5C 2010.67,830.167 2010.33,829.833 2010,829.5C 2004.01,832.876 1997.51,834.043 1990.5,833C 1986.5,832 1982.5,831 1978.5,830C 1974.72,826.374 1970.89,822.874 1967,819.5C 1955.7,799.958 1951.87,778.958 1955.5,756.5 Z"
       id="path27" />
  </g>
  <g
     id="g28"
     style="fill:#f9f9f9">
    <path
       style="opacity:0.982;fill:#f9f9f9"
       fill="#f6f6f6"
       d="M 1541.5,742.5 C 1542.3,762.469 1542.8,782.469 1543,802.5C 1543.49,807.607 1544.49,812.607 1546,817.5C 1548.85,822.537 1551.68,827.537 1554.5,832.5C 1556.78,834.949 1559.44,836.782 1562.5,838C 1563.81,840.573 1565.47,842.906 1567.5,845C 1573.37,848.193 1578.87,852.027 1584,856.5C 1585.04,858.715 1585.71,861.048 1586,863.5C 1590.16,868.486 1593.83,873.819 1597,879.5C 1599.04,881.874 1601.37,883.874 1604,885.5C 1610.79,898.311 1613.95,911.978 1613.5,926.5C 1612.87,917.518 1609.87,909.352 1604.5,902C 1602.88,901.385 1601.55,900.385 1600.5,899C 1598.83,898.667 1597.17,898.333 1595.5,898C 1591.47,893.632 1587.13,889.632 1582.5,886C 1575.64,887.157 1568.64,887.657 1561.5,887.5C 1556.06,886.899 1553.23,883.899 1553,878.5C 1549.63,875.793 1546.97,872.46 1545,868.5C 1544.61,866.821 1544.77,865.155 1545.5,863.5C 1543.65,857.946 1541.98,852.279 1540.5,846.5C 1540.67,844.161 1541.34,841.994 1542.5,840C 1542.01,833.239 1538.85,831.739 1533,835.5C 1531.7,835.361 1530.87,834.695 1530.5,833.5C 1531.84,832.207 1533.51,831.374 1535.5,831C 1536.06,830.275 1536.39,829.442 1536.5,828.5C 1534.85,809.888 1534.02,791.221 1534,772.5C 1533.67,770.167 1533.33,767.833 1533,765.5C 1530.53,764.046 1527.86,763.046 1525,762.5C 1523.6,761.355 1522.43,760.022 1521.5,758.5C 1525.51,758.334 1529.51,758.501 1533.5,759C 1535.72,761.149 1537.22,760.649 1538,757.5C 1538.67,754.167 1538.67,750.833 1538,747.5C 1537.17,746.667 1536.33,745.833 1535.5,745C 1537.63,744.345 1539.63,743.511 1541.5,742.5 Z"
       id="path28" />
  </g>
  <g
     id="g29"
     style="fill:#f9f9f9">
    <path
       style="opacity:1;fill:#f9f9f9"
       fill="#f7f7f7"
       d="M 2038.5,819.5 C 2038.7,825.054 2037.37,830.221 2034.5,835C 2035.04,837.24 2036.2,839.073 2038,840.5C 2038.7,843.713 2038.54,846.879 2037.5,850C 2038.76,851.845 2039.76,853.845 2040.5,856C 2036.98,863.554 2035.48,871.387 2036,879.5C 2032.17,882.979 2029.83,887.312 2029,892.5C 2027.58,893.46 2026.08,894.293 2024.5,895C 2017.83,895.667 2011.17,895.667 2004.5,895C 2003.33,894.5 2002.5,893.667 2002,892.5C 1994.59,897.241 1987.76,902.741 1981.5,909C 1976.72,911.303 1972.89,914.803 1970,919.5C 1969.25,924.076 1968.08,928.409 1966.5,932.5C 1966.34,920.829 1968.84,909.829 1974,899.5C 1980.23,892.36 1986.89,885.694 1994,879.5C 1998.4,875.033 2002.07,870.033 2005,864.5C 2008.33,861.833 2011.67,859.167 2015,856.5C 2018.67,850.167 2023.67,845.167 2030,841.5C 2033.16,834.203 2035.99,826.869 2038.5,819.5 Z"
       id="path29" />
  </g>
  <g
     id="g30"
     style="fill:#f9f9f9">
    <path
       style="opacity:1;fill:#f9f9f9"
       fill="#ececec"
       d="M 1672.5,833.5 C 1726.83,833.333 1781.17,833.5 1835.5,834C 1860.93,834.272 1886.27,835.938 1911.5,839C 1924.5,843.253 1935.67,850.42 1945,860.5C 1950.86,870.334 1953.03,881 1951.5,892.5C 1949.36,939.146 1947.86,985.813 1947,1032.5C 1946.86,1045.61 1945.7,1058.61 1943.5,1071.5C 1940.16,1077.68 1935.16,1081.84 1928.5,1084C 1916.22,1085.65 1903.89,1086.48 1891.5,1086.5C 1874.53,1085.24 1857.53,1084.58 1840.5,1084.5C 1840.67,1075.83 1840.5,1067.16 1840,1058.5C 1839.2,1051.04 1835.04,1046.87 1827.5,1046C 1799.86,1043.73 1772.2,1043.23 1744.5,1044.5C 1741.7,1045.71 1739.2,1047.38 1737,1049.5C 1732.95,1060.09 1731.45,1071.09 1732.5,1082.5C 1703,1083.42 1673.67,1081.92 1644.5,1078C 1640.08,1076.03 1636.25,1073.2 1633,1069.5C 1631.36,1064.93 1630.02,1060.27 1629,1055.5C 1627.65,993.839 1627.65,932.172 1629,870.5C 1635.29,851.885 1648.12,840.719 1667.5,837C 1669.35,835.97 1671.01,834.804 1672.5,833.5 Z"
       id="path30" />
  </g>
  <g
     id="g31"
     style="fill:#f9f9f9">
    <path
       style="opacity:0.909;fill:#f9f9f9"
       fill="#ededed"
       d="M 2043.5,751.5 C 2045.3,752.046 2046.97,752.88 2048.5,754C 2045.67,758.719 2046.34,763.053 2050.5,767C 2053.98,767.262 2057.65,767.762 2061.5,768.5C 2061.59,769.496 2061.25,770.329 2060.5,771C 2055.54,771.302 2052.37,773.802 2051,778.5C 2050.23,798.059 2048.73,817.559 2046.5,837C 2046.35,839.034 2047.02,840.701 2048.5,842C 2182.84,844.02 2317.17,846.187 2451.5,848.5C 2454.28,851.212 2456.94,854.046 2459.5,857C 2494.17,857.509 2528.84,858.175 2563.5,859C 2568.64,862.142 2573.14,865.976 2577,870.5C 2577.71,877.348 2578.54,884.182 2579.5,891C 2579.78,894.06 2578.44,896.06 2575.5,897C 2577.75,897.748 2579.08,899.248 2579.5,901.5C 2575.86,900.886 2572.2,900.552 2568.5,900.5C 2567.97,890.84 2567.47,881.173 2567,871.5C 2565.3,870.267 2563.3,869.6 2561,869.5C 2521.15,866.908 2481.32,864.074 2441.5,861C 2393.5,860.409 2345.5,859.909 2297.5,859.5C 2297.5,857.833 2297.5,856.167 2297.5,854.5C 2215.5,853.143 2133.5,852.143 2051.5,851.5C 2049.63,867.39 2048.96,883.39 2049.5,899.5C 2053.17,899.5 2056.83,899.5 2060.5,899.5C 2060.5,900.833 2060.5,902.167 2060.5,903.5C 2049.15,903.168 2037.81,903.501 2026.5,904.5C 2025.64,906.197 2024.3,907.363 2022.5,908C 2012.8,908.255 2003.13,908.922 1993.5,910C 1987.71,916.069 1983.88,923.236 1982,931.5C 1981.3,937.231 1980.3,942.898 1979,948.5C 1977.65,971.684 1976.15,994.85 1974.5,1018C 1974.72,1020.96 1976.06,1023.13 1978.5,1024.5C 1978.5,1025.5 1978.5,1026.5 1978.5,1027.5C 1976.5,1027.5 1974.5,1027.5 1972.5,1027.5C 1972.88,1025.34 1972.22,1023.67 1970.5,1022.5C 1967.23,1026.53 1965.73,1031.19 1966,1036.5C 1963.56,1043.99 1961.06,1051.33 1958.5,1058.5C 1961.47,1022.57 1963.31,986.566 1964,950.5C 1964.95,944.499 1965.78,938.499 1966.5,932.5C 1968.08,928.409 1969.25,924.076 1970,919.5C 1972.89,914.803 1976.72,911.303 1981.5,909C 1987.76,902.741 1994.59,897.241 2002,892.5C 2002.5,893.667 2003.33,894.5 2004.5,895C 2011.17,895.667 2017.83,895.667 2024.5,895C 2026.08,894.293 2027.58,893.46 2029,892.5C 2029.83,887.312 2032.17,882.979 2036,879.5C 2035.48,871.387 2036.98,863.554 2040.5,856C 2039.76,853.845 2038.76,851.845 2037.5,850C 2038.54,846.879 2038.7,843.713 2038,840.5C 2036.2,839.073 2035.04,837.24 2034.5,835C 2037.37,830.221 2038.7,825.054 2038.5,819.5C 2039.47,817.337 2040.3,815.004 2041,812.5C 2042.55,794.17 2042.72,775.836 2041.5,757.5C 2041.87,755.333 2042.54,753.333 2043.5,751.5 Z"
       id="path31" />
  </g>
  <g
     id="g32"
     style="fill:#f9f9f9">
    <path
       style="opacity:0.969;fill:#f9f9f9"
       fill="#fdfdfd"
       d="M 1487.5,911.5 C 1487.92,912.222 1488.58,912.722 1489.5,913C 1483.16,915.996 1476.66,918.496 1470,920.5C 1469.83,921.333 1469.67,922.167 1469.5,923C 1471.64,927.149 1473.8,931.315 1476,935.5C 1478.01,937.845 1480.35,939.845 1483,941.5C 1484,945.164 1485.84,948.331 1488.5,951C 1487.27,955.945 1487.27,960.945 1488.5,966C 1488.07,968.568 1487.4,971.068 1486.5,973.5C 1487.06,980.519 1487.23,987.519 1487,994.5C 1484.75,997.11 1482.25,999.11 1479.5,1000.5C 1418.22,997.356 1356.88,995.19 1295.5,994C 1290.7,993.622 1286.03,992.622 1281.5,991C 1279,989.833 1277.17,988 1276,985.5C 1272.32,972.832 1265.16,962.665 1254.5,955C 1252.12,954.489 1249.79,953.822 1247.5,953C 1215.14,952.395 1182.8,951.062 1150.5,949C 1148.94,947.004 1148.27,944.671 1148.5,942C 1149.35,929.8 1149.69,917.634 1149.5,905.5C 1153.16,905.026 1153.32,903.693 1150,901.5C 1149.67,895.5 1149.33,889.5 1149,883.5C 1147.16,881.289 1147.33,879.123 1149.5,877C 1118.84,875.989 1088.17,875.323 1057.5,875C 1055.96,874.71 1054.62,874.044 1053.5,873C 1073.34,867.83 1093.34,863.164 1113.5,859C 1186.83,860.901 1260.16,862.901 1333.5,865C 1348.75,870.478 1364.08,875.644 1379.5,880.5C 1379.5,881.5 1379.5,882.5 1379.5,883.5C 1344.15,882.749 1308.82,881.916 1273.5,881C 1272.69,887.753 1272.19,894.586 1272,901.5C 1271.5,902.5 1271,903.5 1270.5,904.5C 1276.31,905.042 1281.98,905.876 1287.5,907C 1310.49,908.577 1333.49,909.91 1356.5,911C 1372.5,911.95 1388.33,911.45 1404,909.5C 1408.01,909.366 1411.85,909.866 1415.5,911C 1439.5,911.5 1463.5,911.667 1487.5,911.5 Z"
       id="path32" />
  </g>
  <g
     id="g33"
     style="fill:#f9f9f9">
    <path
       style="opacity:0.979;fill:#f9f9f9"
       fill="#fdfdfd"
       d="M 2096.5,1012.5 C 2092.93,1010.54 2089.93,1007.87 2087.5,1004.5C 2090.53,989.124 2092.53,973.624 2093.5,958C 2093.17,957 2092.83,956 2092.5,955C 2094.87,952.631 2096.37,949.798 2097,946.5C 2103.22,943.454 2108.38,939.121 2112.5,933.5C 2107.81,929.879 2102.48,927.712 2096.5,927C 2094.83,926 2093.17,925 2091.5,924C 2098.46,924.288 2105.46,924.455 2112.5,924.5C 2161,925.014 2209.5,925.681 2258,926.5C 2279.18,926.42 2300.34,925.92 2321.5,925C 2321.83,924.667 2322.17,924.333 2322.5,924C 2319.96,922.908 2317.29,922.241 2314.5,922C 2313.33,921.5 2312.5,920.667 2312,919.5C 2311.97,911.204 2311.14,903.037 2309.5,895C 2309.41,892.186 2310.41,889.853 2312.5,888C 2310.53,887.505 2308.53,887.338 2306.5,887.5C 2275.12,887.04 2243.78,886.04 2212.5,884.5C 2212.17,884.167 2211.83,883.833 2211.5,883.5C 2231.36,878.704 2251.36,874.204 2271.5,870C 2344.84,871.294 2418.18,873.294 2491.5,876C 2507.1,881.139 2522.43,886.805 2537.5,893C 2508.83,893.056 2480.16,892.556 2451.5,891.5C 2444.5,891.833 2437.5,892.167 2430.5,892.5C 2430.29,893.086 2429.96,893.586 2429.5,894C 2433.89,894.226 2438.22,894.726 2442.5,895.5C 2443.69,894.106 2444.35,894.273 2444.5,896C 2443.51,897.967 2441.84,899.134 2439.5,899.5C 2438.69,901.766 2438.19,904.1 2438,906.5C 2437.33,907.167 2436.67,907.833 2436,908.5C 2435.39,912.524 2435.56,916.524 2436.5,920.5C 2436.19,923.292 2435.19,925.792 2433.5,928C 2433.93,929.434 2434.76,930.601 2436,931.5C 2435.99,945.059 2435.49,958.559 2434.5,972C 2428.61,973.245 2422.61,973.912 2416.5,974C 2394.83,974.537 2373.16,974.37 2351.5,973.5C 2343.12,973.417 2334.78,973.917 2326.5,975C 2317.77,982.055 2310.94,990.555 2306,1000.5C 2305.49,1005.35 2302.99,1008.85 2298.5,1011C 2279.36,1012.1 2260.19,1012.6 2241,1012.5C 2192.76,1011.41 2144.6,1011.41 2096.5,1012.5 Z"
       id="path33" />
  </g>
  <g
     id="g34"
     style="fill:#f9f9f9">
    <path
       style="opacity:0.911;fill:#f9f9f9"
       fill="#eeeeee"
       d="M 1613.5,926.5 C 1615.16,957.797 1616,989.13 1616,1020.5C 1616.66,1036.55 1617.82,1052.55 1619.5,1068.5C 1617.78,1066.75 1616.28,1064.75 1615,1062.5C 1609.33,1046.66 1606.16,1030.32 1605.5,1013.5C 1604.04,1013.43 1602.71,1013.77 1601.5,1014.5C 1601.65,989.154 1601.15,963.821 1600,938.5C 1598.96,925.482 1594.79,913.649 1587.5,903C 1578.7,900.403 1569.7,898.736 1560.5,898C 1559.24,897.583 1558.58,896.75 1558.5,895.5C 1560.29,896.722 1562.29,897.389 1564.5,897.5C 1568.68,897.15 1572.68,896.317 1576.5,895C 1572.3,893.759 1567.97,892.759 1563.5,892C 1561.96,890.89 1561.3,889.39 1561.5,887.5C 1568.64,887.657 1575.64,887.157 1582.5,886C 1587.13,889.632 1591.47,893.632 1595.5,898C 1597.17,898.333 1598.83,898.667 1600.5,899C 1601.55,900.385 1602.88,901.385 1604.5,902C 1609.87,909.352 1612.87,917.518 1613.5,926.5 Z"
       id="path34" />
  </g>
  <g
     id="g35"
     style="fill:#f9f9f9">
    <path
       style="opacity:0.805;fill:#f9f9f9"
       fill="#ededed"
       d="M 2306.5,887.5 C 2308.53,887.338 2310.53,887.505 2312.5,888C 2310.41,889.853 2309.41,892.186 2309.5,895C 2311.14,903.037 2311.97,911.204 2312,919.5C 2312.5,920.667 2313.33,921.5 2314.5,922C 2317.29,922.241 2319.96,922.908 2322.5,924C 2322.17,924.333 2321.83,924.667 2321.5,925C 2300.34,925.92 2279.18,926.42 2258,926.5C 2209.5,925.681 2161,925.014 2112.5,924.5C 2102.33,923.212 2091.99,922.046 2081.5,921C 2077.5,917 2073.5,913 2069.5,909C 2070.58,907.289 2070.25,905.789 2068.5,904.5C 2071.48,904.963 2074.48,905.296 2077.5,905.5C 2077.5,907.5 2077.5,909.5 2077.5,911.5C 2080.17,911.5 2082.83,911.5 2085.5,911.5C 2085.5,912.5 2085.5,913.5 2085.5,914.5C 2092.73,915.929 2100.07,916.762 2107.5,917C 2173.52,917.812 2239.52,917.646 2305.5,916.5C 2305.74,908.139 2305.41,899.805 2304.5,891.5C 2304.8,889.886 2305.47,888.552 2306.5,887.5 Z"
       id="path35" />
  </g>
  <g
     id="g62"
     style="shape-rendering:geometricPrecision;text-rendering:geometricPrecision;image-rendering:optimizeQuality;fill-rule:evenodd;clip-rule:evenodd;fill:#f9f9f9">
    <path
       style="opacity:0.624;fill:#f9f9f9"
       fill="#f0f0f0"
       d="M 1486.5,1648.5 C 1487.53,1649.37 1488.19,1650.54 1488.5,1652C 1486.76,1706.89 1502.92,1755.72 1537,1798.5C 1570.84,1836.85 1612.01,1864.35 1660.5,1881C 1757.22,1912.22 1849.22,1902.22 1936.5,1851C 1980.09,1822.09 2011.92,1783.59 2032,1735.5C 2035.3,1721.26 2038.8,1707.09 2042.5,1693C 2041.88,1691.43 2041.54,1689.76 2041.5,1688C 2042.19,1678.83 2042.85,1669.66 2043.5,1660.5C 2044.52,1665.48 2045.19,1670.64 2045.5,1676C 2044.51,1687.16 2043.68,1698.32 2043,1709.5C 2039.53,1722.37 2036.2,1735.37 2033,1748.5C 2018.95,1779.23 1999.45,1806.06 1974.5,1829C 1962.11,1839.37 1949.11,1849.04 1935.5,1858C 1930.57,1859.43 1926.23,1861.93 1922.5,1865.5C 1890.96,1880.85 1857.96,1891.68 1823.5,1898C 1820.46,1898.8 1817.62,1899.96 1815,1901.5C 1813.08,1900.68 1811.08,1900.02 1809,1899.5C 1805.02,1899.92 1800.85,1900.59 1796.5,1901.5C 1796.5,1903.17 1796.5,1904.83 1796.5,1906.5C 1802.18,1906.67 1807.84,1906.5 1813.5,1906C 1814.03,1905.31 1814.69,1904.81 1815.5,1904.5C 1819.26,1905.69 1822.93,1906.19 1826.5,1906C 1827.83,1907 1827.83,1908 1826.5,1909C 1822.72,1908.87 1819.05,1908.71 1815.5,1908.5C 1811,1909.24 1806.67,1910.41 1802.5,1912C 1779.17,1912.67 1755.83,1912.67 1732.5,1912C 1726.45,1910.33 1720.45,1908.67 1714.5,1907C 1720.11,1902.07 1719.28,1899.9 1712,1900.5C 1698.12,1897.38 1684.29,1894.22 1670.5,1891C 1660.65,1886.2 1650.32,1882.53 1639.5,1880C 1633.57,1876.42 1627.24,1873.59 1620.5,1871.5C 1611.74,1867.26 1603.07,1862.76 1594.5,1858C 1584.49,1850.34 1574.16,1843.01 1563.5,1836C 1555.06,1828.56 1546.89,1820.73 1539,1812.5C 1526.26,1796.67 1514.26,1780.33 1503,1763.5C 1498.1,1751.92 1494.1,1739.92 1491,1727.5C 1488.54,1719.66 1486.87,1711.66 1486,1703.5C 1485.8,1690.14 1485.3,1676.81 1484.5,1663.5C 1485.44,1658.32 1486.1,1653.32 1486.5,1648.5 Z"
       id="path62" />
  </g>
  <g
     id="g36"
     style="fill:#f9f9f9">
    <path
       style="opacity:0.992;fill:#f9f9f9"
       fill="#fdfdfd"
       d="M 1558.5,895.5 C 1558.58,896.75 1559.24,897.583 1560.5,898C 1569.7,898.736 1578.7,900.403 1587.5,903C 1594.79,913.649 1598.96,925.482 1600,938.5C 1601.15,963.821 1601.65,989.154 1601.5,1014.5C 1601.21,1015.65 1600.38,1016.32 1599,1016.5C 1588.91,1014.28 1578.74,1013.95 1568.5,1015.5C 1566.42,1015.31 1564.42,1014.81 1562.5,1014C 1547.5,1013.5 1532.5,1013.33 1517.5,1013.5C 1517.36,1011.74 1517.69,1010.07 1518.5,1008.5C 1526.02,1002.14 1530.86,994.14 1533,984.5C 1539.31,958.184 1538.31,932.184 1530,906.5C 1526.88,901.543 1522.72,897.876 1517.5,895.5C 1517.61,894.883 1517.94,894.383 1518.5,894C 1521.17,893.833 1523.83,893.667 1526.5,893.5C 1536.99,895.234 1547.66,895.9 1558.5,895.5 Z"
       id="path36" />
  </g>
  <path
     id="path63"
     style="clip-rule:evenodd;fill:#f9f9f9;fill-opacity:1;fill-rule:evenodd;stroke:none;stroke-width:3.82076;stroke-linecap:round;stroke-linejoin:bevel;paint-order:markers fill stroke;image-rendering:optimizeQuality;shape-rendering:geometricPrecision;text-rendering:geometricPrecision"
     d="M 1567.8086 1528.9824 A 265.01663 234.2449 0 0 0 1556.748 1817.0137 A 265.01663 234.2449 0 0 0 1870.1484 1896.5312 A 265.01663 234.2449 0 0 0 2033.6152 1647.168 L 1905.9824 1662.7734 A 139.21904 131.93961 0 0 1 1819.1152 1793.916 A 139.21904 131.93961 0 0 1 1654.4785 1749.127 A 139.21904 131.93961 0 0 1 1655.1582 1593.5566 L 1567.8086 1528.9824 z " />
  <g
     id="g37"
     style="fill:#f9f9f9">
    <path
       style="opacity:0.99;fill:#f9f9f9"
       fill="#f7f7f7"
       d="M 1517.5,895.5 C 1522.72,897.876 1526.88,901.543 1530,906.5C 1538.31,932.184 1539.31,958.184 1533,984.5C 1530.86,994.14 1526.02,1002.14 1518.5,1008.5C 1517.69,1010.07 1517.36,1011.74 1517.5,1013.5C 1511.03,1012.21 1505.03,1009.71 1499.5,1006C 1492.74,1004.4 1486.07,1002.56 1479.5,1000.5C 1482.25,999.11 1484.75,997.11 1487,994.5C 1487.23,987.519 1487.06,980.519 1486.5,973.5C 1487.4,971.068 1488.07,968.568 1488.5,966C 1487.27,960.945 1487.27,955.945 1488.5,951C 1485.84,948.331 1484,945.164 1483,941.5C 1480.35,939.845 1478.01,937.845 1476,935.5C 1473.8,931.315 1471.64,927.149 1469.5,923C 1469.67,922.167 1469.83,921.333 1470,920.5C 1476.66,918.496 1483.16,915.996 1489.5,913C 1488.58,912.722 1487.92,912.222 1487.5,911.5C 1492.34,911.579 1497,910.745 1501.5,909C 1503.43,905.444 1505.43,901.944 1507.5,898.5C 1510.27,895.857 1513.6,894.857 1517.5,895.5 Z"
       id="path37" />
  </g>
  <g
     id="g38"
     style="fill:#f9f9f9">
    <path
       style="opacity:0.047;fill:#f9f9f9"
       fill="#ececec"
       d="M 2446.5,895.5 C 2447.98,895.238 2449.31,895.571 2450.5,896.5C 2449.83,896.833 2449.17,897.167 2448.5,897.5C 2447.29,897.253 2446.62,896.586 2446.5,895.5 Z"
       id="path38" />
  </g>
  <g
     id="g39"
     style="fill:#f9f9f9">
    <path
       style="opacity:0.004;fill:#f9f9f9"
       fill="#ebeceb"
       d="M 2457.5,895.5 C 2458.83,896.167 2458.83,896.167 2457.5,895.5 Z"
       id="path39" />
  </g>
  <g
     id="g40"
     style="fill:#f9f9f9">
    <path
       style="opacity:0.009;fill:#f9f9f9"
       fill="#ecedec"
       d="M 2486.5,898.5 C 2488.97,897.366 2491.63,897.199 2494.5,898C 2491.85,898.497 2489.19,898.664 2486.5,898.5 Z"
       id="path40" />
  </g>
  <g
     id="g41"
     style="fill:#f9f9f9">
    <path
       style="opacity:0.993;fill:#f9f9f9"
       fill="#fdfdfd"
       d="M 2060.5,903.5 C 2061.17,903.833 2061.83,904.167 2062.5,904.5C 2062.92,905.222 2063.58,905.722 2064.5,906C 2059.41,908.759 2055.24,912.592 2052,917.5C 2042.64,945.959 2041.97,974.626 2050,1003.5C 2052.59,1009.02 2055.92,1014.02 2060,1018.5C 2060.49,1020.55 2060.32,1022.55 2059.5,1024.5C 2041.22,1023.96 2022.89,1023.3 2004.5,1022.5C 1997.5,1022.67 1990.5,1022.83 1983.5,1023C 1981.75,1023.35 1980.09,1023.85 1978.5,1024.5C 1976.06,1023.13 1974.72,1020.96 1974.5,1018C 1976.15,994.85 1977.65,971.684 1979,948.5C 1980.3,942.898 1981.3,937.231 1982,931.5C 1983.88,923.236 1987.71,916.069 1993.5,910C 2003.13,908.922 2012.8,908.255 2022.5,908C 2024.3,907.363 2025.64,906.197 2026.5,904.5C 2037.81,903.501 2049.15,903.168 2060.5,903.5 Z"
       id="path41" />
  </g>
  <g
     id="g42"
     style="fill:#f9f9f9">
    <path
       style="opacity:0.993;fill:#f9f9f9"
       fill="#f7f7f7"
       d="M 2062.5,904.5 C 2064.5,904.5 2066.5,904.5 2068.5,904.5C 2070.25,905.789 2070.58,907.289 2069.5,909C 2073.5,913 2077.5,917 2081.5,921C 2091.99,922.046 2102.33,923.212 2112.5,924.5C 2105.46,924.455 2098.46,924.288 2091.5,924C 2093.17,925 2094.83,926 2096.5,927C 2102.48,927.712 2107.81,929.879 2112.5,933.5C 2108.38,939.121 2103.22,943.454 2097,946.5C 2096.37,949.798 2094.87,952.631 2092.5,955C 2092.83,956 2093.17,957 2093.5,958C 2092.53,973.624 2090.53,989.124 2087.5,1004.5C 2089.93,1007.87 2092.93,1010.54 2096.5,1012.5C 2083.84,1015.42 2071.51,1019.42 2059.5,1024.5C 2060.32,1022.55 2060.49,1020.55 2060,1018.5C 2055.92,1014.02 2052.59,1009.02 2050,1003.5C 2041.97,974.626 2042.64,945.959 2052,917.5C 2055.24,912.592 2059.41,908.759 2064.5,906C 2063.58,905.722 2062.92,905.222 2062.5,904.5 Z"
       id="path42" />
  </g>
  <g
     id="g43"
     style="fill:#f9f9f9">
    <path
       style="opacity:1;fill:#f9f9f9"
       fill="#f6f6f6"
       d="M 1820.5,919.5 C 1846.82,916.365 1863.65,927.365 1871,952.5C 1872.48,962.571 1870.48,971.905 1865,980.5C 1861.42,984.404 1858.25,988.571 1855.5,993C 1849.47,993.83 1843.47,993.664 1837.5,992.5C 1839.94,988.784 1843.27,986.284 1847.5,985C 1865.91,967.821 1865.91,950.821 1847.5,934C 1835.54,928.003 1823.54,928.003 1811.5,934C 1797.13,946.035 1794.63,960.202 1804,976.5C 1810.11,982.127 1816.28,987.627 1822.5,993C 1812.41,993.659 1802.41,992.992 1792.5,991C 1795.15,990.503 1797.81,990.336 1800.5,990.5C 1799.09,985.899 1796.59,981.899 1793,978.5C 1782.96,955.399 1788.46,936.899 1809.5,923C 1813.37,922.096 1817.04,920.93 1820.5,919.5 Z"
       id="path43" />
  </g>
  <g
     id="g44"
     style="fill:#f9f9f9">
    <path
       style="opacity:0.996;fill:#f9f9f9"
       fill="#fcfcfc"
       d="M 936.5,1568.5 C 936.265,1567.9 935.765,1567.57 935,1567.5C 924.891,1571.72 914.391,1574.56 903.5,1576C 901.523,1577.54 899.523,1578.04 897.5,1577.5C 893.524,1579.37 889.524,1580.03 885.5,1579.5C 883.803,1579.9 882.137,1580.4 880.5,1581C 826.342,1586.05 772.342,1575.55 718.5,1549.5C 708.709,1543.73 698.709,1538.23 688.5,1533C 622.505,1487.91 559.338,1439.07 499,1386.5C 497.112,1382.14 497.778,1378.14 501,1374.5C 585.242,1272.34 669.242,1170.01 753,1067.5C 754.304,1061.58 754.804,1055.58 754.5,1049.5C 759.985,1048.67 765.652,1048.17 771.5,1048C 776.251,1046.85 781.084,1045.68 786,1044.5C 795.386,1048.53 803.553,1054.37 810.5,1062C 830.388,1077.84 850.054,1093.84 869.5,1110C 892.94,1127.51 916.607,1144.84 940.5,1162C 949.1,1168.6 957.1,1175.93 964.5,1184C 968.833,1187 973.167,1190 977.5,1193C 977.982,1194.01 978.148,1195.18 978,1196.5C 982.48,1198.98 985.48,1202.64 987,1207.5C 1002.39,1224.69 1015.06,1243.69 1025,1264.5C 1026.95,1267.79 1029.28,1270.79 1032,1273.5C 1033.14,1281.4 1035.81,1288.74 1040,1295.5C 1041.66,1304.16 1044.33,1312.49 1048,1320.5C 1056.35,1354.13 1058.35,1388.13 1054,1422.5C 1049.5,1444.82 1041.66,1465.82 1030.5,1485.5C 1021.51,1498.23 1011.67,1510.23 1001,1521.5C 993.057,1529.78 984.89,1537.61 976.5,1545C 968.34,1550.91 960.007,1556.58 951.5,1562C 946.587,1564.47 941.587,1566.63 936.5,1568.5 Z M 813.5,1426.5 C 807.046,1424.37 800.379,1423.2 793.5,1423C 794.833,1422.67 796.167,1422.33 797.5,1422C 794.447,1421.82 791.447,1421.32 788.5,1420.5C 780.702,1417.14 774.035,1414.48 768.5,1412.5C 757.822,1405.64 747.155,1398.47 736.5,1391C 739.586,1388.04 739.919,1384.88 737.5,1381.5C 763.404,1343.8 789.237,1305.8 815,1267.5C 816.19,1264.81 816.356,1262.14 815.5,1259.5C 811.932,1263.76 807.932,1268.09 803.5,1272.5C 805.577,1269.91 806.91,1266.91 807.5,1263.5C 807.03,1262.54 806.363,1262.54 805.5,1263.5C 806.675,1259.12 808.509,1255.12 811,1251.5C 812.973,1252.64 814.807,1253.97 816.5,1255.5C 817.719,1254.74 818.719,1253.74 819.5,1252.5C 841.604,1266.44 859.104,1284.77 872,1307.5C 887.084,1336.5 888.417,1366.17 876,1396.5C 872.591,1400.98 869.424,1405.65 866.5,1410.5C 863.158,1413.88 859.825,1417.21 856.5,1420.5C 843.819,1424.82 829.485,1426.82 813.5,1426.5 Z"
       id="path44" />
  </g>
  <g
     id="g45"
     style="fill:#f9f9f9">
    <path
       style="opacity:0.995;fill:#f9f9f9"
       fill="#fcfcfc"
       d="M 2823.5,1053.5 C 2824.04,1059.86 2824.88,1066.19 2826,1072.5C 2841.11,1091.06 2856.44,1109.39 2872,1127.5C 2873.37,1129.7 2873.71,1132.03 2873,1134.5C 2847.46,1156.38 2821.63,1177.88 2795.5,1199C 2762.34,1222.67 2729.34,1246.51 2696.5,1270.5C 2702.15,1281.79 2708.31,1292.79 2715,1303.5C 2720.92,1312.33 2726.58,1321.33 2732,1330.5C 2734.67,1333.83 2737.33,1337.17 2740,1340.5C 2741.74,1334.29 2744.07,1328.29 2747,1322.5C 2752.2,1316.97 2757.7,1311.8 2763.5,1307C 2790.99,1285.76 2818.65,1264.76 2846.5,1244C 2851.13,1240.37 2855.47,1236.37 2859.5,1232C 2864.45,1230.17 2869.45,1230.01 2874.5,1231.5C 2874.83,1231.5 2875.17,1231.5 2875.5,1231.5C 2878.64,1236.04 2879.3,1241.04 2877.5,1246.5C 2878.05,1248.61 2878.89,1250.61 2880,1252.5C 2892.58,1268.65 2904.91,1284.99 2917,1301.5C 2917.67,1303.5 2917.67,1305.5 2917,1307.5C 2872.28,1341.22 2827.28,1374.55 2782,1407.5C 2781.33,1408.83 2781.33,1410.17 2782,1411.5C 2792.43,1429.37 2803.1,1447.03 2814,1464.5C 2817.1,1469.05 2820.44,1473.39 2824,1477.5C 2825.52,1471.08 2827.52,1464.75 2830,1458.5C 2859.82,1432.52 2890.99,1408.35 2923.5,1386C 2931.96,1379.21 2940.13,1372.04 2948,1364.5C 2948.67,1363.17 2948.67,1361.83 2948,1360.5C 2945.93,1358.55 2943.76,1356.71 2941.5,1355C 2938.35,1354.73 2935.35,1355.39 2932.5,1357C 2923.19,1363.31 2914.86,1370.64 2907.5,1379C 2906.17,1379.33 2904.83,1379.67 2903.5,1380C 2900.42,1382.75 2897.09,1385.09 2893.5,1387C 2890.17,1389 2887.5,1391.67 2885.5,1395C 2880.07,1396.44 2875.73,1399.44 2872.5,1404C 2871.17,1404.33 2869.83,1404.67 2868.5,1405C 2867.28,1408.22 2864.94,1409.89 2861.5,1410C 2857.87,1414.81 2853.2,1418.15 2847.5,1420C 2845.5,1422 2843.5,1424 2841.5,1426C 2835.73,1427.87 2831.07,1431.21 2827.5,1436C 2824.39,1436.44 2821.72,1437.78 2819.5,1440C 2816.15,1441.21 2813.82,1440.21 2812.5,1437C 2814,1434.67 2815.67,1432.51 2817.5,1430.5C 2817.94,1428.93 2818.94,1427.76 2820.5,1427C 2827.16,1423.45 2833.49,1419.45 2839.5,1415C 2891.54,1377.82 2941.87,1338.49 2990.5,1297C 2996.38,1293.67 3002.71,1292.67 3009.5,1294C 3019.9,1296.85 3030.24,1300.02 3040.5,1303.5C 3040.82,1309.68 3041.98,1315.68 3044,1321.5C 3058.75,1341.03 3074.41,1359.69 3091,1377.5C 3092.35,1380.85 3092.02,1384.19 3090,1387.5C 3039.55,1426.95 2989.38,1466.79 2939.5,1507C 2903.94,1530.21 2868.6,1553.88 2833.5,1578C 2799.42,1597.79 2765.59,1617.96 2732,1638.5C 2730.91,1640.08 2730.07,1641.74 2729.5,1643.5C 2727.32,1645.09 2724.99,1646.42 2722.5,1647.5C 2712.83,1642 2703.83,1635.5 2695.5,1628C 2692.61,1624.78 2690.11,1621.28 2688,1617.5C 2680.61,1601.71 2672.94,1586.04 2665,1570.5C 2659.99,1563.83 2656.33,1556.5 2654,1548.5C 2649.67,1540.87 2645.34,1533.2 2641,1525.5C 2639.47,1521.91 2638.14,1518.24 2637,1514.5C 2633.32,1510.14 2630.99,1505.14 2630,1499.5C 2621.12,1483.95 2613.12,1467.95 2606,1451.5C 2600.5,1445.5 2596.83,1438.5 2595,1430.5C 2586.33,1413.83 2577.67,1397.17 2569,1380.5C 2568.13,1375.87 2566.13,1371.87 2563,1368.5C 2547.73,1335.96 2531.73,1303.96 2515,1272.5C 2511.11,1264.95 2509.11,1256.95 2509,1248.5C 2509.23,1246.22 2510.07,1244.22 2511.5,1242.5C 2556.02,1214.74 2600.69,1187.24 2645.5,1160C 2652.73,1152.43 2661.06,1146.43 2670.5,1142C 2687.99,1128.76 2705.66,1115.76 2723.5,1103C 2728.43,1099.07 2733.1,1094.74 2737.5,1090C 2754.29,1077.52 2770.79,1064.69 2787,1051.5C 2791.48,1048.97 2795.98,1048.97 2800.5,1051.5C 2802.37,1051.61 2803.87,1050.94 2805,1049.5C 2806.4,1051.53 2808.06,1051.86 2810,1050.5C 2814.26,1052.52 2818.76,1053.52 2823.5,1053.5 Z"
       id="path45" />
  </g>
  <g
     id="g46"
     style="fill:#f9f9f9">
    <path
       style="opacity:0.991;fill:#f9f9f9"
       fill="#f7f7f7"
       d="M 2823.5,1053.5 C 2825.03,1053.43 2826.03,1054.09 2826.5,1055.5C 2825.42,1063 2827.92,1069 2834,1073.5C 2834.33,1073.17 2834.67,1072.83 2835,1072.5C 2836,1074.83 2837,1077.17 2838,1079.5C 2838.67,1080.83 2839.33,1080.83 2840,1079.5C 2840.33,1080.83 2840.67,1082.17 2841,1083.5C 2843.56,1085.17 2845.23,1087.5 2846,1090.5C 2855.15,1100.66 2863.98,1111.16 2872.5,1122C 2873.45,1122.62 2874.28,1122.45 2875,1121.5C 2875.9,1123.52 2877.23,1125.18 2879,1126.5C 2879.02,1129.05 2878.52,1131.55 2877.5,1134C 2877.83,1134.33 2878.17,1134.67 2878.5,1135C 2877.38,1136.07 2876.38,1137.24 2875.5,1138.5C 2867.78,1142.4 2860.78,1147.24 2854.5,1153C 2812.8,1189.53 2768.8,1223.2 2722.5,1254C 2715.62,1259.37 2708.79,1264.87 2702,1270.5C 2701.33,1271.5 2701.33,1272.5 2702,1273.5C 2706.13,1282.67 2711.13,1291.33 2717,1299.5C 2718.84,1302.18 2721.34,1303.85 2724.5,1304.5C 2725.18,1312.36 2728.51,1319.19 2734.5,1325C 2737.28,1325.07 2739.44,1326.23 2741,1328.5C 2741.81,1325.55 2743.14,1322.89 2745,1320.5C 2752.52,1313.25 2759.69,1305.75 2766.5,1298C 2768.73,1297.44 2770.73,1296.44 2772.5,1295C 2782.22,1287.26 2791.89,1279.6 2801.5,1272C 2803.07,1270.17 2803.91,1268.01 2804,1265.5C 2805.56,1263.64 2807.39,1262.14 2809.5,1261C 2808.09,1260.68 2806.76,1261.02 2805.5,1262C 2783.54,1279.31 2760.87,1295.65 2737.5,1311C 2733.13,1311.99 2730.13,1310.32 2728.5,1306C 2729.66,1303.36 2730.99,1300.86 2732.5,1298.5C 2735.47,1297.45 2738.47,1296.28 2741.5,1295C 2774.29,1270.84 2806.95,1246.84 2839.5,1223C 2843.5,1222.33 2847.5,1222.33 2851.5,1223C 2858.44,1226.24 2865.77,1228.57 2873.5,1230C 2874.06,1230.38 2874.39,1230.88 2874.5,1231.5C 2869.45,1230.01 2864.45,1230.17 2859.5,1232C 2855.47,1236.37 2851.13,1240.37 2846.5,1244C 2818.65,1264.76 2790.99,1285.76 2763.5,1307C 2757.7,1311.8 2752.2,1316.97 2747,1322.5C 2744.07,1328.29 2741.74,1334.29 2740,1340.5C 2737.33,1337.17 2734.67,1333.83 2732,1330.5C 2726.58,1321.33 2720.92,1312.33 2715,1303.5C 2708.31,1292.79 2702.15,1281.79 2696.5,1270.5C 2729.34,1246.51 2762.34,1222.67 2795.5,1199C 2821.63,1177.88 2847.46,1156.38 2873,1134.5C 2873.71,1132.03 2873.37,1129.7 2872,1127.5C 2856.44,1109.39 2841.11,1091.06 2826,1072.5C 2824.88,1066.19 2824.04,1059.86 2823.5,1053.5 Z"
       id="path46" />
  </g>
  <g
     id="g47"
     style="fill:#f9f9f9">
    <path
       style="opacity:0.802;fill:#f9f9f9"
       fill="#f1f1f1"
       d="M 2826.5,1055.5 C 2831.32,1060.43 2836.15,1065.43 2841,1070.5C 2853.51,1087.7 2866.85,1104.36 2881,1120.5C 2882.51,1125.75 2882.84,1131.08 2882,1136.5C 2877.75,1141.74 2872.58,1145.91 2866.5,1149C 2842.02,1169.4 2817.35,1189.57 2792.5,1209.5C 2765.55,1228.45 2738.88,1247.79 2712.5,1267.5C 2711.83,1269.17 2711.17,1270.83 2710.5,1272.5C 2712.65,1278.14 2715.82,1283.14 2720,1287.5C 2720.73,1291.6 2722.56,1295.1 2725.5,1298C 2727.88,1297.48 2730.21,1297.64 2732.5,1298.5C 2730.99,1300.86 2729.66,1303.36 2728.5,1306C 2730.13,1310.32 2733.13,1311.99 2737.5,1311C 2760.87,1295.65 2783.54,1279.31 2805.5,1262C 2806.76,1261.02 2808.09,1260.68 2809.5,1261C 2807.39,1262.14 2805.56,1263.64 2804,1265.5C 2803.91,1268.01 2803.07,1270.17 2801.5,1272C 2791.89,1279.6 2782.22,1287.26 2772.5,1295C 2770.73,1296.44 2768.73,1297.44 2766.5,1298C 2759.69,1305.75 2752.52,1313.25 2745,1320.5C 2743.14,1322.89 2741.81,1325.55 2741,1328.5C 2739.44,1326.23 2737.28,1325.07 2734.5,1325C 2728.51,1319.19 2725.18,1312.36 2724.5,1304.5C 2721.34,1303.85 2718.84,1302.18 2717,1299.5C 2711.13,1291.33 2706.13,1282.67 2702,1273.5C 2701.33,1272.5 2701.33,1271.5 2702,1270.5C 2708.79,1264.87 2715.62,1259.37 2722.5,1254C 2768.8,1223.2 2812.8,1189.53 2854.5,1153C 2860.78,1147.24 2867.78,1142.4 2875.5,1138.5C 2876.38,1137.24 2877.38,1136.07 2878.5,1135C 2878.17,1134.67 2877.83,1134.33 2877.5,1134C 2878.52,1131.55 2879.02,1129.05 2879,1126.5C 2877.23,1125.18 2875.9,1123.52 2875,1121.5C 2874.28,1122.45 2873.45,1122.62 2872.5,1122C 2863.98,1111.16 2855.15,1100.66 2846,1090.5C 2845.23,1087.5 2843.56,1085.17 2841,1083.5C 2840.67,1082.17 2840.33,1080.83 2840,1079.5C 2839.33,1080.83 2838.67,1080.83 2838,1079.5C 2837,1077.17 2836,1074.83 2835,1072.5C 2834.67,1072.83 2834.33,1073.17 2834,1073.5C 2827.92,1069 2825.42,1063 2826.5,1055.5 Z"
       id="path47" />
  </g>
  <g
     id="g48"
     style="fill:#f9f9f9">
    <path
       style="opacity:0.77;fill:#f9f9f9"
       fill="#f2f2f2"
       d="M 754.5,1049.5 C 754.804,1055.58 754.304,1061.58 753,1067.5C 669.242,1170.01 585.242,1272.34 501,1374.5C 497.778,1378.14 497.112,1382.14 499,1386.5C 559.338,1439.07 622.505,1487.91 688.5,1533C 698.709,1538.23 708.709,1543.73 718.5,1549.5C 772.342,1575.55 826.342,1586.05 880.5,1581C 882.137,1580.4 883.803,1579.9 885.5,1579.5C 889.524,1580.03 893.524,1579.37 897.5,1577.5C 899.523,1578.04 901.523,1577.54 903.5,1576C 914.391,1574.56 924.891,1571.72 935,1567.5C 935.765,1567.57 936.265,1567.9 936.5,1568.5C 923.235,1574.53 909.235,1578.69 894.5,1581C 869.085,1586.08 843.418,1587.74 817.5,1586C 810.276,1583.69 802.943,1583.02 795.5,1584C 793.325,1582.82 791.158,1581.65 789,1580.5C 779.781,1580.71 771.281,1578.54 763.5,1574C 727.382,1563.94 694.048,1547.94 663.5,1526C 660.583,1524.47 657.583,1523.14 654.5,1522C 648.442,1515.82 641.609,1511.65 634,1509.5C 632.86,1505.69 630.36,1503.19 626.5,1502C 623.931,1499.52 621.598,1496.85 619.5,1494C 591.017,1474.19 563.683,1452.86 537.5,1430C 533.148,1427.29 529.148,1424.29 525.5,1421C 523.22,1420.77 521.22,1419.93 519.5,1418.5C 518.866,1416.43 517.866,1414.6 516.5,1413C 508.902,1408.4 502.235,1402.73 496.5,1396C 494.277,1393.78 491.611,1392.44 488.5,1392C 485.64,1389.14 482.806,1386.31 480,1383.5C 479.503,1380.85 479.336,1378.19 479.5,1375.5C 482.701,1373.82 486.035,1372.32 489.5,1371C 503.101,1356.24 515.601,1340.74 527,1324.5C 536.342,1315.5 544.508,1305.5 551.5,1294.5C 557.61,1288.89 562.777,1282.56 567,1275.5C 581.446,1260.06 594.78,1243.72 607,1226.5C 609.292,1225.21 611.292,1223.54 613,1221.5C 622.716,1210.28 631.883,1198.62 640.5,1186.5C 641.748,1185.96 642.915,1185.29 644,1184.5C 649.758,1175.08 656.591,1166.58 664.5,1159C 664.167,1158.67 663.833,1158.33 663.5,1158C 688.869,1128.98 713.369,1099.15 737,1068.5C 742.751,1063.41 747.418,1057.41 751,1050.5C 752.011,1049.66 753.178,1049.33 754.5,1049.5 Z"
       id="path48" />
  </g>
  <g
     id="g49"
     style="fill:#f9f9f9">
    <path
       style="opacity:0.892;fill:#f9f9f9"
       fill="#f1f1f1"
       d="M 2875.5,1231.5 C 2877.9,1231.39 2879.74,1232.39 2881,1234.5C 2887.64,1243.14 2894.3,1251.81 2901,1260.5C 2904.22,1261.72 2905.89,1264.06 2906,1267.5C 2913.67,1277.83 2921.33,1288.17 2929,1298.5C 2929.11,1302.4 2928.11,1306.07 2926,1309.5C 2916.91,1318.61 2906.74,1326.11 2895.5,1332C 2889.63,1336.43 2883.96,1341.1 2878.5,1346C 2850.82,1365 2823.65,1384.84 2797,1405.5C 2795.7,1407.36 2795.37,1409.36 2796,1411.5C 2800.15,1417.05 2803.48,1423.05 2806,1429.5C 2809.73,1430.46 2813.56,1430.79 2817.5,1430.5C 2815.67,1432.51 2814,1434.67 2812.5,1437C 2813.82,1440.21 2816.15,1441.21 2819.5,1440C 2821.72,1437.78 2824.39,1436.44 2827.5,1436C 2831.07,1431.21 2835.73,1427.87 2841.5,1426C 2843.5,1424 2845.5,1422 2847.5,1420C 2853.2,1418.15 2857.87,1414.81 2861.5,1410C 2864.94,1409.89 2867.28,1408.22 2868.5,1405C 2869.83,1404.67 2871.17,1404.33 2872.5,1404C 2875.73,1399.44 2880.07,1396.44 2885.5,1395C 2887.5,1391.67 2890.17,1389 2893.5,1387C 2897.09,1385.09 2900.42,1382.75 2903.5,1380C 2904.83,1379.67 2906.17,1379.33 2907.5,1379C 2914.86,1370.64 2923.19,1363.31 2932.5,1357C 2935.35,1355.39 2938.35,1354.73 2941.5,1355C 2943.76,1356.71 2945.93,1358.55 2948,1360.5C 2948.67,1361.83 2948.67,1363.17 2948,1364.5C 2940.13,1372.04 2931.96,1379.21 2923.5,1386C 2890.99,1408.35 2859.82,1432.52 2830,1458.5C 2827.52,1464.75 2825.52,1471.08 2824,1477.5C 2820.44,1473.39 2817.1,1469.05 2814,1464.5C 2803.1,1447.03 2792.43,1429.37 2782,1411.5C 2781.33,1410.17 2781.33,1408.83 2782,1407.5C 2827.28,1374.55 2872.28,1341.22 2917,1307.5C 2917.67,1305.5 2917.67,1303.5 2917,1301.5C 2904.91,1284.99 2892.58,1268.65 2880,1252.5C 2878.89,1250.61 2878.05,1248.61 2877.5,1246.5C 2879.3,1241.04 2878.64,1236.04 2875.5,1231.5 Z"
       id="path49" />
  </g>
  <g
     id="g50"
     style="fill:#f9f9f9">
    <path
       style="opacity:0.6;fill:#f9f9f9"
       fill="#f1f1f1"
       d="M 813.5,1426.5 C 829.485,1426.82 843.819,1424.82 856.5,1420.5C 859.825,1417.21 863.158,1413.88 866.5,1410.5C 869.424,1405.65 872.591,1400.98 876,1396.5C 888.417,1366.17 887.084,1336.5 872,1307.5C 859.104,1284.77 841.604,1266.44 819.5,1252.5C 818.719,1253.74 817.719,1254.74 816.5,1255.5C 814.807,1253.97 812.973,1252.64 811,1251.5C 808.509,1255.12 806.675,1259.12 805.5,1263.5C 806.363,1262.54 807.03,1262.54 807.5,1263.5C 806.91,1266.91 805.577,1269.91 803.5,1272.5C 807.932,1268.09 811.932,1263.76 815.5,1259.5C 816.356,1262.14 816.19,1264.81 815,1267.5C 789.237,1305.8 763.404,1343.8 737.5,1381.5C 739.919,1384.88 739.586,1388.04 736.5,1391C 747.155,1398.47 757.822,1405.64 768.5,1412.5C 766.345,1412.63 764.345,1412.13 762.5,1411C 752.332,1404.08 741.999,1397.42 731.5,1391C 727.395,1390.52 723.395,1391.02 719.5,1392.5C 719.167,1392 718.833,1391.5 718.5,1391C 744.925,1348 771.758,1305.17 799,1262.5C 801.283,1257.6 803.283,1252.6 805,1247.5C 805.499,1243.49 805.333,1239.49 804.5,1235.5C 804.436,1233.61 804.936,1231.94 806,1230.5C 819.411,1240.46 832.911,1250.29 846.5,1260C 881.226,1289.95 897.393,1327.78 895,1373.5C 892.882,1395.4 884.049,1414.07 868.5,1429.5C 855.514,1442.07 840.181,1446.91 822.5,1444C 820.382,1443.74 818.716,1442.74 817.5,1441C 821.643,1438.95 825.976,1437.28 830.5,1436C 833.654,1434.33 836.654,1432.5 839.5,1430.5C 830.852,1429.67 822.186,1429.17 813.5,1429C 812.402,1428.23 812.402,1427.4 813.5,1426.5 Z"
       id="path50" />
  </g>
  <g
     id="g51"
     style="fill:#f9f9f9">
    <path
       style="opacity:0.996;fill:#f9f9f9"
       fill="#fdfdfd"
       d="M 2465.5,1290.5 C 2463.98,1295.97 2463.14,1301.64 2463,1307.5C 2510.58,1413.28 2557.91,1518.62 2605,1623.5C 2608.25,1631.01 2611.25,1638.68 2614,1646.5C 2618.52,1655.04 2622.85,1663.71 2627,1672.5C 2627.97,1676.41 2629.14,1680.24 2630.5,1684C 2630.41,1685.11 2630.08,1686.11 2629.5,1687C 2584.19,1707.49 2538.53,1727.15 2492.5,1746C 2488.74,1747.81 2485.08,1749.81 2481.5,1752C 2479.17,1752.67 2476.83,1752.67 2474.5,1752C 2462.49,1745.98 2450.99,1739.15 2440,1731.5C 2439.67,1731.83 2439.33,1732.17 2439,1732.5C 2437.5,1731 2436,1729.5 2434.5,1728C 2427.63,1726.23 2421.63,1722.9 2416.5,1718C 2408.79,1715.31 2401.79,1711.31 2395.5,1706C 2391.5,1704.33 2387.5,1702.67 2383.5,1701C 2344.4,1676.61 2305.73,1651.28 2267.5,1625C 2257.11,1619.81 2247.78,1613.14 2239.5,1605C 2236.87,1603.1 2234.04,1601.6 2231,1600.5C 2247.23,1668.77 2263.23,1736.43 2279,1803.5C 2279.67,1806.83 2279.67,1810.17 2279,1813.5C 2276.01,1815.37 2272.84,1816.87 2269.5,1818C 2220.35,1828.12 2171.35,1838.29 2122.5,1848.5C 2119.68,1848.88 2117.51,1847.88 2116,1845.5C 2115.83,1843.29 2115.16,1841.29 2114,1839.5C 2106.87,1800.24 2100.7,1761.07 2095.5,1722C 2092.3,1706.34 2088.97,1690.68 2085.5,1675C 2085.74,1674.13 2086.07,1673.29 2086.5,1672.5C 2084.85,1665.16 2083.18,1657.83 2081.5,1650.5C 2081.83,1649.83 2082.17,1649.17 2082.5,1648.5C 2081.26,1646.3 2079.93,1644.14 2078.5,1642C 2080.15,1639.8 2079.81,1637.97 2077.5,1636.5C 2077.83,1635.83 2078.17,1635.17 2078.5,1634.5C 2076.2,1630.18 2075.04,1625.51 2075,1620.5C 2074.58,1619.24 2073.75,1618.58 2072.5,1618.5C 2071.22,1616.44 2070.39,1614.1 2070,1611.5C 2069.97,1598.41 2067.64,1585.74 2063,1573.5C 2062.48,1561.13 2061.48,1548.79 2060,1536.5C 2053.63,1498.77 2047.3,1461.1 2041,1423.5C 2037.68,1412.71 2041.18,1405.54 2051.5,1402C 2066.6,1400.52 2081.26,1397.52 2095.5,1393C 2105.77,1392.64 2115.44,1390.31 2124.5,1386C 2139.93,1384.37 2154.93,1381.37 2169.5,1377C 2181.38,1373.34 2192.05,1375.34 2201.5,1383C 2205.24,1387.22 2209.58,1390.56 2214.5,1393C 2216.21,1394.38 2217.55,1396.04 2218.5,1398C 2227.68,1404.42 2236.68,1411.09 2245.5,1418C 2261.02,1430.92 2276.69,1443.58 2292.5,1456C 2300.05,1460.22 2307.05,1465.22 2313.5,1471C 2317.36,1472.76 2321.03,1474.76 2324.5,1477C 2336.31,1485.63 2348.31,1494.13 2360.5,1502.5C 2363.72,1503.69 2366.89,1505.03 2370,1506.5C 2371.62,1506.05 2372.79,1505.05 2373.5,1503.5C 2372.81,1501.56 2372.31,1499.56 2372,1497.5C 2361.85,1467.91 2351.85,1438.25 2342,1408.5C 2337.44,1398.93 2334.11,1388.93 2332,1378.5C 2325.91,1365.56 2321.41,1352.06 2318.5,1338C 2318.63,1335.75 2319.13,1333.58 2320,1331.5C 2325.43,1327.5 2331.27,1324.33 2337.5,1322C 2355.84,1315.68 2373.5,1308.01 2390.5,1299C 2405.44,1293.52 2420.11,1287.52 2434.5,1281C 2438.78,1279.76 2443.11,1279.42 2447.5,1280C 2453.66,1283.35 2459.66,1286.85 2465.5,1290.5 Z"
       id="path51" />
  </g>
  <g
     id="g52"
     style="fill:#f9f9f9">
    <path
       style="opacity:0.944;fill:#f9f9f9"
       fill="#f4f4f4"
       d="M 2465.5,1290.5 C 2470.96,1300.33 2476.13,1310.33 2481,1320.5C 2481.67,1323.17 2482.33,1325.83 2483,1328.5C 2488.81,1339.12 2493.81,1350.12 2498,1361.5C 2502.29,1366.76 2504.96,1372.76 2506,1379.5C 2512.44,1391.04 2517.77,1403.04 2522,1415.5C 2529.47,1431.57 2537.14,1447.57 2545,1463.5C 2545.33,1465.17 2545.67,1466.83 2546,1468.5C 2555.46,1487.75 2564.12,1507.42 2572,1527.5C 2576.67,1536.17 2581.33,1544.83 2586,1553.5C 2587.85,1561.52 2590.52,1569.18 2594,1576.5C 2609.85,1611.03 2625.51,1645.69 2641,1680.5C 2641.98,1683.67 2641.48,1686.5 2639.5,1689C 2636.83,1690.67 2634.17,1692.33 2631.5,1694C 2614.07,1701.06 2596.74,1708.06 2579.5,1715C 2547.84,1729.26 2515.84,1742.93 2483.5,1756C 2479.17,1756.67 2474.83,1756.67 2470.5,1756C 2446.35,1741.2 2421.68,1727.2 2396.5,1714C 2363.98,1694.39 2331.98,1673.72 2300.5,1652C 2295.4,1648.57 2290.07,1645.57 2284.5,1643C 2281.51,1641.01 2278.85,1638.68 2276.5,1636C 2266.57,1629.74 2256.41,1623.9 2246,1618.5C 2244.5,1618.67 2243.67,1619.5 2243.5,1621C 2244.37,1627.15 2245.2,1633.32 2246,1639.5C 2251.2,1658.36 2255.87,1677.36 2260,1696.5C 2264.28,1708.59 2267.28,1720.92 2269,1733.5C 2276.45,1760.31 2282.79,1787.31 2288,1814.5C 2284.66,1818.38 2280.49,1820.88 2275.5,1822C 2255.56,1824.85 2235.89,1829.19 2216.5,1835C 2210.82,1835.59 2205.16,1836.26 2199.5,1837C 2189.07,1841.35 2178.07,1843.68 2166.5,1844C 2151.06,1848.19 2135.39,1851.69 2119.5,1854.5C 2117.14,1853.9 2114.98,1852.9 2113,1851.5C 2109.88,1840.83 2106.38,1830.33 2102.5,1820C 2103.02,1819.44 2103.36,1818.77 2103.5,1818C 2099.68,1792.38 2095.34,1766.88 2090.5,1741.5C 2090.75,1734.03 2089.59,1726.69 2087,1719.5C 2083.85,1695.48 2080.52,1671.48 2077,1647.5C 2075.16,1644.21 2074.66,1640.88 2075.5,1637.5C 2074.01,1631.23 2073.01,1624.9 2072.5,1618.5C 2073.75,1618.58 2074.58,1619.24 2075,1620.5C 2075.04,1625.51 2076.2,1630.18 2078.5,1634.5C 2078.17,1635.17 2077.83,1635.83 2077.5,1636.5C 2079.81,1637.97 2080.15,1639.8 2078.5,1642C 2079.93,1644.14 2081.26,1646.3 2082.5,1648.5C 2082.17,1649.17 2081.83,1649.83 2081.5,1650.5C 2083.18,1657.83 2084.85,1665.16 2086.5,1672.5C 2086.07,1673.29 2085.74,1674.13 2085.5,1675C 2088.97,1690.68 2092.3,1706.34 2095.5,1722C 2100.7,1761.07 2106.87,1800.24 2114,1839.5C 2115.16,1841.29 2115.83,1843.29 2116,1845.5C 2117.51,1847.88 2119.68,1848.88 2122.5,1848.5C 2171.35,1838.29 2220.35,1828.12 2269.5,1818C 2272.84,1816.87 2276.01,1815.37 2279,1813.5C 2279.67,1810.17 2279.67,1806.83 2279,1803.5C 2263.23,1736.43 2247.23,1668.77 2231,1600.5C 2234.04,1601.6 2236.87,1603.1 2239.5,1605C 2247.78,1613.14 2257.11,1619.81 2267.5,1625C 2305.73,1651.28 2344.4,1676.61 2383.5,1701C 2387.5,1702.67 2391.5,1704.33 2395.5,1706C 2401.79,1711.31 2408.79,1715.31 2416.5,1718C 2421.63,1722.9 2427.63,1726.23 2434.5,1728C 2436,1729.5 2437.5,1731 2439,1732.5C 2439.33,1732.17 2439.67,1731.83 2440,1731.5C 2450.99,1739.15 2462.49,1745.98 2474.5,1752C 2476.83,1752.67 2479.17,1752.67 2481.5,1752C 2485.08,1749.81 2488.74,1747.81 2492.5,1746C 2538.53,1727.15 2584.19,1707.49 2629.5,1687C 2630.08,1686.11 2630.41,1685.11 2630.5,1684C 2629.14,1680.24 2627.97,1676.41 2627,1672.5C 2622.85,1663.71 2618.52,1655.04 2614,1646.5C 2611.25,1638.68 2608.25,1631.01 2605,1623.5C 2557.91,1518.62 2510.58,1413.28 2463,1307.5C 2463.14,1301.64 2463.98,1295.97 2465.5,1290.5 Z"
       id="path52" />
  </g>
  <g
     id="g53"
     style="fill:#f9f9f9">
    <path
       style="opacity:0.995;fill:#f9f9f9"
       fill="#fdfdfd"
       d="M 1437.5,1849.5 C 1435.18,1846.71 1432.18,1844.87 1428.5,1844C 1378.12,1832.76 1327.79,1821.42 1277.5,1810C 1272.11,1807.94 1267.95,1804.44 1265,1799.5C 1251.68,1749.88 1237.35,1700.54 1222,1651.5C 1219.13,1648.3 1215.96,1645.46 1212.5,1643C 1204.91,1640.73 1197.41,1638.23 1190,1635.5C 1189.31,1636.03 1188.81,1636.69 1188.5,1637.5C 1191.32,1643.53 1191.82,1649.86 1190,1656.5C 1184.68,1675.14 1179.34,1693.8 1174,1712.5C 1170.06,1719.65 1167.73,1727.32 1167,1735.5C 1164.92,1742.56 1162.76,1749.56 1160.5,1756.5C 1158.19,1760.79 1155.53,1764.79 1152.5,1768.5C 1149.89,1769.43 1147.22,1769.6 1144.5,1769C 1140,1765.17 1135,1762.17 1129.5,1760C 1085.27,1742.74 1041.27,1725.08 997.5,1707C 993.194,1705.69 989.861,1703.19 987.5,1699.5C 1040.22,1576.38 1092.72,1453.04 1145,1329.5C 1149.41,1321.9 1149.58,1314.24 1145.5,1306.5C 1145.86,1305.82 1146.2,1305.15 1146.5,1304.5C 1148,1302.16 1150,1300.33 1152.5,1299C 1157.79,1296.69 1162.95,1294.19 1168,1291.5C 1173.56,1294.06 1179.39,1295.9 1185.5,1297C 1215.45,1308.59 1245.11,1320.93 1274.5,1334C 1285.08,1335.84 1295.08,1339.17 1304.5,1344C 1310.69,1344.53 1316.36,1346.53 1321.5,1350C 1342.48,1356.77 1363.48,1363.44 1384.5,1370C 1398.39,1376.2 1411.72,1383.53 1424.5,1392C 1433.01,1398.85 1441.18,1406.02 1449,1413.5C 1452.87,1420.05 1457.54,1426.05 1463,1431.5C 1469.18,1443.2 1474.85,1455.2 1480,1467.5C 1488.58,1495.24 1489.58,1523.24 1483,1551.5C 1482.55,1553.52 1481.72,1555.35 1480.5,1557C 1480.83,1557.33 1481.17,1557.67 1481.5,1558C 1476.49,1567.68 1472.66,1577.85 1470,1588.5C 1466.78,1590.6 1464.78,1593.6 1464,1597.5C 1448,1624.23 1425.5,1643.06 1396.5,1654C 1394.77,1655.39 1393.44,1657.06 1392.5,1659C 1395.17,1668.18 1398,1677.35 1401,1686.5C 1405.87,1693.76 1409.2,1701.76 1411,1710.5C 1415.82,1718.27 1419.48,1726.6 1422,1735.5C 1422.67,1736.17 1423.33,1736.83 1424,1737.5C 1434.8,1764.59 1445.97,1791.42 1457.5,1818C 1456.61,1822.15 1455.78,1826.32 1455,1830.5C 1452.54,1836.41 1450.21,1842.41 1448,1848.5C 1444.44,1851.46 1440.94,1851.79 1437.5,1849.5 Z M 1310.5,1527.5 C 1298.61,1528.39 1287.94,1526.23 1278.5,1521C 1274.5,1520.33 1270.5,1519.67 1266.5,1519C 1267.17,1518.67 1267.83,1518.33 1268.5,1518C 1261.86,1515.94 1255.2,1514.1 1248.5,1512.5C 1248.28,1511.27 1247.61,1510.27 1246.5,1509.5C 1247.23,1506.89 1247.73,1504.22 1248,1501.5C 1252.05,1489.53 1255.72,1477.53 1259,1465.5C 1262.54,1467.61 1266.21,1468.28 1270,1467.5C 1280.93,1471.7 1292.1,1475.53 1303.5,1479C 1320.17,1487.52 1327.51,1501.02 1325.5,1519.5C 1321.27,1523.89 1316.27,1526.55 1310.5,1527.5 Z"
       id="path53" />
  </g>
  <g
     id="g54"
     style="fill:#f9f9f9">
    <path
       style="opacity:0.689;fill:#f9f9f9"
       fill="#f0f0f0"
       d="M 3040.5,1303.5 C 3044.94,1308.11 3049.27,1312.95 3053.5,1318C 3054.77,1318.31 3055.93,1318.81 3057,1319.5C 3058.58,1325.56 3062.08,1329.89 3067.5,1332.5C 3067.49,1334.31 3067.99,1335.98 3069,1337.5C 3078.1,1348.69 3087.43,1359.69 3097,1370.5C 3099,1375.17 3099,1379.83 3097,1384.5C 3092.3,1393.76 3085.13,1400.26 3075.5,1404C 3070.51,1407.99 3065.84,1412.33 3061.5,1417C 3046.33,1429.41 3030.67,1441.07 3014.5,1452C 3008.76,1457.74 3002.43,1462.74 2995.5,1467C 2984.71,1477.46 2973.04,1486.8 2960.5,1495C 2951.58,1503.79 2941.58,1511.13 2930.5,1517C 2923.97,1523.2 2916.63,1528.2 2908.5,1532C 2863.96,1564.21 2817.63,1593.54 2769.5,1620C 2767.49,1622.27 2765.16,1624.11 2762.5,1625.5C 2751.32,1631.26 2740.32,1637.26 2729.5,1643.5C 2730.07,1641.74 2730.91,1640.08 2732,1638.5C 2765.59,1617.96 2799.42,1597.79 2833.5,1578C 2868.6,1553.88 2903.94,1530.21 2939.5,1507C 2989.38,1466.79 3039.55,1426.95 3090,1387.5C 3092.02,1384.19 3092.35,1380.85 3091,1377.5C 3074.41,1359.69 3058.75,1341.03 3044,1321.5C 3041.98,1315.68 3040.82,1309.68 3040.5,1303.5 Z"
       id="path54" />
  </g>
  <g
     id="g55"
     style="fill:#f9f9f9">
    <path
       style="opacity:0.019;fill:#f9f9f9"
       fill="#ececec"
       d="M 3104.5,1379.5 C 3106.46,1379.95 3106.8,1380.95 3105.5,1382.5C 3104.61,1381.68 3104.28,1380.68 3104.5,1379.5 Z"
       id="path55" />
  </g>
  <g
     id="g56"
     style="fill:#f9f9f9">
    <path
       style="opacity:0.996;fill:#f9f9f9"
       fill="#fdfdfd"
       d="M 2025.5,1591.5 C 2024.96,1591.56 2024.62,1591.89 2024.5,1592.5C 2035.67,1620.56 2041.17,1649.89 2041,1680.5C 2040,1681.83 2039,1681.83 2038,1680.5C 2038.05,1684.17 2038.55,1687.83 2039.5,1691.5C 2037.8,1696.5 2036.47,1701.67 2035.5,1707C 2035.64,1707.77 2035.98,1708.44 2036.5,1709C 2031.43,1730.2 2023.6,1750.37 2013,1769.5C 1992.21,1801.96 1965.71,1828.79 1933.5,1850C 1853.51,1897.24 1768.51,1908.9 1678.5,1885C 1625.75,1869.56 1580.59,1842.06 1543,1802.5C 1505.75,1758.92 1488.92,1708.25 1492.5,1650.5C 1492.72,1648.94 1493.39,1647.61 1494.5,1646.5C 1493.91,1642.62 1493.58,1638.79 1493.5,1635C 1496.18,1628.78 1498.18,1622.28 1499.5,1615.5C 1499.29,1614.91 1498.96,1614.41 1498.5,1614C 1501.92,1605.82 1505.42,1597.66 1509,1589.5C 1509.81,1582.32 1511.31,1575.32 1513.5,1568.5C 1517.94,1558.08 1523.94,1548.75 1531.5,1540.5C 1535.33,1534.83 1539.17,1529.17 1543,1523.5C 1553.29,1512.74 1564.12,1502.58 1575.5,1493C 1582.29,1487.21 1589.62,1482.21 1597.5,1478C 1599.85,1474.65 1602.85,1471.98 1606.5,1470C 1619.83,1463.33 1633.17,1456.67 1646.5,1450C 1655.21,1447.75 1663.54,1444.75 1671.5,1441C 1683.45,1438.87 1695.12,1435.87 1706.5,1432C 1710.09,1431.21 1713.59,1431.38 1717,1432.5C 1718.92,1431.07 1721.08,1430.07 1723.5,1429.5C 1800.55,1421.05 1871.22,1437.88 1935.5,1480C 1946.48,1488.32 1957.15,1496.98 1967.5,1506C 1973.42,1512.58 1979.25,1519.08 1985,1525.5C 1986.53,1527.56 1988.53,1528.9 1991,1529.5C 1996.33,1537.5 2001.67,1545.5 2007,1553.5C 2011.45,1562.24 2016.28,1570.74 2021.5,1579C 2022.94,1583.15 2024.27,1587.32 2025.5,1591.5 Z M 1825.5,1727.5 C 1819.67,1729.63 1813.67,1731.46 1807.5,1733C 1808.17,1733.33 1808.83,1733.67 1809.5,1734C 1791.47,1738.96 1773.13,1741.29 1754.5,1741C 1754.83,1740.67 1755.17,1740.33 1755.5,1740C 1741.86,1738.61 1729.19,1735.77 1717.5,1731.5C 1713.14,1728.74 1708.47,1726.57 1703.5,1725C 1703.83,1724.67 1704.17,1724.33 1704.5,1724C 1700.79,1722.15 1697.12,1720.31 1693.5,1718.5C 1691.31,1715.16 1688.31,1712.66 1684.5,1711C 1684.83,1710.67 1685.17,1710.33 1685.5,1710C 1673.95,1699.74 1665.78,1687.24 1661,1672.5C 1659.3,1666.25 1658.63,1659.92 1659,1653.5C 1664.14,1635.06 1673.97,1619.56 1688.5,1607C 1727.14,1577.96 1769.14,1572.13 1814.5,1589.5C 1832.81,1598.31 1848.31,1610.64 1861,1626.5C 1867.1,1635.69 1871.26,1645.69 1873.5,1656.5C 1872.07,1671.36 1867.24,1685.02 1859,1697.5C 1854.43,1702.02 1850.6,1706.52 1847.5,1711C 1840.75,1716.48 1833.42,1721.98 1825.5,1727.5 Z"
       id="path56" />
  </g>
  <g
     id="g57"
     style="fill:#f9f9f9">
    <path
       style="opacity:0.514;fill:#f9f9f9"
       fill="#efefef"
       d="M 1310.5,1527.5 C 1316.27,1526.55 1321.27,1523.89 1325.5,1519.5C 1327.51,1501.02 1320.17,1487.52 1303.5,1479C 1292.1,1475.53 1280.93,1471.7 1270,1467.5C 1266.21,1468.28 1262.54,1467.61 1259,1465.5C 1255.72,1477.53 1252.05,1489.53 1248,1501.5C 1247.73,1504.22 1247.23,1506.89 1246.5,1509.5C 1247.61,1510.27 1248.28,1511.27 1248.5,1512.5C 1245.07,1512.11 1241.9,1512.77 1239,1514.5C 1241.2,1503.36 1244.2,1492.36 1248,1481.5C 1248.69,1475.74 1249.86,1470.07 1251.5,1464.5C 1250.91,1462.73 1250.08,1461.07 1249,1459.5C 1248.33,1457.83 1248.33,1456.17 1249,1454.5C 1267.77,1460.92 1286.6,1467.08 1305.5,1473C 1326.31,1482.76 1335.48,1498.93 1333,1521.5C 1329.17,1529.33 1323.33,1535.17 1315.5,1539C 1313.17,1539.67 1310.83,1539.67 1308.5,1539C 1313.73,1536.77 1318.06,1533.43 1321.5,1529C 1321.17,1528.5 1320.83,1528 1320.5,1527.5C 1317.03,1528.79 1313.7,1528.79 1310.5,1527.5 Z"
       id="path57" />
  </g>
  <g
     id="g58"
     style="fill:#f9f9f9">
    <path
       style="opacity:0.711;fill:#f9f9f9"
       fill="#f2f2f2"
       d="M 1146.5,1304.5 C 1146.2,1305.15 1145.86,1305.82 1145.5,1306.5C 1149.58,1314.24 1149.41,1321.9 1145,1329.5C 1092.72,1453.04 1040.22,1576.38 987.5,1699.5C 989.861,1703.19 993.194,1705.69 997.5,1707C 1041.27,1725.08 1085.27,1742.74 1129.5,1760C 1135,1762.17 1140,1765.17 1144.5,1769C 1147.22,1769.6 1149.89,1769.43 1152.5,1768.5C 1151.45,1770.53 1149.79,1771.87 1147.5,1772.5C 1138.28,1771.95 1129.95,1769.12 1122.5,1764C 1119.53,1763.21 1116.53,1762.54 1113.5,1762C 1104.66,1757.55 1095.66,1753.55 1086.5,1750C 1081.54,1748.51 1076.54,1747.18 1071.5,1746C 1063.12,1740.76 1054.12,1737.1 1044.5,1735C 1038.39,1731.22 1032.06,1727.89 1025.5,1725C 1011.78,1720.15 998.116,1715.15 984.5,1710C 981.168,1707.51 978.834,1704.34 977.5,1700.5C 979.233,1694.8 981.066,1689.14 983,1683.5C 1005.77,1631.86 1027.77,1579.86 1049,1527.5C 1051.81,1521.38 1054.81,1515.38 1058,1509.5C 1073.42,1470.56 1089.75,1431.9 1107,1393.5C 1109.11,1388.72 1110.45,1383.72 1111,1378.5C 1113.25,1376.04 1115.25,1373.37 1117,1370.5C 1122.96,1356 1128.63,1341.34 1134,1326.5C 1138.37,1320.09 1141.37,1313.09 1143,1305.5C 1144.01,1304.66 1145.18,1304.33 1146.5,1304.5 Z"
       id="path58" />
  </g>
  <g
     id="g59"
     style="fill:#f9f9f9">
    <path
       style="opacity:0.918;fill:#f9f9f9"
       fill="#f6f6f6"
       d="M 1513.5,1568.5 C 1511.31,1575.32 1509.81,1582.32 1509,1589.5C 1505.42,1597.66 1501.92,1605.82 1498.5,1614C 1498.96,1614.41 1499.29,1614.91 1499.5,1615.5C 1498.18,1622.28 1496.18,1628.78 1493.5,1635C 1493.58,1638.79 1493.91,1642.62 1494.5,1646.5C 1493.39,1647.61 1492.72,1648.94 1492.5,1650.5C 1488.92,1708.25 1505.75,1758.92 1543,1802.5C 1580.59,1842.06 1625.75,1869.56 1678.5,1885C 1768.51,1908.9 1853.51,1897.24 1933.5,1850C 1965.71,1828.79 1992.21,1801.96 2013,1769.5C 2023.6,1750.37 2031.43,1730.2 2036.5,1709C 2035.98,1708.44 2035.64,1707.77 2035.5,1707C 2036.47,1701.67 2037.8,1696.5 2039.5,1691.5C 2038.55,1687.83 2038.05,1684.17 2038,1680.5C 2039,1681.83 2040,1681.83 2041,1680.5C 2041.17,1649.89 2035.67,1620.56 2024.5,1592.5C 2024.62,1591.89 2024.96,1591.56 2025.5,1591.5C 2035.4,1613.41 2041.4,1636.41 2043.5,1660.5C 2042.85,1669.66 2042.19,1678.83 2041.5,1688C 2041.54,1689.76 2041.88,1691.43 2042.5,1693C 2038.8,1707.09 2035.3,1721.26 2032,1735.5C 2011.92,1783.59 1980.09,1822.09 1936.5,1851C 1849.22,1902.22 1757.22,1912.22 1660.5,1881C 1612.01,1864.35 1570.84,1836.85 1537,1798.5C 1502.92,1755.72 1486.76,1706.89 1488.5,1652C 1488.19,1650.54 1487.53,1649.37 1486.5,1648.5C 1486.34,1646.14 1486.5,1643.81 1487,1641.5C 1492.17,1617.99 1499.84,1595.33 1510,1573.5C 1510.7,1571.42 1511.86,1569.75 1513.5,1568.5 Z"
       id="path59" />
  </g>
  <g
     id="g60"
     style="fill:#f9f9f9">
    <path
       style="opacity:0.442;fill:#f9f9f9"
       fill="#efefef"
       d="M 1825.5,1727.5 C 1833.42,1721.98 1840.75,1716.48 1847.5,1711C 1850.6,1706.52 1854.43,1702.02 1859,1697.5C 1867.24,1685.02 1872.07,1671.36 1873.5,1656.5C 1871.26,1645.69 1867.1,1635.69 1861,1626.5C 1848.31,1610.64 1832.81,1598.31 1814.5,1589.5C 1769.14,1572.13 1727.14,1577.96 1688.5,1607C 1673.97,1619.56 1664.14,1635.06 1659,1653.5C 1658.63,1659.92 1659.3,1666.25 1661,1672.5C 1665.78,1687.24 1673.95,1699.74 1685.5,1710C 1685.17,1710.33 1684.83,1710.67 1684.5,1711C 1688.31,1712.66 1691.31,1715.16 1693.5,1718.5C 1691.8,1718.66 1690.13,1718.49 1688.5,1718C 1682.36,1712.87 1676.53,1707.37 1671,1701.5C 1670.5,1702 1670,1702.5 1669.5,1703C 1670.26,1704.44 1670.93,1705.94 1671.5,1707.5C 1671,1708.52 1670.33,1708.69 1669.5,1708C 1664.86,1704.04 1661.03,1699.54 1658,1694.5C 1655.32,1686.02 1653.82,1677.36 1653.5,1668.5C 1656.94,1630.92 1675.28,1603.42 1708.5,1586C 1748.53,1568.75 1788.19,1569.41 1827.5,1588C 1843.58,1597.08 1856.75,1609.25 1867,1624.5C 1875.09,1639.51 1878.42,1655.51 1877,1672.5C 1876.62,1677.27 1874.29,1680.6 1870,1682.5C 1860.62,1703.05 1845.79,1718.05 1825.5,1727.5 Z"
       id="path60" />
  </g>
  <g
     id="g61"
     style="fill:#f9f9f9">
    <path
       style="opacity:0.591;fill:#f9f9f9"
       fill="#efefef"
       d="M 1437.5,1849.5 C 1434.48,1849.66 1431.48,1849.5 1428.5,1849C 1410.22,1844.53 1391.89,1840.53 1373.5,1837C 1355.27,1831.93 1336.93,1827.26 1318.5,1823C 1311.18,1821.87 1303.85,1820.87 1296.5,1820C 1286.43,1817.15 1276.43,1813.98 1266.5,1810.5C 1258.72,1800.93 1254.22,1789.93 1253,1777.5C 1252.08,1773.48 1250.41,1769.82 1248,1766.5C 1247.24,1762.18 1246.57,1757.85 1246,1753.5C 1241.76,1741.37 1238.42,1729.03 1236,1716.5C 1229.67,1695.5 1223.33,1674.5 1217,1653.5C 1214.52,1650.45 1211.52,1649.45 1208,1650.5C 1204.26,1646.13 1199.93,1645.13 1195,1647.5C 1191.38,1657.87 1189.72,1668.53 1190,1679.5C 1185.05,1686.27 1182.38,1693.94 1182,1702.5C 1176.4,1716.13 1171.73,1730.13 1168,1744.5C 1165.89,1747.61 1164.23,1750.94 1163,1754.5C 1162.29,1755.38 1161.46,1756.05 1160.5,1756.5C 1162.76,1749.56 1164.92,1742.56 1167,1735.5C 1167.73,1727.32 1170.06,1719.65 1174,1712.5C 1179.34,1693.8 1184.68,1675.14 1190,1656.5C 1191.82,1649.86 1191.32,1643.53 1188.5,1637.5C 1188.81,1636.69 1189.31,1636.03 1190,1635.5C 1197.41,1638.23 1204.91,1640.73 1212.5,1643C 1215.96,1645.46 1219.13,1648.3 1222,1651.5C 1237.35,1700.54 1251.68,1749.88 1265,1799.5C 1267.95,1804.44 1272.11,1807.94 1277.5,1810C 1327.79,1821.42 1378.12,1832.76 1428.5,1844C 1432.18,1844.87 1435.18,1846.71 1437.5,1849.5 Z"
       id="path61" />
  </g>
  <rect
     style="fill:#f9f9f9;stroke:none;stroke-width:2.54933;stroke-linecap:round;stroke-linejoin:bevel;paint-order:markers fill stroke;fill-opacity:1"
     id="rect62"
     width="242.66209"
     height="10.710468"
     x="2166.9797"
     y="250.56367" />
</svg>
