<?xml version="1.0" encoding="UTF-8"?>
<!DOCTYPE svg PUBLIC "-//W3C//DTD SVG 1.1//EN" "http://www.w3.org/Graphics/SVG/1.1/DTD/svg11.dtd">
<svg xmlns="http://www.w3.org/2000/svg" version="1.1" width="1280px" height="652px" style="shape-rendering:geometricPrecision; text-rendering:geometricPrecision; image-rendering:optimizeQuality; fill-rule:evenodd; clip-rule:evenodd" xmlns:xlink="http://www.w3.org/1999/xlink">
<g><path style="opacity:0.984" fill="#fefffe" d="M 45.5,36.5 C 441.764,37.3327 838.097,37.8327 1234.5,38C 1235.57,38.7387 1236.24,39.7387 1236.5,41C 1235.9,45.0493 1235.23,49.0493 1234.5,53C 861.833,53.1667 489.166,53.6667 116.5,54.5C 91.7362,129.525 67.5695,204.859 44,280.5C 43.7744,277.905 43.2744,275.405 42.5,273C 43.7891,195.758 43.7891,118.425 42.5,41C 43.3146,39.3566 44.3146,37.8566 45.5,36.5 Z"/></g>
<g><path style="opacity:0.975" fill="#fefffe" d="M 534.5,96.5 C 550.821,95.9956 566.154,99.4956 580.5,107C 594.806,117.477 595.139,128.477 581.5,140C 570.065,146.256 557.899,150.09 545,151.5C 534.192,151.808 523.358,150.975 512.5,149C 500.473,147.16 490.806,141.494 483.5,132C 480.504,122.321 483.17,114.321 491.5,108C 505.015,100.756 519.348,96.9228 534.5,96.5 Z M 530.5,101.5 C 548.756,100.59 557.59,109.256 557,127.5C 554.545,141.97 546.045,148.137 531.5,146C 528.715,145.342 526.049,144.509 523.5,143.5C 521.577,140.702 519.744,137.702 518,134.5C 516.246,126.816 516.246,119.15 518,111.5C 520.918,106.396 525.085,103.063 530.5,101.5 Z"/></g>
<g><path style="opacity:0.969" fill="#fefffe" d="M 961.5,96.5 C 970.214,97.0934 978.881,98.0934 987.5,99.5C 989.715,99.3295 991.715,98.6628 993.5,97.5C 994.478,97.9767 995.311,98.6433 996,99.5C 996.735,103.813 997.235,108.147 997.5,112.5C 995.774,112.815 994.107,112.981 992.5,113C 981.953,101.292 969.286,98.2915 954.5,104C 945.504,110.077 942.004,118.577 944,129.5C 946.953,137.114 952.453,141.947 960.5,144C 964.195,144.318 967.862,144.818 971.5,145.5C 978.968,144.509 986.134,142.509 993,139.5C 994.662,139.388 995.829,140.054 996.5,141.5C 985.929,147.918 974.596,151.251 962.5,151.5C 963.881,154.075 965.548,156.575 967.5,159C 966.91,161.257 965.577,162.924 963.5,164C 955.303,166.485 946.97,167.318 938.5,166.5C 938.023,165.522 937.357,164.689 936.5,164C 937.333,163.167 938.167,162.333 939,161.5C 941.737,162.61 944.571,162.777 947.5,162C 948.973,161.29 949.64,160.124 949.5,158.5C 946.603,158.875 943.937,158.375 941.5,157C 942.685,155.647 944.019,154.48 945.5,153.5C 946.429,152.311 946.762,150.978 946.5,149.5C 930.403,149.883 918.236,143.216 910,129.5C 908.228,122.556 909.728,116.556 914.5,111.5C 922.56,104.64 931.893,100.474 942.5,99C 948.966,98.0705 955.299,97.2372 961.5,96.5 Z"/></g>
<g><path style="opacity:0.977" fill="#fefffe" d="M 204.5,97.5 C 210.509,97.3338 216.509,97.5005 222.5,98C 231.888,111.954 241.388,125.787 251,139.5C 253.34,143.006 256.174,146.006 259.5,148.5C 245.846,149.666 232.179,149.833 218.5,149C 220.357,147.818 221.357,146.151 221.5,144C 220.28,140.232 218.28,136.898 215.5,134C 206.921,133.184 198.421,133.351 190,134.5C 187.831,137.51 187.164,140.844 188,144.5C 189.558,146.768 191.724,147.934 194.5,148C 185.911,149.576 177.244,149.91 168.5,149C 168.167,148.667 167.833,148.333 167.5,148C 168.833,147.333 170.167,146.667 171.5,146C 172.523,143.103 174.357,140.936 177,139.5C 185.916,125.334 195.083,111.334 204.5,97.5 Z M 201.5,115.5 C 202.978,115.238 204.311,115.571 205.5,116.5C 208.059,120.597 209.726,124.93 210.5,129.5C 205.5,129.5 200.5,129.5 195.5,129.5C 196.082,124.243 198.082,119.576 201.5,115.5 Z"/></g>
<g><path style="opacity:0.972" fill="#fefffe" d="M 280.5,97.5 C 291.151,98.0977 301.818,98.7644 312.5,99.5C 309.998,100.378 307.832,101.712 306,103.5C 305.333,114.5 305.333,125.5 306,136.5C 307.833,139 309.667,141.5 311.5,144C 321.763,147.355 332.097,147.189 342.5,143.5C 343.48,142.019 344.647,140.685 346,139.5C 347.602,127.905 347.935,116.238 347,104.5C 345.855,101.523 343.688,99.8561 340.5,99.5C 347.723,98.8174 354.89,98.1507 362,97.5C 362.833,98.3333 363.667,99.1667 364.5,100C 360.372,100.297 358.205,102.464 358,106.5C 357.879,110.816 358.045,115.15 358.5,119.5C 358.27,126.615 357.436,133.615 356,140.5C 352.97,144.19 349.137,146.69 344.5,148C 322.503,153.942 301.17,152.275 280.5,143C 278.383,141.269 276.883,139.102 276,136.5C 275.884,125.118 275.217,113.785 274,102.5C 272.013,101.782 270.179,100.782 268.5,99.5C 272.647,98.833 276.647,98.1663 280.5,97.5 Z"/></g>
<g><path style="opacity:0.976" fill="#fefffe" d="M 386.5,97.5 C 410.429,98.6163 434.263,98.6163 458,97.5C 461.842,98.0681 465.675,98.7348 469.5,99.5C 474.225,115.295 470.892,117.462 459.5,106C 453.7,103.31 447.7,102.476 441.5,103.5C 441.333,117.171 441.5,130.837 442,144.5C 443.236,146.538 445.069,147.705 447.5,148C 440.495,149.152 433.328,149.652 426,149.5C 419.167,149.167 412.333,148.833 405.5,148.5C 407.149,147.352 408.649,146.019 410,144.5C 410.667,130.833 410.667,117.167 410,103.5C 399.169,101.892 390.502,105.559 384,114.5C 383.586,114.043 383.086,113.709 382.5,113.5C 381.167,108.833 381.167,104.167 382.5,99.5C 384.026,99.0057 385.359,98.339 386.5,97.5 Z"/></g>
<g><path style="opacity:0.981" fill="#fefffe" d="M 714.5,97.5 C 730.47,98.832 746.47,98.832 762.5,97.5C 769.815,98.2854 777.149,99.1187 784.5,100C 787.622,101.061 790.622,102.394 793.5,104C 798.997,110.225 798.331,115.892 791.5,121C 789.283,122.275 786.949,123.275 784.5,124C 771.572,125.815 758.572,126.815 745.5,127C 744.359,132.75 744.193,138.584 745,144.5C 745.637,146.303 746.803,147.636 748.5,148.5C 734.512,149.666 720.512,149.833 706.5,149C 708.345,147.872 710.345,147.372 712.5,147.5C 713.618,132.532 713.785,117.532 713,102.5C 711.013,101.782 709.179,100.782 707.5,99.5C 709.969,98.8319 712.302,98.1653 714.5,97.5 Z M 747.5,101.5 C 749.857,101.337 752.19,101.503 754.5,102C 757.644,102.966 760.644,104.299 763.5,106C 769.211,112.569 767.877,117.569 759.5,121C 755.822,121.418 752.155,121.918 748.5,122.5C 747.5,122.167 746.5,121.833 745.5,121.5C 744.376,115.552 744.21,109.552 745,103.5C 745.995,102.934 746.828,102.267 747.5,101.5 Z"/></g>
<g><path style="opacity:0.971" fill="#fefffe" d="M 818.5,97.5 C 836.696,98.8152 854.863,98.8152 873,97.5C 876.79,98.1363 880.623,98.803 884.5,99.5C 887.055,113.635 883.388,115.135 873.5,104C 866.554,102.483 859.554,101.816 852.5,102C 850.184,108.359 849.851,114.859 851.5,121.5C 855.278,121.348 858.778,120.348 862,118.5C 863.664,116.201 865.331,113.868 867,111.5C 868.044,112.623 868.71,113.956 869,115.5C 869.167,118.167 869.333,120.833 869.5,123.5C 869.701,127.373 869.034,131.039 867.5,134.5C 864.833,132.167 862.167,129.833 859.5,127.5C 856.904,126.518 854.238,125.851 851.5,125.5C 851.579,129.202 851.246,132.868 850.5,136.5C 850.011,142.272 852.511,145.606 858,146.5C 862.81,145.807 867.643,145.307 872.5,145C 875.737,144.174 878.737,142.84 881.5,141C 883.385,138.778 885.551,136.944 888,135.5C 889.225,135.862 890.391,136.362 891.5,137C 889.898,141.038 887.898,144.871 885.5,148.5C 861.876,149.656 838.209,149.823 814.5,149C 817,147.833 818.833,146 820,143.5C 820.667,131.167 820.667,118.833 820,106.5C 819.727,104.899 819.227,103.399 818.5,102C 816.5,101.333 814.5,100.667 812.5,100C 814.611,99.1553 816.611,98.322 818.5,97.5 Z"/></g>
<g><path style="opacity:0.969" fill="#fefffe" d="M 1050.5,97.5 C 1056.87,97.1703 1063.2,97.5037 1069.5,98.5C 1075.75,108.254 1082.59,117.588 1090,126.5C 1090.25,129.177 1091.25,131.51 1093,133.5C 1097.19,138.687 1101.69,143.52 1106.5,148C 1093.61,149.167 1080.61,150 1067.5,150.5C 1065.45,148.715 1065.45,146.715 1067.5,144.5C 1066.54,140.692 1064.87,137.192 1062.5,134C 1054.17,133.333 1045.83,133.333 1037.5,134C 1032.51,140.724 1033.84,145.724 1041.5,149C 1041,149.5 1040.5,150 1040,150.5C 1030.91,149.681 1021.74,149.181 1012.5,149C 1013.5,148.667 1014.5,148.333 1015.5,148C 1028.53,132.106 1040.2,115.273 1050.5,97.5 Z M 1047.5,115.5 C 1048.83,115.5 1050.17,115.5 1051.5,115.5C 1053.84,119.004 1055.84,122.838 1057.5,127C 1057.36,127.772 1057.02,128.439 1056.5,129C 1052.5,129.667 1048.5,129.667 1044.5,129C 1043.48,128.481 1042.82,127.647 1042.5,126.5C 1044.36,122.899 1046.03,119.232 1047.5,115.5 Z"/></g>
<g><path style="opacity:0.97" fill="#fefffe" d="M 1148.5,97.5 C 1161.48,96.8255 1174.32,97.8255 1187,100.5C 1189.26,100.135 1191.43,99.4687 1193.5,98.5C 1195.57,102.601 1196.91,106.935 1197.5,111.5C 1197.17,113.167 1196.17,114.167 1194.5,114.5C 1191.2,112.442 1188.2,109.942 1185.5,107C 1174.93,101.126 1163.93,100.126 1152.5,104C 1149.14,106.034 1148.81,108.368 1151.5,111C 1167.42,113.186 1182.76,117.519 1197.5,124C 1199.95,126.503 1201.95,129.336 1203.5,132.5C 1202.43,135.534 1201.27,138.534 1200,141.5C 1188.03,149.23 1174.87,152.397 1160.5,151C 1151.64,150.02 1142.81,148.853 1134,147.5C 1131.53,148.503 1129.03,149.003 1126.5,149C 1125.35,145.289 1124.69,141.456 1124.5,137.5C 1124.38,131.902 1126.71,130.402 1131.5,133C 1136.31,139.246 1142.64,143.246 1150.5,145C 1156.78,146.355 1163.12,146.689 1169.5,146C 1172.7,145.604 1175.53,144.438 1178,142.5C 1178.96,139.637 1178.3,137.304 1176,135.5C 1163.82,132.759 1151.65,129.926 1139.5,127C 1134.82,125.475 1130.49,123.308 1126.5,120.5C 1121.68,112.275 1123.68,106.109 1132.5,102C 1137.93,100.386 1143.26,98.8865 1148.5,97.5 Z"/></g>
<g><path style="opacity:0.971" fill="#fefffe" d="M 156.5,195.5 C 222.834,195.333 289.168,195.5 355.5,196C 388.392,201.91 410.559,220.41 422,251.5C 430.113,287.833 418.946,316.666 388.5,338C 374.757,345.269 360.09,349.103 344.5,349.5C 344.301,352.941 344.801,356.274 346,359.5C 355.698,383.221 364.532,407.221 372.5,431.5C 337.832,431.667 303.165,431.5 268.5,431C 260.098,404.22 251.931,377.387 244,350.5C 237.877,348.106 234.21,350.106 233,356.5C 224.889,381.499 216.389,406.332 207.5,431C 163.69,431.994 120.024,431.66 76.5,430C 103.241,351.947 129.907,273.78 156.5,195.5 Z M 163.5,203.5 C 228.856,203.032 294.189,203.532 359.5,205C 390.486,212.319 409.32,231.486 416,262.5C 418.702,296.948 404.535,321.448 373.5,336C 359.587,340.791 345.254,342.791 330.5,342C 340.192,366.738 349.692,391.572 359,416.5C 359.497,418.81 359.663,421.143 359.5,423.5C 331.498,423.667 303.498,423.5 275.5,423C 274.299,422.097 273.465,420.931 273,419.5C 265.392,393.511 257.892,367.511 250.5,341.5C 243.245,341.187 236.079,341.52 229,342.5C 220.47,369.761 210.97,396.595 200.5,423C 195.167,423.667 189.833,423.667 184.5,423C 183.941,422.275 183.608,421.442 183.5,420.5C 193.427,391.22 203.26,361.887 213,332.5C 213.792,330.413 214.959,328.579 216.5,327C 260.833,326.667 305.167,326.333 349.5,326C 380,321.167 397.333,303.501 401.5,273C 397.522,241.022 379.522,223.022 347.5,219C 311.168,218.5 274.835,218.333 238.5,218.5C 216.317,285.882 193.817,353.216 171,420.5C 170.167,421.333 169.333,422.167 168.5,423C 142.494,423.833 116.494,423.667 90.5,422.5C 90.0688,421.707 89.7355,420.873 89.5,420C 113.101,347.362 137.767,275.195 163.5,203.5 Z M 244.5,227.5 C 280.835,227.333 317.168,227.5 353.5,228C 369.549,231.115 381.382,239.949 389,254.5C 396.768,279.659 389.601,299.159 367.5,313C 356.079,317.228 344.246,319.061 332,318.5C 293.49,318.277 254.99,318.11 216.5,318C 215.557,315.2 215.724,312.366 217,309.5C 226.498,282.172 235.665,254.839 244.5,227.5 Z"/></g>
<g><path style="opacity:0.965" fill="#fefffe" d="M 576.5,195.5 C 598.723,195.76 620.39,199.26 641.5,206C 667.499,216.083 689.332,231.917 707,253.5C 737.375,304.938 731.209,351.438 688.5,393C 647.659,425.485 601.326,437.152 549.5,428C 510.784,420.902 479.617,401.735 456,370.5C 428.483,322.634 433.65,278.634 471.5,238.5C 501.312,211.769 536.312,197.436 576.5,195.5 Z M 564.5,204.5 C 606.552,200.914 644.552,211.414 678.5,236C 712.488,264.157 723.988,299.657 713,342.5C 701.771,372.395 681.604,393.895 652.5,407C 612.093,424.963 570.759,427.296 528.5,414C 522.437,411.551 516.603,408.718 511,405.5C 510.333,403.5 510.333,401.5 511,399.5C 518.132,377.77 525.466,356.103 533,334.5C 533.883,331.898 535.383,329.731 537.5,328C 541.486,327.501 545.486,327.334 549.5,327.5C 549.608,331.247 549.108,334.914 548,338.5C 540.936,359.193 533.769,379.86 526.5,400.5C 530.056,403.109 534.056,404.942 538.5,406C 582.089,418.249 623.089,412.582 661.5,389C 678.016,377.489 690.516,362.656 699,344.5C 710.204,313.523 705.537,285.19 685,259.5C 650.969,222.957 609.469,209.124 560.5,218C 539.803,277.092 519.303,336.258 499,395.5C 497.274,396.576 495.441,396.743 493.5,396C 452.541,367.121 439.041,328.621 453,280.5C 462.565,258.539 477.398,241.039 497.5,228C 518.232,215.406 540.566,207.573 564.5,204.5 Z M 566.5,223.5 C 610.457,218.757 647.624,232.091 678,263.5C 701.825,295.684 702.491,328.351 680,361.5C 658.387,385.556 631.554,399.389 599.5,403C 591.139,403.226 582.805,403.726 574.5,404.5C 566.83,403.38 559.163,402.214 551.5,401C 546.743,400.188 542.243,398.688 538,396.5C 545.131,371.438 553.298,346.605 562.5,322C 562.355,321.228 562.022,320.561 561.5,320C 552.84,319.5 544.173,319.334 535.5,319.5C 535.804,316.478 536.304,313.478 537,310.5C 547.33,281.677 557.163,252.677 566.5,223.5 Z"/></g>
<g><path style="opacity:0.967" fill="#fefffe" d="M 788.5,195.5 C 821.254,195.014 853.92,195.514 886.5,197C 900.415,237.408 914.749,277.742 929.5,318C 929.905,318.945 930.572,319.612 931.5,320C 942.477,319.906 953.31,320.74 964,322.5C 964.772,322.355 965.439,322.022 966,321.5C 979.591,279.559 993.091,237.559 1006.5,195.5C 1018.5,195.333 1030.5,195.5 1042.5,196C 1017.94,274.182 992.608,352.348 966.5,430.5C 934.839,431.667 903.172,431.833 871.5,431C 852.024,384.846 832.524,338.68 813,292.5C 809.903,284.629 807.069,276.629 804.5,268.5C 802.089,268.137 800.589,269.137 800,271.5C 782.505,324.845 765.338,378.179 748.5,431.5C 736.495,431.667 724.495,431.5 712.5,431C 712.043,430.586 711.709,430.086 711.5,429.5C 737.474,351.607 763.14,273.607 788.5,195.5 Z M 795.5,204.5 C 823.741,204.172 851.907,204.505 880,205.5C 905.728,276.958 930.894,348.625 955.5,420.5C 955.392,421.442 955.059,422.275 954.5,423C 929.167,423.667 903.833,423.667 878.5,423C 877.667,422.167 876.833,421.333 876,420.5C 851.568,360.854 826.568,301.521 801,242.5C 781.601,300.698 762.601,359.031 744,417.5C 743.208,419.587 742.041,421.421 740.5,423C 735.249,423.804 730.082,423.637 725,422.5C 724.333,420.5 724.333,418.5 725,416.5C 747.198,348.906 769.198,281.24 791,213.5C 792.033,210.216 793.533,207.216 795.5,204.5 Z M 1013.5,204.5 C 1018.87,204.172 1024.21,204.505 1029.5,205.5C 1029.93,206.293 1030.26,207.127 1030.5,208C 1008.95,273.637 987.621,339.304 966.5,405C 966.333,406.5 965.5,407.333 964,407.5C 962.523,406.556 961.523,405.223 961,403.5C 953.663,380.822 946.33,358.156 939,335.5C 938.333,333.5 938.333,331.5 939,329.5C 944.082,328.363 949.249,328.196 954.5,329C 956.041,330.579 957.208,332.413 958,334.5C 959.798,340.895 961.798,347.228 964,353.5C 979.821,303.536 996.321,253.87 1013.5,204.5 Z"/></g>
<g><path style="opacity:0.967" fill="#fefffe" d="M 1077.5,195.5 C 1118.83,195.333 1160.17,195.5 1201.5,196C 1201.96,196.414 1202.29,196.914 1202.5,197.5C 1177,274.811 1151.5,352.144 1126,429.5C 1125.5,430 1125,430.5 1124.5,431C 1083.17,431.5 1041.83,431.667 1000.5,431.5C 1001.68,425.461 1003.18,419.461 1005,413.5C 1028.9,340.646 1053.06,267.979 1077.5,195.5 Z M 1149.5,203.5 C 1153.31,203.163 1156.97,203.663 1160.5,205C 1161.58,206.726 1161.74,208.559 1161,210.5C 1138.21,280.541 1115.21,350.541 1092,420.5C 1091.17,421.333 1090.33,422.167 1089.5,423C 1064.17,423.667 1038.83,423.667 1013.5,423C 1012.41,420.936 1012.24,418.769 1013,416.5C 1035.73,345.644 1059.23,275.144 1083.5,205C 1105.67,204.832 1127.67,204.332 1149.5,203.5 Z M 1175.5,204.5 C 1180.1,204.2 1184.6,204.533 1189,205.5C 1189.67,207.167 1189.67,208.833 1189,210.5C 1166.09,281.571 1142.59,352.404 1118.5,423C 1114.17,423.667 1109.83,423.667 1105.5,423C 1104.41,420.936 1104.24,418.769 1105,416.5C 1127.83,345.503 1151.33,274.837 1175.5,204.5 Z"/></g>
<g><path style="opacity:0.991" fill="#fefffe" d="M 1234.5,268.5 C 1235.75,269.334 1236.41,270.667 1236.5,272.5C 1236.5,348.998 1236.5,425.498 1236.5,502C 1236.04,505.085 1235.38,508.085 1234.5,511C 837.597,511.833 440.764,511.666 44,510.5C 43.2231,505.778 43.3897,501.111 44.5,496.5C 417.167,495.833 789.833,495.167 1162.5,494.5C 1185.95,418.945 1209.95,343.611 1234.5,268.5 Z"/></g>
<g><path style="opacity:0.964" fill="#fefffe" d="M 237.5,543.5 C 246.208,543.38 246.708,545.38 239,549.5C 238.202,551.259 238.369,552.926 239.5,554.5C 244.321,556.653 247.154,560.32 248,565.5C 250.402,575.743 249.735,585.743 246,595.5C 240.699,602.227 234.199,603.727 226.5,600C 223.707,596.919 221.54,593.419 220,589.5C 219.333,583.167 219.333,576.833 220,570.5C 220.907,563.013 224.574,557.346 231,553.5C 232.205,549.477 234.372,546.143 237.5,543.5 Z M 232.5,562.5 C 236.224,562.05 238.391,563.717 239,567.5C 240.114,576.01 239.448,584.344 237,592.5C 233.057,594.251 230.723,592.918 230,588.5C 229.333,581.167 229.333,573.833 230,566.5C 231.095,565.307 231.928,563.973 232.5,562.5 Z"/></g>
<g><path style="opacity:0.957" fill="#fefffe" d="M 602.5,543.5 C 604.905,543.866 607.238,544.533 609.5,545.5C 611.029,545.471 612.196,544.804 613,543.5C 614.299,544.09 615.132,545.09 615.5,546.5C 614.747,549.073 613.414,551.24 611.5,553C 616.222,555.925 619.388,560.091 621,565.5C 623.707,576.246 622.707,586.579 618,596.5C 607.87,605.462 599.87,603.795 594,591.5C 590.154,579.919 591.32,568.919 597.5,558.5C 600.192,555.457 603.526,553.79 607.5,553.5C 607.5,552.5 607.5,551.5 607.5,550.5C 605.179,550.229 603.179,550.896 601.5,552.5C 600.354,551.855 599.354,551.022 598.5,550C 599.217,547.388 600.55,545.222 602.5,543.5 Z M 604.5,563.5 C 609.227,562.727 611.727,564.727 612,569.5C 612.686,576.875 612.353,584.208 611,591.5C 607.604,594.277 604.77,593.777 602.5,590C 602.437,582.661 602.603,575.161 603,567.5C 603.791,566.255 604.291,564.922 604.5,563.5 Z"/></g>
<g><path style="opacity:0.948" fill="#fefffe" d="M 61.5,553.5 C 64.6888,553.713 67.5221,554.713 70,556.5C 72.6667,569.833 75.3333,583.167 78,596.5C 79.5378,598.329 79.0378,599.829 76.5,601C 74.5,601.667 72.5,601.667 70.5,601C 69.4495,597.564 68.1162,594.231 66.5,591C 64.1527,590.666 61.8194,590.833 59.5,591.5C 59.3095,594.985 58.3095,598.151 56.5,601C 54.5,601.667 52.5,601.667 50.5,601C 49.4844,600.481 48.8178,599.647 48.5,598.5C 51.9103,584.21 55.0769,569.877 58,555.5C 59.3024,554.915 60.469,554.249 61.5,553.5 Z M 61.5,575.5 C 62.8333,575.5 64.1667,575.5 65.5,575.5C 66.0138,577.512 66.1805,579.512 66,581.5C 64.951,583.107 63.451,583.773 61.5,583.5C 61.5,580.833 61.5,578.167 61.5,575.5 Z"/></g>
<g><path style="opacity:0.95" fill="#fefffe" d="M 83.5,553.5 C 85.7131,554.605 87.8797,554.605 90,553.5C 90.3333,554.5 90.6667,555.5 91,556.5C 91.3333,566.833 91.6667,577.167 92,587.5C 92.0442,592.633 94.3775,594.299 99,592.5C 100.014,579.852 100.514,567.185 100.5,554.5C 103.237,553.787 105.904,553.787 108.5,554.5C 109.666,566.486 109.833,578.486 109,590.5C 104.016,604.113 96.0157,606.113 85,596.5C 82.1249,588.103 80.9582,579.436 81.5,570.5C 81.6667,565.833 81.8333,561.167 82,556.5C 82.5133,555.473 83.0133,554.473 83.5,553.5 Z"/></g>
<g><path style="opacity:0.952" fill="#fefffe" d="M 116.5,553.5 C 123.363,554.586 130.363,554.752 137.5,554C 140.037,556.195 141.037,559.028 140.5,562.5C 137.545,563.159 134.545,563.492 131.5,563.5C 131.188,575.218 131.521,586.884 132.5,598.5C 129.685,601.864 126.352,602.364 122.5,600C 122.584,588.287 122.418,576.454 122,564.5C 119.539,563.782 117.039,563.115 114.5,562.5C 112.782,558.772 113.448,555.772 116.5,553.5 Z"/></g>
<g><path style="opacity:0.967" fill="#fefffe" d="M 153.5,553.5 C 163.709,553.211 169.542,558.211 171,568.5C 171.856,576.232 171.523,583.898 170,591.5C 162.227,605.376 153.561,606.043 144,593.5C 139.777,581.215 140.777,569.548 147,558.5C 148.965,556.45 151.132,554.783 153.5,553.5 Z M 154.5,562.5 C 158.224,562.05 160.391,563.717 161,567.5C 161.863,575.564 161.53,583.564 160,591.5C 158.267,593.602 156.267,593.935 154,592.5C 150.509,582.374 150.676,572.374 154.5,562.5 Z"/></g>
<g><path style="opacity:0.962" fill="#fefffe" d="M 187.5,553.5 C 190.511,561.514 192.678,569.847 194,578.5C 195.011,579.337 196.178,579.67 197.5,579.5C 198.805,571.476 200.305,563.476 202,555.5C 205,554.833 208,554.167 211,553.5C 213.449,554.725 213.949,556.392 212.5,558.5C 213.342,572.195 214.342,585.862 215.5,599.5C 215.167,600.5 214.5,601.167 213.5,601.5C 211.412,600.821 209.412,600.488 207.5,600.5C 205.843,594.623 205.177,588.623 205.5,582.5C 204.5,582.5 203.5,582.5 202.5,582.5C 201.764,588.247 200.597,593.914 199,599.5C 195.429,602.533 192.762,601.866 191,597.5C 190.023,592.777 188.856,588.111 187.5,583.5C 186.675,582.614 185.675,582.281 184.5,582.5C 184.861,588.593 184.361,594.593 183,600.5C 180.667,601.833 178.333,601.833 176,600.5C 176.729,587.196 177.395,573.863 178,560.5C 178.346,558.782 178.846,557.115 179.5,555.5C 182.306,554.832 184.972,554.166 187.5,553.5 Z"/></g>
<g><path style="opacity:0.951" fill="#fefffe" d="M 258.5,553.5 C 259.15,553.804 259.817,554.137 260.5,554.5C 263.081,562.902 264.748,571.569 265.5,580.5C 266.5,580.5 267.5,580.5 268.5,580.5C 269.454,572.276 270.787,564.11 272.5,556C 273.609,554.139 275.275,553.305 277.5,553.5C 279.725,553.305 281.391,554.139 282.5,556C 278.962,570.385 275.795,584.885 273,599.5C 268.933,602.099 264.933,602.099 261,599.5C 257.192,584.655 254.025,569.655 251.5,554.5C 254.059,554.802 256.393,554.468 258.5,553.5 Z"/></g>
<g><path style="opacity:0.958" fill="#fefffe" d="M 314.5,553.5 C 317.43,554.299 320.43,554.632 323.5,554.5C 323.667,569.504 323.5,584.504 323,599.5C 319.958,602.082 316.958,602.082 314,599.5C 313.214,584.135 313.381,568.801 314.5,553.5 Z"/></g>
<g><path style="opacity:0.951" fill="#fefffe" d="M 342.5,553.5 C 347.687,552.121 350.687,553.954 351.5,559C 351.081,561.086 349.914,562.586 348,563.5C 343.574,561.478 340.407,562.644 338.5,567C 338.735,567.873 339.069,568.707 339.5,569.5C 344.112,572.608 348.278,576.275 352,580.5C 354.66,586.936 353.827,592.77 349.5,598C 347.246,599.377 345.08,600.877 343,602.5C 341,601.167 339,601.167 337,602.5C 329.978,602.98 327.812,599.98 330.5,593.5C 333.997,593.472 337.664,593.306 341.5,593C 344.906,590.759 345.406,587.925 343,584.5C 339.842,581.92 336.508,579.587 333,577.5C 326.313,565.372 329.48,557.372 342.5,553.5 Z"/></g>
<g><path style="opacity:0.957" fill="#fefffe" d="M 415.5,553.5 C 421.547,553.131 424.047,555.798 423,561.5C 415.667,561.162 411,564.495 409,571.5C 408.333,576.167 408.333,580.833 409,585.5C 411.368,591.968 416.035,594.968 423,594.5C 423.758,596.769 423.591,598.936 422.5,601C 409.844,603.603 402.01,598.769 399,586.5C 396.35,576.464 398.183,567.298 404.5,559C 407.914,556.361 411.58,554.527 415.5,553.5 Z"/></g>
<g><path style="opacity:0.96" fill="#fefffe" d="M 437.5,553.5 C 440.833,553.833 444.167,554.167 447.5,554.5C 450.167,568.835 452.834,583.168 455.5,597.5C 455.43,598.772 455.097,599.938 454.5,601C 452.167,601.667 449.833,601.667 447.5,601C 446.39,597.951 445.723,594.784 445.5,591.5C 442.5,591.5 439.5,591.5 436.5,591.5C 436.453,594.568 435.953,597.568 435,600.5C 432.281,601.444 429.448,601.777 426.5,601.5C 428.67,588.149 431.17,574.815 434,561.5C 435.076,558.763 436.243,556.096 437.5,553.5 Z M 439.5,573.5 C 440.5,573.5 441.5,573.5 442.5,573.5C 443.207,576.786 443.54,580.119 443.5,583.5C 441.833,583.5 440.167,583.5 438.5,583.5C 438.46,580.119 438.793,576.786 439.5,573.5 Z"/></g>
<g><path style="opacity:0.94" fill="#fefffe" d="M 468.5,553.5 C 470.39,553.297 471.89,553.963 473,555.5C 474.774,563.145 476.441,570.812 478,578.5C 479.011,579.337 480.178,579.67 481.5,579.5C 482.547,571.432 484.047,563.432 486,555.5C 486.739,554.426 487.739,553.759 489,553.5C 491.434,554.322 493.934,554.656 496.5,554.5C 497.543,569.514 498.376,584.514 499,599.5C 494.535,602.743 491.535,601.743 490,596.5C 489.501,592.179 489.334,587.846 489.5,583.5C 488.5,583.5 487.5,583.5 486.5,583.5C 485.422,589.222 484.089,594.889 482.5,600.5C 479.799,601.869 477.299,601.536 475,599.5C 474,594.5 473,589.5 472,584.5C 471.29,583.027 470.124,582.36 468.5,582.5C 468.463,588.535 467.963,594.535 467,600.5C 464.619,601.435 462.119,601.768 459.5,601.5C 460.222,585.62 461.222,569.953 462.5,554.5C 464.735,554.795 466.735,554.461 468.5,553.5 Z"/></g>
<g><path style="opacity:0.933" fill="#fefffe" d="M 507.5,553.5 C 510.316,553.825 512.816,554.825 515,556.5C 515.833,571.178 515.666,585.845 514.5,600.5C 511.579,601.407 508.579,601.74 505.5,601.5C 505.333,586.496 505.5,571.496 506,556.5C 506.513,555.473 507.013,554.473 507.5,553.5 Z"/></g>
<g><path style="opacity:0.961" fill="#fefffe" d="M 543.5,553.5 C 545.01,554.728 546.51,554.728 548,553.5C 549,554.167 550,554.833 551,555.5C 551.667,570.167 551.667,584.833 551,599.5C 547.957,601.908 544.791,602.074 541.5,600C 538.79,594.333 536.456,588.5 534.5,582.5C 533.675,581.614 532.675,581.281 531.5,581.5C 531.666,587.842 531.5,594.175 531,600.5C 528.084,602.013 525.418,601.68 523,599.5C 522.167,584.822 522.334,570.155 523.5,555.5C 526.366,554.205 529.199,554.205 532,555.5C 534.228,561.91 536.728,568.244 539.5,574.5C 540.325,575.386 541.325,575.719 542.5,575.5C 542.203,568.08 542.536,560.746 543.5,553.5 Z"/></g>
<g><path style="opacity:0.964" fill="#fefffe" d="M 564.5,553.5 C 566.074,553.937 567.241,554.937 568,556.5C 568.333,561.5 568.667,566.5 569,571.5C 571.648,573.697 574.148,573.697 576.5,571.5C 577.167,565.833 577.833,560.167 578.5,554.5C 581.096,553.787 583.763,553.787 586.5,554.5C 586.167,568.142 586.5,581.642 587.5,595C 586.975,600.928 583.975,602.761 578.5,600.5C 577.671,595.198 577.171,589.864 577,584.5C 576.424,582.148 574.924,581.148 572.5,581.5C 571.006,581.709 569.839,582.376 569,583.5C 568.83,589.196 568.33,594.862 567.5,600.5C 564.579,601.407 561.579,601.74 558.5,601.5C 558.824,586.921 558.49,572.421 557.5,558C 559.327,555.582 561.66,554.082 564.5,553.5 Z"/></g>
<g><path style="opacity:0.931" fill="#fefffe" d="M 629.5,553.5 C 635.334,554.813 641.167,554.813 647,553.5C 649.203,555.669 650.036,558.335 649.5,561.5C 645.858,562.08 642.191,562.58 638.5,563C 637.549,566.057 637.216,569.223 637.5,572.5C 640.187,572.336 642.854,572.503 645.5,573C 648.862,575.382 649.195,578.049 646.5,581C 643.518,581.498 640.518,581.665 637.5,581.5C 637.335,585.182 637.501,588.848 638,592.5C 641.411,593.293 644.911,593.793 648.5,594C 649.769,596.139 649.769,598.305 648.5,600.5C 641.833,601.833 635.167,601.833 628.5,600.5C 627.334,585.845 627.167,571.178 628,556.5C 628.513,555.473 629.013,554.473 629.5,553.5 Z"/></g>
<g><path style="opacity:0.964" fill="#fefffe" d="M 664.5,553.5 C 669.135,552.886 673.135,554.052 676.5,557C 675.873,559.343 674.873,561.51 673.5,563.5C 666.069,560.45 662.902,562.783 664,570.5C 674.286,574.789 678.619,582.456 677,593.5C 675.167,596.667 672.667,599.167 669.5,601C 664.833,601.667 660.167,601.667 655.5,601C 653.718,598.757 653.218,596.257 654,593.5C 657.72,593.342 661.554,593.175 665.5,593C 667.91,590.07 668.077,586.903 666,583.5C 658.971,580.315 654.804,574.981 653.5,567.5C 654.206,560.465 657.873,555.799 664.5,553.5 Z"/></g>
<g><path style="opacity:0.951" fill="#fefffe" d="M 737.5,553.5 C 745.512,551.489 748.845,554.489 747.5,562.5C 737.84,561.495 732.84,565.828 732.5,575.5C 732.912,580.655 733.912,585.655 735.5,590.5C 736.5,591.333 737.5,592.167 738.5,593C 741.224,593.27 743.891,593.77 746.5,594.5C 747.429,595.689 747.762,597.022 747.5,598.5C 748.822,598.67 749.989,598.337 751,597.5C 753.699,583.096 756.866,568.929 760.5,555C 763.372,554.685 766.205,554.185 769,553.5C 770.653,553.82 771.653,554.82 772,556.5C 774.408,570.957 777.242,585.29 780.5,599.5C 772.652,603.056 768.986,600.389 769.5,591.5C 766.753,591.187 764.086,591.52 761.5,592.5C 760.366,595.07 759.532,597.736 759,600.5C 757.938,601.097 756.772,601.43 755.5,601.5C 748.201,601.199 740.867,601.033 733.5,601C 731.04,599.542 728.873,597.709 727,595.5C 720.63,584.323 720.63,572.99 727,561.5C 729.855,557.789 733.355,555.123 737.5,553.5 Z M 763.5,575.5 C 764.833,575.5 766.167,575.5 767.5,575.5C 767.5,578.167 767.5,580.833 767.5,583.5C 765.833,583.5 764.167,583.5 762.5,583.5C 762.575,580.794 762.908,578.127 763.5,575.5 Z"/></g>
<g><path style="opacity:0.953" fill="#fefffe" d="M 792.5,553.5 C 799.328,552.927 805.161,554.927 810,559.5C 812.713,566.977 811.547,573.644 806.5,579.5C 809.879,586.36 811.879,593.693 812.5,601.5C 809.223,601.784 806.057,601.451 803,600.5C 802.088,596.205 801.421,591.872 801,587.5C 798.961,582.533 796.794,582.366 794.5,587C 795.572,591.124 795.738,595.29 795,599.5C 792.096,601.227 788.93,601.893 785.5,601.5C 785.333,586.496 785.5,571.496 786,556.5C 787.991,555.008 790.158,554.008 792.5,553.5 Z M 795.5,561.5 C 800.745,560.579 802.745,562.746 801.5,568C 802.186,572.803 800.186,575.303 795.5,575.5C 794.376,570.853 794.376,566.187 795.5,561.5 Z"/></g>
<g><path style="opacity:0.938" fill="#fefffe" d="M 822.5,553.5 C 830.228,552.804 837.061,554.804 843,559.5C 844.363,563.761 844.696,568.095 844,572.5C 842.267,574.723 840.767,577.056 839.5,579.5C 842.556,586.436 844.556,593.769 845.5,601.5C 842.482,601.665 839.482,601.498 836.5,601C 834.542,595.629 833.042,590.129 832,584.5C 830.644,583.62 829.144,583.286 827.5,583.5C 827.829,589.206 827.495,594.872 826.5,600.5C 823.579,601.407 820.579,601.74 817.5,601.5C 817.333,586.496 817.5,571.496 818,556.5C 819.31,555.103 820.81,554.103 822.5,553.5 Z M 827.5,562.5 C 829.5,562.5 831.5,562.5 833.5,562.5C 835.473,567.206 834.806,571.372 831.5,575C 830.207,575.49 828.873,575.657 827.5,575.5C 827.5,571.167 827.5,566.833 827.5,562.5 Z"/></g>
<g><path style="opacity:0.968" fill="#fefffe" d="M 856.5,553.5 C 862.14,552.9 867.473,553.733 872.5,556C 871.577,558.041 871.244,560.208 871.5,562.5C 868.15,562.335 864.817,562.502 861.5,563C 860.549,566.057 860.216,569.223 860.5,572.5C 863.487,572.998 866.487,573.498 869.5,574C 871.229,575.789 871.896,577.956 871.5,580.5C 868.126,580.674 864.793,581.174 861.5,582C 860.167,585.667 860.167,589.333 861.5,593C 865.089,593.207 868.589,593.707 872,594.5C 872.497,596.81 872.663,599.143 872.5,601.5C 865.124,601.726 857.791,601.392 850.5,600.5C 850.824,585.588 850.491,570.755 849.5,556C 851.833,554.957 854.166,554.124 856.5,553.5 Z"/></g>
<g><path style="opacity:0.915" fill="#fefffe" d="M 877.5,553.5 C 884.508,553.334 891.508,553.5 898.5,554C 901.287,556.167 902.12,559.001 901,562.5C 898.527,563.12 896.027,563.786 893.5,564.5C 893.069,565.293 892.735,566.127 892.5,567C 893.731,578.41 893.731,589.743 892.5,601C 889.571,601.777 886.737,601.61 884,600.5C 883.752,588.142 883.252,575.808 882.5,563.5C 874.178,563.54 872.511,560.207 877.5,553.5 Z"/></g>
<g><path style="opacity:0.956" fill="#fefffe" d="M 916.5,553.5 C 918.03,554.067 919.53,554.733 921,555.5C 924.373,570.076 927.207,584.743 929.5,599.5C 930.675,599.719 931.675,599.386 932.5,598.5C 933.093,596.618 933.76,594.785 934.5,593C 938.121,593.405 941.787,593.405 945.5,593C 947.487,590.53 947.987,587.697 947,584.5C 941.687,581.519 937.354,577.519 934,572.5C 931.687,562.953 935.187,556.786 944.5,554C 947.562,553.259 950.562,553.425 953.5,554.5C 956.369,558.032 955.869,561.032 952,563.5C 947.577,561.477 944.41,562.644 942.5,567C 942.645,568.226 942.978,569.393 943.5,570.5C 947.133,572.477 950.467,574.81 953.5,577.5C 959.719,586.571 958.386,594.404 949.5,601C 941.465,601.095 933.465,601.261 925.5,601.5C 924.106,601.379 922.772,601.046 921.5,600.5C 920.068,597.673 919.401,594.673 919.5,591.5C 916.5,591.5 913.5,591.5 910.5,591.5C 910.099,594.748 909.432,597.915 908.5,601C 905.208,601.936 902.208,601.436 899.5,599.5C 903.062,584.861 906.562,570.195 910,555.5C 912.277,554.883 914.444,554.216 916.5,553.5 Z M 913.5,575.5 C 914.822,575.33 915.989,575.663 917,576.5C 917.497,578.81 917.663,581.143 917.5,583.5C 912.64,582.83 911.307,580.163 913.5,575.5 Z"/></g>
<g><path style="opacity:0.944" fill="#fefffe" d="M 1002.5,553.5 C 1010.14,553.382 1017.81,553.715 1025.5,554.5C 1029.04,561.652 1026.7,564.652 1018.5,563.5C 1018.83,575.851 1018.5,588.185 1017.5,600.5C 1014.83,601.833 1012.17,601.833 1009.5,600.5C 1008.5,588.185 1008.17,575.851 1008.5,563.5C 1006.08,563.708 1003.75,563.374 1001.5,562.5C 1000.09,559.205 1000.42,556.205 1002.5,553.5 Z"/></g>
<g><path style="opacity:0.94" fill="#fefffe" d="M 1032.5,553.5 C 1035.15,554.824 1037.81,554.824 1040.5,553.5C 1058.09,556.016 1062.09,564.683 1052.5,579.5C 1055.56,585.421 1057.23,591.754 1057.5,598.5C 1058.83,598.5 1060.17,598.5 1061.5,598.5C 1064.07,583.299 1067.41,568.299 1071.5,553.5C 1074.17,554.833 1076.83,554.833 1079.5,553.5C 1080.8,554.09 1081.63,555.09 1082,556.5C 1084.84,570.528 1087.68,584.528 1090.5,598.5C 1090.39,599.442 1090.06,600.275 1089.5,601C 1087.17,601.667 1084.83,601.667 1082.5,601C 1081.25,598.075 1080.25,595.075 1079.5,592C 1076.85,591.503 1074.19,591.336 1071.5,591.5C 1071.31,594.601 1070.64,597.601 1069.5,600.5C 1062.86,601.664 1056.19,601.831 1049.5,601C 1048.09,595.5 1046.59,590 1045,584.5C 1043.64,583.62 1042.14,583.286 1040.5,583.5C 1041.55,589.481 1041.55,595.481 1040.5,601.5C 1037.55,601.777 1034.72,601.444 1032,600.5C 1030.67,586.435 1030.17,572.435 1030.5,558.5C 1031.46,556.925 1032.12,555.258 1032.5,553.5 Z M 1040.5,562.5 C 1045.5,561.491 1047.84,563.491 1047.5,568.5C 1047.89,572.957 1045.89,575.29 1041.5,575.5C 1040.84,571.001 1040.51,566.667 1040.5,562.5 Z M 1074.5,574.5 C 1075.5,574.5 1076.5,574.5 1077.5,574.5C 1077.5,577.5 1077.5,580.5 1077.5,583.5C 1076.18,583.67 1075.01,583.337 1074,582.5C 1073.28,579.739 1073.44,577.073 1074.5,574.5 Z"/></g>
<g><path style="opacity:0.953" fill="#fefffe" d="M 1090.5,553.5 C 1097.91,554.464 1105.41,554.464 1113,553.5C 1115.45,556.178 1115.95,559.178 1114.5,562.5C 1111.65,562.833 1109.15,563.833 1107,565.5C 1106.75,576.492 1106.91,587.492 1107.5,598.5C 1106.37,600.556 1104.54,601.556 1102,601.5C 1099.95,601.577 1098.12,601.077 1096.5,600C 1097.49,587.914 1097.82,575.747 1097.5,563.5C 1089.64,564.394 1087.3,561.06 1090.5,553.5 Z"/></g>
<g><path style="opacity:0.958" fill="#fefffe" d="M 1128.5,553.5 C 1137.05,553.2 1142.55,557.2 1145,565.5C 1145.93,570.317 1146.76,575.151 1147.5,580C 1147.67,588.741 1144.34,595.741 1137.5,601C 1127.94,604.136 1121.44,600.969 1118,591.5C 1115.08,581.867 1115.41,572.201 1119,562.5C 1121.41,558.592 1124.57,555.592 1128.5,553.5 Z M 1129.5,562.5 C 1131.72,562.178 1133.56,562.845 1135,564.5C 1136.91,573.489 1136.91,582.489 1135,591.5C 1130.26,594.796 1127.59,593.462 1127,587.5C 1126.33,581.5 1126.33,575.5 1127,569.5C 1127.38,566.97 1128.21,564.637 1129.5,562.5 Z"/></g>
<g><path style="opacity:0.938" fill="#fefffe" d="M 1156.5,553.5 C 1177.37,552.606 1183.04,561.273 1173.5,579.5C 1176.29,585.702 1178.29,592.202 1179.5,599C 1179.36,599.772 1179.02,600.439 1178.5,601C 1175.52,601.498 1172.52,601.665 1169.5,601.5C 1168.27,596.668 1167.43,591.668 1167,586.5C 1165.81,584.323 1163.98,583.323 1161.5,583.5C 1161.19,589.093 1161.53,594.593 1162.5,600C 1158.95,602.021 1155.45,601.854 1152,599.5C 1151.74,585.241 1151.74,570.908 1152,556.5C 1153.31,555.103 1154.81,554.103 1156.5,553.5 Z M 1161.5,562.5 C 1163.53,562.338 1165.53,562.505 1167.5,563C 1168.77,566.509 1168.6,570.009 1167,573.5C 1165.56,575.155 1163.72,575.822 1161.5,575.5C 1161.5,571.167 1161.5,566.833 1161.5,562.5 Z"/></g>
<g><path style="opacity:0.942" fill="#fefffe" d="M 1187.5,553.5 C 1193.03,554.455 1198.7,554.455 1204.5,553.5C 1205.21,556.786 1205.54,560.119 1205.5,563.5C 1202.2,562.624 1198.87,562.457 1195.5,563C 1194.55,566.057 1194.22,569.223 1194.5,572.5C 1197.07,573.45 1199.57,573.45 1202,572.5C 1205.81,574.883 1206.31,577.717 1203.5,581C 1200.57,581.218 1197.74,581.718 1195,582.5C 1194.21,586.091 1194.38,589.591 1195.5,593C 1198.89,593.246 1202.22,593.746 1205.5,594.5C 1206.83,596.5 1206.83,598.5 1205.5,600.5C 1198.51,601.756 1191.51,601.756 1184.5,600.5C 1184.33,585.83 1184.5,571.163 1185,556.5C 1185.7,555.309 1186.53,554.309 1187.5,553.5 Z"/></g>
<g><path style="opacity:0.944" fill="#fefffe" d="M 1222.5,553.5 C 1225.19,553.336 1227.85,553.503 1230.5,554C 1232.03,554.7 1233.03,555.866 1233.5,557.5C 1232.22,559.179 1231.22,561.013 1230.5,563C 1227.11,561.873 1223.94,562.373 1221,564.5C 1220.31,566.568 1220.48,568.568 1221.5,570.5C 1229.12,574.593 1233.78,580.76 1235.5,589C 1231.21,600.217 1223.21,604.217 1211.5,601C 1209.11,597.907 1209.45,595.074 1212.5,592.5C 1216.59,594.1 1220.42,593.766 1224,591.5C 1224.67,589.167 1224.67,586.833 1224,584.5C 1219.37,581.86 1215.37,578.527 1212,574.5C 1208.6,563.787 1212.1,556.787 1222.5,553.5 Z"/></g>
<g><path style="opacity:0.965" fill="#fefffe" d="M 285.5,554.5 C 292.833,554.5 300.167,554.5 307.5,554.5C 307.708,556.92 307.374,559.253 306.5,561.5C 303.553,562.321 300.553,562.821 297.5,563C 296.167,566.333 296.167,569.667 297.5,573C 300.437,572.989 303.27,573.155 306,573.5C 306.667,575.833 306.667,578.167 306,580.5C 303.242,581.117 300.409,581.284 297.5,581C 293.416,590.425 296.416,594.758 306.5,594C 309.167,596.333 309.167,598.667 306.5,601C 300.115,601.793 293.782,601.626 287.5,600.5C 286.803,585.134 286.136,569.8 285.5,554.5 Z"/></g>
<g><path style="opacity:0.928" fill="#fefffe" d="M 372.5,575.5 C 383.037,575.261 385.704,579.761 380.5,589C 376.45,591.237 372.783,590.737 369.5,587.5C 366.923,582.642 367.923,578.642 372.5,575.5 Z"/></g>
<g><path style="opacity:0.953" fill="#fefffe" d="M 696.5,575.5 C 707.352,575.381 710.018,579.881 704.5,589C 695.72,591.857 691.886,588.691 693,579.5C 694.032,577.973 695.199,576.64 696.5,575.5 Z"/></g>
<g><path style="opacity:0.934" fill="#fefffe" d="M 976.5,575.5 C 983.625,574.466 987.125,577.466 987,584.5C 984.309,590.714 979.975,592.047 974,588.5C 970.864,583.38 971.698,579.046 976.5,575.5 Z"/></g>
</svg>
