<?xml version="1.0" encoding="UTF-8" standalone="no"?>
<svg
   version="1.1"
   width="575px"
   height="307px"
   style="shape-rendering:geometricPrecision; text-rendering:geometricPrecision; image-rendering:optimizeQuality; fill-rule:evenodd; clip-rule:evenodd"
   id="svg187"
   sodipodi:docname="Serralheria.svg"
   inkscape:version="1.3.2 (091e20e, 2023-11-25, custom)"
   xmlns:inkscape="http://www.inkscape.org/namespaces/inkscape"
   xmlns:sodipodi="http://sodipodi.sourceforge.net/DTD/sodipodi-0.dtd"
   xmlns="http://www.w3.org/2000/svg"
   xmlns:svg="http://www.w3.org/2000/svg">
  <defs
     id="defs187" />
  <sodipodi:namedview
     id="namedview187"
     pagecolor="#505050"
     bordercolor="#eeeeee"
     borderopacity="1"
     inkscape:showpageshadow="0"
     inkscape:pageopacity="0"
     inkscape:pagecheckerboard="0"
     inkscape:deskcolor="#505050"
     inkscape:zoom="1.2014667"
     inkscape:cx="241.78782"
     inkscape:cy="145.23915"
     inkscape:window-width="1920"
     inkscape:window-height="991"
     inkscape:window-x="-9"
     inkscape:window-y="-9"
     inkscape:window-maximized="1"
     inkscape:current-layer="svg187" />
  <g
     id="g1"
     style="stroke:none">
    <path
       style="opacity:1;stroke:none"
       fill="#e1e1e1"
       d="M 351.5,19.5 C 354.243,21.2393 356.243,23.5726 357.5,26.5C 355.5,24.8333 353.5,23.1667 351.5,21.5C 351.5,20.8333 351.5,20.1667 351.5,19.5 Z"
       id="path1" />
  </g>
  <g
     id="g2"
     style="stroke:none">
    <path
       style="opacity:1;stroke:none"
       fill="#acacac"
       d="M 234.5,18.5 C 235.675,18.281 236.675,18.6143 237.5,19.5C 239.935,23.372 242.102,27.372 244,31.5C 244.708,32.3805 245.542,33.0472 246.5,33.5C 263.992,34.4967 281.659,34.8301 299.5,34.5C 306.901,35.1815 314.401,35.8482 322,36.5C 323.846,31.1724 327.679,28.1724 333.5,27.5C 338.947,27.9491 344.613,28.4491 350.5,29C 353.166,31.3353 356.166,33.1686 359.5,34.5C 360.107,34.3764 360.44,34.0431 360.5,33.5C 362.842,35.3167 364.009,37.65 364,40.5C 360.492,38.4129 357.158,36.0796 354,33.5C 350.108,35.0668 346.442,34.7334 343,32.5C 338.069,32.9216 333.069,32.9216 328,32.5C 324.652,35.1541 324.818,37.6541 328.5,40C 327.207,40.49 325.873,40.6567 324.5,40.5C 322.973,40.573 321.973,39.9063 321.5,38.5C 321.389,37.8826 321.056,37.3826 320.5,37C 296.836,36.5 273.169,36.3334 249.5,36.5C 234.676,35.5039 219.676,35.1706 204.5,35.5C 205.311,31.7028 206.978,28.3694 209.5,25.5C 210.543,22.9438 212.21,20.7772 214.5,19C 221.158,18.5004 227.825,18.3337 234.5,18.5 Z"
       id="path2" />
  </g>
  <g
     id="g3"
     style="stroke:none">
    <path
       style="opacity:1;stroke:none"
       fill="#a3a3a3"
       d="M 351.5,21.5 C 353.5,23.1667 355.5,24.8333 357.5,26.5C 357.15,29.4534 358.15,31.7867 360.5,33.5C 360.44,34.0431 360.107,34.3764 359.5,34.5C 356.166,33.1686 353.166,31.3353 350.5,29C 344.613,28.4491 338.947,27.9491 333.5,27.5C 327.679,28.1724 323.846,31.1724 322,36.5C 314.401,35.8482 306.901,35.1815 299.5,34.5C 306.175,34.6663 312.842,34.4996 319.5,34C 321.784,30.3122 323.784,26.4789 325.5,22.5C 326.646,21.8551 327.646,21.0217 328.5,20C 335.5,19.3333 342.5,19.3333 349.5,20C 350.044,20.7172 350.711,21.2172 351.5,21.5 Z"
       id="path3" />
  </g>
  <g
     id="g4"
     style="stroke:none">
    <path
       style="opacity:1;stroke:none"
       fill="#c0c0c0"
       d="M 234.5,18.5 C 234.5,18.1667 234.5,17.8333 234.5,17.5C 235.978,17.238 237.311,17.5713 238.5,18.5C 241.291,22.5819 243.958,26.7485 246.5,31C 270.167,31.6667 293.833,31.6667 317.5,31C 318.733,29.3333 320.067,27.8333 321.5,26.5C 320.914,28.8398 319.914,31.0065 318.5,33C 294.502,33.5 270.502,33.6666 246.5,33.5C 245.542,33.0472 244.708,32.3805 244,31.5C 242.102,27.372 239.935,23.372 237.5,19.5C 236.675,18.6143 235.675,18.281 234.5,18.5 Z"
       id="path4" />
  </g>
  <g
     id="g5"
     style="stroke:none">
    <path
       style="opacity:1;stroke:none"
       fill="#b5b5b5"
       d="M 357.5,26.5 C 360.645,29.4595 363.312,32.7929 365.5,36.5C 367.657,40.1438 369.824,43.8105 372,47.5C 373.833,49.3333 375.667,51.1667 377.5,53C 372.265,52.2455 366.931,51.7455 361.5,51.5C 359.379,51.6747 357.379,51.3414 355.5,50.5C 355.389,49.8826 355.056,49.3826 354.5,49C 348.659,47.0491 342.659,46.2158 336.5,46.5C 335.833,46.5 335.167,46.5 334.5,46.5C 330.298,46.0614 326.965,44.0614 324.5,40.5C 325.873,40.6567 327.207,40.49 328.5,40C 324.818,37.6541 324.652,35.1541 328,32.5C 333.069,32.9216 338.069,32.9216 343,32.5C 346.442,34.7334 350.108,35.0668 354,33.5C 357.158,36.0796 360.492,38.4129 364,40.5C 364.009,37.65 362.842,35.3167 360.5,33.5C 358.15,31.7867 357.15,29.4534 357.5,26.5 Z"
       id="path5" />
  </g>
  <g
     id="g6"
     style="stroke:none">
    <path
       style="opacity:1;stroke:none"
       fill="#c3c3c3"
       d="M 351.5,19.5 C 351.5,20.1667 351.5,20.8333 351.5,21.5C 350.711,21.2172 350.044,20.7172 349.5,20C 342.5,19.3333 335.5,19.3333 328.5,20C 327.646,21.0217 326.646,21.8551 325.5,22.5C 323.784,26.4789 321.784,30.3122 319.5,34C 312.842,34.4996 306.175,34.6663 299.5,34.5C 281.659,34.8301 263.992,34.4967 246.5,33.5C 270.502,33.6666 294.502,33.5 318.5,33C 319.914,31.0065 320.914,28.8398 321.5,26.5C 322.261,23.1461 323.928,20.3128 326.5,18C 330.667,17.8333 334.833,17.6667 339,17.5C 343.557,17.5085 347.724,18.1752 351.5,19.5 Z"
       id="path6" />
  </g>
  <g
     id="g7"
     style="stroke:none">
    <path
       style="opacity:1;stroke:none"
       fill="#bcbcbc"
       d="M 209.5,25.5 C 206.978,28.3694 205.311,31.7028 204.5,35.5C 219.676,35.1706 234.676,35.5039 249.5,36.5C 247.167,36.5 244.833,36.5 242.5,36.5C 241.833,36.5 241.167,36.5 240.5,36.5C 227.833,36.5 215.167,36.5 202.5,36.5C 203.072,31.6841 205.405,28.0174 209.5,25.5 Z"
       id="path7" />
  </g>
  <g
     id="g8"
     style="stroke:none">
    <path
       style="opacity:1;stroke:none"
       fill="#cfcfcf"
       d="M 242.5,36.5 C 244.833,36.5 247.167,36.5 249.5,36.5C 273.169,36.3334 296.836,36.5 320.5,37C 321.056,37.3826 321.389,37.8826 321.5,38.5C 320.833,38.5 320.167,38.5 319.5,38.5C 293.833,37.8333 268.167,37.1667 242.5,36.5 Z"
       id="path8" />
  </g>
  <g
     id="g9"
     style="stroke:none">
    <path
       style="opacity:1;stroke:none"
       fill="#fdfdfd"
       d="M 240.5,36.5 C 241.167,36.5 241.833,36.5 242.5,36.5C 268.167,37.1667 293.833,37.8333 319.5,38.5C 318.199,39.8816 317.366,41.5483 317,43.5C 316.171,61.3381 316.338,79.0048 317.5,96.5C 317.5,97.5 317.5,98.5 317.5,99.5C 313.196,100.131 308.863,100.631 304.5,101C 303.748,101.671 303.414,102.504 303.5,103.5C 302.662,103.842 302.328,104.508 302.5,105.5C 301.711,105.783 301.044,106.283 300.5,107C 288.171,107.5 275.838,107.667 263.5,107.5C 262.431,105.031 261.098,102.698 259.5,100.5C 255.702,99.5166 251.702,99.1832 247.5,99.5C 247.5,79.1667 247.5,58.8333 247.5,38.5C 246.209,38.2627 245.209,38.596 244.5,39.5C 240.738,41.4127 237.071,43.5794 233.5,46C 226.5,51.6667 219.5,57.3333 212.5,63C 206.833,63.1667 201.167,63.3333 195.5,63.5C 189.458,63.4955 183.792,62.8288 178.5,61.5C 185.917,54.4212 192.584,46.7545 198.5,38.5C 212.661,37.8333 226.661,37.1667 240.5,36.5 Z"
       id="path9" />
  </g>
  <g
     id="g10"
     style="stroke:none">
    <path
       style="opacity:1;stroke:none"
       fill="#fdfdfd"
       d="M 327.5,47.5 C 333.535,53.5374 339.869,59.204 346.5,64.5C 344.68,65.0627 343.347,66.2294 342.5,68C 344.4,69.6703 346.4,71.1703 348.5,72.5C 347.732,73.2625 347.232,74.2625 347,75.5C 341.223,73.5601 338.39,69.5601 338.5,63.5C 334.817,60.0009 330.817,57.0009 326.5,54.5C 325.558,54.6082 324.725,54.9415 324,55.5C 323.333,69.1667 323.333,82.8333 324,96.5C 331.088,105.757 337.588,115.424 343.5,125.5C 342.359,135.453 342.192,145.453 343,155.5C 345.381,157.895 347.215,160.561 348.5,163.5C 348.879,166.567 347.879,167.567 345.5,166.5C 343.5,165.167 341.833,163.5 340.5,161.5C 340.667,148.829 340.5,136.162 340,123.5C 337.63,120.961 335.13,118.628 332.5,116.5C 329.833,114.167 327.167,111.833 324.5,109.5C 323.92,107.251 322.587,105.585 320.5,104.5C 320.08,102.906 319.414,101.406 318.5,100C 319.148,98.5603 319.481,97.0603 319.5,95.5C 320.496,81.0095 320.829,66.3428 320.5,51.5C 321.791,51.7373 322.791,51.404 323.5,50.5C 325.035,47.6702 324.035,46.3369 320.5,46.5C 319.218,45.2918 319.218,43.9584 320.5,42.5C 323.13,43.8037 325.463,45.4704 327.5,47.5 Z"
       id="path10" />
  </g>
  <g
     id="g11"
     style="stroke:none">
    <path
       style="opacity:1;stroke:none"
       fill="#f0f0f0"
       d="M 198.5,43.5 C 208.839,43.3335 219.172,43.5002 229.5,44C 223.66,50.1829 216.993,55.1829 209.5,59C 202.5,59.6667 195.5,59.6667 188.5,59C 188.043,58.586 187.709,58.086 187.5,57.5C 191.175,52.8031 194.842,48.1364 198.5,43.5 Z"
       id="path11" />
  </g>
  <g
     id="g12"
     style="stroke:none">
    <path
       style="opacity:1;stroke:none"
       fill="#d2d2d2"
       d="M 244.5,39.5 C 245.477,60.1208 245.81,80.7875 245.5,101.5C 245.5,102.167 245.167,102.5 244.5,102.5C 244.5,85.1667 244.5,67.8333 244.5,50.5C 243.167,50.5 241.833,50.5 240.5,50.5C 240.5,49.1667 240.5,47.8333 240.5,46.5C 241.833,46.5 243.167,46.5 244.5,46.5C 244.5,45.5 244.5,44.5 244.5,43.5C 243.448,43.3505 242.448,43.5172 241.5,44C 233.457,51.4335 224.957,58.2668 216,64.5C 215.833,82 215.667,99.5 215.5,117C 215.5,134.846 216.167,152.346 217.5,169.5C 217.167,170.5 216.5,171.167 215.5,171.5C 214.502,136.337 214.168,101.004 214.5,65.5C 202.345,64.5048 190.011,64.1714 177.5,64.5C 177.5,63.5 177.5,62.5 177.5,61.5C 177.5,60.8333 177.833,60.5 178.5,60.5C 178.5,60.8333 178.5,61.1667 178.5,61.5C 183.792,62.8288 189.458,63.4955 195.5,63.5C 201.167,63.3333 206.833,63.1667 212.5,63C 219.5,57.3333 226.5,51.6667 233.5,46C 237.071,43.5794 240.738,41.4127 244.5,39.5 Z"
       id="path12" />
  </g>
  <g
     id="g13"
     style="stroke:none">
    <path
       style="opacity:1;stroke:none"
       fill="#efefef"
       d="M 253.5,43.5 C 272.836,43.3334 292.17,43.5 311.5,44C 312,44.5 312.5,45 313,45.5C 313.664,50.1493 314.164,54.816 314.5,59.5C 313.961,70.5375 313.294,81.5375 312.5,92.5C 305.921,92.8955 300.588,95.7288 296.5,101C 286.833,101.667 277.167,101.667 267.5,101C 265.5,99 263.5,97 261.5,95C 258.833,94.3333 256.167,93.6667 253.5,93C 252.174,76.5 252.174,60 253.5,43.5 Z"
       id="path13" />
  </g>
  <g
     id="g14"
     style="stroke:none">
    <path
       style="opacity:1;stroke:none"
       fill="#e0e0e0"
       d="M 319.5,38.5 C 320.167,38.5 320.833,38.5 321.5,38.5C 321.973,39.9063 322.973,40.573 324.5,40.5C 326.965,44.0614 330.298,46.0614 334.5,46.5C 332.901,46.2322 331.568,46.5655 330.5,47.5C 329.348,46.375 328.348,46.375 327.5,47.5C 325.463,45.4704 323.13,43.8037 320.5,42.5C 319.218,43.9584 319.218,45.2918 320.5,46.5C 319.811,47.7736 318.977,47.7736 318,46.5C 317.5,63.1633 317.333,79.83 317.5,96.5C 316.338,79.0048 316.171,61.3381 317,43.5C 317.366,41.5483 318.199,39.8816 319.5,38.5 Z"
       id="path14" />
  </g>
  <g
     id="g15"
     style="stroke:none">
    <path
       style="opacity:1;stroke:none"
       fill="#d2d2d2"
       d="M 320.5,46.5 C 324.035,46.3369 325.035,47.6702 323.5,50.5C 322.178,50.67 321.011,50.3366 320,49.5C 319.5,64.8297 319.333,80.163 319.5,95.5C 319.481,97.0603 319.148,98.5603 318.5,100C 319.414,101.406 320.08,102.906 320.5,104.5C 315.069,100.909 309.402,100.576 303.5,103.5C 303.414,102.504 303.748,101.671 304.5,101C 308.863,100.631 313.196,100.131 317.5,99.5C 317.5,98.5 317.5,97.5 317.5,96.5C 317.333,79.83 317.5,63.1633 318,46.5C 318.977,47.7736 319.811,47.7736 320.5,46.5 Z"
       id="path15" />
  </g>
  <g
     id="g16"
     style="stroke:none">
    <path
       style="opacity:1;stroke:none"
       fill="#fefefe"
       d="M 330.5,47.5 C 331.568,46.5655 332.901,46.2322 334.5,46.5C 335.167,46.5 335.833,46.5 336.5,46.5C 342.61,48.3232 348.943,49.6565 355.5,50.5C 357.379,51.3414 359.379,51.6747 361.5,51.5C 367.745,53.1877 374.079,55.021 380.5,57C 382.351,58.6837 384.018,60.5171 385.5,62.5C 373.852,63.4989 362.186,63.8322 350.5,63.5C 344.603,57.2164 337.936,51.883 330.5,47.5 Z"
       id="path16" />
  </g>
  <g
     id="g17"
     style="stroke:none">
    <path
       style="opacity:1;stroke:none"
       fill="#cbcbcb"
       d="M 336.5,46.5 C 342.659,46.2158 348.659,47.0491 354.5,49C 355.056,49.3826 355.389,49.8826 355.5,50.5C 348.943,49.6565 342.61,48.3232 336.5,46.5 Z"
       id="path17" />
  </g>
  <g
     id="g18"
     style="stroke:none">
    <path
       style="opacity:1;stroke:none"
       fill="#e0e0e0"
       d="M 234.5,17.5 C 234.5,17.8333 234.5,18.1667 234.5,18.5C 227.825,18.3337 221.158,18.5004 214.5,19C 212.21,20.7772 210.543,22.9438 209.5,25.5C 205.405,28.0174 203.072,31.6841 202.5,36.5C 215.167,36.5 227.833,36.5 240.5,36.5C 226.661,37.1667 212.661,37.8333 198.5,38.5C 192.584,46.7545 185.917,54.4212 178.5,61.5C 178.5,61.1667 178.5,60.8333 178.5,60.5C 189.577,45.9159 201.244,31.7492 213.5,18C 220.492,17.5004 227.492,17.3337 234.5,17.5 Z"
       id="path18" />
  </g>
  <g
     id="g19"
     style="stroke:none">
    <path
       style="opacity:1;stroke:none"
       fill="#fcfcfc"
       d="M 244.5,102.5 C 243.026,103.436 242.026,104.77 241.5,106.5C 240.833,106.833 240.167,107.167 239.5,107.5C 238.078,108.925 236.411,109.925 234.5,110.5C 233.427,109.749 233.26,108.749 234,107.5C 235.667,104.5 237.333,101.5 239,98.5C 239.5,83.8371 239.667,69.1705 239.5,54.5C 234.057,55.5618 229.39,58.2284 225.5,62.5C 225.15,66.9518 223.65,70.9518 221,74.5C 220.167,90.8435 220.334,107.177 221.5,123.5C 222.906,122.049 224.406,120.716 226,119.5C 226.399,119.728 226.565,120.062 226.5,120.5C 226.5,121.167 226.5,121.833 226.5,122.5C 225.883,122.611 225.383,122.944 225,123.5C 224.667,136.5 224.333,149.5 224,162.5C 222.293,164.037 220.793,165.704 219.5,167.5C 219.167,168.5 218.5,169.167 217.5,169.5C 216.167,152.346 215.5,134.846 215.5,117C 215.667,99.5 215.833,82 216,64.5C 224.957,58.2668 233.457,51.4335 241.5,44C 242.448,43.5172 243.448,43.3505 244.5,43.5C 244.5,44.5 244.5,45.5 244.5,46.5C 243.167,46.5 241.833,46.5 240.5,46.5C 240.5,47.8333 240.5,49.1667 240.5,50.5C 241.833,50.5 243.167,50.5 244.5,50.5C 244.5,67.8333 244.5,85.1667 244.5,102.5 Z"
       id="path19" />
  </g>
  <g
     id="g20"
     style="stroke:none">
    <path
       style="opacity:1;stroke:none"
       fill="#c5c5c5"
       d="M 259.5,100.5 C 254.968,100.182 250.634,100.515 246.5,101.5C 246.167,101.5 245.833,101.5 245.5,101.5C 245.81,80.7875 245.477,60.1208 244.5,39.5C 245.209,38.596 246.209,38.2627 247.5,38.5C 247.5,58.8333 247.5,79.1667 247.5,99.5C 251.702,99.1832 255.702,99.5166 259.5,100.5 Z"
       id="path20" />
  </g>
  <g
     id="g21"
     style="stroke:none">
    <path
       style="opacity:1;stroke:none"
       fill="#e8e8e8"
       d="M 323.5,50.5 C 322.791,51.404 321.791,51.7373 320.5,51.5C 320.829,66.3428 320.496,81.0095 319.5,95.5C 319.333,80.163 319.5,64.8297 320,49.5C 321.011,50.3366 322.178,50.67 323.5,50.5 Z"
       id="path21" />
  </g>
  <g
     id="g22"
     style="stroke:none">
    <path
       style="opacity:1;stroke:none"
       fill="#f0f0f0"
       d="M 234.5,110.5 C 232.312,114.207 229.645,117.54 226.5,120.5C 226.565,120.062 226.399,119.728 226,119.5C 224.406,120.716 222.906,122.049 221.5,123.5C 220.334,107.177 220.167,90.8435 221,74.5C 223.65,70.9518 225.15,66.9518 225.5,62.5C 229.39,58.2284 234.057,55.5618 239.5,54.5C 239.667,69.1705 239.5,83.8371 239,98.5C 237.333,101.5 235.667,104.5 234,107.5C 233.26,108.749 233.427,109.749 234.5,110.5 Z"
       id="path22" />
  </g>
  <g
     id="g23"
     style="stroke:none">
    <path
       style="opacity:1;stroke:none"
       fill="#f0f0f0"
       d="M 348.5,72.5 C 348.5,102.833 348.5,133.167 348.5,163.5C 347.215,160.561 345.381,157.895 343,155.5C 342.192,145.453 342.359,135.453 343.5,125.5C 337.588,115.424 331.088,105.757 324,96.5C 323.333,82.8333 323.333,69.1667 324,55.5C 324.725,54.9415 325.558,54.6082 326.5,54.5C 330.817,57.0009 334.817,60.0009 338.5,63.5C 338.39,69.5601 341.223,73.5601 347,75.5C 347.232,74.2625 347.732,73.2625 348.5,72.5 Z"
       id="path23" />
  </g>
  <g
     id="g24"
     style="stroke:none">
    <path
       style="opacity:1;stroke:none"
       fill="#cecece"
       d="M 365.5,36.5 C 372.218,43.5729 378.718,50.9063 385,58.5C 386.094,60.0779 386.928,61.7446 387.5,63.5C 375.167,64.8333 362.833,64.8333 350.5,63.5C 362.186,63.8322 373.852,63.4989 385.5,62.5C 384.018,60.5171 382.351,58.6837 380.5,57C 374.079,55.021 367.745,53.1877 361.5,51.5C 366.931,51.7455 372.265,52.2455 377.5,53C 375.667,51.1667 373.833,49.3333 372,47.5C 369.824,43.8105 367.657,40.1438 365.5,36.5 Z"
       id="path24" />
  </g>
  <g
     id="g25"
     style="stroke:none">
    <path
       style="opacity:1;stroke:none"
       fill="#b1b1b1"
       d="M 214.5,65.5 C 214.168,101.004 214.502,136.337 215.5,171.5C 215.027,172.906 214.027,173.573 212.5,173.5C 212.5,138.5 212.5,103.5 212.5,68.5C 212.285,66.8212 212.952,65.8212 214.5,65.5 Z"
       id="path25" />
  </g>
  <g
     id="g26"
     style="stroke:none">
    <path
       style="opacity:1;stroke:none"
       fill="#c8c8c8"
       d="M 330.5,47.5 C 337.936,51.883 344.603,57.2164 350.5,63.5C 362.833,64.8333 375.167,64.8333 387.5,63.5C 388.117,63.6107 388.617,63.944 389,64.5C 389.5,95.4982 389.667,126.498 389.5,157.5C 388.833,127.5 388.167,97.5 387.5,67.5C 374.673,66.669 361.673,66.169 348.5,66C 347.956,65.2828 347.289,64.7828 346.5,64.5C 339.869,59.204 333.535,53.5374 327.5,47.5C 328.348,46.375 329.348,46.375 330.5,47.5 Z"
       id="path26" />
  </g>
  <g
     id="g27"
     style="stroke:none">
    <path
       style="opacity:1;stroke:none"
       fill="#fdfdfd"
       d="M 211.5,68.5 C 211.5,103.167 211.5,137.833 211.5,172.5C 198.788,173.146 186.455,172.48 174.5,170.5C 174.5,167.833 174.5,165.167 174.5,162.5C 175.332,131.003 175.832,99.336 176,67.5C 187.424,66.3463 198.924,66.1796 210.5,67C 211.056,67.3826 211.389,67.8826 211.5,68.5 Z"
       id="path27" />
  </g>
  <g
     id="g28"
     style="stroke:none">
    <path
       style="opacity:1;stroke:none"
       fill="#d3d3d3"
       d="M 217.5,65.5 C 218.833,65.5 220.167,65.5 221.5,65.5C 221.5,67.1667 221.5,68.8333 221.5,70.5C 218.09,70.6162 216.756,68.9496 217.5,65.5 Z"
       id="path28" />
  </g>
  <g
     id="g29"
     style="stroke:none">
    <path
       style="opacity:1;stroke:none"
       fill="#bebebe"
       d="M 177.5,61.5 C 177.5,62.5 177.5,63.5 177.5,64.5C 190.011,64.1714 202.345,64.5048 214.5,65.5C 212.952,65.8212 212.285,66.8212 212.5,68.5C 212.167,68.5 211.833,68.5 211.5,68.5C 211.389,67.8826 211.056,67.3826 210.5,67C 198.924,66.1796 187.424,66.3463 176,67.5C 175.832,99.336 175.332,131.003 174.5,162.5C 174.5,130.5 174.5,98.5 174.5,66.5C 175.11,64.5659 176.11,62.8993 177.5,61.5 Z"
       id="path29" />
  </g>
  <g
     id="g30"
     style="stroke:none">
    <path
       style="opacity:1;stroke:none"
       fill="#efefef"
       d="M 182.5,71.5 C 190.42,71.185 198.253,71.5183 206,72.5C 206.829,103.738 206.662,134.905 205.5,166C 197.587,166.814 189.754,166.647 182,165.5C 181.175,134.095 181.342,102.762 182.5,71.5 Z"
       id="path30" />
  </g>
  <g
     id="g31"
     style="stroke:none">
    <path
       style="opacity:1;stroke:none"
       fill="#e1e1e1"
       d="M 346.5,64.5 C 347.289,64.7828 347.956,65.2828 348.5,66C 361.673,66.169 374.673,66.669 387.5,67.5C 375.149,67.1676 362.815,67.501 350.5,68.5C 351.127,69.4168 351.461,70.4168 351.5,71.5C 351.5,103.167 351.5,134.833 351.5,166.5C 350.596,167.209 350.263,168.209 350.5,169.5C 348.784,169.371 347.117,169.038 345.5,168.5C 345.5,167.833 345.5,167.167 345.5,166.5C 347.879,167.567 348.879,166.567 348.5,163.5C 348.5,133.167 348.5,102.833 348.5,72.5C 346.4,71.1703 344.4,69.6703 342.5,68C 343.347,66.2294 344.68,65.0627 346.5,64.5 Z"
       id="path31" />
  </g>
  <g
     id="g32"
     style="stroke:none">
    <path
       style="opacity:1;stroke:none"
       fill="#efefef"
       d="M 351.5,71.5 C 352.222,71.9175 352.722,72.5842 353,73.5C 353.75,72.8742 354.584,72.3742 355.5,72C 365.078,71.1824 374.578,71.3491 384,72.5C 384.667,101.5 384.667,130.5 384,159.5C 382.956,161.715 382.29,164.048 382,166.5C 371.617,167.727 361.45,167.727 351.5,166.5C 351.5,134.833 351.5,103.167 351.5,71.5 Z"
       id="path32" />
  </g>
  <g
     id="g33"
     style="stroke:none">
    <path
       style="opacity:1;stroke:none"
       fill="#9c9c9c"
       d="M 320.5,104.5 C 321.63,106.315 322.296,108.315 322.5,110.5C 319.346,109.584 316.179,108.584 313,107.5C 311.5,107.667 310,107.833 308.5,108C 306.28,111.144 303.946,111.31 301.5,108.5C 302.11,107.609 302.443,106.609 302.5,105.5C 302.328,104.508 302.662,103.842 303.5,103.5C 309.402,100.576 315.069,100.909 320.5,104.5 Z"
       id="path33" />
  </g>
  <g
     id="g34"
     style="stroke:none">
    <path
       style="opacity:1;stroke:none"
       fill="#afafaf"
       d="M 259.5,100.5 C 261.098,102.698 262.431,105.031 263.5,107.5C 275.989,108.495 288.656,108.829 301.5,108.5C 303.946,111.31 306.28,111.144 308.5,108C 310,107.833 311.5,107.667 313,107.5C 316.179,108.584 319.346,109.584 322.5,110.5C 322.296,108.315 321.63,106.315 320.5,104.5C 322.587,105.585 323.92,107.251 324.5,109.5C 326.284,111.948 327.618,114.615 328.5,117.5C 326.167,117.5 323.833,117.5 321.5,117.5C 315.619,115.511 309.619,113.844 303.5,112.5C 282.853,111.8 262.186,110.8 241.5,109.5C 241.5,108.5 241.5,107.5 241.5,106.5C 242.026,104.77 243.026,103.436 244.5,102.5C 245.167,102.5 245.5,102.167 245.5,101.5C 245.833,101.5 246.167,101.5 246.5,101.5C 250.634,100.515 254.968,100.182 259.5,100.5 Z"
       id="path34" />
  </g>
  <g
     id="g35"
     style="stroke:none">
    <path
       style="opacity:1;stroke:none"
       fill="#cacaca"
       d="M 302.5,105.5 C 302.443,106.609 302.11,107.609 301.5,108.5C 288.656,108.829 275.989,108.495 263.5,107.5C 275.838,107.667 288.171,107.5 300.5,107C 301.044,106.283 301.711,105.783 302.5,105.5 Z"
       id="path35" />
  </g>
  <g
     id="g36"
     style="stroke:none">
    <path
       style="opacity:1;stroke:none"
       fill="#9c9c9c"
       d="M 246.5,101.5 C 250.182,101.335 253.848,101.501 257.5,102C 259.845,103.724 260.345,105.557 259,107.5C 254.299,105.391 249.465,104.891 244.5,106C 245.582,104.67 246.249,103.17 246.5,101.5 Z"
       id="path36" />
  </g>
  <g
     id="g37"
     style="stroke:none">
    <path
       style="opacity:1;stroke:none"
       fill="#fcfcfc"
       d="M 242.5,110.5 C 249.022,110.177 255.355,110.51 261.5,111.5C 261.586,112.496 261.252,113.329 260.5,114C 255.214,115.641 250.547,118.308 246.5,122C 241.136,122.829 235.802,122.663 230.5,121.5C 233.701,118.798 236.368,115.631 238.5,112C 240.058,111.79 241.391,111.29 242.5,110.5 Z"
       id="path37" />
  </g>
  <g
     id="g38"
     style="stroke:none">
    <path
       style="opacity:1;stroke:none"
       fill="#c4c4c4"
       d="M 241.5,106.5 C 241.5,107.5 241.5,108.5 241.5,109.5C 262.186,110.8 282.853,111.8 303.5,112.5C 290.5,112.5 277.5,112.5 264.5,112.5C 263.391,112.443 262.391,112.11 261.5,111.5C 255.355,110.51 249.022,110.177 242.5,110.5C 241.5,110.5 240.5,110.5 239.5,110.5C 239.5,109.5 239.5,108.5 239.5,107.5C 240.167,107.167 240.833,106.833 241.5,106.5 Z"
       id="path38" />
  </g>
  <g
     id="g39"
     style="stroke:none">
    <path
       style="opacity:1;stroke:none"
       fill="#fefefe"
       d="M 264.5,112.5 C 277.5,112.5 290.5,112.5 303.5,112.5C 303.953,113.458 304.619,114.292 305.5,115C 310.898,115.517 316.231,116.351 321.5,117.5C 323.599,118.612 325.933,119.279 328.5,119.5C 330.743,120.132 332.409,121.466 333.5,123.5C 328.167,123.5 322.833,123.5 317.5,123.5C 315.263,120.421 312.263,118.921 308.5,119C 310.041,120.371 311.375,121.871 312.5,123.5C 312.657,124.873 312.49,126.207 312,127.5C 309.401,124.695 306.401,122.361 303,120.5C 304.031,115.622 303.031,115.289 300,119.5C 294.579,118.844 289.079,118.511 283.5,118.5C 277.754,118.526 272.254,119.193 267,120.5C 266.292,119.619 265.458,118.953 264.5,118.5C 264.297,116.956 263.63,115.622 262.5,114.5C 263.243,113.818 263.909,113.151 264.5,112.5 Z"
       id="path39" />
  </g>
  <g
     id="g40"
     style="stroke:none">
    <path
       style="opacity:1;stroke:none"
       fill="#cbcbcb"
       d="M 324.5,109.5 C 327.167,111.833 329.833,114.167 332.5,116.5C 332.414,117.496 332.748,118.329 333.5,119C 331.866,119.494 330.199,119.66 328.5,119.5C 325.933,119.279 323.599,118.612 321.5,117.5C 323.833,117.5 326.167,117.5 328.5,117.5C 327.618,114.615 326.284,111.948 324.5,109.5 Z"
       id="path40" />
  </g>
  <g
     id="g41"
     style="stroke:none">
    <path
       style="opacity:1;stroke:none"
       fill="#cecece"
       d="M 303.5,112.5 C 309.619,113.844 315.619,115.511 321.5,117.5C 316.231,116.351 310.898,115.517 305.5,115C 304.619,114.292 303.953,113.458 303.5,112.5 Z"
       id="path41" />
  </g>
  <g
     id="g42"
     style="stroke:none">
    <path
       style="opacity:1;stroke:none"
       fill="#e4e4e4"
       d="M 239.5,107.5 C 239.5,108.5 239.5,109.5 239.5,110.5C 240.5,110.5 241.5,110.5 242.5,110.5C 241.391,111.29 240.058,111.79 238.5,112C 236.368,115.631 233.701,118.798 230.5,121.5C 235.802,122.663 241.136,122.829 246.5,122C 250.547,118.308 255.214,115.641 260.5,114C 261.252,113.329 261.586,112.496 261.5,111.5C 262.391,112.11 263.391,112.443 264.5,112.5C 263.909,113.151 263.243,113.818 262.5,114.5C 263.63,115.622 264.297,116.956 264.5,118.5C 264.5,132.5 264.5,146.5 264.5,160.5C 264.672,161.492 264.338,162.158 263.5,162.5C 262.778,162.082 262.278,161.416 262,160.5C 261.5,146.504 261.333,132.504 261.5,118.5C 254.677,118.405 251.011,121.739 250.5,128.5C 248.839,142.972 247.839,157.638 247.5,172.5C 247.182,156.452 247.515,140.452 248.5,124.5C 241.159,123.728 233.826,123.062 226.5,122.5C 226.5,121.833 226.5,121.167 226.5,120.5C 229.645,117.54 232.312,114.207 234.5,110.5C 236.411,109.925 238.078,108.925 239.5,107.5 Z"
       id="path42" />
  </g>
  <g
     id="g43"
     style="stroke:none">
    <path
       style="opacity:1;stroke:none"
       fill="#efefef"
       d="M 312.5,123.5 C 313.163,125.042 313.83,126.709 314.5,128.5C 315.499,142.484 315.833,156.484 315.5,170.5C 314.733,169.828 314.066,168.995 313.5,168C 309.14,165.622 304.807,163.289 300.5,161C 289.3,160.801 278.133,160.301 267,159.5C 266.098,159.743 265.265,160.077 264.5,160.5C 264.5,146.5 264.5,132.5 264.5,118.5C 265.458,118.953 266.292,119.619 267,120.5C 272.254,119.193 277.754,118.526 283.5,118.5C 289.079,118.511 294.579,118.844 300,119.5C 303.031,115.289 304.031,115.622 303,120.5C 306.401,122.361 309.401,124.695 312,127.5C 312.49,126.207 312.657,124.873 312.5,123.5 Z"
       id="path43" />
  </g>
  <g
     id="g44"
     style="stroke:none">
    <path
       style="opacity:1;stroke:none"
       fill="#f1f1f1"
       d="M 263.5,162.5 C 263.782,163.778 264.449,164.778 265.5,165.5C 264.5,165.5 263.5,165.5 262.5,165.5C 262.288,163.616 261.288,162.283 259.5,161.5C 258.352,163.149 257.019,164.649 255.5,166C 254.216,166.684 253.049,166.517 252,165.5C 251.745,152.803 251.245,140.47 250.5,128.5C 251.011,121.739 254.677,118.405 261.5,118.5C 261.333,132.504 261.5,146.504 262,160.5C 262.278,161.416 262.778,162.082 263.5,162.5 Z"
       id="path44" />
  </g>
  <g
     id="g45"
     style="stroke:none">
    <path
       style="opacity:1;stroke:none"
       fill="#d3d3d3"
       d="M 340.5,161.5 C 341.833,163.5 343.5,165.167 345.5,166.5C 345.5,167.167 345.5,167.833 345.5,168.5C 343.202,166.539 340.535,165.539 337.5,165.5C 337.5,152.5 337.5,139.5 337.5,126.5C 331.5,126.5 325.5,126.5 319.5,126.5C 318.167,126.5 316.833,126.5 315.5,126.5C 315.285,124.821 315.952,123.821 317.5,123.5C 322.833,123.5 328.167,123.5 333.5,123.5C 335.611,122.032 337.444,122.365 339,124.5C 339.169,137.007 339.669,149.34 340.5,161.5 Z"
       id="path45" />
  </g>
  <g
     id="g46"
     style="stroke:none">
    <path
       style="opacity:1;stroke:none"
       fill="#e3e3e3"
       d="M 332.5,116.5 C 335.13,118.628 337.63,120.961 340,123.5C 340.5,136.162 340.667,148.829 340.5,161.5C 339.669,149.34 339.169,137.007 339,124.5C 337.444,122.365 335.611,122.032 333.5,123.5C 332.409,121.466 330.743,120.132 328.5,119.5C 330.199,119.66 331.866,119.494 333.5,119C 332.748,118.329 332.414,117.496 332.5,116.5 Z"
       id="path46" />
  </g>
  <g
     id="g47"
     style="stroke:none">
    <path
       style="opacity:1;stroke:none"
       fill="#d9d9d9"
       d="M 226.5,122.5 C 233.826,123.062 241.159,123.728 248.5,124.5C 247.515,140.452 247.182,156.452 247.5,172.5C 247.298,176.845 248.631,177.512 251.5,174.5C 251.5,175.167 251.5,175.833 251.5,176.5C 250.833,176.833 250.167,177.167 249.5,177.5C 248.041,177.433 246.708,177.766 245.5,178.5C 244.709,161.531 244.209,144.531 244,127.5C 238.734,126.176 233.567,126.176 228.5,127.5C 227.506,137.987 227.172,148.654 227.5,159.5C 227.5,160.833 227.5,162.167 227.5,163.5C 226.209,163.263 225.209,163.596 224.5,164.5C 223.833,164.5 223.5,164.833 223.5,165.5C 222.395,166.6 221.062,167.267 219.5,167.5C 220.793,165.704 222.293,164.037 224,162.5C 224.333,149.5 224.667,136.5 225,123.5C 225.383,122.944 225.883,122.611 226.5,122.5 Z"
       id="path47" />
  </g>
  <g
     id="g48"
     style="stroke:none">
    <path
       style="opacity:1;stroke:none"
       fill="#e1e1e1"
       d="M 317.5,123.5 C 315.952,123.821 315.285,124.821 315.5,126.5C 316.833,126.5 318.167,126.5 319.5,126.5C 318.848,142.437 318.181,158.437 317.5,174.5C 315.889,173.68 315.222,172.346 315.5,170.5C 315.833,156.484 315.499,142.484 314.5,128.5C 313.83,126.709 313.163,125.042 312.5,123.5C 311.375,121.871 310.041,120.371 308.5,119C 312.263,118.921 315.263,120.421 317.5,123.5 Z"
       id="path48" />
  </g>
  <g
     id="g49"
     style="stroke:none">
    <path
       style="opacity:1;stroke:none"
       fill="#fcfcfc"
       d="M 245.5,178.5 C 239.885,179.573 234.218,179.74 228.5,179C 227.529,173.928 227.195,168.762 227.5,163.5C 227.5,162.167 227.5,160.833 227.5,159.5C 228.314,157.369 228.814,155.036 229,152.5C 231.016,159.048 232.516,165.714 233.5,172.5C 236.612,173.983 239.445,173.65 242,171.5C 242.667,158.5 242.667,145.5 242,132.5C 238.817,130.477 235.317,129.977 231.5,131C 230.137,132.945 229.303,135.112 229,137.5C 228.502,134.183 228.335,130.85 228.5,127.5C 233.567,126.176 238.734,126.176 244,127.5C 244.209,144.531 244.709,161.531 245.5,178.5 Z"
       id="path49" />
  </g>
  <g
     id="g50"
     style="stroke:none">
    <path
       style="opacity:1;stroke:none"
       fill="#fbfbfb"
       d="M 250.5,128.5 C 251.245,140.47 251.745,152.803 252,165.5C 253.049,166.517 254.216,166.684 255.5,166C 257.019,164.649 258.352,163.149 259.5,161.5C 261.288,162.283 262.288,163.616 262.5,165.5C 258.518,168.152 254.851,171.152 251.5,174.5C 248.631,177.512 247.298,176.845 247.5,172.5C 247.839,157.638 248.839,142.972 250.5,128.5 Z"
       id="path50" />
  </g>
  <g
     id="g51"
     style="stroke:none">
    <path
       style="opacity:1;stroke:none"
       fill="#f1f1f1"
       d="M 228.5,127.5 C 228.335,130.85 228.502,134.183 229,137.5C 229.303,135.112 230.137,132.945 231.5,131C 235.317,129.977 238.817,130.477 242,132.5C 242.667,145.5 242.667,158.5 242,171.5C 239.445,173.65 236.612,173.983 233.5,172.5C 232.516,165.714 231.016,159.048 229,152.5C 228.814,155.036 228.314,157.369 227.5,159.5C 227.172,148.654 227.506,137.987 228.5,127.5 Z"
       id="path51" />
  </g>
  <g
     id="g52"
     style="stroke:none">
    <path
       style="opacity:1;stroke:none"
       fill="#f0f0f0"
       d="M 337.5,168.5 C 337.5,170.5 337.5,172.5 337.5,174.5C 332.916,173.723 328.25,173.223 323.5,173C 322.953,172.075 322.287,171.242 321.5,170.5C 320.334,158.514 320.167,146.514 321,134.5C 322.188,133.437 322.688,132.103 322.5,130.5C 326.106,130.211 329.606,130.544 333,131.5C 333.779,142.69 333.612,153.856 332.5,165C 333.089,167.633 334.756,168.8 337.5,168.5 Z"
       id="path52" />
  </g>
  <g
     id="g53"
     style="stroke:none">
    <path
       style="opacity:1;stroke:none"
       fill="#fafafa"
       d="M 387.5,67.5 C 388.167,97.5 388.833,127.5 389.5,157.5C 389.5,158.833 389.5,160.167 389.5,161.5C 389.5,164.5 389.5,167.5 389.5,170.5C 383.705,171.83 377.538,172.496 371,172.5C 364.833,172.333 358.667,172.167 352.5,172C 351.619,171.292 350.953,170.458 350.5,169.5C 350.263,168.209 350.596,167.209 351.5,166.5C 361.45,167.727 371.617,167.727 382,166.5C 382.29,164.048 382.956,161.715 384,159.5C 384.667,130.5 384.667,101.5 384,72.5C 374.578,71.3491 365.078,71.1824 355.5,72C 354.584,72.3742 353.75,72.8742 353,73.5C 352.722,72.5842 352.222,71.9175 351.5,71.5C 351.461,70.4168 351.127,69.4168 350.5,68.5C 362.815,67.501 375.149,67.1676 387.5,67.5 Z"
       id="path53" />
  </g>
  <g
     id="g54"
     style="stroke:none">
    <path
       style="opacity:1;stroke:none"
       fill="#fbfbfb"
       d="M 319.5,126.5 C 325.5,126.5 331.5,126.5 337.5,126.5C 337.5,139.5 337.5,152.5 337.5,165.5C 337.5,166.5 337.5,167.5 337.5,168.5C 334.756,168.8 333.089,167.633 332.5,165C 333.612,153.856 333.779,142.69 333,131.5C 329.606,130.544 326.106,130.211 322.5,130.5C 322.688,132.103 322.188,133.437 321,134.5C 320.167,146.514 320.334,158.514 321.5,170.5C 322.287,171.242 322.953,172.075 323.5,173C 328.25,173.223 332.916,173.723 337.5,174.5C 337.5,175.833 337.5,177.167 337.5,178.5C 331.551,179.579 325.551,179.746 319.5,179C 314.568,175.743 309.902,172.076 305.5,168C 304.255,167.209 302.922,166.709 301.5,166.5C 289.678,165.505 277.678,165.172 265.5,165.5C 264.449,164.778 263.782,163.778 263.5,162.5C 264.338,162.158 264.672,161.492 264.5,160.5C 265.265,160.077 266.098,159.743 267,159.5C 278.133,160.301 289.3,160.801 300.5,161C 304.807,163.289 309.14,165.622 313.5,168C 314.066,168.995 314.733,169.828 315.5,170.5C 315.222,172.346 315.889,173.68 317.5,174.5C 318.181,158.437 318.848,142.437 319.5,126.5 Z"
       id="path54" />
  </g>
  <g
     id="g55"
     style="stroke:none">
    <path
       style="opacity:1;stroke:none"
       fill="#8d8d8d"
       d="M 390.5,161.5 C 400.327,162.666 409.993,164 419.5,165.5C 410.502,165.119 401.502,164.786 392.5,164.5C 392.5,165.833 392.5,167.167 392.5,168.5C 392.44,169.043 392.107,169.376 391.5,169.5C 390.52,166.914 390.187,164.247 390.5,161.5 Z"
       id="path55" />
  </g>
  <g
     id="g56"
     style="stroke:none">
    <path
       style="opacity:1;stroke:none"
       fill="#8a8a8a"
       d="M 173.5,161.5 C 173.769,163.429 173.269,165.095 172,166.5C 171.5,166 171,165.5 170.5,165C 165.177,164.501 159.844,164.334 154.5,164.5C 160.631,163.051 166.964,162.051 173.5,161.5 Z"
       id="path56" />
  </g>
  <g
     id="g57"
     style="stroke:none">
    <path
       style="opacity:1;stroke:none"
       fill="#bebebe"
       d="M 262.5,165.5 C 263.5,165.5 264.5,165.5 265.5,165.5C 277.678,165.172 289.678,165.505 301.5,166.5C 301.5,166.833 301.5,167.167 301.5,167.5C 288.496,167.333 275.496,167.5 262.5,168C 258.803,170.842 255.137,173.675 251.5,176.5C 251.5,175.833 251.5,175.167 251.5,174.5C 254.851,171.152 258.518,168.152 262.5,165.5 Z"
       id="path57" />
  </g>
  <g
     id="g58"
     style="stroke:none">
    <path
       style="opacity:1;stroke:none"
       fill="#8b8b8b"
       d="M 463.5,166.5 C 486.873,166.065 510.206,166.731 533.5,168.5C 533.043,169.298 532.376,169.631 531.5,169.5C 520.012,168.505 508.345,168.172 496.5,168.5C 486.828,168.666 477.161,168.5 467.5,168C 465.942,167.79 464.609,167.29 463.5,166.5 Z"
       id="path58" />
  </g>
  <g
     id="g59"
     style="stroke:none">
    <path
       style="opacity:1;stroke:none"
       fill="#a4a4a4"
       d="M 174.5,66.5 C 174.5,98.5 174.5,130.5 174.5,162.5C 174.5,165.167 174.5,167.833 174.5,170.5C 165.918,171.47 157.251,171.803 148.5,171.5C 131.833,169.833 115.167,168.167 98.5,166.5C 117.195,166.545 135.862,165.878 154.5,164.5C 159.844,164.334 165.177,164.501 170.5,165C 171,165.5 171.5,166 172,166.5C 173.269,165.095 173.769,163.429 173.5,161.5C 173.168,129.662 173.502,97.9956 174.5,66.5 Z"
       id="path59" />
  </g>
  <g
     id="g60"
     style="stroke:none">
    <path
       style="opacity:1;stroke:none"
       fill="#afafaf"
       d="M 389.5,161.5 C 389.833,161.5 390.167,161.5 390.5,161.5C 390.187,164.247 390.52,166.914 391.5,169.5C 392.107,169.376 392.44,169.043 392.5,168.5C 393.289,168.217 393.956,167.717 394.5,167C 403.851,166.168 413.184,166.335 422.5,167.5C 422.709,168.086 423.043,168.586 423.5,169C 420.833,169.333 418.167,169.667 415.5,170C 418.619,171.405 421.952,171.905 425.5,171.5C 415.326,172.615 404.992,172.615 394.5,171.5C 392.708,171.634 391.042,171.301 389.5,170.5C 389.5,167.5 389.5,164.5 389.5,161.5 Z"
       id="path60" />
  </g>
  <g
     id="g61"
     style="stroke:none">
    <path
       style="opacity:1;stroke:none"
       fill="#9e9e9e"
       d="M 419.5,165.5 C 434.16,166.08 448.826,166.413 463.5,166.5C 464.609,167.29 465.942,167.79 467.5,168C 477.161,168.5 486.828,168.666 496.5,168.5C 496.5,168.833 496.5,169.167 496.5,169.5C 484.988,169.172 473.654,169.505 462.5,170.5C 449.989,170.171 437.655,170.505 425.5,171.5C 421.952,171.905 418.619,171.405 415.5,170C 418.167,169.667 420.833,169.333 423.5,169C 423.043,168.586 422.709,168.086 422.5,167.5C 413.184,166.335 403.851,166.168 394.5,167C 393.956,167.717 393.289,168.217 392.5,168.5C 392.5,167.167 392.5,165.833 392.5,164.5C 401.502,164.786 410.502,165.119 419.5,165.5 Z"
       id="path61" />
  </g>
  <g
     id="g62"
     style="stroke:none">
    <path
       style="opacity:1;stroke:none"
       fill="#d1d1d1"
       d="M 31.5,168.5 C 40.6822,168.173 49.6822,168.507 58.5,169.5C 53.9677,169.182 49.6344,169.515 45.5,170.5C 40.647,170.187 35.9804,169.521 31.5,168.5 Z"
       id="path62" />
  </g>
  <g
     id="g63"
     style="stroke:none">
    <path
       style="opacity:1;stroke:none"
       fill="#888888"
       d="M 79.5,166.5 C 79.9175,167.222 80.5842,167.722 81.5,168C 87.5,168.333 93.5,168.667 99.5,169C 93.1754,169.5 86.8421,169.666 80.5,169.5C 73.1667,169.5 65.8333,169.5 58.5,169.5C 49.6822,168.507 40.6822,168.173 31.5,168.5C 46.7346,166.883 62.7346,166.216 79.5,166.5 Z"
       id="path63" />
  </g>
  <g
     id="g64"
     style="stroke:none">
    <path
       style="opacity:1;stroke:none"
       fill="#d4d4d4"
       d="M 496.5,169.5 C 496.5,169.167 496.5,168.833 496.5,168.5C 508.345,168.172 520.012,168.505 531.5,169.5C 526.807,169.54 522.141,169.873 517.5,170.5C 510.687,169.509 503.687,169.175 496.5,169.5 Z"
       id="path64" />
  </g>
  <g
     id="g65"
     style="stroke:none">
    <path
       style="opacity:1;stroke:none"
       fill="#f7f7f7"
       d="M 45.5,170.5 C 49.6344,169.515 53.9677,169.182 58.5,169.5C 65.8333,169.5 73.1667,169.5 80.5,169.5C 93.3402,170.311 106.34,170.977 119.5,171.5C 136.403,172.153 152.736,172.82 168.5,173.5C 127.475,173.462 86.4755,172.462 45.5,170.5 Z"
       id="path65" />
  </g>
  <g
     id="g66"
     style="stroke:none">
    <path
       style="opacity:1;stroke:none"
       fill="#929292"
       d="M 79.5,166.5 C 85.8333,166.5 92.1667,166.5 98.5,166.5C 115.167,168.167 131.833,169.833 148.5,171.5C 138.833,171.5 129.167,171.5 119.5,171.5C 106.34,170.977 93.3402,170.311 80.5,169.5C 86.8421,169.666 93.1754,169.5 99.5,169C 93.5,168.667 87.5,168.333 81.5,168C 80.5842,167.722 79.9175,167.222 79.5,166.5 Z"
       id="path66" />
  </g>
  <g
     id="g67"
     style="stroke:none">
    <path
       style="opacity:1;stroke:none"
       fill="#cfcfcf"
       d="M 425.5,171.5 C 437.655,170.505 449.989,170.171 462.5,170.5C 463.209,171.404 464.209,171.737 465.5,171.5C 463.735,172.461 461.735,172.795 459.5,172.5C 448.346,171.505 437.012,171.172 425.5,171.5 Z"
       id="path67" />
  </g>
  <g
     id="g68"
     style="stroke:none">
    <path
       style="opacity:1;stroke:none"
       fill="#f2f2f2"
       d="M 496.5,169.5 C 503.687,169.175 510.687,169.509 517.5,170.5C 500.173,171.083 482.839,171.416 465.5,171.5C 464.209,171.737 463.209,171.404 462.5,170.5C 473.654,169.505 484.988,169.172 496.5,169.5 Z"
       id="path68" />
  </g>
  <g
     id="g69"
     style="stroke:none">
    <path
       style="opacity:1;stroke:none"
       fill="#c5c5c5"
       d="M 211.5,68.5 C 211.833,68.5 212.167,68.5 212.5,68.5C 212.5,103.5 212.5,138.5 212.5,173.5C 197.735,174.822 183.069,174.822 168.5,173.5C 152.736,172.82 136.403,172.153 119.5,171.5C 129.167,171.5 138.833,171.5 148.5,171.5C 157.251,171.803 165.918,171.47 174.5,170.5C 186.455,172.48 198.788,173.146 211.5,172.5C 211.5,137.833 211.5,103.167 211.5,68.5 Z"
       id="path69" />
  </g>
  <g
     id="g70"
     style="stroke:none">
    <path
       style="opacity:1;stroke:none"
       fill="#f9f9f9"
       d="M 394.5,171.5 C 404.992,172.615 415.326,172.615 425.5,171.5C 437.012,171.172 448.346,171.505 459.5,172.5C 436.505,173.121 413.505,173.454 390.5,173.5C 391.833,172.833 393.167,172.167 394.5,171.5 Z"
       id="path70" />
  </g>
  <g
     id="g71"
     style="stroke:none">
    <path
       style="opacity:1;stroke:none"
       fill="#c0c0c0"
       d="M 345.5,168.5 C 347.117,169.038 348.784,169.371 350.5,169.5C 350.953,170.458 351.619,171.292 352.5,172C 358.667,172.167 364.833,172.333 371,172.5C 377.538,172.496 383.705,171.83 389.5,170.5C 391.042,171.301 392.708,171.634 394.5,171.5C 393.167,172.167 391.833,172.833 390.5,173.5C 378.007,174.66 365.34,174.827 352.5,174C 349.405,173.065 347.071,171.231 345.5,168.5 Z"
       id="path71" />
  </g>
  <g
     id="g72"
     style="stroke:none">
    <path
       style="opacity:1;stroke:none"
       fill="#cbcbcb"
       d="M 301.5,167.5 C 301.5,167.167 301.5,166.833 301.5,166.5C 302.922,166.709 304.255,167.209 305.5,168C 309.902,172.076 314.568,175.743 319.5,179C 325.551,179.746 331.551,179.579 337.5,178.5C 337.5,178.833 337.5,179.167 337.5,179.5C 331.256,180.458 324.923,180.791 318.5,180.5C 312.653,176.409 306.987,172.076 301.5,167.5 Z"
       id="path72" />
  </g>
  <g
     id="g73"
     style="stroke:none">
    <path
       style="opacity:1;stroke:none"
       fill="#c0c0c0"
       d="M 224.5,164.5 C 225.209,163.596 226.209,163.263 227.5,163.5C 227.195,168.762 227.529,173.928 228.5,179C 234.218,179.74 239.885,179.573 245.5,178.5C 246.708,177.766 248.041,177.433 249.5,177.5C 248.738,179.262 247.404,180.262 245.5,180.5C 239.491,180.666 233.491,180.499 227.5,180C 227.177,174.483 226.177,169.316 224.5,164.5 Z"
       id="path73" />
  </g>
  <g
     id="g74"
     style="stroke:none">
    <path
       style="opacity:1;stroke:none"
       fill="#969696"
       d="M 223.5,165.5 C 223.5,164.833 223.833,164.5 224.5,164.5C 226.177,169.316 227.177,174.483 227.5,180C 233.491,180.499 239.491,180.666 245.5,180.5C 239.347,181.653 233.014,181.82 226.5,181C 226.177,175.483 225.177,170.316 223.5,165.5 Z"
       id="path74" />
  </g>
  <g
     id="g75"
     style="fill:#f9f9f9;stroke:none">
    <path
       style="opacity:1;fill:#f9f9f9;stroke:none"
       fill="#949494"
       d="M 337.5,179.5 C 338.738,179.81 338.738,180.31 337.5,181C 330.986,181.82 324.653,181.653 318.5,180.5C 324.923,180.791 331.256,180.458 337.5,179.5 Z"
       id="path75" />
  </g>
  <g
     id="g76"
     style="fill:#f9f9f9;stroke:none">
    <path
       style="opacity:1;fill:#f9f9f9;stroke:none"
       fill="#fefefe"
       d="M 183.5,183.5 C 186.119,183.232 188.619,183.565 191,184.5C 191.5,199.163 191.667,213.83 191.5,228.5C 191.5,229.167 191.167,229.5 190.5,229.5C 188.208,229.756 186.041,229.423 184,228.5C 183.5,213.504 183.333,198.504 183.5,183.5 Z"
       id="path76" />
  </g>
  <g
     id="g77"
     style="fill:#f9f9f9;stroke:none">
    <path
       style="opacity:1;fill:#f9f9f9;stroke:none"
       fill="#fafafa"
       d="M 200.5,183.5 C 203.247,183.187 205.914,183.52 208.5,184.5C 209.451,189.77 209.785,195.103 209.5,200.5C 211.38,200.771 212.713,200.104 213.5,198.5C 213.842,197.662 214.508,197.328 215.5,197.5C 219.929,196.887 223.595,198.22 226.5,201.5C 228.074,203.102 228.741,205.102 228.5,207.5C 228.666,214.508 228.5,221.508 228,228.5C 225.281,229.444 222.448,229.777 219.5,229.5C 218.671,222.011 218.171,214.344 218,206.5C 215.216,205.046 212.716,205.379 210.5,207.5C 209.671,214.321 209.171,221.321 209,228.5C 206.084,230.013 203.418,229.68 201,227.5C 200.5,212.837 200.333,198.17 200.5,183.5 Z"
       id="path77" />
  </g>
  <g
     id="g78"
     style="fill:#f9f9f9;stroke:none">
    <path
       style="opacity:1;fill:#f9f9f9;stroke:none"
       fill="#c8c8c8"
       d="M 302.5,190.5 C 302.154,184.418 299.487,183.084 294.5,186.5C 295.399,183.548 297.399,182.381 300.5,183C 302.414,184.413 303.747,186.247 304.5,188.5C 304.145,189.522 303.478,190.189 302.5,190.5 Z"
       id="path78" />
  </g>
  <g
     id="g79"
     style="fill:#f9f9f9;stroke:none">
    <path
       style="opacity:1;fill:#f9f9f9;stroke:none"
       fill="#bdbdbd"
       d="M 493.5,183.5 C 492.167,183.833 490.833,184.167 489.5,184.5C 490.538,182.481 491.872,182.147 493.5,183.5 Z"
       id="path79" />
  </g>
  <g
     id="g80"
     style="fill:#f9f9f9;stroke:none">
    <path
       style="opacity:1;fill:#f9f9f9;stroke:none"
       fill="#aaaaaa"
       d="M 519.5,183.5 C 521.847,182.105 524.181,182.272 526.5,184C 525.934,184.995 525.267,185.828 524.5,186.5C 524.5,185.5 524.5,184.5 524.5,183.5C 522.833,183.5 521.167,183.5 519.5,183.5 Z"
       id="path80" />
  </g>
  <g
     id="g81"
     style="fill:#f9f9f9;stroke:none">
    <path
       style="opacity:1;fill:#f9f9f9;stroke:none"
       fill="#a2a2a2"
       d="M 192.5,184.5 C 193.661,199.328 193.828,214.328 193,229.5C 192.329,230.252 191.496,230.586 190.5,230.5C 190.5,230.167 190.5,229.833 190.5,229.5C 191.167,229.5 191.5,229.167 191.5,228.5C 192.496,214.01 192.829,199.343 192.5,184.5 Z"
       id="path81" />
  </g>
  <g
     id="g82"
     style="fill:#f9f9f9;stroke:none">
    <path
       style="opacity:1;fill:#f9f9f9;stroke:none"
       fill="#f8f8f8"
       d="M 302.5,190.5 C 297.905,192.702 295.239,191.369 294.5,186.5C 299.487,183.084 302.154,184.418 302.5,190.5 Z"
       id="path82" />
  </g>
  <g
     id="g83"
     style="fill:#f9f9f9;stroke:none">
    <path
       style="opacity:1;fill:#f9f9f9;stroke:none"
       fill="#f3f3f3"
       d="M 493.5,183.5 C 497.315,190.687 495.315,193.021 487.5,190.5C 486.38,188.042 487.047,186.042 489.5,184.5C 490.833,184.167 492.167,183.833 493.5,183.5 Z"
       id="path83" />
  </g>
  <g
     id="g84"
     style="fill:#f9f9f9;stroke:none">
    <path
       style="opacity:1;fill:#f9f9f9;stroke:none"
       fill="#d7d7d7"
       d="M 519.5,183.5 C 521.167,183.5 522.833,183.5 524.5,183.5C 524.5,184.5 524.5,185.5 524.5,186.5C 524.167,187.5 523.5,188.167 522.5,188.5C 522.721,184.205 521.388,183.538 518.5,186.5C 517.571,187.689 517.238,189.022 517.5,190.5C 518.833,190.5 520.167,190.5 521.5,190.5C 521.027,191.906 520.027,192.573 518.5,192.5C 517.5,192.5 516.5,192.5 515.5,192.5C 515.5,191.5 515.5,190.5 515.5,189.5C 515.937,186.775 517.27,184.775 519.5,183.5 Z"
       id="path84" />
  </g>
  <g
     id="g85"
     style="fill:#f9f9f9;stroke:none">
    <path
       style="opacity:1;fill:#f9f9f9;stroke:none"
       fill="#fafafa"
       d="M 54.5,184.5 C 55.6412,185.339 56.9745,186.006 58.5,186.5C 59.6139,187.723 59.7805,189.056 59,190.5C 55.3973,191.135 51.8973,191.802 48.5,192.5C 44.5,195.5 44.5,198.5 48.5,201.5C 52.9063,204.56 57.2396,207.893 61.5,211.5C 61.6054,215.548 61.2721,219.548 60.5,223.5C 54.5047,228.717 47.5047,230.717 39.5,229.5C 39.1667,229.5 38.8333,229.5 38.5,229.5C 37.2475,227.661 37.2475,225.828 38.5,224C 42.1667,223.667 45.8333,223.333 49.5,223C 50.4158,222.722 51.0825,222.222 51.5,221.5C 52.6716,219.156 52.6716,216.823 51.5,214.5C 48.6065,212.228 45.6065,210.228 42.5,208.5C 40.7267,205.94 38.7267,203.607 36.5,201.5C 36.2628,197.59 37.0961,193.923 39,190.5C 41.1906,189.167 43.024,187.5 44.5,185.5C 47.728,184.586 51.0613,184.253 54.5,184.5 Z"
       id="path85" />
  </g>
  <g
     id="g86"
     style="fill:#f9f9f9;stroke:none">
    <path
       style="opacity:1;fill:#f9f9f9;stroke:none"
       fill="#fcfcfc"
       d="M 373.5,218.5 C 373.405,220.786 372.738,222.786 371.5,224.5C 370.094,224.973 369.427,225.973 369.5,227.5C 364.455,231.425 359.122,232.091 353.5,229.5C 353.166,226.812 353.832,224.479 355.5,222.5C 359.537,222.824 362.203,221.158 363.5,217.5C 364.33,207.675 364.83,197.675 365,187.5C 367.667,184.833 370.333,184.833 373,187.5C 373.5,197.828 373.666,208.161 373.5,218.5 Z"
       id="path86" />
  </g>
  <g
     id="g87"
     style="fill:#f9f9f9;stroke:none">
    <path
       style="opacity:1;fill:#f9f9f9;stroke:none"
       fill="#f8f8f8"
       d="M 522.5,188.5 C 522.167,189.167 521.833,189.833 521.5,190.5C 520.167,190.5 518.833,190.5 517.5,190.5C 517.238,189.022 517.571,187.689 518.5,186.5C 521.388,183.538 522.721,184.205 522.5,188.5 Z"
       id="path87" />
  </g>
  <g
     id="g88"
     style="fill:#f9f9f9;stroke:none">
    <path
       style="opacity:1;fill:#f9f9f9;stroke:none"
       fill="#c3c3c3"
       d="M 493.5,183.5 C 497.422,185.101 498.255,187.768 496,191.5C 492.876,193.862 490.043,193.529 487.5,190.5C 495.315,193.021 497.315,190.687 493.5,183.5 Z"
       id="path88" />
  </g>
  <g
     id="g89"
     style="fill:#f9f9f9;stroke:none">
    <path
       style="opacity:1;fill:#f9f9f9;stroke:none"
       fill="#bfbfbf"
       d="M 183.5,183.5 C 183.333,198.504 183.5,213.504 184,228.5C 186.041,229.423 188.208,229.756 190.5,229.5C 190.5,229.833 190.5,230.167 190.5,230.5C 187.881,230.768 185.381,230.435 183,229.5C 182.172,213.994 182.339,198.661 183.5,183.5 Z"
       id="path89" />
  </g>
  <g
     id="g90"
     style="fill:#f9f9f9;stroke:none">
    <path
       style="opacity:1;fill:#f9f9f9;stroke:none"
       fill="#d0d0d0"
       d="M 44.5,185.5 C 43.024,187.5 41.1906,189.167 39,190.5C 37.0961,193.923 36.2628,197.59 36.5,201.5C 34.0821,199.122 33.9155,196.455 36,193.5C 37.4129,189.252 40.2462,186.585 44.5,185.5 Z"
       id="path90" />
  </g>
  <g
     id="g91"
     style="fill:#f9f9f9;stroke:none">
    <path
       style="opacity:1;fill:#f9f9f9;stroke:none"
       fill="#bbbbbb"
       d="M 200.5,183.5 C 203.565,182.182 206.731,182.182 210,183.5C 210.499,188.489 210.666,193.489 210.5,198.5C 211.5,198.5 212.5,198.5 213.5,198.5C 212.713,200.104 211.38,200.771 209.5,200.5C 209.785,195.103 209.451,189.77 208.5,184.5C 205.914,183.52 203.247,183.187 200.5,183.5 Z"
       id="path91" />
  </g>
  <g
     id="g92"
     style="fill:#f9f9f9;stroke:none">
    <path
       style="opacity:1;fill:#f9f9f9;stroke:none"
       fill="#bbbbbb"
       d="M 373.5,218.5 C 373.666,208.161 373.5,197.828 373,187.5C 370.333,184.833 367.667,184.833 365,187.5C 364.83,197.675 364.33,207.675 363.5,217.5C 363.333,206.828 363.5,196.161 364,185.5C 367.596,183.899 370.929,184.232 374,186.5C 374.825,197.341 374.659,208.008 373.5,218.5 Z"
       id="path92" />
  </g>
  <g
     id="g93"
     style="fill:#f9f9f9;stroke:none">
    <path
       style="opacity:1;fill:#f9f9f9;stroke:none"
       fill="#cecece"
       d="M 54.5,184.5 C 62.2178,184.742 63.7178,188.076 59,194.5C 55.7154,192.863 52.2154,192.196 48.5,192.5C 51.8973,191.802 55.3973,191.135 59,190.5C 59.7805,189.056 59.6139,187.723 58.5,186.5C 56.9745,186.006 55.6412,185.339 54.5,184.5 Z"
       id="path93" />
  </g>
  <g
     id="g94"
     style="fill:#f9f9f9;stroke:none">
    <path
       style="opacity:1;fill:#f9f9f9;stroke:none"
       fill="#c6c6c6"
       d="M 294.5,186.5 C 295.239,191.369 297.905,192.702 302.5,190.5C 299.806,194.439 296.972,194.439 294,190.5C 293.235,188.934 293.402,187.601 294.5,186.5 Z"
       id="path94" />
  </g>
  <g
     id="g95"
     style="fill:#f9f9f9;stroke:none">
    <path
       style="opacity:1;fill:#f9f9f9;stroke:none"
       fill="#d4d4d4"
       d="M 183.5,183.5 C 184.793,182.842 186.293,182.508 188,182.5C 189.986,182.569 191.486,183.235 192.5,184.5C 192.829,199.343 192.496,214.01 191.5,228.5C 191.667,213.83 191.5,199.163 191,184.5C 188.619,183.565 186.119,183.232 183.5,183.5 Z"
       id="path95" />
  </g>
  <g
     id="g96"
     style="fill:#f9f9f9;stroke:none">
    <path
       style="opacity:1;fill:#f9f9f9;stroke:none"
       fill="#acacac"
       d="M 515.5,189.5 C 515.5,190.5 515.5,191.5 515.5,192.5C 516.5,192.5 517.5,192.5 518.5,192.5C 516.815,193.844 515.148,193.677 513.5,192C 514.066,191.005 514.733,190.172 515.5,189.5 Z"
       id="path96" />
  </g>
  <g
     id="g97"
     style="fill:#f9f9f9;stroke:none">
    <path
       style="opacity:1;fill:#f9f9f9;stroke:none"
       fill="#bfbfbf"
       d="M 330.5,198.5 C 325.175,197.239 319.842,197.239 314.5,198.5C 317.017,197.027 319.85,196.36 323,196.5C 325.866,196.3 328.366,196.967 330.5,198.5 Z"
       id="path97" />
  </g>
  <g
     id="g98"
     style="fill:#f9f9f9;stroke:none">
    <path
       style="opacity:1;fill:#f9f9f9;stroke:none"
       fill="#fcfcfc"
       d="M 93.5,203.5 C 94.3382,203.842 94.6716,204.508 94.5,205.5C 94.7892,209.106 94.4558,212.606 93.5,216C 87.8431,216.499 82.1764,216.666 76.5,216.5C 76.2322,218.099 76.5655,219.432 77.5,220.5C 78.5,220.833 79.1667,221.5 79.5,222.5C 79.8417,223.338 80.5084,223.672 81.5,223.5C 84.3054,224.319 87.3054,224.819 90.5,225C 91.727,226.587 91.3937,227.921 89.5,229C 84.8065,229.564 80.1398,229.397 75.5,228.5C 73.9731,228.573 72.9731,227.906 72.5,226.5C 66.4148,216.851 67.4148,208.017 75.5,200C 82.372,196.453 88.372,197.619 93.5,203.5 Z M 84.5,205.5 C 84.5,206.5 84.5,207.5 84.5,208.5C 82.5,208.5 80.5,208.5 78.5,208.5C 79.2601,204.809 81.2601,203.809 84.5,205.5 Z"
       id="path98" />
  </g>
  <g
     id="g99"
     style="fill:#f9f9f9;stroke:none">
    <path
       style="opacity:1;fill:#f9f9f9;stroke:none"
       fill="#9e9e9e"
       d="M 140.5,197.5 C 141.884,196.199 143.384,196.199 145,197.5C 145.801,200.367 145.634,203.034 144.5,205.5C 144.663,203.143 144.497,200.81 144,198.5C 142.989,197.663 141.822,197.33 140.5,197.5 Z"
       id="path99" />
  </g>
  <g
     id="g100"
     style="fill:#f9f9f9;stroke:none">
    <path
       style="opacity:1;fill:#f9f9f9;stroke:none"
       fill="#fdfdfd"
       d="M 173.5,203.5 C 174.727,212.05 174.727,220.55 173.5,229C 170.484,229.664 167.651,229.164 165,227.5C 154.015,231.929 148.515,228.262 148.5,216.5C 150.5,215.167 152.167,213.5 153.5,211.5C 157.048,210.241 160.715,209.407 164.5,209C 165.791,207.708 165.791,206.542 164.5,205.5C 161.877,203.735 158.877,203.068 155.5,203.5C 153.314,203.489 152.481,202.489 153,200.5C 160.575,195.918 167.409,196.918 173.5,203.5 Z M 160.5,216.5 C 161.5,216.5 162.5,216.5 163.5,216.5C 163.66,218.199 163.494,219.866 163,221.5C 160.833,223 159.333,222.5 158.5,220C 158.978,218.697 159.645,217.531 160.5,216.5 Z"
       id="path100" />
  </g>
  <g
     id="g101"
     style="fill:#f9f9f9;stroke:none">
    <path
       style="opacity:1;fill:#f9f9f9;stroke:none"
       fill="#c0c0c0"
       d="M 215.5,197.5 C 217.628,196.371 219.961,196.204 222.5,197C 224.751,197.748 226.084,199.248 226.5,201.5C 223.595,198.22 219.929,196.887 215.5,197.5 Z"
       id="path101" />
  </g>
  <g
     id="g102"
     style="fill:#f9f9f9;stroke:none">
    <path
       style="opacity:1;fill:#f9f9f9;stroke:none"
       fill="#f8f8f8"
       d="M 261.5,205.5 C 262.088,214.103 261.422,222.436 259.5,230.5C 256.71,230.778 254.21,230.111 252,228.5C 245.067,232.748 239.401,231.414 235,224.5C 233.931,214.061 238.764,208.727 249.5,208.5C 250.5,208.5 251.5,208.5 252.5,208.5C 252.737,207.209 252.404,206.209 251.5,205.5C 249.22,203.777 246.553,203.111 243.5,203.5C 239.065,204.078 237.732,202.411 239.5,198.5C 247.591,194.826 254.758,196.16 261,202.5C 261.483,203.448 261.649,204.448 261.5,205.5 Z M 247.5,216.5 C 248.833,216.5 250.167,216.5 251.5,216.5C 252.075,219.571 250.909,221.571 248,222.5C 244.897,220.888 244.73,218.888 247.5,216.5 Z"
       id="path102" />
  </g>
  <g
     id="g103"
     style="fill:#f9f9f9;stroke:none">
    <path
       style="opacity:1;fill:#f9f9f9;stroke:none"
       fill="#aaaaaa"
       d="M 284.5,197.5 C 285.884,196.199 287.384,196.199 289,197.5C 289.801,200.367 289.634,203.034 288.5,205.5C 288.802,202.941 288.468,200.607 287.5,198.5C 286.791,197.596 285.791,197.263 284.5,197.5 Z"
       id="path103" />
  </g>
  <g
     id="g104"
     style="fill:#f9f9f9;stroke:none">
    <path
       style="opacity:1;fill:#f9f9f9;stroke:none"
       fill="#d1d1d1"
       d="M 303.5,198.5 C 303.5,199.5 303.5,200.5 303.5,201.5C 302.596,200.791 302.263,199.791 302.5,198.5C 299.833,198.5 297.167,198.5 294.5,198.5C 294.823,205.022 294.49,211.355 293.5,217.5C 293.334,210.825 293.5,204.158 294,197.5C 296.737,196.39 299.571,196.223 302.5,197C 303.056,197.383 303.389,197.883 303.5,198.5 Z"
       id="path104" />
  </g>
  <g
     id="g105"
     style="fill:#f9f9f9;stroke:none">
    <path
       style="opacity:1;fill:#f9f9f9;stroke:none"
       fill="#fbfbfb"
       d="M 330.5,198.5 C 331.5,200.167 332.833,201.5 334.5,202.5C 336.163,204.438 336.829,206.772 336.5,209.5C 336.666,215.842 336.5,222.175 336,228.5C 335.283,229.044 334.783,229.711 334.5,230.5C 331.756,230.752 329.256,230.085 327,228.5C 317.768,233.137 311.601,230.471 308.5,220.5C 310.542,212.791 315.542,208.791 323.5,208.5C 324.5,208.5 325.5,208.5 326.5,208.5C 326.768,206.901 326.434,205.568 325.5,204.5C 322.946,203.612 320.279,203.279 317.5,203.5C 314.09,203.616 312.756,201.95 313.5,198.5C 313.833,198.5 314.167,198.5 314.5,198.5C 319.842,197.239 325.175,197.239 330.5,198.5 Z M 323.5,215.5 C 326.902,216.558 327.402,218.558 325,221.5C 322.695,222.939 320.862,222.439 319.5,220C 320.357,217.981 321.691,216.481 323.5,215.5 Z"
       id="path105" />
  </g>
  <g
     id="g106"
     style="fill:#f9f9f9;stroke:none">
    <path
       style="opacity:1;fill:#f9f9f9;stroke:none"
       fill="#f8f8f8"
       d="M 405.5,202.5 C 406.674,203.514 407.34,204.847 407.5,206.5C 407.817,209.572 407.484,212.572 406.5,215.5C 401.035,216.124 395.702,216.79 390.5,217.5C 390.392,219.514 391.058,221.18 392.5,222.5C 396.298,223.483 400.298,223.817 404.5,223.5C 404.483,225.565 404.15,227.565 403.5,229.5C 389.906,233.195 381.906,228.028 379.5,214C 379.773,210.003 381.106,206.503 383.5,203.5C 385.167,202.5 386.5,201.167 387.5,199.5C 394.133,196.358 400.133,197.358 405.5,202.5 Z M 393.5,204.5 C 395.544,205.031 397.211,206.198 398.5,208C 396.098,208.814 393.765,208.647 391.5,207.5C 392.193,206.482 392.859,205.482 393.5,204.5 Z"
       id="path106" />
  </g>
  <g
     id="g107"
     style="fill:#f9f9f9;stroke:none">
    <path
       style="opacity:1;fill:#f9f9f9;stroke:none"
       fill="#cbcbcb"
       d="M 405.5,202.5 C 400.133,197.358 394.133,196.358 387.5,199.5C 392.562,195.712 397.895,195.545 403.5,199C 404.823,199.816 405.489,200.983 405.5,202.5 Z"
       id="path107" />
  </g>
  <g
     id="g108"
     style="fill:#f9f9f9;stroke:none">
    <path
       style="opacity:1;fill:#f9f9f9;stroke:none"
       fill="#fbfbfb"
       d="M 422.5,197.5 C 426.391,197.609 430.058,198.609 433.5,200.5C 436.375,198.453 439.375,198.12 442.5,199.5C 442.667,213.171 442.5,226.837 442,240.5C 439.506,243.086 437.006,243.086 434.5,240.5C 434.5,236.167 434.5,231.833 434.5,227.5C 432.901,227.232 431.568,227.566 430.5,228.5C 430.5,228.833 430.5,229.167 430.5,229.5C 423.757,232.246 418.757,230.246 415.5,223.5C 414.646,217.879 414.313,212.212 414.5,206.5C 415.768,202.233 418.435,199.233 422.5,197.5 Z M 431.5,220.5 C 429.5,221.833 427.5,221.833 425.5,220.5C 424.588,216.869 424.421,213.203 425,209.5C 426.224,206.527 428.224,205.86 431,207.5C 431.499,211.821 431.666,216.154 431.5,220.5 Z"
       id="path108" />
  </g>
  <g
     id="g109"
     style="fill:#f9f9f9;stroke:none">
    <path
       style="opacity:1;fill:#f9f9f9;stroke:none"
       fill="#c0c0c0"
       d="M 422.5,197.5 C 425.999,196.159 429.499,196.492 433,198.5C 435.899,196.609 439.066,196.109 442.5,197C 443.252,197.671 443.586,198.504 443.5,199.5C 443.167,199.5 442.833,199.5 442.5,199.5C 439.375,198.12 436.375,198.453 433.5,200.5C 430.058,198.609 426.391,197.609 422.5,197.5 Z"
       id="path109" />
  </g>
  <g
     id="g110"
     style="fill:#f9f9f9;stroke:none">
    <path
       style="opacity:1;fill:#f9f9f9;stroke:none"
       fill="#fafafa"
       d="M 514.5,197.5 C 520.494,197.162 525.494,199.162 529.5,203.5C 530.505,207.521 530.505,211.521 529.5,215.5C 523.896,216.454 518.229,216.788 512.5,216.5C 512.232,218.099 512.566,219.432 513.5,220.5C 514.5,220.833 515.167,221.5 515.5,222.5C 515.842,223.338 516.508,223.672 517.5,223.5C 520.305,224.319 523.305,224.819 526.5,225C 527.581,226.711 527.248,228.211 525.5,229.5C 520.914,232.054 516.248,231.887 511.5,229C 509.676,228.34 508.343,227.173 507.5,225.5C 504.856,219.835 503.856,213.835 504.5,207.5C 504.75,205.326 505.75,203.659 507.5,202.5C 508.833,201.833 509.833,200.833 510.5,199.5C 511.514,198.326 512.847,197.66 514.5,197.5 Z M 516.5,204.5 C 518.384,204.712 519.717,205.712 520.5,207.5C 518.5,208.833 516.5,208.833 514.5,207.5C 515.193,206.482 515.859,205.482 516.5,204.5 Z"
       id="path110" />
  </g>
  <g
     id="g111"
     style="fill:#f9f9f9;stroke:none">
    <path
       style="opacity:1;fill:#f9f9f9;stroke:none"
       fill="#fdfdfd"
       d="M 115.5,206.5 C 115.158,207.338 114.492,207.672 113.5,207.5C 111.896,208.287 111.229,209.62 111.5,211.5C 110.673,216.651 110.173,221.984 110,227.5C 109.261,228.574 108.261,229.241 107,229.5C 105.594,228.586 104.094,227.92 102.5,227.5C 102.5,218.5 102.5,209.5 102.5,200.5C 105.942,197.537 108.275,198.204 109.5,202.5C 112.084,202.431 114.084,201.265 115.5,199C 119.088,198.389 120.254,199.889 119,203.5C 117.855,204.636 116.688,205.636 115.5,206.5 Z"
       id="path111" />
  </g>
  <g
     id="g112"
     style="fill:#f9f9f9;stroke:none">
    <path
       style="opacity:1;fill:#f9f9f9;stroke:none"
       fill="#cecece"
       d="M 108.5,197.5 C 109.756,197.904 110.923,198.571 112,199.5C 113.406,198.586 114.906,197.92 116.5,197.5C 117.822,197.33 118.989,197.663 120,198.5C 120.602,201.221 120.435,203.887 119.5,206.5C 118.167,206.5 116.833,206.5 115.5,206.5C 116.688,205.636 117.855,204.636 119,203.5C 120.254,199.889 119.088,198.389 115.5,199C 114.084,201.265 112.084,202.431 109.5,202.5C 108.275,198.204 105.942,197.537 102.5,200.5C 102.414,199.504 102.748,198.671 103.5,198C 105.134,197.506 106.801,197.34 108.5,197.5 Z"
       id="path112" />
  </g>
  <g
     id="g113"
     style="fill:#f9f9f9;stroke:none">
    <path
       style="opacity:1;fill:#f9f9f9;stroke:none"
       fill="#a6a6a6"
       d="M 116.5,197.5 C 117.884,196.199 119.384,196.199 121,197.5C 121.667,200.167 121.667,202.833 121,205.5C 120.617,206.056 120.117,206.389 119.5,206.5C 120.435,203.887 120.602,201.221 120,198.5C 118.989,197.663 117.822,197.33 116.5,197.5 Z"
       id="path113" />
  </g>
  <g
     id="g114"
     style="fill:#f9f9f9;stroke:none">
    <path
       style="opacity:1;fill:#f9f9f9;stroke:none"
       fill="#fcfcfc"
       d="M 139.5,206.5 C 138.71,207.401 137.71,208.068 136.5,208.5C 135.816,214.901 135.15,221.401 134.5,228C 131.727,230.046 129.227,229.879 127,227.5C 126.333,218.5 126.333,209.5 127,200.5C 130.171,197.751 132.671,198.418 134.5,202.5C 136.517,201.826 138.183,200.659 139.5,199C 143.088,198.389 144.254,199.889 143,203.5C 142.015,204.814 140.848,205.814 139.5,206.5 Z"
       id="path114" />
  </g>
  <g
     id="g115"
     style="fill:#f9f9f9;stroke:none">
    <path
       style="opacity:1;fill:#f9f9f9;stroke:none"
       fill="#fdfdfd"
       d="M 284.5,197.5 C 285.791,197.263 286.791,197.596 287.5,198.5C 288.171,201.986 287.171,204.653 284.5,206.5C 282.859,207.147 281.526,208.147 280.5,209.5C 279.672,215.653 279.172,221.987 279,228.5C 278.005,229.066 277.172,229.733 276.5,230.5C 275.167,230.5 273.833,230.5 272.5,230.5C 272.217,229.711 271.717,229.044 271,228.5C 270.333,218.833 270.333,209.167 271,199.5C 273.041,198.577 275.208,198.244 277.5,198.5C 277.921,203.277 279.254,203.61 281.5,199.5C 281.973,198.094 282.973,197.427 284.5,197.5 Z"
       id="path115" />
  </g>
  <g
     id="g116"
     style="fill:#f9f9f9;stroke:none">
    <path
       style="opacity:1;fill:#f9f9f9;stroke:none"
       fill="#fdfdfd"
       d="M 303.5,201.5 C 303.666,210.506 303.5,219.506 303,228.5C 302.005,229.066 301.172,229.733 300.5,230.5C 298.208,230.756 296.041,230.423 294,229.5C 293.501,225.514 293.334,221.514 293.5,217.5C 294.49,211.355 294.823,205.022 294.5,198.5C 297.167,198.5 299.833,198.5 302.5,198.5C 302.263,199.791 302.596,200.791 303.5,201.5 Z"
       id="path116" />
  </g>
  <g
     id="g117"
     style="fill:#f9f9f9;stroke:none">
    <path
       style="opacity:1;fill:#f9f9f9;stroke:none"
       fill="#c1c1c1"
       d="M 330.5,198.5 C 332.833,198.833 334.167,200.167 334.5,202.5C 332.833,201.5 331.5,200.167 330.5,198.5 Z"
       id="path117" />
  </g>
  <g
     id="g118"
     style="fill:#f9f9f9;stroke:none">
    <path
       style="opacity:1;fill:#f9f9f9;stroke:none"
       fill="#fbfbfb"
       d="M 461.5,218.5 C 461.818,220.818 463.152,222.152 465.5,222.5C 467.443,222.213 468.777,221.213 469.5,219.5C 470.328,213.347 470.828,207.013 471,200.5C 474.305,197.665 477.138,197.999 479.5,201.5C 479.5,209.167 479.5,216.833 479.5,224.5C 479.648,227.352 478.314,229.019 475.5,229.5C 473.783,228.283 471.95,227.283 470,226.5C 461.919,231.413 455.753,229.746 451.5,221.5C 451.186,213.913 451.519,206.413 452.5,199C 454.899,198.289 457.232,198.456 459.5,199.5C 460.167,205.988 460.833,212.321 461.5,218.5 Z"
       id="path118" />
  </g>
  <g
     id="g119"
     style="fill:#f9f9f9;stroke:none">
    <path
       style="opacity:1;fill:#f9f9f9;stroke:none"
       fill="#c9c9c9"
       d="M 93.5,203.5 C 88.372,197.619 82.372,196.453 75.5,200C 67.4148,208.017 66.4148,216.851 72.5,226.5C 65.7038,219.599 64.8705,211.932 70,203.5C 75.5972,196.199 82.4306,194.699 90.5,199C 92.1412,200.129 93.1412,201.629 93.5,203.5 Z"
       id="path119" />
  </g>
  <g
     id="g120"
     style="fill:#f9f9f9;stroke:none">
    <path
       style="opacity:1;fill:#f9f9f9;stroke:none"
       fill="#b4b4b4"
       d="M 108.5,197.5 C 106.801,197.34 105.134,197.506 103.5,198C 102.748,198.671 102.414,199.504 102.5,200.5C 102.5,209.5 102.5,218.5 102.5,227.5C 103.167,228.5 103.833,229.5 104.5,230.5C 103.504,230.586 102.671,230.252 102,229.5C 101.333,218.833 101.333,208.167 102,197.5C 104.274,196.189 106.44,196.189 108.5,197.5 Z"
       id="path120" />
  </g>
  <g
     id="g121"
     style="fill:#f9f9f9;stroke:none">
    <path
       style="opacity:1;fill:#f9f9f9;stroke:none"
       fill="#c2c2c2"
       d="M 514.5,197.5 C 518.595,196.011 522.595,196.511 526.5,199C 528.141,200.129 529.141,201.629 529.5,203.5C 525.494,199.162 520.494,197.162 514.5,197.5 Z"
       id="path121" />
  </g>
  <g
     id="g122"
     style="fill:#f9f9f9;stroke:none">
    <path
       style="opacity:1;fill:#f9f9f9;stroke:none"
       fill="#c5c5c5"
       d="M 140.5,197.5 C 141.822,197.33 142.989,197.663 144,198.5C 144.497,200.81 144.663,203.143 144.5,205.5C 143.081,206.451 141.415,206.784 139.5,206.5C 140.848,205.814 142.015,204.814 143,203.5C 144.254,199.889 143.088,198.389 139.5,199C 138.183,200.659 136.517,201.826 134.5,202.5C 132.671,198.418 130.171,197.751 127,200.5C 126.333,209.5 126.333,218.5 127,227.5C 129.227,229.879 131.727,230.046 134.5,228C 135.15,221.401 135.816,214.901 136.5,208.5C 136.666,215.508 136.5,222.508 136,229.5C 132.667,230.833 129.333,230.833 126,229.5C 125.333,218.833 125.333,208.167 126,197.5C 128.064,196.409 130.231,196.242 132.5,197C 133.399,198.236 134.566,199.07 136,199.5C 137.406,198.586 138.906,197.92 140.5,197.5 Z"
       id="path122" />
  </g>
  <g
     id="g123"
     style="fill:#f9f9f9;stroke:none">
    <path
       style="opacity:1;fill:#f9f9f9;stroke:none"
       fill="#cacaca"
       d="M 173.5,203.5 C 167.409,196.918 160.575,195.918 153,200.5C 152.481,202.489 153.314,203.489 155.5,203.5C 154.739,204.391 153.739,205.058 152.5,205.5C 150.789,203.76 149.956,201.76 150,199.5C 156.748,195.765 163.581,195.599 170.5,199C 172.141,200.129 173.141,201.629 173.5,203.5 Z"
       id="path123" />
  </g>
  <g
     id="g124"
     style="fill:#f9f9f9;stroke:none">
    <path
       style="opacity:1;fill:#f9f9f9;stroke:none"
       fill="#c7c7c7"
       d="M 313.5,198.5 C 312.756,201.95 314.09,203.616 317.5,203.5C 316.22,204.931 314.553,205.598 312.5,205.5C 312.643,203.738 312.309,202.071 311.5,200.5C 311.855,199.478 312.522,198.811 313.5,198.5 Z"
       id="path124" />
  </g>
  <g
     id="g125"
     style="fill:#f9f9f9;stroke:none">
    <path
       style="opacity:1;fill:#f9f9f9;stroke:none"
       fill="#b4b4b4"
       d="M 461.5,218.5 C 460.833,212.321 460.167,205.988 459.5,199.5C 457.232,198.456 454.899,198.289 452.5,199C 451.519,206.413 451.186,213.913 451.5,221.5C 450.834,217.681 450.501,213.681 450.5,209.5C 450.537,205.075 451.204,200.909 452.5,197C 455.23,196.272 457.897,196.438 460.5,197.5C 461.497,204.468 461.83,211.468 461.5,218.5 Z"
       id="path125" />
  </g>
  <g
     id="g126"
     style="fill:#f9f9f9;stroke:none">
    <path
       style="opacity:1;fill:#f9f9f9;stroke:none"
       fill="#c1c1c1"
       d="M 281.5,199.5 C 279.254,203.61 277.921,203.277 277.5,198.5C 275.208,198.244 273.041,198.577 271,199.5C 270.333,209.167 270.333,218.833 271,228.5C 271.717,229.044 272.217,229.711 272.5,230.5C 271.504,230.586 270.671,230.252 270,229.5C 269.333,218.833 269.333,208.167 270,197.5C 272.064,196.409 274.231,196.242 276.5,197C 277.9,198.438 279.567,199.271 281.5,199.5 Z"
       id="path126" />
  </g>
  <g
     id="g127"
     style="fill:#f9f9f9;stroke:none">
    <path
       style="opacity:1;fill:#f9f9f9;stroke:none"
       fill="#c3c3c3"
       d="M 387.5,199.5 C 386.5,201.167 385.167,202.5 383.5,203.5C 383.833,201.167 385.167,199.833 387.5,199.5 Z"
       id="path127" />
  </g>
  <g
     id="g128"
     style="fill:#f9f9f9;stroke:none">
    <path
       style="opacity:1;fill:#f9f9f9;stroke:none"
       fill="#d6d6d6"
       d="M 442.5,199.5 C 442.833,199.5 443.167,199.5 443.5,199.5C 443.5,214.167 443.5,228.833 443.5,243.5C 440.833,243.5 438.167,243.5 435.5,243.5C 434.89,242.609 434.557,241.609 434.5,240.5C 437.006,243.086 439.506,243.086 442,240.5C 442.5,226.837 442.667,213.171 442.5,199.5 Z"
       id="path128" />
  </g>
  <g
     id="g129"
     style="fill:#f9f9f9;stroke:none">
    <path
       style="opacity:1;fill:#f9f9f9;stroke:none"
       fill="#bcbcbc"
       d="M 488.5,196.5 C 491.448,196.223 494.281,196.556 497,197.5C 497.82,208.41 497.653,219.243 496.5,230C 495,230.167 493.5,230.333 492,230.5C 490.019,230.371 488.353,229.704 487,228.5C 486.333,218.5 486.333,208.5 487,198.5C 487.717,197.956 488.217,197.289 488.5,196.5 Z"
       id="path129" />
  </g>
  <g
     id="g130"
     style="fill:#f9f9f9;stroke:none">
    <path
       style="opacity:1;fill:#f9f9f9;stroke:none"
       fill="#fefefe"
       d="M 488.5,198.5 C 490.92,198.292 493.253,198.626 495.5,199.5C 496.665,208.482 496.832,217.482 496,226.5C 493.811,230.133 491.144,230.466 488,227.5C 487.194,217.756 487.361,208.089 488.5,198.5 Z"
       id="path130" />
  </g>
  <g
     id="g131"
     style="fill:#f9f9f9;stroke:none">
    <path
       style="opacity:1;fill:#f9f9f9;stroke:none"
       fill="#c5c5c5"
       d="M 510.5,199.5 C 509.833,200.833 508.833,201.833 507.5,202.5C 507.5,200.5 508.5,199.5 510.5,199.5 Z"
       id="path131" />
  </g>
  <g
     id="g132"
     style="fill:#f9f9f9;stroke:none">
    <path
       style="opacity:1;fill:#f9f9f9;stroke:none"
       fill="#c9c9c9"
       d="M 479.5,201.5 C 477.138,197.999 474.305,197.665 471,200.5C 470.828,207.013 470.328,213.347 469.5,219.5C 469.334,212.159 469.5,204.826 470,197.5C 472.737,196.39 475.571,196.223 478.5,197C 479.38,198.356 479.714,199.856 479.5,201.5 Z"
       id="path132" />
  </g>
  <g
     id="g133"
     style="fill:#f9f9f9;stroke:none">
    <path
       style="opacity:1;fill:#f9f9f9;stroke:none"
       fill="#d4d4d4"
       d="M 48.5,201.5 C 51.4734,202.987 54.4734,204.487 57.5,206C 59.4641,207.451 60.7974,209.284 61.5,211.5C 57.2396,207.893 52.9063,204.56 48.5,201.5 Z"
       id="path133" />
  </g>
  <g
     id="g134"
     style="fill:#f9f9f9;stroke:none">
    <path
       style="opacity:1;fill:#f9f9f9;stroke:none"
       fill="#bbbbbb"
       d="M 239.5,198.5 C 237.732,202.411 239.065,204.078 243.5,203.5C 239.621,206.735 237.288,205.735 236.5,200.5C 237.005,199.081 238.005,198.415 239.5,198.5 Z"
       id="path134" />
  </g>
  <g
     id="g135"
     style="fill:#f9f9f9;stroke:none">
    <path
       style="opacity:1;fill:#f9f9f9;stroke:none"
       fill="#d5d5d5"
       d="M 287.5,198.5 C 288.468,200.607 288.802,202.941 288.5,205.5C 287.432,206.434 286.099,206.768 284.5,206.5C 287.171,204.653 288.171,201.986 287.5,198.5 Z"
       id="path135" />
  </g>
  <g
     id="g136"
     style="fill:#f9f9f9;stroke:none">
    <path
       style="opacity:1;fill:#f9f9f9;stroke:none"
       fill="#c9c9c9"
       d="M 36.5,201.5 C 38.7267,203.607 40.7267,205.94 42.5,208.5C 39.0922,207.422 37.0922,205.089 36.5,201.5 Z"
       id="path136" />
  </g>
  <g
     id="g137"
     style="fill:#f9f9f9;stroke:none">
    <path
       style="opacity:1;fill:#f9f9f9;stroke:none"
       fill="#bababa"
       d="M 325.5,204.5 C 326.434,205.568 326.768,206.901 326.5,208.5C 325.5,208.5 324.5,208.5 323.5,208.5C 324.806,207.533 325.473,206.199 325.5,204.5 Z"
       id="path137" />
  </g>
  <g
     id="g138"
     style="fill:#f9f9f9;stroke:none">
    <path
       style="opacity:1;fill:#f9f9f9;stroke:none"
       fill="#a6a6a6"
       d="M 392.5,203.5 C 397.833,202.833 400.167,205.167 399.5,210.5C 396.167,210.5 392.833,210.5 389.5,210.5C 389.15,207.547 390.15,205.213 392.5,203.5 Z M 393.5,204.5 C 392.859,205.482 392.193,206.482 391.5,207.5C 393.765,208.647 396.098,208.814 398.5,208C 397.211,206.198 395.544,205.031 393.5,204.5 Z"
       id="path138" />
  </g>
  <g
     id="g139"
     style="fill:#f9f9f9;stroke:none">
    <path
       style="opacity:1;fill:#f9f9f9;stroke:none"
       fill="#a4a4a4"
       d="M 515.5,203.5 C 520.833,202.833 523.167,205.167 522.5,210.5C 519.167,210.5 515.833,210.5 512.5,210.5C 512.273,207.562 513.273,205.229 515.5,203.5 Z M 516.5,204.5 C 515.859,205.482 515.193,206.482 514.5,207.5C 516.5,208.833 518.5,208.833 520.5,207.5C 519.717,205.712 518.384,204.712 516.5,204.5 Z"
       id="path139" />
  </g>
  <g
     id="g140"
     style="fill:#f9f9f9;stroke:none">
    <path
       style="opacity:1;fill:#f9f9f9;stroke:none"
       fill="#b9b9b9"
       d="M 251.5,205.5 C 252.404,206.209 252.737,207.209 252.5,208.5C 251.5,208.5 250.5,208.5 249.5,208.5C 250.551,207.778 251.218,206.778 251.5,205.5 Z"
       id="path140" />
  </g>
  <g
     id="g141"
     style="fill:#f9f9f9;stroke:none">
    <path
       style="opacity:1;fill:#f9f9f9;stroke:none"
       fill="#c0c0c0"
       d="M 164.5,205.5 C 165.791,206.542 165.791,207.708 164.5,209C 160.715,209.407 157.048,210.241 153.5,211.5C 156.185,209.351 159.352,208.017 163,207.5C 164.03,207.164 164.53,206.497 164.5,205.5 Z"
       id="path141" />
  </g>
  <g
     id="g144"
     style="fill:#f9f9f9;stroke:none">
    <path
       style="opacity:1;fill:#f9f9f9;stroke:none"
       fill="#bcbcbc"
       d="M 336.5,209.5 C 337.654,215.987 337.821,222.654 337,229.5C 336.329,230.252 335.496,230.586 334.5,230.5C 334.783,229.711 335.283,229.044 336,228.5C 336.5,222.175 336.666,215.842 336.5,209.5 Z"
       id="path144" />
  </g>
  <g
     id="g145"
     style="fill:#f9f9f9;stroke:none">
    <path
       style="opacity:1;fill:#f9f9f9;stroke:none"
       fill="#c9c9c9"
       d="M 261.5,205.5 C 262.181,213.235 262.848,221.068 263.5,229C 262.437,230.188 261.103,230.688 259.5,230.5C 261.422,222.436 262.088,214.103 261.5,205.5 Z"
       id="path145" />
  </g>
  <g
     id="g146"
     style="fill:#f9f9f9;stroke:none">
    <path
       style="opacity:1;fill:#f9f9f9;stroke:none"
       fill="#d2d2d2"
       d="M 61.5,211.5 C 64.2271,215.69 63.8938,219.69 60.5,223.5C 61.2721,219.548 61.6054,215.548 61.5,211.5 Z"
       id="path146" />
  </g>
  <g
     id="g147"
     style="fill:#f9f9f9;stroke:none">
    <path
       style="opacity:1;fill:#f9f9f9;stroke:none"
       fill="#aaaaaa"
       d="M 113.5,207.5 C 112.899,214.965 112.232,222.298 111.5,229.5C 111.5,223.5 111.5,217.5 111.5,211.5C 111.229,209.62 111.896,208.287 113.5,207.5 Z"
       id="path147" />
  </g>
  <g
     id="g148"
     style="fill:#f9f9f9;stroke:none">
    <path
       style="opacity:1;fill:#f9f9f9;stroke:none"
       fill="#cecece"
       d="M 153.5,211.5 C 152.167,213.5 150.5,215.167 148.5,216.5C 149.167,213.833 150.833,212.167 153.5,211.5 Z"
       id="path148" />
  </g>
  <g
     id="g149"
     style="fill:#f9f9f9;stroke:none">
    <path
       style="opacity:1;fill:#f9f9f9;stroke:none"
       fill="#cacaca"
       d="M 414.5,206.5 C 414.313,212.212 414.646,217.879 415.5,223.5C 411.939,218.016 411.606,212.35 414.5,206.5 Z"
       id="path149" />
  </g>
  <g
     id="g150"
     style="fill:#f9f9f9;stroke:none">
    <path
       style="opacity:1;fill:#f9f9f9;stroke:none"
       fill="#c3c3c3"
       d="M 228.5,207.5 C 229.655,214.655 229.822,221.988 229,229.5C 225.731,230.818 222.565,230.818 219.5,229.5C 222.448,229.777 225.281,229.444 228,228.5C 228.5,221.508 228.666,214.508 228.5,207.5 Z"
       id="path150" />
  </g>
  <g
     id="g151"
     style="fill:#f9f9f9;stroke:none">
    <path
       style="opacity:1;fill:#f9f9f9;stroke:none"
       fill="#9d9d9d"
       d="M 432.5,220.5 C 432.167,220.5 431.833,220.5 431.5,220.5C 431.666,216.154 431.499,211.821 431,207.5C 428.224,205.86 426.224,206.527 425,209.5C 424.421,213.203 424.588,216.869 425.5,220.5C 425.167,220.5 424.833,220.5 424.5,220.5C 421.909,215.755 421.909,210.921 424.5,206C 427.54,203.845 430.373,204.012 433,206.5C 433.815,211.352 433.648,216.019 432.5,220.5 Z"
       id="path151" />
  </g>
  <g
     id="g152"
     style="fill:#f9f9f9;stroke:none">
    <path
       style="opacity:1;fill:#f9f9f9;stroke:none"
       fill="#c5c5c5"
       d="M 94.5,205.5 C 96.301,209.159 96.6343,212.993 95.5,217C 89.5092,217.499 83.5092,217.666 77.5,217.5C 77.5,218.5 77.5,219.5 77.5,220.5C 76.5655,219.432 76.2322,218.099 76.5,216.5C 82.1764,216.666 87.8431,216.499 93.5,216C 94.4558,212.606 94.7892,209.106 94.5,205.5 Z"
       id="path152" />
  </g>
  <g
     id="g153"
     style="fill:#f9f9f9;stroke:none">
    <path
       style="opacity:1;fill:#f9f9f9;stroke:none"
       fill="#b5b5b5"
       d="M 322.5,214.5 C 324.167,214.5 325.833,214.5 327.5,214.5C 328.689,219.445 327.023,222.778 322.5,224.5C 317.19,221.233 317.19,217.899 322.5,214.5 Z M 323.5,215.5 C 321.691,216.481 320.357,217.981 319.5,220C 320.862,222.439 322.695,222.939 325,221.5C 327.402,218.558 326.902,216.558 323.5,215.5 Z"
       id="path153" />
  </g>
  <g
     id="g154"
     style="fill:#f9f9f9;stroke:none">
    <path
       style="opacity:1;fill:#f9f9f9;stroke:none"
       fill="#c9c9c9"
       d="M 407.5,206.5 C 408.482,209.962 408.815,213.629 408.5,217.5C 402.5,217.5 396.5,217.5 390.5,217.5C 395.702,216.79 401.035,216.124 406.5,215.5C 407.484,212.572 407.817,209.572 407.5,206.5 Z"
       id="path154" />
  </g>
  <g
     id="g155"
     style="fill:#f9f9f9;stroke:none">
    <path
       style="opacity:1;fill:#f9f9f9;stroke:none"
       fill="#c7c7c7"
       d="M 529.5,203.5 C 530.268,204.263 530.768,205.263 531,206.5C 531.499,210.152 531.665,213.818 531.5,217.5C 525.5,217.5 519.5,217.5 513.5,217.5C 513.5,218.5 513.5,219.5 513.5,220.5C 512.566,219.432 512.232,218.099 512.5,216.5C 518.229,216.788 523.896,216.454 529.5,215.5C 530.505,211.521 530.505,207.521 529.5,203.5 Z"
       id="path155" />
  </g>
  <g
     id="g156"
     style="fill:#f9f9f9;stroke:none">
    <path
       style="opacity:1;fill:#f9f9f9;stroke:none"
       fill="#bbbbbb"
       d="M 200.5,183.5 C 200.333,198.17 200.5,212.837 201,227.5C 203.418,229.68 206.084,230.013 209,228.5C 209.171,221.321 209.671,214.321 210.5,207.5C 210.666,214.841 210.5,222.174 210,229.5C 206.667,230.833 203.333,230.833 200,229.5C 199.172,213.994 199.339,198.661 200.5,183.5 Z"
       id="path156" />
  </g>
  <g
     id="g157"
     style="fill:#f9f9f9;stroke:none">
    <path
       style="opacity:1;fill:#f9f9f9;stroke:none"
       fill="#a5a5a5"
       d="M 303.5,198.5 C 304.659,208.658 304.825,218.992 304,229.5C 302.989,230.337 301.822,230.67 300.5,230.5C 301.172,229.733 302.005,229.066 303,228.5C 303.5,219.506 303.666,210.506 303.5,201.5C 303.5,200.5 303.5,199.5 303.5,198.5 Z"
       id="path157" />
  </g>
  <g
     id="g158"
     style="fill:#f9f9f9;stroke:none">
    <path
       style="opacity:1;fill:#f9f9f9;stroke:none"
       fill="#a2a2a2"
       d="M 159.5,214.5 C 161.5,214.5 163.5,214.5 165.5,214.5C 165.664,217.187 165.497,219.854 165,222.5C 163.192,224.396 161.025,224.896 158.5,224C 155.753,220.553 156.087,217.386 159.5,214.5 Z M 160.5,216.5 C 159.645,217.531 158.978,218.697 158.5,220C 159.333,222.5 160.833,223 163,221.5C 163.494,219.866 163.66,218.199 163.5,216.5C 162.5,216.5 161.5,216.5 160.5,216.5 Z"
       id="path158" />
  </g>
  <g
     id="g159"
     style="fill:#f9f9f9;stroke:none">
    <path
       style="opacity:1;fill:#f9f9f9;stroke:none"
       fill="#b3b3b3"
       d="M 280.5,209.5 C 280.666,216.175 280.5,222.842 280,229.5C 278.989,230.337 277.822,230.67 276.5,230.5C 277.172,229.733 278.005,229.066 279,228.5C 279.172,221.987 279.672,215.653 280.5,209.5 Z"
       id="path159" />
  </g>
  <g
     id="g160"
     style="fill:#f9f9f9;stroke:none">
    <path
       style="opacity:1;fill:#f9f9f9;stroke:none"
       fill="#b0b0b0"
       d="M 247.5,214.5 C 252.675,213.507 254.509,215.507 253,220.5C 249.434,225.967 246.267,225.8 243.5,220C 244.007,217.455 245.341,215.621 247.5,214.5 Z M 247.5,216.5 C 244.73,218.888 244.897,220.888 248,222.5C 250.909,221.571 252.075,219.571 251.5,216.5C 250.167,216.5 248.833,216.5 247.5,216.5 Z"
       id="path160" />
  </g>
  <g
     id="g161"
     style="fill:#f9f9f9;stroke:none">
    <path
       style="opacity:1;fill:#f9f9f9;stroke:none"
       fill="#b1b1b1"
       d="M 424.5,220.5 C 424.833,220.5 425.167,220.5 425.5,220.5C 427.5,221.833 429.5,221.833 431.5,220.5C 431.833,220.5 432.167,220.5 432.5,220.5C 432.441,222.722 431.275,223.722 429,223.5C 426.817,223.478 425.317,222.478 424.5,220.5 Z"
       id="path161" />
  </g>
  <g
     id="g162"
     style="fill:#f9f9f9;stroke:none">
    <path
       style="opacity:1;fill:#f9f9f9;stroke:none"
       fill="#a8a8a8"
       d="M 79.5,222.5 C 84.6186,221.897 89.2853,222.564 93.5,224.5C 89.6002,223.57 85.6002,223.237 81.5,223.5C 80.5084,223.672 79.8417,223.338 79.5,222.5 Z"
       id="path162" />
  </g>
  <g
     id="g163"
     style="fill:#f9f9f9;stroke:none">
    <path
       style="opacity:1;fill:#f9f9f9;stroke:none"
       fill="#b2b2b2"
       d="M 392.5,222.5 C 397.167,222.5 401.833,222.5 406.5,222.5C 406.5,224.833 406.5,227.167 406.5,229.5C 405.5,229.5 404.5,229.5 403.5,229.5C 404.15,227.565 404.483,225.565 404.5,223.5C 400.298,223.817 396.298,223.483 392.5,222.5 Z"
       id="path163" />
  </g>
  <g
     id="g164"
     style="fill:#f9f9f9;stroke:none">
    <path
       style="opacity:1;fill:#f9f9f9;stroke:none"
       fill="#cdcdcd"
       d="M 504.5,207.5 C 503.856,213.835 504.856,219.835 507.5,225.5C 504.73,223.634 503.23,220.968 503,217.5C 502.163,213.852 502.663,210.519 504.5,207.5 Z"
       id="path164" />
  </g>
  <g
     id="g165"
     style="fill:#f9f9f9;stroke:none">
    <path
       style="opacity:1;fill:#f9f9f9;stroke:none"
       fill="#dcdcdc"
       d="M 517.5,223.5 C 521.167,223.5 524.833,223.5 528.5,223.5C 528.675,225.621 528.341,227.621 527.5,229.5C 526.833,229.5 526.167,229.5 525.5,229.5C 527.248,228.211 527.581,226.711 526.5,225C 523.305,224.819 520.305,224.319 517.5,223.5 Z"
       id="path165" />
  </g>
  <g
     id="g166"
     style="fill:#f9f9f9;stroke:none">
    <path
       style="opacity:1;fill:#f9f9f9;stroke:none"
       fill="#d3d3d3"
       d="M 51.5,221.5 C 51.0825,222.222 50.4158,222.722 49.5,223C 45.8333,223.333 42.1667,223.667 38.5,224C 37.2475,225.828 37.2475,227.661 38.5,229.5C 36.6891,229.428 35.3557,228.595 34.5,227C 35.0239,224.587 36.0239,222.42 37.5,220.5C 42.1275,222.168 46.7942,222.501 51.5,221.5 Z"
       id="path166" />
  </g>
  <g
     id="g168"
     style="fill:#f9f9f9;stroke:none">
    <path
       style="opacity:1;fill:#f9f9f9;stroke:none"
       fill="#bebebe"
       d="M 371.5,224.5 C 371.573,226.027 370.906,227.027 369.5,227.5C 369.427,225.973 370.094,224.973 371.5,224.5 Z"
       id="path168" />
  </g>
  <g
     id="g169"
     style="fill:#f9f9f9;stroke:none">
    <path
       style="opacity:1;fill:#f9f9f9;stroke:none"
       fill="#b2b2b2"
       d="M 515.5,222.5 C 520.167,222.5 524.833,222.5 529.5,222.5C 529.261,224.467 529.594,226.301 530.5,228C 529.756,229.039 528.756,229.539 527.5,229.5C 528.341,227.621 528.675,225.621 528.5,223.5C 524.833,223.5 521.167,223.5 517.5,223.5C 516.508,223.672 515.842,223.338 515.5,222.5 Z"
       id="path169" />
  </g>
  <g
     id="g170"
     style="fill:#f9f9f9;stroke:none">
    <path
       style="opacity:1;fill:#f9f9f9;stroke:none"
       fill="#b3b3b3"
       d="M 355.5,222.5 C 353.832,224.479 353.166,226.812 353.5,229.5C 351.937,226.555 352.437,223.888 355,221.5C 355.399,221.728 355.565,222.062 355.5,222.5 Z"
       id="path170" />
  </g>
  <g
     id="g171"
     style="fill:#f9f9f9;stroke:none">
    <path
       style="opacity:1;fill:#f9f9f9;stroke:none"
       fill="#d7d7d7"
       d="M 430.5,228.5 C 431.568,227.566 432.901,227.232 434.5,227.5C 434.5,231.833 434.5,236.167 434.5,240.5C 433.517,236.702 433.183,232.702 433.5,228.5C 432.5,228.5 431.5,228.5 430.5,228.5 Z"
       id="path171" />
  </g>
  <g
     id="g172"
     style="fill:#f9f9f9;stroke:none">
    <path
       style="opacity:1;fill:#f9f9f9;stroke:none"
       fill="#cacaca"
       d="M 451.5,221.5 C 455.753,229.746 461.919,231.413 470,226.5C 471.95,227.283 473.783,228.283 475.5,229.5C 478.314,229.019 479.648,227.352 479.5,224.5C 481.587,228.643 480.253,230.643 475.5,230.5C 473.392,230.14 471.392,229.473 469.5,228.5C 463.435,232.725 457.935,232.058 453,226.5C 451.991,224.975 451.491,223.308 451.5,221.5 Z"
       id="path172" />
  </g>
  <g
     id="g173"
     style="fill:#f9f9f9;stroke:none">
    <path
       style="opacity:1;fill:#f9f9f9;stroke:none"
       fill="#d3d3d3"
       d="M 60.5,223.5 C 60.4894,225.017 59.8228,226.184 58.5,227C 52.3274,230.987 45.9941,231.821 39.5,229.5C 47.5047,230.717 54.5047,228.717 60.5,223.5 Z"
       id="path173" />
  </g>
  <g
     id="g174"
     style="fill:#f9f9f9;stroke:none">
    <path
       style="opacity:1;fill:#f9f9f9;stroke:none"
       fill="#d6d6d6"
       d="M 81.5,223.5 C 85.6002,223.237 89.6002,223.57 93.5,224.5C 94.7279,226.01 94.7279,227.51 93.5,229C 87.2567,232.403 81.2567,232.237 75.5,228.5C 80.1398,229.397 84.8065,229.564 89.5,229C 91.3937,227.921 91.727,226.587 90.5,225C 87.3054,224.819 84.3054,224.319 81.5,223.5 Z"
       id="path174" />
  </g>
  <g
     id="g175"
     style="fill:#f9f9f9;stroke:none">
    <path
       style="opacity:1;fill:#f9f9f9;stroke:none"
       fill="#d5d5d5"
       d="M 111.5,211.5 C 111.5,217.5 111.5,223.5 111.5,229.5C 109.393,230.468 107.059,230.802 104.5,230.5C 103.833,229.5 103.167,228.5 102.5,227.5C 104.094,227.92 105.594,228.586 107,229.5C 108.261,229.241 109.261,228.574 110,227.5C 110.173,221.984 110.673,216.651 111.5,211.5 Z"
       id="path175" />
  </g>
  <g
     id="g176"
     style="fill:#f9f9f9;stroke:none">
    <path
       style="opacity:1;fill:#f9f9f9;stroke:none"
       fill="#9c9c9c"
       d="M 430.5,229.5 C 430.5,229.167 430.5,228.833 430.5,228.5C 431.5,228.5 432.5,228.5 433.5,228.5C 433.183,232.702 433.517,236.702 434.5,240.5C 434.557,241.609 434.89,242.609 435.5,243.5C 434.25,243.423 433.417,242.756 433,241.5C 433.102,237.044 432.268,233.044 430.5,229.5 Z"
       id="path176" />
  </g>
  <g
     id="g177"
     style="stroke:none">
    <path
       style="opacity:1;stroke:none"
       fill="#f0f0f0"
       d="M 173.5,245.5 C 180.833,246.167 188.167,246.833 195.5,247.5C 179.824,247.479 164.157,247.813 148.5,248.5C 145.167,247.833 141.833,247.167 138.5,246.5C 150.157,245.894 161.824,245.561 173.5,245.5 Z"
       id="path177" />
  </g>
  <g
     id="g178"
     style="stroke:none">
    <path
       style="opacity:1;stroke:none"
       fill="#d4d4d4"
       d="M 390.5,245.5 C 383.5,246.167 376.5,246.833 369.5,247.5C 311.5,246.172 253.5,246.172 195.5,247.5C 188.167,246.833 180.833,246.167 173.5,245.5C 209.322,244.045 245.322,243.378 281.5,243.5C 318.011,243.383 354.344,244.05 390.5,245.5 Z"
       id="path178" />
  </g>
  <g
     id="g179"
     style="stroke:none">
    <path
       style="opacity:1;stroke:none"
       fill="#bcbcbc"
       d="M 393.5,245.5 C 399.69,245.177 405.69,245.51 411.5,246.5C 411.083,247.124 410.416,247.457 409.5,247.5C 404.012,246.925 398.679,246.258 393.5,245.5 Z"
       id="path179" />
  </g>
  <g
     id="g180"
     style="stroke:none">
    <path
       style="opacity:1;stroke:none"
       fill="#dbdbdb"
       d="M 138.5,246.5 C 141.833,247.167 145.167,247.833 148.5,248.5C 130.345,249.717 112.011,250.383 93.5,250.5C 89.4862,250.666 85.4862,250.499 81.5,250C 82.7375,249.768 83.7375,249.268 84.5,248.5C 102.5,247.833 120.5,247.167 138.5,246.5 Z"
       id="path180" />
  </g>
  <g
     id="g181"
     style="stroke:none">
    <path
       style="opacity:1;stroke:none"
       fill="#fdfdfd"
       d="M 390.5,245.5 C 391.5,245.5 392.5,245.5 393.5,245.5C 398.679,246.258 404.012,246.925 409.5,247.5C 410.416,247.457 411.083,247.124 411.5,246.5C 416.5,246.5 421.5,246.5 426.5,246.5C 423.5,247.167 420.5,247.833 417.5,248.5C 401.51,247.803 385.51,247.47 369.5,247.5C 376.5,246.833 383.5,246.167 390.5,245.5 Z"
       id="path181" />
  </g>
  <g
     id="g182"
     style="stroke:none">
    <path
       style="opacity:1;stroke:none"
       fill="#dddddd"
       d="M 426.5,246.5 C 436.169,246.789 445.835,247.122 455.5,247.5C 456.609,248.29 457.942,248.79 459.5,249C 455.179,249.499 450.846,249.666 446.5,249.5C 436.652,249.827 426.986,249.494 417.5,248.5C 420.5,247.833 423.5,247.167 426.5,246.5 Z"
       id="path182" />
  </g>
  <g
     id="g183"
     style="stroke:none">
    <path
       style="opacity:1;stroke:none"
       fill="#c4c4c4"
       d="M 455.5,247.5 C 458.385,247.194 461.052,247.527 463.5,248.5C 463.5,249.167 463.5,249.833 463.5,250.5C 457.642,250.822 451.975,250.489 446.5,249.5C 450.846,249.666 455.179,249.499 459.5,249C 457.942,248.79 456.609,248.29 455.5,247.5 Z"
       id="path183" />
  </g>
  <g
     id="g184"
     style="stroke:none">
    <path
       style="opacity:1;stroke:none"
       fill="#e4e4e4"
       d="M 463.5,248.5 C 468.5,248.5 473.5,248.5 478.5,248.5C 479.609,249.29 480.942,249.79 482.5,250C 478.848,250.499 475.182,250.665 471.5,250.5C 468.833,250.5 466.167,250.5 463.5,250.5C 463.5,249.833 463.5,249.167 463.5,248.5 Z"
       id="path184" />
  </g>
  <g
     id="g185"
     style="stroke:none">
    <path
       style="opacity:1;stroke:none"
       fill="#cacaca"
       d="M 78.5,249.5 C 78.5,250.167 78.5,250.833 78.5,251.5C 63.5036,252.424 48.5036,252.924 33.5,253C 35.6234,251.806 37.9568,251.14 40.5,251C 53.1529,250.101 65.8195,249.601 78.5,249.5 Z"
       id="path185" />
  </g>
  <g
     id="g186"
     style="stroke:none">
    <path
       style="opacity:1;stroke:none"
       fill="#bebebe"
       d="M 84.5,248.5 C 83.7375,249.268 82.7375,249.768 81.5,250C 85.4862,250.499 89.4862,250.666 93.5,250.5C 88.6946,251.487 83.6946,251.821 78.5,251.5C 78.5,250.833 78.5,250.167 78.5,249.5C 80.2646,248.539 82.2646,248.205 84.5,248.5 Z"
       id="path186" />
  </g>
  <g
     id="g187"
     style="stroke:none">
    <path
       style="opacity:1;stroke:none"
       fill="#c8c8c8"
       d="M 478.5,248.5 C 493.492,249.366 508.492,250.2 523.5,251C 526.043,251.14 528.377,251.806 530.5,253C 510.666,252.765 490.999,251.931 471.5,250.5C 475.182,250.665 478.848,250.499 482.5,250C 480.942,249.79 479.609,249.29 478.5,248.5 Z"
       id="path187" />
  </g>
</svg>
