<?xml version="1.0" encoding="UTF-8"?>
<!DOCTYPE svg PUBLIC "-//W3C//DTD SVG 1.1//EN" "http://www.w3.org/Graphics/SVG/1.1/DTD/svg11.dtd">
<svg xmlns="http://www.w3.org/2000/svg" version="1.1" width="1920px" height="1200px" style="shape-rendering:geometricPrecision; text-rendering:geometricPrecision; image-rendering:optimizeQuality; fill-rule:evenodd; clip-rule:evenodd" xmlns:xlink="http://www.w3.org/1999/xlink">
<g><path style="opacity:1" fill="#fefffe" d="M 210.5,404.5 C 230.531,404.118 250.531,404.618 270.5,406C 277.733,408.309 285.066,410.309 292.5,412C 295.324,414.613 298.658,416.279 302.5,417C 314.727,423.769 320.727,434.269 320.5,448.5C 320.414,453.212 319.914,457.879 319,462.5C 316.88,466.639 315.213,470.973 314,475.5C 304.985,489.456 294.485,502.29 282.5,514C 274.722,521.457 266.722,528.457 258.5,535C 246.619,543.196 234.452,551.029 222,558.5C 214,562.5 206,566.5 198,570.5C 191.448,572.907 184.781,574.907 178,576.5C 175.432,576.006 173.098,575.006 171,573.5C 170.233,569.406 170.566,565.406 172,561.5C 183.966,550.197 196.799,540.03 210.5,531C 230.484,515.174 248.484,497.34 264.5,477.5C 266.246,473.673 268.246,470.007 270.5,466.5C 274.264,459.624 273.931,453.124 269.5,447C 265.859,445.901 262.525,444.234 259.5,442C 252.555,440.906 245.889,439.072 239.5,436.5C 215.231,434.16 190.897,432.993 166.5,433C 156.939,430.558 154.939,425.225 160.5,417C 164.617,416.083 168.284,414.416 171.5,412C 184.706,409.761 197.706,407.261 210.5,404.5 Z"/></g>
<g><path style="opacity:1" fill="#fefffe" d="M 326.5,532.5 C 351.359,531.809 376.025,533.643 400.5,538C 409.804,539.094 417.637,542.927 424,549.5C 425.565,556.069 423.065,559.903 416.5,561C 390.14,562.079 363.807,563.746 337.5,566C 330.246,566.616 324.079,569.45 319,574.5C 318.274,579.239 318.607,583.905 320,588.5C 322.393,593.349 325.059,598.016 328,602.5C 347.239,624.654 366.239,646.988 385,669.5C 386.589,673.688 388.923,677.354 392,680.5C 395.367,686.403 397.701,692.737 399,699.5C 399.861,706.968 399.195,714.301 397,721.5C 394.414,725.048 391.914,728.714 389.5,732.5C 385.988,734.757 382.654,737.257 379.5,740C 374.688,741.044 370.355,743.044 366.5,746C 347.888,751.328 328.888,753.495 309.5,752.5C 293.47,752.526 277.47,751.859 261.5,750.5C 249.939,748.143 238.273,746.309 226.5,745C 221.794,743.204 217.294,741.037 213,738.5C 210.617,731.459 212.784,726.792 219.5,724.5C 246.466,722.758 273.466,721.592 300.5,721C 311.439,718.975 322.439,717.308 333.5,716C 347.429,712.262 350.429,704.095 342.5,691.5C 328.586,672.09 313.42,653.757 297,636.5C 291.711,627.97 285.711,619.97 279,612.5C 274.232,604.199 270.232,595.533 267,586.5C 266.178,578.445 266.512,570.445 268,562.5C 271.086,557.41 274.919,552.91 279.5,549C 286.009,545.245 292.676,541.745 299.5,538.5C 308.746,536.362 317.746,534.362 326.5,532.5 Z"/></g>
<g><path style="opacity:1" fill="#fefffe" d="M 147.5,585.5 C 173.548,585.012 198.881,588.846 223.5,597C 227.269,599.429 231.269,601.429 235.5,603C 240,606.167 243.833,610 247,614.5C 251.255,626.697 251.589,639.03 248,651.5C 241.695,666.783 233.362,680.783 223,693.5C 211.484,705.683 199.317,717.183 186.5,728C 180.556,731.611 174.889,735.611 169.5,740C 158.994,745.64 148.661,751.64 138.5,758C 122.68,766.554 106.347,774.054 89.5,780.5C 77.0724,785.086 64.4058,789.086 51.5,792.5C 43.574,794.262 35.574,794.762 27.5,794C 25.4039,792.066 24.4039,789.566 24.5,786.5C 25.4854,781.552 26.6521,776.552 28,771.5C 39.4911,749.644 51.4911,727.977 64,706.5C 65,705.833 66,705.167 67,704.5C 70.0062,699.159 73.0062,693.825 76,688.5C 87.2717,672.226 98.9384,656.226 111,640.5C 117.191,633.909 124.691,631.909 133.5,634.5C 133.666,639.511 133.499,644.511 133,649.5C 129.805,653.206 127.639,657.539 126.5,662.5C 123.836,665.275 122.003,668.608 121,672.5C 120.075,673.047 119.242,673.713 118.5,674.5C 112.702,685.46 106.702,696.293 100.5,707C 96.3627,715.441 92.3627,723.941 88.5,732.5C 88.0188,735.083 87.3521,737.583 86.5,740C 89.6335,741.57 92.9668,741.903 96.5,741C 123.053,731.047 146.386,716.38 166.5,697C 167.448,696.517 168.448,696.351 169.5,696.5C 169.351,695.448 169.517,694.448 170,693.5C 181.525,682.846 191.025,670.68 198.5,657C 204.474,642.438 200.474,632.104 186.5,626C 174.91,621.734 162.91,619.401 150.5,619C 128.826,618.833 107.159,618.333 85.5,617.5C 80.3669,616.565 75.3669,615.232 70.5,613.5C 69.6239,610.201 69.4572,606.868 70,603.5C 72.3288,601.84 74.6621,600.173 77,598.5C 100.113,591.417 123.613,587.084 147.5,585.5 Z"/></g>
<g><path style="opacity:1" fill="#fefffe" d="M 527.5,589.5 C 557.074,589.171 586.574,589.505 616,590.5C 616.831,598.888 616.497,607.221 615,615.5C 613.609,619.556 611.109,622.722 607.5,625C 583.883,626.293 560.216,626.96 536.5,627C 535.941,627.725 535.608,628.558 535.5,629.5C 537.934,632.223 540.601,634.723 543.5,637C 548.216,640.363 553.216,643.363 558.5,646C 561.833,649 565.167,652 568.5,655C 575.854,659.698 583.187,664.364 590.5,669C 597.017,674.17 601.517,680.67 604,688.5C 605.25,692.746 606.083,697.079 606.5,701.5C 605.396,710 603.563,718.334 601,726.5C 598.617,728.385 596.784,730.718 595.5,733.5C 592.362,734.805 590.029,736.971 588.5,740C 584.104,741.241 580.104,743.241 576.5,746C 572.558,746.993 568.558,747.66 564.5,748C 538.594,748.828 512.761,748.661 487,747.5C 486.101,737.107 486.434,726.773 488,716.5C 489.34,715.132 490.674,713.799 492,712.5C 514.469,711.682 536.969,711.182 559.5,711C 566.859,710.379 568.859,706.879 565.5,700.5C 564.448,700.649 563.448,700.483 562.5,700C 544.432,687.239 526.432,674.572 508.5,662C 493.98,646.442 491.48,628.942 501,609.5C 507.07,599.061 515.903,592.394 527.5,589.5 Z"/></g>
<g><path style="opacity:1" fill="#fefffe" d="M 702.5,589.5 C 721.952,587.493 740.618,590.326 758.5,598C 761.331,600.32 764.331,602.487 767.5,604.5C 773.848,611.193 778.682,618.86 782,627.5C 784.287,636.56 785.787,645.726 786.5,655C 785.401,673.67 781.068,691.504 773.5,708.5C 768.526,714.988 763.692,721.655 759,728.5C 754.493,732.341 749.993,736.174 745.5,740C 741.634,741.217 738.301,743.217 735.5,746C 731.249,747.083 727.249,748.75 723.5,751C 701.819,755.622 680.153,755.622 658.5,751C 654.184,748.842 649.851,746.676 645.5,744.5C 641.221,741.724 637.388,738.391 634,734.5C 629.66,728.346 626.16,721.679 623.5,714.5C 615.871,680.195 622.371,649.195 643,621.5C 658.477,602.883 678.31,592.216 702.5,589.5 Z M 705.5,621.5 C 719.517,619.615 731.35,623.615 741,633.5C 744.563,640.164 746.397,647.331 746.5,655C 746.003,667.146 743.837,678.979 740,690.5C 737.099,694.859 734.766,699.525 733,704.5C 729.5,708.667 725.667,712.5 721.5,716C 716.048,717.875 710.715,719.875 705.5,722C 697.833,722.667 690.167,722.667 682.5,722C 666.438,716.23 659.438,704.73 661.5,687.5C 661.441,679.078 662.275,670.745 664,662.5C 667.985,648.006 675.818,636.173 687.5,627C 693.635,625.168 699.635,623.334 705.5,621.5 Z"/></g>
<g><path style="opacity:1" fill="#fefffe" d="M 817.5,589.5 C 829.505,589.333 841.505,589.5 853.5,590C 854,590.5 854.5,591 855,591.5C 855.617,598.869 855.283,606.202 854,613.5C 850.575,629.804 847.242,646.138 844,662.5C 841.387,680.886 838.554,699.22 835.5,717.5C 857.503,717.333 879.503,717.5 901.5,718C 904.903,720.419 906.57,723.753 906.5,728C 904.897,734.454 903.564,740.954 902.5,747.5C 864.839,748.5 827.173,748.833 789.5,748.5C 789.429,744.303 789.763,740.137 790.5,736C 800.078,687.204 809.078,638.371 817.5,589.5 Z"/></g>
<g><path style="opacity:1" fill="#fefffe" d="M 945.5,589.5 C 957.505,589.333 969.505,589.5 981.5,590C 983.619,592.109 984.619,594.775 984.5,598C 984.167,600.167 983.833,602.333 983.5,604.5C 974.435,652.125 965.601,699.792 957,747.5C 944.246,748.489 931.413,748.822 918.5,748.5C 919.339,736.455 920.672,724.455 922.5,712.5C 930.075,671.467 937.742,630.467 945.5,589.5 Z"/></g>
<g><path style="opacity:1" fill="#fefffe" d="M 1006.5,589.5 C 1039.5,589.333 1072.5,589.5 1105.5,590C 1123.25,591.325 1137.09,599.158 1147,613.5C 1148.62,618.371 1150.62,623.037 1153,627.5C 1154.56,639.451 1154.89,651.451 1154,663.5C 1151.25,678.589 1146.75,693.089 1140.5,707C 1137.15,711.471 1133.98,715.971 1131,720.5C 1114.23,738.12 1093.39,747.286 1068.5,748C 1043.17,748.667 1017.83,748.667 992.5,748C 991.603,743.216 991.769,738.383 993,733.5C 999.74,700.588 1006.07,667.588 1012,634.5C 1014.27,633.044 1016.77,632.21 1019.5,632C 1030.2,631.237 1040.87,631.404 1051.5,632.5C 1052.14,638.375 1051.14,643.875 1048.5,649C 1047.42,661.715 1045.26,674.215 1042,686.5C 1040.71,694.982 1039.54,703.482 1038.5,712C 1038.25,713.716 1037.59,715.216 1036.5,716.5C 1049.54,717.901 1062.54,717.734 1075.5,716C 1079.67,714.271 1083.67,712.271 1087.5,710C 1089.43,706.947 1091.93,704.447 1095,702.5C 1104.8,686.668 1110.3,669.335 1111.5,650.5C 1112.33,635.26 1105.66,625.427 1091.5,621C 1067.83,620.667 1044.17,620.333 1020.5,620C 1011.9,619.403 1006.74,614.903 1005,606.5C 1004.31,600.72 1004.81,595.054 1006.5,589.5 Z"/></g>
<g><path style="opacity:1" fill="#fefffe" d="M 1177.5,589.5 C 1183.26,589.149 1188.93,589.649 1194.5,591C 1196.89,591.976 1198.05,593.809 1198,596.5C 1197.56,636.162 1197.56,675.828 1198,715.5C 1212.2,691.764 1225.87,667.764 1239,643.5C 1246.49,642.127 1253.99,642.294 1261.5,644C 1263.52,646.058 1265.19,648.391 1266.5,651C 1271.8,672.467 1276.63,693.967 1281,715.5C 1281.34,712.807 1282.68,710.807 1285,709.5C 1288.17,701.167 1291.33,692.833 1294.5,684.5C 1307.04,657.798 1318.87,630.798 1330,603.5C 1333.18,599.834 1335.01,595.5 1335.5,590.5C 1341.22,589.005 1346.88,589.171 1352.5,591C 1356.17,594.496 1357.17,598.662 1355.5,603.5C 1341.46,634.242 1327.96,665.242 1315,696.5C 1312.32,702.03 1309.48,707.53 1306.5,713C 1305.17,717 1303.83,721 1302.5,725C 1299.54,728.865 1297.54,733.198 1296.5,738C 1294.27,740.457 1292.27,743.124 1290.5,746C 1281.75,750.468 1272.75,751.301 1263.5,748.5C 1258.53,723.883 1253.7,699.216 1249,674.5C 1248.59,674.043 1248.09,673.709 1247.5,673.5C 1234.18,697.307 1220.68,720.974 1207,744.5C 1197.69,750.281 1187.85,751.614 1177.5,748.5C 1176.17,695.433 1176.17,642.433 1177.5,589.5 Z"/></g>
<g><path style="opacity:1" fill="#fefffe" d="M 1424.5,589.5 C 1440.93,587.61 1456.59,590.11 1471.5,597C 1481.46,603.625 1489.3,612.125 1495,622.5C 1497.01,630.527 1499.01,638.527 1501,646.5C 1501.32,667.918 1497.15,688.418 1488.5,708C 1483.04,716.4 1477.21,724.567 1471,732.5C 1465.09,737.416 1458.93,741.916 1452.5,746C 1448.86,747.099 1445.53,748.766 1442.5,751C 1423.24,755.224 1403.9,755.557 1384.5,752C 1365.11,743.209 1353.11,728.209 1348.5,707C 1345.88,695.338 1345.88,683.671 1348.5,672C 1352.69,653.153 1360.19,635.986 1371,620.5C 1385.05,603.62 1402.88,593.286 1424.5,589.5 Z M 1431.5,610.5 C 1448.19,610.433 1461.69,616.766 1472,629.5C 1478.26,642.93 1479.76,656.93 1476.5,671.5C 1472.86,691.666 1463.53,708.499 1448.5,722C 1429.98,734.864 1410.31,736.864 1389.5,728C 1387.45,725.945 1385.11,724.279 1382.5,723C 1381.05,719.884 1378.88,717.384 1376,715.5C 1369.18,701.071 1367.84,686.071 1372,670.5C 1374.01,664.118 1376.18,657.785 1378.5,651.5C 1382.83,643.142 1388,635.475 1394,628.5C 1399.95,623.609 1406.45,619.442 1413.5,616C 1419.8,614.331 1425.8,612.498 1431.5,610.5 Z"/></g>
<g><path style="opacity:1" fill="#fefffe" d="M 1534.5,589.5 C 1559.89,588.89 1585.23,589.723 1610.5,592C 1616.1,594.151 1621.76,596.151 1627.5,598C 1631.39,601.388 1634.72,605.221 1637.5,609.5C 1645.39,635.327 1638.73,656.327 1617.5,672.5C 1613.46,673.669 1609.96,675.669 1607,678.5C 1601.92,680.029 1596.75,681.029 1591.5,681.5C 1592.04,685.575 1593.87,688.908 1597,691.5C 1600.08,696.594 1602.75,701.927 1605,707.5C 1610.38,716.732 1616.05,725.732 1622,734.5C 1624,738.5 1624,742.5 1622,746.5C 1619.16,748.037 1616.16,749.371 1613,750.5C 1609.57,749.268 1606.07,748.268 1602.5,747.5C 1589.88,727.191 1577.88,706.524 1566.5,685.5C 1557.19,684.502 1547.86,684.168 1538.5,684.5C 1538.04,690.35 1537.37,696.183 1536.5,702C 1533.86,718.337 1530.52,734.503 1526.5,750.5C 1524.23,750.859 1522.4,750.192 1521,748.5C 1519.82,749.684 1518.32,750.351 1516.5,750.5C 1512.59,749.189 1508.59,748.522 1504.5,748.5C 1508.45,725.007 1512.45,701.507 1516.5,678C 1522.74,648.491 1528.74,618.991 1534.5,589.5 Z M 1551.5,612.5 C 1565.84,612.333 1580.17,612.5 1594.5,613C 1615.01,613.167 1621.67,622.834 1614.5,642C 1612.27,644.457 1610.27,647.124 1608.5,650C 1606.36,650.973 1604.69,652.473 1603.5,654.5C 1598.84,656.216 1594.34,658.216 1590,660.5C 1574.56,662.253 1559.06,662.92 1543.5,662.5C 1546.57,645.929 1549.24,629.263 1551.5,612.5 Z"/></g>
<g><path style="opacity:1" fill="#fefffe" d="M 1677.5,589.5 C 1683.4,588.962 1689.07,589.795 1694.5,592C 1696.39,595.967 1696.89,600.134 1696,604.5C 1694.06,619.559 1691.9,634.559 1689.5,649.5C 1690.55,649.649 1691.55,649.483 1692.5,649C 1693.92,645.908 1696.26,643.908 1699.5,643C 1700.26,641.488 1701.26,640.154 1702.5,639C 1705.93,636.65 1709.26,634.15 1712.5,631.5C 1713.06,628.771 1714.73,627.271 1717.5,627C 1730.95,614.203 1744.95,602.203 1759.5,591C 1765.54,589.524 1771.54,589.857 1777.5,592C 1778.63,596.079 1778.8,600.245 1778,604.5C 1769.44,611.875 1760.94,619.375 1752.5,627C 1749.67,627.637 1747.67,629.304 1746.5,632C 1745.17,632.667 1743.83,633.333 1742.5,634C 1739.52,636.651 1736.85,639.651 1734.5,643C 1733.5,643.333 1732.5,643.667 1731.5,644C 1720.69,653.082 1710.02,662.249 1699.5,671.5C 1708.78,681.114 1718.11,690.78 1727.5,700.5C 1733.18,707.015 1738.68,713.681 1744,720.5C 1749.87,724.954 1754.87,730.287 1759,736.5C 1759.78,739.76 1759.62,742.927 1758.5,746C 1755.29,747.684 1751.96,749.184 1748.5,750.5C 1745.33,749.041 1742,748.208 1738.5,748C 1737.11,746.829 1736.27,745.329 1736,743.5C 1732.58,741.749 1730.25,739.082 1729,735.5C 1723.48,730.732 1718.14,725.732 1713,720.5C 1712.67,719.5 1712.33,718.5 1712,717.5C 1703.73,709.063 1695.57,700.396 1687.5,691.5C 1686.68,690.614 1685.68,690.281 1684.5,690.5C 1684.72,688.319 1683.88,686.653 1682,685.5C 1677.75,706.437 1673.91,727.437 1670.5,748.5C 1666.07,749.434 1661.57,750.1 1657,750.5C 1654.17,750.167 1651.33,749.833 1648.5,749.5C 1647.94,748.061 1647.6,746.561 1647.5,745C 1656.44,699.271 1664.77,653.438 1672.5,607.5C 1673.84,601.372 1675.51,595.372 1677.5,589.5 Z"/></g>
<g><path style="opacity:1" fill="#fefffe" d="M 1823.5,589.5 C 1847.07,589.173 1870.57,589.506 1894,590.5C 1894.67,596.5 1894.67,602.5 1894,608.5C 1892.98,609.354 1892.14,610.354 1891.5,611.5C 1870.17,612.333 1848.84,612.833 1827.5,613C 1820.91,614.688 1816.91,618.855 1815.5,625.5C 1816.39,629.422 1817.89,633.089 1820,636.5C 1837.52,654.022 1855.02,671.522 1872.5,689C 1882.22,706.4 1881.39,723.234 1870,739.5C 1867.8,741.334 1865.63,743.168 1863.5,745C 1853.95,749.653 1844.12,750.82 1834,748.5C 1828.48,748.993 1822.98,749.66 1817.5,750.5C 1805.95,748.066 1794.45,748.066 1783,750.5C 1782.17,750.167 1781.33,749.833 1780.5,749.5C 1779.25,746.193 1778.58,742.693 1778.5,739C 1778.67,735.833 1778.83,732.667 1779,729.5C 1779.5,729 1780,728.5 1780.5,728C 1802.5,727.167 1824.5,726.333 1846.5,725.5C 1854.84,721.67 1857.67,715.336 1855,706.5C 1853.27,704.772 1851.94,702.772 1851,700.5C 1838.83,688.333 1826.67,676.167 1814.5,664C 1813.1,662.562 1811.43,661.729 1809.5,661.5C 1804.56,655.931 1800.06,649.931 1796,643.5C 1790.03,626.682 1792.53,611.348 1803.5,597.5C 1806.57,596.214 1809.41,594.548 1812,592.5C 1816.01,591.673 1819.84,590.673 1823.5,589.5 Z"/></g>
</svg>
