<?xml version="1.0" encoding="UTF-8"?>
<!DOCTYPE svg PUBLIC "-//W3C//DTD SVG 1.1//EN" "http://www.w3.org/Graphics/SVG/1.1/DTD/svg11.dtd">
<svg xmlns="http://www.w3.org/2000/svg" version="1.1" width="840px" height="840px" style="shape-rendering:geometricPrecision; text-rendering:geometricPrecision; image-rendering:optimizeQuality; fill-rule:evenodd; clip-rule:evenodd" xmlns:xlink="http://www.w3.org/1999/xlink">
<g><path style="opacity:0.974" fill="#e0e0e0" d="M 452.5,267.5 C 454.253,269.223 456.253,270.723 458.5,272C 459.26,273.441 459.926,274.941 460.5,276.5C 460.957,277.298 461.624,277.631 462.5,277.5C 462.824,284.354 462.491,291.021 461.5,297.5C 460.883,297.389 460.383,297.056 460,296.5C 459.667,292.5 459.333,288.5 459,284.5C 457.071,280.877 455.237,277.21 453.5,273.5C 449.43,271.047 445.263,268.714 441,266.5C 436.49,268.352 431.99,270.185 427.5,272C 425.312,275.258 423.645,278.758 422.5,282.5C 425.685,289.553 429.852,295.886 435,301.5C 435.667,304.833 435.667,308.167 435,311.5C 433.644,312.38 432.144,312.714 430.5,312.5C 432.745,309.184 433.579,305.517 433,301.5C 430.695,299.811 428.529,298.144 426.5,296.5C 426.106,294.29 424.773,292.957 422.5,292.5C 422.5,292.167 422.5,291.833 422.5,291.5C 421.206,287.912 420.206,284.246 419.5,280.5C 420.174,277.158 420.84,273.825 421.5,270.5C 421.833,270.5 422.167,270.5 422.5,270.5C 424.655,268.011 427.322,266.344 430.5,265.5C 438.073,263.853 445.407,264.52 452.5,267.5 Z"/></g>
<g><path style="opacity:0.902" fill="#a5a5a5" d="M 452.5,265.5 C 452.5,266.167 452.5,266.833 452.5,267.5C 445.407,264.52 438.073,263.853 430.5,265.5C 430.5,264.833 430.5,264.167 430.5,263.5C 438.061,261.945 445.394,262.612 452.5,265.5 Z"/></g>
<g><path style="opacity:1" fill="#f0f0f0" d="M 461.5,297.5 C 461.5,300.167 461.5,302.833 461.5,305.5C 465.534,305.505 469.534,305.838 473.5,306.5C 473.884,308.293 475.05,309.293 477,309.5C 481.761,310.971 486.595,311.971 491.5,312.5C 492.167,312.5 492.833,312.5 493.5,312.5C 493.414,313.496 493.748,314.329 494.5,315C 496.066,315.765 497.399,315.598 498.5,314.5C 506.201,314.309 513.868,314.642 521.5,315.5C 521.62,316.586 522.287,317.253 523.5,317.5C 535.703,320.303 548.036,321.97 560.5,322.5C 562.833,322.5 565.167,322.5 567.5,322.5C 567.47,323.497 567.97,324.164 569,324.5C 573.764,320.436 579.264,318.102 585.5,317.5C 585.428,320.553 584.428,323.219 582.5,325.5C 581.596,326.209 581.263,327.209 581.5,328.5C 579.813,330.166 577.813,331.5 575.5,332.5C 571.418,331.944 567.418,331.778 563.5,332C 564.406,330.301 564.739,328.467 564.5,326.5C 547.174,325.604 529.841,325.437 512.5,326C 511.359,328.702 512.359,330.369 515.5,331C 525.174,331.533 534.84,331.366 544.5,330.5C 550.025,330.267 555.358,331.101 560.5,333C 544.406,334.602 528.406,335.769 512.5,336.5C 512.167,336.5 511.833,336.5 511.5,336.5C 508.013,333.107 503.68,331.441 498.5,331.5C 490.833,331.5 483.167,331.5 475.5,331.5C 475.5,333.5 475.5,335.5 475.5,337.5C 471.956,340.587 469.956,344.587 469.5,349.5C 468.699,351.042 468.366,352.708 468.5,354.5C 467.5,354.5 466.5,354.5 465.5,354.5C 465.5,358.833 465.5,363.167 465.5,367.5C 465.5,367.833 465.5,368.167 465.5,368.5C 464.503,368.47 463.836,368.97 463.5,370C 462.922,373.652 461.589,376.985 459.5,380C 458.227,382.216 458.227,384.383 459.5,386.5C 460.093,399.091 460.093,411.424 459.5,423.5C 461.299,427.423 462.799,431.423 464,435.5C 464.341,445.183 464.841,454.849 465.5,464.5C 464.859,466.042 463.859,467.376 462.5,468.5C 461.513,465.232 461.18,461.898 461.5,458.5C 460.022,458.238 458.689,458.571 457.5,459.5C 456.833,460.833 455.833,461.833 454.5,462.5C 453.672,467.132 453.172,471.798 453,476.5C 451.536,477.459 450.703,478.792 450.5,480.5C 452.684,482.664 454.017,485.331 454.5,488.5C 458.246,491.585 462.246,494.251 466.5,496.5C 467.5,496.833 468.167,497.5 468.5,498.5C 470.249,500.928 471.582,503.594 472.5,506.5C 471.954,508.135 471.62,509.801 471.5,511.5C 471.5,511.833 471.5,512.167 471.5,512.5C 469.137,513.741 467.137,515.408 465.5,517.5C 464.5,517.5 463.5,517.5 462.5,517.5C 461.85,517.196 461.183,516.863 460.5,516.5C 455.805,517.803 451.471,519.47 447.5,521.5C 444.5,521.5 441.5,521.5 438.5,521.5C 438.014,516.02 439.014,510.853 441.5,506C 440.792,502.71 439.792,499.544 438.5,496.5C 438.5,495.167 438.5,493.833 438.5,492.5C 440.5,491.833 441.833,490.5 442.5,488.5C 443.675,488.719 444.675,488.386 445.5,487.5C 442.767,482.02 441.767,476.354 442.5,470.5C 442.5,468.5 442.5,466.5 442.5,464.5C 441.659,462.621 441.325,460.621 441.5,458.5C 442.5,458.5 443.5,458.5 444.5,458.5C 444.507,455.962 444.841,453.462 445.5,451C 445.561,449.289 444.894,447.956 443.5,447C 441.132,446.21 438.966,445.044 437,443.5C 434.295,444.57 432.795,446.57 432.5,449.5C 430.833,450.5 429.5,451.833 428.5,453.5C 425.5,454.5 423.5,456.5 422.5,459.5C 421.728,460.694 420.728,461.694 419.5,462.5C 416.177,463.714 412.843,464.714 409.5,465.5C 408.209,465.263 407.209,465.596 406.5,466.5C 404.167,466.833 402.833,468.167 402.5,470.5C 401.539,472.265 401.205,474.265 401.5,476.5C 398.287,481.907 394.787,487.241 391,492.5C 390.308,493.437 390.475,494.103 391.5,494.5C 391.19,496.144 390.19,497.144 388.5,497.5C 384.233,501.428 379.9,505.428 375.5,509.5C 369.783,512.492 364.783,516.158 360.5,520.5C 360.5,521.833 360.5,523.167 360.5,524.5C 360.5,525.833 360.5,527.167 360.5,528.5C 360.5,529.833 360.5,531.167 360.5,532.5C 356.047,533.199 353.047,535.532 351.5,539.5C 350.473,541.194 349.139,542.527 347.5,543.5C 346.503,543.47 345.836,543.97 345.5,545C 344.851,548.875 344.018,552.709 343,556.5C 341.867,558.211 340.367,558.711 338.5,558C 336.407,554.697 334.741,551.197 333.5,547.5C 334.226,542.632 334.559,537.798 334.5,533C 334.316,531.624 333.649,530.791 332.5,530.5C 332.5,530.167 332.5,529.833 332.5,529.5C 329.366,522.104 331.699,518.104 339.5,517.5C 342.187,517.664 344.854,517.497 347.5,517C 351.406,513.101 354.906,508.934 358,504.5C 358.88,498.314 360.38,492.314 362.5,486.5C 362.5,486.167 362.5,485.833 362.5,485.5C 364.673,483.717 366.84,481.717 369,479.5C 370.669,477.831 371.502,475.831 371.5,473.5C 372.167,473.5 372.5,473.167 372.5,472.5C 376.433,471.219 379.433,468.886 381.5,465.5C 382.833,464.833 383.833,463.833 384.5,462.5C 385.5,462.5 386.5,462.5 387.5,462.5C 387.943,455.336 390.443,449.003 395,443.5C 397.075,437.771 399.242,432.104 401.5,426.5C 401.833,426.5 402.167,426.5 402.5,426.5C 403.496,426.586 404.329,426.252 405,425.5C 406.856,422.444 408.689,419.444 410.5,416.5C 410.557,415.391 410.89,414.391 411.5,413.5C 410.02,408.252 409.52,402.919 410,397.5C 412.057,392.243 414.557,387.243 417.5,382.5C 418.847,379.807 420.18,377.14 421.5,374.5C 426.757,366.863 426.757,359.196 421.5,351.5C 421.443,350.391 421.11,349.391 420.5,348.5C 419.771,345.02 418.771,341.686 417.5,338.5C 414.327,337.632 411.327,337.632 408.5,338.5C 407.5,338.5 406.5,338.5 405.5,338.5C 401.817,336.659 399.484,337.659 398.5,341.5C 385.82,341.345 373.154,341.678 360.5,342.5C 355.153,341.838 350.153,341.171 345.5,340.5C 341.319,339.09 337.153,339.424 333,341.5C 328.689,340.428 324.856,338.428 321.5,335.5C 327.209,330.588 333.876,327.588 341.5,326.5C 345.122,325.341 348.789,325.175 352.5,326C 353.167,326.667 353.833,327.333 354.5,328C 365.535,328.752 376.368,330.586 387,333.5C 390.772,331.173 394.939,329.673 399.5,329C 398.377,327.956 397.044,327.29 395.5,327C 387.809,326.571 380.143,326.571 372.5,327C 371.376,326.751 370.376,326.251 369.5,325.5C 371.332,324.943 372.665,323.943 373.5,322.5C 378.5,322.5 383.5,322.5 388.5,322.5C 390.259,322.954 392.259,322.954 394.5,322.5C 404.504,322 414.504,321.333 424.5,320.5C 425.612,319.735 426.279,318.735 426.5,317.5C 427.124,315.246 428.457,313.579 430.5,312.5C 432.144,312.714 433.644,312.38 435,311.5C 435.667,308.167 435.667,304.833 435,301.5C 429.852,295.886 425.685,289.553 422.5,282.5C 423.645,278.758 425.312,275.258 427.5,272C 431.99,270.185 436.49,268.352 441,266.5C 445.263,268.714 449.43,271.047 453.5,273.5C 455.237,277.21 457.071,280.877 459,284.5C 459.333,288.5 459.667,292.5 460,296.5C 460.383,297.056 460.883,297.389 461.5,297.5 Z"/></g>
<g><path style="opacity:0.557" fill="#555555" d="M 430.5,263.5 C 430.5,264.167 430.5,264.833 430.5,265.5C 427.322,266.344 424.655,268.011 422.5,270.5C 423.581,266.422 426.248,264.089 430.5,263.5 Z"/></g>
<g><path style="opacity:0.214" fill="#6c6c6c" d="M 452.5,265.5 C 453.675,265.281 454.675,265.614 455.5,266.5C 459.114,269.428 461.447,273.095 462.5,277.5C 461.624,277.631 460.957,277.298 460.5,276.5C 459.926,274.941 459.26,273.441 458.5,272C 456.253,270.723 454.253,269.223 452.5,267.5C 452.5,266.833 452.5,266.167 452.5,265.5 Z"/></g>
<g><path style="opacity:0.231" fill="#8e8e8e" d="M 421.5,270.5 C 420.84,273.825 420.174,277.158 419.5,280.5C 420.206,284.246 421.206,287.912 422.5,291.5C 421.12,292.706 419.953,292.373 419,290.5C 417.524,285.924 417.19,281.257 418,276.5C 418.586,273.981 419.753,271.981 421.5,270.5 Z"/></g>
<g><path style="opacity:0.953" fill="#4c4c4c" d="M 422.5,292.5 C 424.773,292.957 426.106,294.29 426.5,296.5C 424.167,296.167 422.833,294.833 422.5,292.5 Z"/></g>
<g><path style="opacity:1" fill="#cacaca" d="M 443.5,306.5 C 444.833,306.5 446.167,306.5 447.5,306.5C 447.739,309.915 447.072,313.081 445.5,316C 448.407,323.76 449.241,331.927 448,340.5C 446.204,341.767 444.371,341.767 442.5,340.5C 440.396,338.406 439.063,335.906 438.5,333C 435.77,332.058 434.437,333.058 434.5,336C 437.614,341.286 440.947,346.453 444.5,351.5C 439.067,360.127 435.067,359.461 432.5,349.5C 425.293,344.725 422.959,338.058 425.5,329.5C 429.71,327.792 433.21,325.126 436,321.5C 437.562,316.005 440.062,311.005 443.5,306.5 Z"/></g>
<g><path style="opacity:0.482" fill="#939393" d="M 473.5,306.5 C 477.85,307.37 482.183,308.37 486.5,309.5C 488.655,310.001 490.322,311.001 491.5,312.5C 486.595,311.971 481.761,310.971 477,309.5C 475.05,309.293 473.884,308.293 473.5,306.5 Z"/></g>
<g><path style="opacity:0.835" fill="#8a8a8a" d="M 493.5,312.5 C 495.403,312.796 497.07,313.463 498.5,314.5C 497.399,315.598 496.066,315.765 494.5,315C 493.748,314.329 493.414,313.496 493.5,312.5 Z"/></g>
<g><path style="opacity:1" fill="#919191" d="M 584.5,314.5 C 585.209,315.404 586.209,315.737 587.5,315.5C 587.871,319.003 586.871,322.003 584.5,324.5C 584.158,325.338 583.492,325.672 582.5,325.5C 584.428,323.219 585.428,320.553 585.5,317.5C 579.264,318.102 573.764,320.436 569,324.5C 567.97,324.164 567.47,323.497 567.5,322.5C 569.203,323.66 569.869,322.993 569.5,320.5C 573.691,319.738 577.358,317.904 580.5,315C 581.793,314.51 583.127,314.343 584.5,314.5 Z"/></g>
<g><path style="opacity:1" fill="#cbcbcb" d="M 426.5,317.5 C 426.279,318.735 425.612,319.735 424.5,320.5C 414.504,321.333 404.504,322 394.5,322.5C 397.322,321.493 400.322,320.66 403.5,320C 404.056,319.617 404.389,319.117 404.5,318.5C 409.704,318.298 414.871,318.631 420,319.5C 422.226,318.967 424.393,318.3 426.5,317.5 Z"/></g>
<g><path style="opacity:0.313" fill="#b9b9b9" d="M 521.5,315.5 C 534.079,317.781 546.745,319.614 559.5,321C 560.056,321.383 560.389,321.883 560.5,322.5C 548.036,321.97 535.703,320.303 523.5,317.5C 522.287,317.253 521.62,316.586 521.5,315.5 Z"/></g>
<g><path style="opacity:0.08" fill="#4d4d4d" d="M 584.5,324.5 C 586.871,322.003 587.871,319.003 587.5,315.5C 586.209,315.737 585.209,315.404 584.5,314.5C 586.265,313.539 588.265,313.205 590.5,313.5C 591.089,318.839 589.089,322.506 584.5,324.5 Z"/></g>
<g><path style="opacity:0.478" fill="#828282" d="M 404.5,318.5 C 404.389,319.117 404.056,319.617 403.5,320C 400.322,320.66 397.322,321.493 394.5,322.5C 392.259,322.954 390.259,322.954 388.5,322.5C 393.411,319.939 398.744,318.606 404.5,318.5 Z"/></g>
<g><path style="opacity:1" fill="#dedede" d="M 373.5,322.5 C 372.665,323.943 371.332,324.943 369.5,325.5C 370.376,326.251 371.376,326.751 372.5,327C 380.143,326.571 387.809,326.571 395.5,327C 397.044,327.29 398.377,327.956 399.5,329C 394.939,329.673 390.772,331.173 387,333.5C 376.368,330.586 365.535,328.752 354.5,328C 353.833,327.333 353.167,326.667 352.5,326C 348.789,325.175 345.122,325.341 341.5,326.5C 333.876,327.588 327.209,330.588 321.5,335.5C 324.856,338.428 328.689,340.428 333,341.5C 337.153,339.424 341.319,339.09 345.5,340.5C 344.817,342.176 343.483,342.843 341.5,342.5C 337.663,342.931 333.997,343.598 330.5,344.5C 328.167,344.5 325.833,344.5 323.5,344.5C 323.5,343.833 323.5,343.167 323.5,342.5C 322.595,340.089 321.095,338.089 319,336.5C 318.146,333.593 318.979,331.26 321.5,329.5C 324.144,328.604 326.81,327.771 329.5,327C 330.942,326.623 331.942,325.79 332.5,324.5C 342.839,324.666 353.172,324.5 363.5,324C 366.619,322.595 369.952,322.095 373.5,322.5 Z"/></g>
<g><path style="opacity:1" fill="#d3d3d3" d="M 575.5,332.5 C 575.5,333.5 575.5,334.5 575.5,335.5C 559.171,336.197 542.838,336.863 526.5,337.5C 521.654,337.499 516.988,337.166 512.5,336.5C 528.406,335.769 544.406,334.602 560.5,333C 555.358,331.101 550.025,330.267 544.5,330.5C 534.84,331.366 525.174,331.533 515.5,331C 512.359,330.369 511.359,328.702 512.5,326C 529.841,325.437 547.174,325.604 564.5,326.5C 564.739,328.467 564.406,330.301 563.5,332C 567.418,331.778 571.418,331.944 575.5,332.5 Z"/></g>
<g><path style="opacity:0.167" fill="#474747" d="M 318.5,327.5 C 317.7,329.573 316.367,331.24 314.5,332.5C 313.566,331.432 313.232,330.099 313.5,328.5C 315.216,328.371 316.883,328.038 318.5,327.5 Z"/></g>
<g><path style="opacity:0.943" fill="#f1f1f1" d="M 79.5,330.5 C 155.167,330.5 230.833,330.5 306.5,330.5C 307.256,333.394 308.923,335.394 311.5,336.5C 311.81,338.144 312.81,339.144 314.5,339.5C 314.738,342.148 316.072,343.982 318.5,345C 324.754,346.359 331.087,347.192 337.5,347.5C 342.443,346.535 347.443,345.868 352.5,345.5C 369.386,344.117 386.386,343.117 403.5,342.5C 407.223,343.41 410.889,344.743 414.5,346.5C 415.308,348.22 416.308,349.887 417.5,351.5C 418.688,355.377 420.021,359.211 421.5,363C 420.936,367.63 418.936,371.464 415.5,374.5C 414.548,376.045 414.215,377.712 414.5,379.5C 413.498,381.011 412.831,382.678 412.5,384.5C 409.676,386.8 407.843,389.8 407,393.5C 406.501,398.823 406.334,404.156 406.5,409.5C 406.5,412.167 406.5,414.833 406.5,417.5C 406.167,418.167 405.833,418.833 405.5,419.5C 402.262,421.156 400.262,423.823 399.5,427.5C 399.5,428.167 399.167,428.5 398.5,428.5C 395.778,433.331 392.612,437.997 389,442.5C 387.982,446.249 386.815,449.916 385.5,453.5C 383.952,453.821 383.285,454.821 383.5,456.5C 382.5,456.5 381.5,456.5 380.5,456.5C 380.241,460.068 378.241,461.401 374.5,460.5C 374.667,443.163 374.5,425.83 374,408.5C 373.933,405.953 373.099,403.786 371.5,402C 369.284,397.106 365.951,392.439 361.5,388C 357.673,386.254 354.007,384.254 350.5,382C 346.23,380.925 341.897,380.425 337.5,380.5C 334.509,380.834 332.176,379.834 330.5,377.5C 330.666,372.156 330.499,366.823 330,361.5C 329.5,361 329,360.5 328.5,360C 322.5,359.333 316.5,359.333 310.5,360C 310,360.5 309.5,361 309,361.5C 308.18,412.529 308.347,463.529 309.5,514.5C 314.5,514.5 319.5,514.5 324.5,514.5C 324.821,516.048 325.821,516.715 327.5,516.5C 327.5,517.5 327.5,518.5 327.5,519.5C 326.929,520.973 326.929,522.64 327.5,524.5C 326.903,524.735 326.57,525.235 326.5,526C 326.698,528.185 327.698,529.685 329.5,530.5C 329.5,531.833 329.5,533.167 329.5,534.5C 328.129,536.936 327.129,539.603 326.5,542.5C 231.167,542.5 135.833,542.5 40.5,542.5C 39.5144,540.592 37.8477,539.592 35.5,539.5C 35.5,483.5 35.5,427.5 35.5,371.5C 37.0174,371.489 38.1841,370.823 39,369.5C 39.5389,365.217 40.8723,361.217 43,357.5C 46.2458,353.552 48.7458,349.219 50.5,344.5C 51.8844,342.03 53.8844,340.363 56.5,339.5C 62.2712,338.474 67.9378,336.974 73.5,335C 76.2862,334.425 78.2862,332.925 79.5,330.5 Z M 114.5,382.5 C 112.167,382.5 109.833,382.5 107.5,382.5C 107.5,384.833 107.5,387.167 107.5,389.5C 107.833,430.839 107.5,472.172 106.5,513.5C 99.8923,514.462 93.2257,514.795 86.5,514.5C 85.5162,471.864 85.1829,429.197 85.5,386.5C 85.5,385.167 85.5,383.833 85.5,382.5C 84.1667,382.5 82.8333,382.5 81.5,382.5C 76.1667,382.5 70.8333,382.5 65.5,382.5C 65.7709,380.62 65.1042,379.287 63.5,378.5C 63.334,373.156 63.5006,367.823 64,362.5C 64.3742,361.584 64.8742,360.75 65.5,360C 86.1667,359.333 106.833,359.333 127.5,360C 128,360.5 128.5,361 129,361.5C 129.667,367.5 129.667,373.5 129,379.5C 128.308,380.025 127.808,380.692 127.5,381.5C 123.217,382.492 118.884,382.826 114.5,382.5 Z M 175.5,380.5 C 180.789,383.145 186.123,385.811 191.5,388.5C 194.841,392.84 198.175,397.173 201.5,401.5C 201.518,404.736 202.518,407.403 204.5,409.5C 203.986,427.184 203.153,444.85 202,462.5C 201.5,463 201,463.5 200.5,464C 187.167,464.333 173.833,464.667 160.5,465C 159.525,470.741 159.192,476.575 159.5,482.5C 161.914,491.123 167.414,493.79 176,490.5C 177.684,488.983 179.184,487.317 180.5,485.5C 179.959,482.348 180.959,479.848 183.5,478C 189.5,477.333 195.5,477.333 201.5,478C 202.328,478.915 203.328,479.581 204.5,480C 203.221,482.498 203.221,484.998 204.5,487.5C 202.828,490.684 201.161,494.018 199.5,497.5C 196.698,500.476 194.031,503.642 191.5,507C 187.442,510.52 183.108,512.853 178.5,514C 172.833,514.667 167.167,514.667 161.5,514C 159.751,513.215 158.084,512.382 156.5,511.5C 154.458,509.625 152.124,507.959 149.5,506.5C 147.139,504.806 145.139,502.806 143.5,500.5C 140.755,495.237 138.422,489.904 136.5,484.5C 136.5,460.833 136.5,437.167 136.5,413.5C 138.104,412.713 138.771,411.38 138.5,409.5C 139.057,404.835 140.39,400.502 142.5,396.5C 144.641,394.878 146.308,392.878 147.5,390.5C 155.57,383.794 164.904,380.461 175.5,380.5 Z M 254.5,380.5 C 254.833,380.5 255.167,380.5 255.5,380.5C 257.969,381.317 260.635,381.817 263.5,382C 268.072,384.792 272.739,387.292 277.5,389.5C 277.5,389.833 277.5,390.167 277.5,390.5C 278.735,392.908 280.569,394.908 283,396.5C 284.547,400.815 286.38,404.815 288.5,408.5C 288.666,415.841 288.5,423.174 288,430.5C 286.667,432.167 285.333,433.833 284,435.5C 279.333,434.167 274.667,434.167 270,435.5C 266.093,431.73 264.593,427.064 265.5,421.5C 266.775,418.604 266.775,415.604 265.5,412.5C 265.727,410.067 264.727,408.401 262.5,407.5C 262.167,407.5 261.833,407.5 261.5,407.5C 260.656,405.241 258.989,404.241 256.5,404.5C 255.167,404.5 253.833,404.5 252.5,404.5C 248.352,405.122 245.685,407.455 244.5,411.5C 244.5,435.5 244.5,459.5 244.5,483.5C 244.527,485.199 245.194,486.533 246.5,487.5C 246.756,489.776 248.09,490.943 250.5,491C 257.742,493.335 262.742,491.168 265.5,484.5C 265.5,478.833 265.5,473.167 265.5,467.5C 266.737,466.035 267.737,464.368 268.5,462.5C 274.176,462.334 279.843,462.501 285.5,463C 286.333,463.833 287.167,464.667 288,465.5C 290.387,478.513 288.22,490.513 281.5,501.5C 277.805,506.017 273.138,509.183 267.5,511C 266.619,511.708 265.953,512.542 265.5,513.5C 259.217,514.584 252.884,514.751 246.5,514C 244.479,513.487 242.979,512.32 242,510.5C 241.617,511.056 241.117,511.389 240.5,511.5C 238.802,509.133 236.469,507.466 233.5,506.5C 232.272,505.694 231.272,504.694 230.5,503.5C 227.449,498.659 224.782,493.659 222.5,488.5C 220.414,464.265 219.914,439.931 221,415.5C 222.392,412.722 222.892,409.722 222.5,406.5C 224.53,403.451 226.197,400.118 227.5,396.5C 229.5,394.167 231.5,391.833 233.5,389.5C 237.201,387.988 240.534,385.988 243.5,383.5C 245.315,382.37 247.315,381.704 249.5,381.5C 251.415,381.784 253.081,381.451 254.5,380.5 Z"/></g>
<g><path style="opacity:0.469" fill="#c4c4c4" d="M 79.5,330.5 C 78.2862,332.925 76.2862,334.425 73.5,335C 67.9378,336.974 62.2712,338.474 56.5,339.5C 58.2528,337.777 60.2528,336.277 62.5,335C 68.3236,333.922 73.9902,332.422 79.5,330.5 Z"/></g>
<g><path style="opacity:1" fill="#bdbdbd" d="M 332.5,324.5 C 331.942,325.79 330.942,326.623 329.5,327C 326.81,327.771 324.144,328.604 321.5,329.5C 318.979,331.26 318.146,333.593 319,336.5C 321.095,338.089 322.595,340.089 323.5,342.5C 322.167,342.5 320.833,342.5 319.5,342.5C 319.019,339.166 317.353,336.833 314.5,335.5C 314.5,334.5 314.5,333.5 314.5,332.5C 316.367,331.24 317.7,329.573 318.5,327.5C 323.245,326.751 327.912,325.751 332.5,324.5 Z"/></g>
<g><path style="opacity:0.89" fill="#b7b7b7" d="M 498.5,331.5 C 503.68,331.441 508.013,333.107 511.5,336.5C 506.224,336.785 501.891,335.119 498.5,331.5 Z"/></g>
<g><path style="opacity:0.41" fill="#646464" d="M 581.5,328.5 C 581.376,330.582 580.376,332.082 578.5,333C 578.833,333.333 579.167,333.667 579.5,334C 578.437,335.188 577.103,335.688 575.5,335.5C 575.5,334.5 575.5,333.5 575.5,332.5C 577.813,331.5 579.813,330.166 581.5,328.5 Z"/></g>
<g><path style="opacity:0.925" fill="#8f8f8f" d="M 306.5,330.5 C 310.485,330.44 312.152,332.44 311.5,336.5C 308.923,335.394 307.256,333.394 306.5,330.5 Z"/></g>
<g><path style="opacity:0.925" fill="#dcdcdc" d="M 599.5,337.5 C 600.416,341.041 600.75,344.374 600.5,347.5C 597.999,353.986 594.332,359.652 589.5,364.5C 586.614,366.083 583.614,367.583 580.5,369C 579.748,369.671 579.414,370.504 579.5,371.5C 577.167,371.5 574.833,371.5 572.5,371.5C 572.179,369.952 571.179,369.285 569.5,369.5C 568.588,366.724 567.588,364.057 566.5,361.5C 566.104,358.956 566.771,356.789 568.5,355C 568.167,354.667 567.833,354.333 567.5,354C 569.259,349.559 570.926,345.059 572.5,340.5C 574.833,340.167 576.167,338.833 576.5,336.5C 577.648,337.895 578.648,337.728 579.5,336C 582.5,335.833 585.5,335.667 588.5,335.5C 592.795,335.679 596.462,336.345 599.5,337.5 Z"/></g>
<g><path style="opacity:0.408" fill="#6b6b6b" d="M 314.5,335.5 C 317.353,336.833 319.019,339.166 319.5,342.5C 318.021,341.241 316.354,340.241 314.5,339.5C 314.5,338.167 314.5,336.833 314.5,335.5 Z"/></g>
<g><path style="opacity:0.235" fill="#3c3c3c" d="M 576.5,336.5 C 576.167,338.833 574.833,340.167 572.5,340.5C 573.167,338.5 574.5,337.167 576.5,336.5 Z"/></g>
<g><path style="opacity:0.999" fill="#f4f4f4" d="M 587.5,337.5 C 596.89,339.342 598.89,344.342 593.5,352.5C 590.228,355.547 587.561,359.047 585.5,363C 572.821,368.336 568.654,364.503 573,351.5C 575.168,348.314 577.335,345.147 579.5,342C 582.099,340.205 584.766,338.705 587.5,337.5 Z"/></g>
<g><path style="opacity:1" fill="#959595" d="M 405.5,338.5 C 403.337,339.744 401.003,340.744 398.5,341.5C 399.484,337.659 401.817,336.659 405.5,338.5 Z"/></g>
<g><path style="opacity:0.935" fill="#ededed" d="M 701.5,340.5 C 705.167,340.5 708.833,340.5 712.5,340.5C 712.511,342.017 713.177,343.184 714.5,344C 717.267,345.083 719.933,346.25 722.5,347.5C 722.5,353.5 722.5,359.5 722.5,365.5C 720.631,367.034 719.298,369.034 718.5,371.5C 712.167,371.5 705.833,371.5 699.5,371.5C 699.179,369.952 698.179,369.285 696.5,369.5C 696.924,365.998 695.59,363.665 692.5,362.5C 691.887,356.729 692.554,351.396 694.5,346.5C 696.595,345.588 698.595,344.421 700.5,343C 701.252,342.329 701.586,341.496 701.5,340.5 Z"/></g>
<g><path style="opacity:0.361" fill="#b4b4b4" d="M 420.5,348.5 C 419.607,346.703 418.274,345.37 416.5,344.5C 416.714,342.856 416.38,341.356 415.5,340C 412.964,339.814 410.631,339.314 408.5,338.5C 411.327,337.632 414.327,337.632 417.5,338.5C 418.771,341.686 419.771,345.02 420.5,348.5 Z"/></g>
<g><path style="opacity:0.898" fill="#525252" d="M 319.5,342.5 C 320.833,342.5 322.167,342.5 323.5,342.5C 323.5,343.167 323.5,343.833 323.5,344.5C 321.517,344.843 320.183,344.176 319.5,342.5 Z"/></g>
<g><path style="opacity:1" fill="#838383" d="M 475.5,337.5 C 474.908,340.127 474.575,342.794 474.5,345.5C 473.325,345.281 472.325,345.614 471.5,346.5C 471.058,347.739 470.391,348.739 469.5,349.5C 469.956,344.587 471.956,340.587 475.5,337.5 Z"/></g>
<g><path style="opacity:0.639" fill="#898989" d="M 414.5,346.5 C 410.889,344.743 407.223,343.41 403.5,342.5C 403.866,341.305 404.699,340.639 406,340.5C 408.248,341.955 410.748,342.788 413.5,343C 414.337,344.011 414.67,345.178 414.5,346.5 Z"/></g>
<g><path style="opacity:0.106" fill="#6d6d6d" d="M 599.5,337.5 C 600.496,337.414 601.329,337.748 602,338.5C 602.667,341.167 602.667,343.833 602,346.5C 601.617,347.056 601.117,347.389 600.5,347.5C 600.75,344.374 600.416,341.041 599.5,337.5 Z"/></g>
<g><path style="opacity:1" fill="#a6a6a6" d="M 712.5,340.5 C 717.983,340.04 721.316,342.374 722.5,347.5C 719.933,346.25 717.267,345.083 714.5,344C 713.177,343.184 712.511,342.017 712.5,340.5 Z"/></g>
<g><path style="opacity:0.361" fill="#767676" d="M 341.5,342.5 C 340.942,343.79 339.942,344.623 338.5,345C 335.633,345.801 332.966,345.634 330.5,344.5C 333.997,343.598 337.663,342.931 341.5,342.5 Z"/></g>
<g><path style="opacity:0.529" fill="#a5a5a5" d="M 352.5,345.5 C 347.443,345.868 342.443,346.535 337.5,347.5C 341.078,346.194 344.744,344.86 348.5,343.5C 350.333,343.585 351.666,344.252 352.5,345.5 Z"/></g>
<g><path style="opacity:0.8" fill="#7a7a7a" d="M 701.5,340.5 C 701.586,341.496 701.252,342.329 700.5,343C 698.595,344.421 696.595,345.588 694.5,346.5C 694.389,345.883 694.056,345.383 693.5,345C 695.78,342.696 698.446,341.196 701.5,340.5 Z"/></g>
<g><path style="opacity:0.149" fill="#4e4e4e" d="M 416.5,344.5 C 418.274,345.37 419.607,346.703 420.5,348.5C 421.11,349.391 421.443,350.391 421.5,351.5C 418.231,350.44 416.565,348.107 416.5,344.5 Z"/></g>
<g><path style="opacity:0.923" fill="#f1f1f1" d="M 499.5,355.5 C 515.833,355.5 532.167,355.5 548.5,355.5C 548.076,359.002 549.41,361.335 552.5,362.5C 552.5,368.833 552.5,375.167 552.5,381.5C 549.787,383.172 547.12,384.838 544.5,386.5C 537.492,386.334 530.492,386.5 523.5,387C 524.488,398.419 524.821,409.919 524.5,421.5C 529.511,421.334 534.511,421.501 539.5,422C 540.044,422.717 540.711,423.217 541.5,423.5C 542.705,430.355 544.038,437.021 545.5,443.5C 545.5,444.833 545.5,446.167 545.5,447.5C 542.733,447.87 540.733,449.204 539.5,451.5C 534.5,451.5 529.5,451.5 524.5,451.5C 524.5,471.167 524.5,490.833 524.5,510.5C 521.218,511.938 518.218,513.771 515.5,516C 514.748,516.671 514.414,517.504 514.5,518.5C 509.167,518.5 503.833,518.5 498.5,518.5C 498.236,515.243 496.57,513.243 493.5,512.5C 493.5,462.167 493.5,411.833 493.5,361.5C 496.386,360.404 498.386,358.404 499.5,355.5 Z"/></g>
<g><path style="opacity:0.797" fill="#aeaeae" d="M 468.5,354.5 C 468.626,359.222 467.626,363.555 465.5,367.5C 465.5,363.167 465.5,358.833 465.5,354.5C 466.5,354.5 467.5,354.5 468.5,354.5 Z"/></g>
<g><path style="opacity:0.004" fill="#676767" d="M 548.5,355.5 C 550.669,357.34 552.002,359.674 552.5,362.5C 549.41,361.335 548.076,359.002 548.5,355.5 Z"/></g>
<g><path style="opacity:0.8" fill="#818181" d="M 499.5,355.5 C 498.386,358.404 496.386,360.404 493.5,361.5C 493.582,357.658 495.582,355.658 499.5,355.5 Z"/></g>
<g><path style="opacity:0.063" fill="#8e8e8e" d="M 566.5,361.5 C 567.588,364.057 568.588,366.724 569.5,369.5C 571.179,369.285 572.179,369.952 572.5,371.5C 565.855,370.803 563.855,367.47 566.5,361.5 Z"/></g>
<g><path style="opacity:0.953" fill="#939393" d="M 692.5,362.5 C 695.59,363.665 696.924,365.998 696.5,369.5C 698.179,369.285 699.179,369.952 699.5,371.5C 697.158,371.496 695.158,370.663 693.5,369C 693.833,368.667 694.167,368.333 694.5,368C 692.808,366.599 692.141,364.766 692.5,362.5 Z"/></g>
<g><path style="opacity:0.753" fill="#929292" d="M 589.5,364.5 C 588.354,369.665 585.021,371.999 579.5,371.5C 579.414,370.504 579.748,369.671 580.5,369C 583.614,367.583 586.614,366.083 589.5,364.5 Z"/></g>
<g><path style="opacity:1" fill="#b6b6b6" d="M 50.5,344.5 C 48.7458,349.219 46.2458,353.552 43,357.5C 40.8723,361.217 39.5389,365.217 39,369.5C 38.1841,370.823 37.0174,371.489 35.5,371.5C 36.3913,364.217 39.2247,357.884 44,352.5C 44.5123,348.488 46.6789,345.821 50.5,344.5 Z"/></g>
<g><path style="opacity:0.004" fill="#494949" d="M 722.5,365.5 C 722.625,368.608 721.292,370.608 718.5,371.5C 719.298,369.034 720.631,367.034 722.5,365.5 Z"/></g>
<g><path style="opacity:0.514" fill="#ababab" d="M 417.5,351.5 C 423.723,357.168 424.89,363.835 421,371.5C 418.183,373.799 416.017,376.465 414.5,379.5C 414.215,377.712 414.548,376.045 415.5,374.5C 418.936,371.464 420.936,367.63 421.5,363C 420.021,359.211 418.688,355.377 417.5,351.5 Z"/></g>
<g><path style="opacity:0.959" fill="#f1f1f1" d="M 567.5,377.5 C 573.167,377.5 578.833,377.5 584.5,377.5C 586.833,379.167 588.833,381.167 590.5,383.5C 590.5,426.5 590.5,469.5 590.5,512.5C 588.631,514.034 587.298,516.034 586.5,518.5C 580.167,518.5 573.833,518.5 567.5,518.5C 566.792,515.451 565.459,512.785 563.5,510.5C 562.375,470.514 562.208,430.514 563,390.5C 564.357,386.696 565.857,383.03 567.5,379.5C 567.5,378.833 567.5,378.167 567.5,377.5 Z"/></g>
<g><path style="opacity:0.982" fill="#efefef" d="M 659.5,382.5 C 659.414,383.496 659.748,384.329 660.5,385C 664.537,387.014 668.204,389.514 671.5,392.5C 672.789,393.637 673.789,394.97 674.5,396.5C 674.12,398.698 674.787,400.365 676.5,401.5C 678.202,403.8 678.868,406.467 678.5,409.5C 677.681,412.305 677.181,415.305 677,418.5C 675.373,419.532 674.207,420.866 673.5,422.5C 667.167,422.5 660.833,422.5 654.5,422.5C 653.522,419.522 651.522,417.522 648.5,416.5C 647.369,408.348 643.536,406.682 637,411.5C 635.031,419.71 637.198,426.544 643.5,432C 646.532,435.184 650.198,437.35 654.5,438.5C 656.132,441.188 658.132,443.688 660.5,446C 663.257,446.938 665.59,448.438 667.5,450.5C 670.85,455.866 673.683,461.532 676,467.5C 676.667,475.5 676.667,483.5 676,491.5C 673.354,495.934 671.187,500.601 669.5,505.5C 666.562,507.912 663.229,509.745 659.5,511C 658.267,512.667 656.933,514.167 655.5,515.5C 654.653,516.966 653.32,517.8 651.5,518C 646.845,518.499 642.179,518.666 637.5,518.5C 631.976,513.233 625.309,509.733 617.5,508C 613.964,501.724 610.798,495.224 608,488.5C 607.329,487.748 606.496,487.414 605.5,487.5C 605.5,484.5 605.5,481.5 605.5,478.5C 607.863,477.259 609.863,475.592 611.5,473.5C 616.833,473.5 622.167,473.5 627.5,473.5C 630.729,475.942 633.729,478.608 636.5,481.5C 637.695,487.454 641.028,488.954 646.5,486C 650.003,475.158 646.669,466.991 636.5,461.5C 636.079,459.09 634.746,457.257 632.5,456C 628.726,454.717 625.06,453.217 621.5,451.5C 617.16,449.16 613.827,445.827 611.5,441.5C 610.394,438.946 609.561,436.279 609,433.5C 608.583,432.244 607.75,431.577 606.5,431.5C 605.593,423.208 605.26,414.875 605.5,406.5C 609.797,401.936 613.13,396.603 615.5,390.5C 616.376,389.749 617.376,389.249 618.5,389C 617.748,388.329 617.414,387.496 617.5,386.5C 617.833,386.5 618.167,386.5 618.5,386.5C 621.608,386.625 623.608,385.292 624.5,382.5C 629.43,378.876 635.097,377.209 641.5,377.5C 644.5,377.667 647.5,377.833 650.5,378C 652.823,379.204 655.323,380.038 658,380.5C 659.03,380.836 659.53,381.503 659.5,382.5 Z"/></g>
<g><path style="opacity:0.921" fill="#f1f1f1" d="M 698.5,377.5 C 704.5,377.5 710.5,377.5 716.5,377.5C 718.833,379.167 720.833,381.167 722.5,383.5C 722.5,426.5 722.5,469.5 722.5,512.5C 720.204,513.733 718.87,515.733 718.5,518.5C 712.5,518.5 706.5,518.5 700.5,518.5C 699.618,516.616 698.118,515.283 696,514.5C 695.517,513.552 695.351,512.552 695.5,511.5C 694.5,511.5 693.5,511.5 692.5,511.5C 691.839,468.154 692.505,425.154 694.5,382.5C 697.297,382.033 698.631,380.367 698.5,377.5 Z"/></g>
<g><path style="opacity:0.431" fill="#8a8a8a" d="M 781.5,377.5 C 778.833,378.833 776.167,378.833 773.5,377.5C 776.167,376.167 778.833,376.167 781.5,377.5 Z"/></g>
<g><path style="opacity:0.118" fill="#585858" d="M 584.5,377.5 C 588.167,377.833 590.167,379.833 590.5,383.5C 588.833,381.167 586.833,379.167 584.5,377.5 Z"/></g>
<g><path style="opacity:0.067" fill="#525252" d="M 716.5,377.5 C 720.167,377.833 722.167,379.833 722.5,383.5C 720.833,381.167 718.833,379.167 716.5,377.5 Z"/></g>
<g><path style="opacity:0.306" fill="#959595" d="M 63.5,378.5 C 65.1042,379.287 65.7709,380.62 65.5,382.5C 64.5,382.5 63.5,382.5 62.5,382.5C 62.2322,380.901 62.5655,379.568 63.5,378.5 Z"/></g>
<g><path style="opacity:0.196" fill="#4f4f4f" d="M 567.5,377.5 C 567.5,378.167 567.5,378.833 567.5,379.5C 565.833,380.167 564.167,380.833 562.5,381.5C 563.353,379.107 565.019,377.774 567.5,377.5 Z"/></g>
<g><path style="opacity:0.945" fill="#f1f1f1" d="M 773.5,377.5 C 776.167,378.833 778.833,378.833 781.5,377.5C 782.833,377.5 784.167,377.5 785.5,377.5C 785.452,380.292 786.785,382.125 789.5,383C 793.661,384.255 797.661,385.755 801.5,387.5C 802.167,387.833 802.833,388.167 803.5,388.5C 804.226,391.179 805.059,393.846 806,396.5C 807.608,399.695 809.774,402.362 812.5,404.5C 813.818,433.814 813.818,463.148 812.5,492.5C 810.983,492.511 809.816,493.177 809,494.5C 807.725,496.717 806.725,499.051 806,501.5C 803.546,503.441 801.713,505.775 800.5,508.5C 795.157,511.282 789.491,513.282 783.5,514.5C 783.5,515.833 783.5,517.167 783.5,518.5C 779.833,518.5 776.167,518.5 772.5,518.5C 767.69,515.659 762.69,512.993 757.5,510.5C 756.016,508.926 754.349,507.593 752.5,506.5C 751.004,503.509 749.504,500.509 748,497.5C 746.556,495.845 744.722,495.178 742.5,495.5C 740.987,493.484 740.153,491.151 740,488.5C 739.5,462.502 739.333,436.502 739.5,410.5C 740.458,410.047 741.292,409.381 742,408.5C 742.737,404.793 743.571,401.127 744.5,397.5C 747.217,395.091 749.217,392.091 750.5,388.5C 750.842,387.662 751.508,387.328 752.5,387.5C 755.897,385.472 759.564,383.972 763.5,383C 765.063,382.241 766.063,381.074 766.5,379.5C 768.279,377.656 770.612,376.99 773.5,377.5 Z M 774.5,408.5 C 778.716,407.893 781.55,409.56 783,413.5C 783.667,436.5 783.667,459.5 783,482.5C 780.009,488.148 776.009,488.815 771,484.5C 770.333,460.833 770.333,437.167 771,413.5C 771.257,411.093 772.424,409.427 774.5,408.5 Z"/></g>
<g><path style="opacity:0.5" fill="#bababa" d="M 191.5,388.5 C 186.123,385.811 180.789,383.145 175.5,380.5C 175.735,379.903 176.235,379.57 177,379.5C 182.506,381.524 187.34,384.524 191.5,388.5 Z"/></g>
<g><path style="opacity:0.38" fill="#959595" d="M 254.5,380.5 C 253.081,381.451 251.415,381.784 249.5,381.5C 250.748,379.31 252.414,378.977 254.5,380.5 Z"/></g>
<g><path style="opacity:0.353" fill="#595959" d="M 330.5,377.5 C 332.176,379.834 334.509,380.834 337.5,380.5C 335.393,381.468 333.059,381.802 330.5,381.5C 330.5,380.167 330.5,378.833 330.5,377.5 Z"/></g>
<g><path style="opacity:0.017" fill="#000000" d="M 762.5,380.5 C 761.71,381.401 760.71,382.068 759.5,382.5C 759.821,380.952 760.821,380.285 762.5,380.5 Z"/></g>
<g><path style="opacity:0.506" fill="#666666" d="M 421.5,374.5 C 420.18,377.14 418.847,379.807 417.5,382.5C 416.833,382.5 416.167,382.5 415.5,382.5C 416.511,380.628 417.345,378.628 418,376.5C 418.816,375.177 419.983,374.511 421.5,374.5 Z"/></g>
<g><path style="opacity:0.039" fill="#a9a9a9" d="M 465.5,368.5 C 465.033,375.235 463.033,381.235 459.5,386.5C 458.227,384.383 458.227,382.216 459.5,380C 461.589,376.985 462.922,373.652 463.5,370C 463.836,368.97 464.503,368.47 465.5,368.5 Z"/></g>
<g><path style="opacity:0.882" fill="#676767" d="M 698.5,377.5 C 698.631,380.367 697.297,382.033 694.5,382.5C 694.389,381.883 694.056,381.383 693.5,381C 695.065,379.588 696.731,378.421 698.5,377.5 Z"/></g>
<g><path style="opacity:0.012" fill="#b7b7b7" d="M 277.5,389.5 C 272.739,387.292 268.072,384.792 263.5,382C 260.635,381.817 257.969,381.317 255.5,380.5C 257.966,379.366 260.633,379.199 263.5,380C 266.547,382.238 269.88,383.905 273.5,385C 275.041,386.371 276.375,387.871 277.5,389.5 Z"/></g>
<g><path style="opacity:0.988" fill="#c3c3c3" d="M 766.5,379.5 C 766.063,381.074 765.063,382.241 763.5,383C 759.564,383.972 755.897,385.472 752.5,387.5C 753.596,384.227 755.929,382.561 759.5,382.5C 760.71,382.068 761.71,381.401 762.5,380.5C 763.568,379.566 764.901,379.232 766.5,379.5 Z"/></g>
<g><path style="opacity:0.498" fill="#b1b1b1" d="M 785.5,377.5 C 789.825,379.079 793.992,381.079 798,383.5C 799.402,384.645 800.569,385.978 801.5,387.5C 797.661,385.755 793.661,384.255 789.5,383C 786.785,382.125 785.452,380.292 785.5,377.5 Z"/></g>
<g><path style="opacity:0.773" fill="#7d7d7d" d="M 81.5,382.5 C 82.8333,382.5 84.1667,382.5 85.5,382.5C 85.5,383.833 85.5,385.167 85.5,386.5C 83.1667,386.167 81.8333,384.833 81.5,382.5 Z"/></g>
<g><path style="opacity:0.106" fill="#8f8f8f" d="M 243.5,383.5 C 240.534,385.988 237.201,387.988 233.5,389.5C 233.297,387.61 233.963,386.11 235.5,385C 238.168,384.433 240.834,383.933 243.5,383.5 Z"/></g>
<g><path style="opacity:0.569" fill="#8f8f8f" d="M 624.5,382.5 C 623.608,385.292 621.608,386.625 618.5,386.5C 619.487,383.914 621.487,382.581 624.5,382.5 Z"/></g>
<g><path style="opacity:0.008" fill="#787878" d="M 552.5,381.5 C 551.131,385.187 548.465,386.853 544.5,386.5C 547.12,384.838 549.787,383.172 552.5,381.5 Z"/></g>
<g><path style="opacity:1" fill="#bfbfbf" d="M 114.5,382.5 C 112.548,385.118 110.215,387.452 107.5,389.5C 107.5,387.167 107.5,384.833 107.5,382.5C 109.833,382.5 112.167,382.5 114.5,382.5 Z"/></g>
<g><path style="opacity:0.086" fill="#a0a0a0" d="M 659.5,382.5 C 664.729,384.436 668.729,387.769 671.5,392.5C 668.204,389.514 664.537,387.014 660.5,385C 659.748,384.329 659.414,383.496 659.5,382.5 Z"/></g>
<g><path style="opacity:1" fill="#adadad" d="M 415.5,382.5 C 416.167,382.5 416.833,382.5 417.5,382.5C 414.557,387.243 412.057,392.243 410,397.5C 409.52,402.919 410.02,408.252 411.5,413.5C 410.414,413.38 409.747,412.713 409.5,411.5C 408.419,405.532 408.252,399.532 409,393.5C 409.65,390.216 410.816,387.216 412.5,384.5C 414.027,384.573 415.027,383.906 415.5,382.5 Z"/></g>
<g><path style="opacity:0.273" fill="#e4e4e4" d="M 567.5,379.5 C 565.857,383.03 564.357,386.696 563,390.5C 562.208,430.514 562.375,470.514 563.5,510.5C 562.167,510.167 560.833,509.833 559.5,509.5C 559.333,467.832 559.5,426.165 560,384.5C 561.417,383.922 562.25,382.922 562.5,381.5C 564.167,380.833 565.833,380.167 567.5,379.5 Z"/></g>
<g><path style="opacity:0.29" fill="#989898" d="M 147.5,390.5 C 146.308,392.878 144.641,394.878 142.5,396.5C 141.976,392.69 143.643,390.69 147.5,390.5 Z"/></g>
<g><path style="opacity:0.082" fill="#9d9d9d" d="M 750.5,388.5 C 749.217,392.091 747.217,395.091 744.5,397.5C 745.263,393.63 747.263,390.63 750.5,388.5 Z"/></g>
<g><path style="opacity:0.486" fill="#c2c2c2" d="M 277.5,390.5 C 279.144,390.286 280.644,390.62 282,391.5C 285.849,396.531 288.016,402.197 288.5,408.5C 286.38,404.815 284.547,400.815 283,396.5C 280.569,394.908 278.735,392.908 277.5,390.5 Z"/></g>
<g><path style="opacity:0.643" fill="#b3b3b3" d="M 617.5,386.5 C 617.414,387.496 617.748,388.329 618.5,389C 617.376,389.249 616.376,389.749 615.5,390.5C 613.13,396.603 609.797,401.936 605.5,406.5C 607.102,398.267 611.102,391.6 617.5,386.5 Z"/></g>
<g><path style="opacity:0.188" fill="#7e7e7e" d="M 674.5,396.5 C 675.947,397.622 676.947,399.122 677.5,401C 677.272,401.399 676.938,401.565 676.5,401.5C 674.787,400.365 674.12,398.698 674.5,396.5 Z"/></g>
<g><path style="opacity:0.906" fill="#ababab" d="M 803.5,388.5 C 808.049,392.928 811.049,398.261 812.5,404.5C 809.774,402.362 807.608,399.695 806,396.5C 805.059,393.846 804.226,391.179 803.5,388.5 Z"/></g>
<g><path style="opacity:0.514" fill="#a1a1a1" d="M 201.5,401.5 C 203.093,402.348 204.26,403.681 205,405.5C 205.765,407.066 205.598,408.399 204.5,409.5C 202.518,407.403 201.518,404.736 201.5,401.5 Z"/></g>
<g><path style="opacity:0.004" fill="#b1b1b1" d="M 227.5,396.5 C 226.197,400.118 224.53,403.451 222.5,406.5C 222.192,404.076 222.526,401.743 223.5,399.5C 224.283,397.712 225.616,396.712 227.5,396.5 Z"/></g>
<g><path style="opacity:0.129" fill="#818181" d="M 252.5,404.5 C 250.477,407.52 247.81,409.854 244.5,411.5C 245.685,407.455 248.352,405.122 252.5,404.5 Z"/></g>
<g><path style="opacity:0.284" fill="#696969" d="M 256.5,404.5 C 258.989,404.241 260.656,405.241 261.5,407.5C 259.152,407.408 257.486,406.408 256.5,404.5 Z"/></g>
<g><path style="opacity:0.757" fill="#6d6d6d" d="M 167.5,404.5 C 166.871,406.997 165.204,408.33 162.5,408.5C 162.989,405.676 164.656,404.343 167.5,404.5 Z"/></g>
<g><path style="opacity:0.929" fill="#bfbfbf" d="M 345.5,404.5 C 346.129,406.997 347.796,408.33 350.5,408.5C 350.5,409.167 350.5,409.833 350.5,410.5C 346.856,408.123 342.856,407.289 338.5,408C 335.416,410.465 332.749,413.298 330.5,416.5C 330.471,406.508 335.471,402.508 345.5,404.5 Z"/></g>
<g><path style="opacity:0.106" fill="#444444" d="M 345.5,404.5 C 347.754,405.124 349.421,406.457 350.5,408.5C 347.796,408.33 346.129,406.997 345.5,404.5 Z"/></g>
<g><path style="opacity:0.868" fill="#ededed" d="M 167.5,404.5 C 169.5,404.5 171.5,404.5 173.5,404.5C 173.281,405.675 173.614,406.675 174.5,407.5C 176.517,408.961 178.517,410.294 180.5,411.5C 180.5,419.833 180.5,428.167 180.5,436.5C 178.167,436.833 176.833,438.167 176.5,440.5C 172.5,440.5 168.5,440.5 164.5,440.5C 164.213,437.516 162.546,436.183 159.5,436.5C 159.334,428.16 159.5,419.827 160,411.5C 160.698,410.309 161.531,409.309 162.5,408.5C 165.204,408.33 166.871,406.997 167.5,404.5 Z"/></g>
<g><path style="opacity:0.916" fill="#f0f0f0" d="M 350.5,410.5 C 351.492,442.093 351.825,473.76 351.5,505.5C 350.5,505.5 349.5,505.5 348.5,505.5C 348.649,506.552 348.483,507.552 348,508.5C 346.271,508.974 345.105,509.974 344.5,511.5C 343.167,511.5 341.833,511.5 340.5,511.5C 337.427,512.373 334.094,512.373 330.5,511.5C 330.5,479.833 330.5,448.167 330.5,416.5C 332.749,413.298 335.416,410.465 338.5,408C 342.856,407.289 346.856,408.123 350.5,410.5 Z"/></g>
<g><path style="opacity:0.62" fill="#828282" d="M 173.5,404.5 C 176.789,405.789 179.122,408.122 180.5,411.5C 178.517,410.294 176.517,408.961 174.5,407.5C 173.614,406.675 173.281,405.675 173.5,404.5 Z"/></g>
<g><path style="opacity:0.035" fill="#aaaaaa" d="M 744.5,397.5 C 743.571,401.127 742.737,404.793 742,408.5C 741.292,409.381 740.458,410.047 739.5,410.5C 739.317,405.304 740.983,400.971 744.5,397.5 Z"/></g>
<g><path style="opacity:0.004" fill="#7a7a7a" d="M 138.5,409.5 C 138.771,411.38 138.104,412.713 136.5,413.5C 135.024,411.291 135.691,409.958 138.5,409.5 Z"/></g>
<g><path style="opacity:0.124" fill="#878787" d="M 262.5,407.5 C 264.727,408.401 265.727,410.067 265.5,412.5C 264.523,415.287 264.19,418.287 264.5,421.5C 263.727,416.971 263.06,412.305 262.5,407.5 Z"/></g>
<g><path style="opacity:1" fill="#cbcbcb" d="M 434.5,405.5 C 446.013,403.562 450.513,408.229 448,419.5C 438.966,430.213 429.466,440.546 419.5,450.5C 415.833,450.5 412.166,450.5 408.5,450.5C 405.806,453.86 402.806,456.86 399.5,459.5C 398.386,458.277 398.219,456.944 399,455.5C 405.026,443.114 412.359,431.447 421,420.5C 426.106,415.902 430.606,410.902 434.5,405.5 Z"/></g>
<g><path style="opacity:0.237" fill="#696969" d="M 406.5,409.5 C 407.612,411.599 408.279,413.933 408.5,416.5C 407.833,416.5 407.5,416.833 407.5,417.5C 407.167,417.5 406.833,417.5 406.5,417.5C 406.5,414.833 406.5,412.167 406.5,409.5 Z"/></g>
<g><path style="opacity:0.067" fill="#888888" d="M 678.5,409.5 C 679.754,412.854 679.754,416.354 678.5,420C 677.381,421.876 675.714,422.709 673.5,422.5C 674.207,420.866 675.373,419.532 677,418.5C 677.181,415.305 677.681,412.305 678.5,409.5 Z"/></g>
<g><path style="opacity:0.03" fill="#404040" d="M 265.5,412.5 C 266.775,415.604 266.775,418.604 265.5,421.5C 265.167,421.5 264.833,421.5 264.5,421.5C 264.19,418.287 264.523,415.287 265.5,412.5 Z"/></g>
<g><path style="opacity:0.294" fill="#878787" d="M 648.5,416.5 C 651.522,417.522 653.522,419.522 654.5,422.5C 650.617,422.249 648.617,420.249 648.5,416.5 Z"/></g>
<g><path style="opacity:0.89" fill="#808080" d="M 408.5,416.5 C 409.167,416.5 409.833,416.5 410.5,416.5C 408.689,419.444 406.856,422.444 405,425.5C 404.329,426.252 403.496,426.586 402.5,426.5C 403.758,424.313 404.758,421.98 405.5,419.5C 406.833,419.5 407.5,418.833 407.5,417.5C 408.167,417.5 408.5,417.167 408.5,416.5 Z"/></g>
<g><path style="opacity:0.039" fill="#929292" d="M 606.5,431.5 C 607.75,431.577 608.583,432.244 609,433.5C 609.561,436.279 610.394,438.946 611.5,441.5C 608.357,438.996 606.691,435.663 606.5,431.5 Z"/></g>
<g><path style="opacity:0.835" fill="#525252" d="M 541.5,423.5 C 544.675,424.182 546.175,426.182 546,429.5C 546.815,434.352 546.648,439.019 545.5,443.5C 544.038,437.021 542.705,430.355 541.5,423.5 Z"/></g>
<g><path style="opacity:0.247" fill="#868686" d="M 159.5,436.5 C 162.546,436.183 164.213,437.516 164.5,440.5C 161.454,440.817 159.787,439.484 159.5,436.5 Z"/></g>
<g><path style="opacity:0.076" fill="#4f4f4f" d="M 180.5,436.5 C 180.833,439.5 179.5,440.833 176.5,440.5C 176.833,438.167 178.167,436.833 180.5,436.5 Z"/></g>
<g><path style="opacity:0.173" fill="#8a8a8a" d="M 654.5,438.5 C 658.633,441.729 662.966,444.729 667.5,447.5C 668.313,448.814 669.313,449.981 670.5,451C 670.272,451.399 669.938,451.565 669.5,451.5C 668.833,451.167 668.167,450.833 667.5,450.5C 665.59,448.438 663.257,446.938 660.5,446C 658.132,443.688 656.132,441.188 654.5,438.5 Z"/></g>
<g><path style="opacity:1" fill="#9c9c9c" d="M 401.5,426.5 C 399.242,432.104 397.075,437.771 395,443.5C 390.443,449.003 387.943,455.336 387.5,462.5C 386.5,462.5 385.5,462.5 384.5,462.5C 384.5,461.167 384.5,459.833 384.5,458.5C 385.239,458.631 385.906,458.464 386.5,458C 385.748,457.329 385.414,456.496 385.5,455.5C 389.705,446.497 394.038,437.497 398.5,428.5C 399.167,428.5 399.5,428.167 399.5,427.5C 400.167,427.167 400.833,426.833 401.5,426.5 Z"/></g>
<g><path style="opacity:1" fill="#c9c9c9" d="M 441.5,458.5 C 442.355,455.514 442.855,452.514 443,449.5C 439.435,446.888 435.935,446.888 432.5,449.5C 432.795,446.57 434.295,444.57 437,443.5C 438.966,445.044 441.132,446.21 443.5,447C 444.894,447.956 445.561,449.289 445.5,451C 444.841,453.462 444.507,455.962 444.5,458.5C 443.5,458.5 442.5,458.5 441.5,458.5 Z"/></g>
<g><path style="opacity:0.404" fill="#6e6e6e" d="M 545.5,447.5 C 544.513,450.086 542.513,451.419 539.5,451.5C 540.733,449.204 542.733,447.87 545.5,447.5 Z"/></g>
<g><path style="opacity:0.494" fill="#adadad" d="M 459.5,423.5 C 461.481,424.894 463.148,426.727 464.5,429C 466.017,433.721 467.017,438.554 467.5,443.5C 467.338,446.489 466.671,449.322 465.5,452C 467.522,456.929 468.022,462.095 467,467.5C 466.617,468.056 466.117,468.389 465.5,468.5C 465.5,467.167 465.5,465.833 465.5,464.5C 464.841,454.849 464.341,445.183 464,435.5C 462.799,431.423 461.299,427.423 459.5,423.5 Z"/></g>
<g><path style="opacity:0.278" fill="#747474" d="M 428.5,453.5 C 428.631,454.239 428.464,454.906 428,455.5C 425.86,456.728 424.193,458.395 423,460.5C 422.601,460.272 422.435,459.938 422.5,459.5C 423.5,456.5 425.5,454.5 428.5,453.5 Z"/></g>
<g><path style="opacity:0.165" fill="#a9a9a9" d="M 621.5,451.5 C 625.06,453.217 628.726,454.717 632.5,456C 634.746,457.257 636.079,459.09 636.5,461.5C 633.832,459.499 630.832,457.999 627.5,457C 625.304,455.301 623.304,453.467 621.5,451.5 Z"/></g>
<g><path style="opacity:0.424" fill="#b6b6b6" d="M 385.5,453.5 C 385.5,454.167 385.5,454.833 385.5,455.5C 384.596,456.209 384.263,457.209 384.5,458.5C 382.81,458.856 381.81,459.856 381.5,461.5C 379.236,462.219 376.903,462.552 374.5,462.5C 374.5,461.833 374.5,461.167 374.5,460.5C 378.241,461.401 380.241,460.068 380.5,456.5C 381.5,456.5 382.5,456.5 383.5,456.5C 383.285,454.821 383.952,453.821 385.5,453.5 Z"/></g>
<g><path style="opacity:0.604" fill="#919191" d="M 268.5,462.5 C 267.737,464.368 266.737,466.035 265.5,467.5C 264.549,466.081 264.216,464.415 264.5,462.5C 265.833,462.5 267.167,462.5 268.5,462.5 Z"/></g>
<g><path style="opacity:0.322" fill="#5d5d5d" d="M 381.5,461.5 C 380.256,464.543 377.923,465.876 374.5,465.5C 374.5,464.5 374.5,463.5 374.5,462.5C 376.903,462.552 379.236,462.219 381.5,461.5 Z"/></g>
<g><path style="opacity:1" fill="#8e8e8e" d="M 419.5,462.5 C 417.098,467.549 413.765,468.549 409.5,465.5C 412.843,464.714 416.177,463.714 419.5,462.5 Z"/></g>
<g><path style="opacity:1" fill="#d7d7d7" d="M 465.5,464.5 C 465.5,465.833 465.5,467.167 465.5,468.5C 465.5,468.833 465.5,469.167 465.5,469.5C 463.031,470.607 462.031,472.607 462.5,475.5C 461.886,477.283 460.72,478.616 459,479.5C 457.991,481.025 457.491,482.692 457.5,484.5C 458.514,485.674 459.847,486.34 461.5,486.5C 461.5,486.833 461.5,487.167 461.5,487.5C 461.5,489.5 462.5,490.5 464.5,490.5C 464.229,492.38 464.896,493.713 466.5,494.5C 466.5,495.167 466.5,495.833 466.5,496.5C 462.246,494.251 458.246,491.585 454.5,488.5C 454.017,485.331 452.684,482.664 450.5,480.5C 450.703,478.792 451.536,477.459 453,476.5C 453.172,471.798 453.672,467.132 454.5,462.5C 455.833,461.833 456.833,460.833 457.5,459.5C 458.689,458.571 460.022,458.238 461.5,458.5C 461.18,461.898 461.513,465.232 462.5,468.5C 463.859,467.376 464.859,466.042 465.5,464.5 Z"/></g>
<g><path style="opacity:0.051" fill="#5d5d5d" d="M 442.5,464.5 C 442.5,466.5 442.5,468.5 442.5,470.5C 441.504,470.586 440.671,470.252 440,469.5C 439.506,467.866 439.34,466.199 439.5,464.5C 440.5,464.5 441.5,464.5 442.5,464.5 Z"/></g>
<g><path style="opacity:0.145" fill="#6a6a6a" d="M 406.5,466.5 C 406.106,468.71 404.773,470.043 402.5,470.5C 402.833,468.167 404.167,466.833 406.5,466.5 Z"/></g>
<g><path style="opacity:0.671" fill="#555555" d="M 381.5,465.5 C 379.433,468.886 376.433,471.219 372.5,472.5C 374.011,469.13 377.011,466.796 381.5,465.5 Z"/></g>
<g><path style="opacity:0.345" fill="#6f6f6f" d="M 465.5,469.5 C 465.379,472.105 464.379,474.105 462.5,475.5C 462.031,472.607 463.031,470.607 465.5,469.5 Z"/></g>
<g><path style="opacity:0.196" fill="#6a6a6a" d="M 627.5,473.5 C 632.414,474.084 635.414,476.751 636.5,481.5C 633.729,478.608 630.729,475.942 627.5,473.5 Z"/></g>
<g><path style="opacity:0.576" fill="#686868" d="M 611.5,473.5 C 609.863,475.592 607.863,477.259 605.5,478.5C 605.69,474.643 607.69,472.976 611.5,473.5 Z"/></g>
<g><path style="opacity:0.898" fill="#c0c0c0" d="M 667.5,450.5 C 668.167,450.833 668.833,451.167 669.5,451.5C 674.556,456.926 677.556,463.092 678.5,470C 680.599,480.672 679.266,490.838 674.5,500.5C 673.046,502.437 671.379,504.103 669.5,505.5C 671.187,500.601 673.354,495.934 676,491.5C 676.667,483.5 676.667,475.5 676,467.5C 673.683,461.532 670.85,455.866 667.5,450.5 Z"/></g>
<g><path style="opacity:0.11" fill="#8a8a8a" d="M 371.5,473.5 C 371.502,475.831 370.669,477.831 369,479.5C 366.84,481.717 364.673,483.717 362.5,485.5C 364.408,481.74 366.575,478.074 369,474.5C 369.671,473.748 370.504,473.414 371.5,473.5 Z"/></g>
<g><path style="opacity:0.149" fill="#4a4a4a" d="M 461.5,486.5 C 459.847,486.34 458.514,485.674 457.5,484.5C 459.829,482.998 461.163,483.664 461.5,486.5 Z"/></g>
<g><path style="opacity:0.929" fill="#bfbfbf" d="M 244.5,483.5 C 245.873,483.343 247.207,483.51 248.5,484C 250.915,488.128 254.581,489.628 259.5,488.5C 255.157,489.873 250.824,489.54 246.5,487.5C 245.194,486.533 244.527,485.199 244.5,483.5 Z"/></g>
<g><path style="opacity:0.212" fill="#4b4b4b" d="M 461.5,487.5 C 462.5,487.5 463.5,487.5 464.5,487.5C 464.5,488.5 464.5,489.5 464.5,490.5C 462.5,490.5 461.5,489.5 461.5,487.5 Z"/></g>
<g><path style="opacity:0.063" fill="#484848" d="M 442.5,488.5 C 441.833,490.5 440.5,491.833 438.5,492.5C 438.167,489.5 439.5,488.167 442.5,488.5 Z"/></g>
<g><path style="opacity:0.161" fill="#7b7b7b" d="M 159.5,482.5 C 161.294,484.797 163.294,486.963 165.5,489C 168.5,489.667 171.5,489.667 174.5,489C 175.892,486.772 177.892,485.606 180.5,485.5C 179.184,487.317 177.684,488.983 176,490.5C 167.414,493.79 161.914,491.123 159.5,482.5 Z"/></g>
<g><path style="opacity:0.302" fill="#a1a1a1" d="M 204.5,487.5 C 204.713,491.91 203.046,495.243 199.5,497.5C 201.161,494.018 202.828,490.684 204.5,487.5 Z"/></g>
<g><path style="opacity:0.165" fill="#808080" d="M 265.5,484.5 C 262.742,491.168 257.742,493.335 250.5,491C 248.09,490.943 246.756,489.776 246.5,487.5C 250.824,489.54 255.157,489.873 259.5,488.5C 261.264,486.879 263.264,485.546 265.5,484.5 Z"/></g>
<g><path style="opacity:0.324" fill="#909090" d="M 401.5,476.5 C 400.746,484.015 397.412,490.015 391.5,494.5C 390.475,494.103 390.308,493.437 391,492.5C 394.787,487.241 398.287,481.907 401.5,476.5 Z"/></g>
<g><path style="opacity:0.882" fill="#b3b3b3" d="M 136.5,484.5 C 138.422,489.904 140.755,495.237 143.5,500.5C 137.415,496.984 135.082,491.651 136.5,484.5 Z"/></g>
<g><path style="opacity:0.075" fill="#878787" d="M 606.5,492.5 C 608.755,494.531 610.088,497.198 610.5,500.5C 610.088,497.198 608.755,494.531 606.5,492.5 Z"/></g>
<g><path style="opacity:0.149" fill="#535353" d="M 466.5,494.5 C 468.833,494.833 470.167,496.167 470.5,498.5C 469.833,498.5 469.167,498.5 468.5,498.5C 468.167,497.5 467.5,496.833 466.5,496.5C 466.5,495.833 466.5,495.167 466.5,494.5 Z"/></g>
<g><path style="opacity:0.863" fill="#939393" d="M 812.5,492.5 C 810.705,497.423 808.372,502.09 805.5,506.5C 803.925,507.456 802.258,508.123 800.5,508.5C 801.713,505.775 803.546,503.441 806,501.5C 806.725,499.051 807.725,496.717 809,494.5C 809.816,493.177 810.983,492.511 812.5,492.5 Z"/></g>
<g><path style="opacity:0.298" fill="#838383" d="M 222.5,488.5 C 224.782,493.659 227.449,498.659 230.5,503.5C 229.07,503.579 227.736,503.246 226.5,502.5C 223.99,498.153 222.656,493.486 222.5,488.5 Z"/></g>
<g><path style="opacity:0.988" fill="#c0c0c0" d="M 742.5,495.5 C 744.722,495.178 746.556,495.845 748,497.5C 749.504,500.509 751.004,503.509 752.5,506.5C 754.349,507.593 756.016,508.926 757.5,510.5C 762.69,512.993 767.69,515.659 772.5,518.5C 758.07,516.49 748.07,508.823 742.5,495.5 Z"/></g>
<g><path style="opacity:1" fill="#b7b7b7" d="M 362.5,486.5 C 360.38,492.314 358.88,498.314 358,504.5C 354.906,508.934 351.406,513.101 347.5,517C 344.854,517.497 342.187,517.664 339.5,517.5C 340.9,516.9 341.9,515.9 342.5,514.5C 346.241,515.401 348.241,514.068 348.5,510.5C 349.167,510.5 349.5,510.167 349.5,509.5C 351.39,509.703 352.89,509.037 354,507.5C 354.897,503.848 355.73,500.181 356.5,496.5C 356.818,495.353 357.484,494.519 358.5,494C 358.043,493.586 357.709,493.086 357.5,492.5C 358.824,490.058 360.491,488.058 362.5,486.5 Z"/></g>
<g><path style="opacity:0.122" fill="#838383" d="M 438.5,496.5 C 439.792,499.544 440.792,502.71 441.5,506C 439.014,510.853 438.014,516.02 438.5,521.5C 437.235,520.486 436.569,518.986 436.5,517C 436.717,512.798 437.717,508.798 439.5,505C 437.618,502.162 437.285,499.329 438.5,496.5 Z"/></g>
<g><path style="opacity:0.18" fill="#3f3f3f" d="M 474.5,503.5 C 475.797,505.693 475.797,508.027 474.5,510.5C 473.817,510.863 473.15,511.196 472.5,511.5C 472.963,508.67 473.629,506.003 474.5,503.5 Z"/></g>
<g><path style="opacity:0.976" fill="#919191" d="M 468.5,498.5 C 469.167,498.5 469.833,498.5 470.5,498.5C 471.287,500.104 472.62,500.771 474.5,500.5C 474.5,501.5 474.5,502.5 474.5,503.5C 473.629,506.003 472.963,508.67 472.5,511.5C 472.167,511.5 471.833,511.5 471.5,511.5C 471.62,509.801 471.954,508.135 472.5,506.5C 471.582,503.594 470.249,500.928 468.5,498.5 Z"/></g>
<g><path style="opacity:0.6" fill="#a3a3a3" d="M 388.5,497.5 C 387.222,499.799 385.889,502.132 384.5,504.5C 378.367,509.08 372.367,513.913 366.5,519C 364.564,519.813 362.564,520.313 360.5,520.5C 364.783,516.158 369.783,512.492 375.5,509.5C 379.9,505.428 384.233,501.428 388.5,497.5 Z"/></g>
<g><path style="opacity:0.255" fill="#b5b5b5" d="M 281.5,501.5 C 281.123,503.258 280.456,504.925 279.5,506.5C 275.239,509.59 270.573,511.924 265.5,513.5C 265.953,512.542 266.619,511.708 267.5,511C 273.138,509.183 277.805,506.017 281.5,501.5 Z"/></g>
<g><path style="opacity:0.325" fill="#b0b0b0" d="M 149.5,506.5 C 152.124,507.959 154.458,509.625 156.5,511.5C 154.194,511.007 151.861,510.674 149.5,510.5C 149.5,509.167 149.5,507.833 149.5,506.5 Z"/></g>
<g><path style="opacity:0.69" fill="#9c9c9c" d="M 233.5,506.5 C 236.469,507.466 238.802,509.133 240.5,511.5C 238.139,511.326 235.806,510.993 233.5,510.5C 233.5,509.167 233.5,507.833 233.5,506.5 Z"/></g>
<g><path style="opacity:0.016" fill="#535353" d="M 351.5,505.5 C 351.267,507.062 350.6,508.395 349.5,509.5C 348.833,509.5 348.5,509.833 348.5,510.5C 347.292,511.234 345.959,511.567 344.5,511.5C 345.105,509.974 346.271,508.974 348,508.5C 348.483,507.552 348.649,506.552 348.5,505.5C 349.5,505.5 350.5,505.5 351.5,505.5 Z"/></g>
<g><path style="opacity:0.953" fill="#c2c2c2" d="M 605.5,487.5 C 606.496,487.414 607.329,487.748 608,488.5C 610.798,495.224 613.964,501.724 617.5,508C 625.309,509.733 631.976,513.233 637.5,518.5C 627.115,517.246 618.448,512.246 611.5,503.5C 610.614,502.675 610.281,501.675 610.5,500.5C 610.088,497.198 608.755,494.531 606.5,492.5C 605.699,490.958 605.366,489.292 605.5,487.5 Z"/></g>
<g><path style="opacity:0.941" fill="#939393" d="M 559.5,509.5 C 560.833,509.833 562.167,510.167 563.5,510.5C 565.459,512.785 566.792,515.451 567.5,518.5C 566.325,518.719 565.325,518.386 564.5,517.5C 562.941,514.666 561.274,511.999 559.5,509.5 Z"/></g>
<g><path style="opacity:0.169" fill="#888888" d="M 669.5,505.5 C 669.297,507.044 668.63,508.378 667.5,509.5C 663.368,511.566 659.368,513.566 655.5,515.5C 656.933,514.167 658.267,512.667 659.5,511C 663.229,509.745 666.562,507.912 669.5,505.5 Z"/></g>
<g><path style="opacity:0.38" fill="#8d8d8d" d="M 340.5,511.5 C 339.486,512.674 338.153,513.34 336.5,513.5C 334.958,514.301 333.292,514.634 331.5,514.5C 330.596,513.791 330.263,512.791 330.5,511.5C 334.094,512.373 337.427,512.373 340.5,511.5 Z"/></g>
<g><path style="opacity:0.616" fill="#a5a5a5" d="M 524.5,510.5 C 522.909,512.566 521.575,514.899 520.5,517.5C 518.604,518.466 516.604,518.799 514.5,518.5C 514.414,517.504 514.748,516.671 515.5,516C 518.218,513.771 521.218,511.938 524.5,510.5 Z"/></g>
<g><path style="opacity:0.643" fill="#7b7b7b" d="M 692.5,511.5 C 693.5,511.5 694.5,511.5 695.5,511.5C 695.351,512.552 695.517,513.552 696,514.5C 698.118,515.283 699.618,516.616 700.5,518.5C 696.641,517.648 693.974,515.314 692.5,511.5 Z"/></g>
<g><path style="opacity:0.616" fill="#585858" d="M 471.5,512.5 C 470.712,515.621 468.712,517.288 465.5,517.5C 467.137,515.408 469.137,513.741 471.5,512.5 Z"/></g>
<g><path style="opacity:0.851" fill="#838383" d="M 493.5,512.5 C 496.57,513.243 498.236,515.243 498.5,518.5C 495.43,517.757 493.764,515.757 493.5,512.5 Z"/></g>
<g><path style="opacity:0.81" fill="#b8b8b8" d="M 800.5,508.5 C 800.719,509.675 800.386,510.675 799.5,511.5C 794.483,513.655 789.149,515.988 783.5,518.5C 783.5,517.167 783.5,515.833 783.5,514.5C 789.491,513.282 795.157,511.282 800.5,508.5 Z"/></g>
<g><path style="opacity:0.084" fill="#161616" d="M 336.5,513.5 C 336.5,514.167 336.5,514.833 336.5,515.5C 334.585,515.784 332.919,515.451 331.5,514.5C 333.292,514.634 334.958,514.301 336.5,513.5 Z"/></g>
<g><path style="opacity:0.027" fill="#545454" d="M 590.5,512.5 C 590.316,515.337 588.982,517.337 586.5,518.5C 587.298,516.034 588.631,514.034 590.5,512.5 Z"/></g>
<g><path style="opacity:0.02" fill="#565656" d="M 722.5,512.5 C 722.378,515.292 721.044,517.292 718.5,518.5C 718.87,515.733 720.204,513.733 722.5,512.5 Z"/></g>
<g><path style="opacity:0.214" fill="#686868" d="M 324.5,514.5 C 327.505,514.25 329.338,515.583 330,518.5C 332.294,517.578 334.461,516.578 336.5,515.5C 338.5,515.167 340.5,514.833 342.5,514.5C 341.9,515.9 340.9,516.9 339.5,517.5C 331.699,518.104 329.366,522.104 332.5,529.5C 331.175,530.953 330.342,530.619 330,528.5C 329.536,529.094 329.369,529.761 329.5,530.5C 327.698,529.685 326.698,528.185 326.5,526C 326.57,525.235 326.903,524.735 327.5,524.5C 328.785,523.48 328.785,521.813 327.5,519.5C 327.5,518.5 327.5,517.5 327.5,516.5C 325.821,516.715 324.821,516.048 324.5,514.5 Z"/></g>
<g><path style="opacity:0.49" fill="#7e7e7e" d="M 462.5,517.5 C 457.977,520.216 452.977,521.549 447.5,521.5C 451.471,519.47 455.805,517.803 460.5,516.5C 461.183,516.863 461.85,517.196 462.5,517.5 Z"/></g>
<g><path style="opacity:0.576" fill="#292929" d="M 360.5,524.5 C 363.022,526.002 363.022,527.335 360.5,528.5C 360.5,527.167 360.5,525.833 360.5,524.5 Z"/></g>
<g><path style="opacity:0.731" fill="#ececec" d="M 536.5,527.5 C 543.167,527.5 549.833,527.5 556.5,527.5C 556.868,530.533 556.202,533.2 554.5,535.5C 553.5,535.5 552.5,535.5 551.5,535.5C 551.5,543.5 551.5,551.5 551.5,559.5C 549.118,561.046 546.451,561.713 543.5,561.5C 543.666,553.16 543.5,544.827 543,536.5C 541.301,535.594 539.467,535.261 537.5,535.5C 535.448,533.024 535.115,530.358 536.5,527.5 Z"/></g>
<g><path style="opacity:0.774" fill="#ededed" d="M 676.5,527.5 C 683.5,527.5 690.5,527.5 697.5,527.5C 697.5,530.167 697.5,532.833 697.5,535.5C 694.833,535.5 692.167,535.5 689.5,535.5C 689.5,543.833 689.5,552.167 689.5,560.5C 687.167,560.5 684.833,560.5 682.5,560.5C 682.5,552.167 682.5,543.833 682.5,535.5C 680.167,535.5 677.833,535.5 675.5,535.5C 675.401,532.763 675.735,530.096 676.5,527.5 Z"/></g>
<g><path style="opacity:0.651" fill="#818181" d="M 445.5,529.5 C 442.583,529.365 439.916,530.032 437.5,531.5C 437.5,530.167 437.5,528.833 437.5,527.5C 440.698,526.964 443.365,527.631 445.5,529.5 Z"/></g>
<g><path style="opacity:0.034" fill="#494949" d="M 453.5,527.5 C 452.817,529.176 451.483,529.843 449.5,529.5C 449.5,530.5 449.5,531.5 449.5,532.5C 447.915,531.998 447.415,530.998 448,529.5C 449.725,528.536 451.559,527.869 453.5,527.5 Z"/></g>
<g><path style="opacity:0.655" fill="#757575" d="M 595.5,531.5 C 592.785,529.877 589.785,529.21 586.5,529.5C 588.988,527.612 591.988,526.945 595.5,527.5C 595.5,528.833 595.5,530.167 595.5,531.5 Z"/></g>
<g><path style="opacity:0.647" fill="#828282" d="M 616.5,531.5 C 614.971,530.653 613.304,529.986 611.5,529.5C 609.119,530.265 607.119,531.598 605.5,533.5C 606.15,531.565 606.483,529.565 606.5,527.5C 609.833,527.5 613.167,527.5 616.5,527.5C 616.5,528.833 616.5,530.167 616.5,531.5 Z"/></g>
<g><path style="opacity:0.659" fill="#6b6b6b" d="M 697.5,527.5 C 701.029,527.624 704.695,527.791 708.5,528C 709.337,529.011 709.67,530.178 709.5,531.5C 704.164,527.157 700.831,528.49 699.5,535.5C 698.833,535.5 698.167,535.5 697.5,535.5C 697.5,532.833 697.5,530.167 697.5,527.5 Z"/></g>
<g><path style="opacity:0.99" fill="#5d5d5d" d="M 414.5,531.5 C 411.609,530.597 408.609,530.264 405.5,530.5C 405.5,529.5 405.5,528.5 405.5,527.5C 407.857,527.337 410.19,527.503 412.5,528C 413.823,528.816 414.489,529.983 414.5,531.5 Z"/></g>
<g><path style="opacity:0.027" fill="#7c7c7c" d="M 430.5,537.5 C 428.833,536.5 427.5,535.167 426.5,533.5C 426.489,531.983 425.823,530.816 424.5,530C 422.153,529.666 419.819,529.833 417.5,530.5C 417.5,529.5 417.5,528.5 417.5,527.5C 420.5,527.5 423.5,527.5 426.5,527.5C 427.634,530.901 428.968,534.234 430.5,537.5 Z"/></g>
<g><path style="opacity:0.998" fill="#909090" d="M 489.5,531.5 C 486.904,530.735 484.237,530.401 481.5,530.5C 481.5,529.5 481.5,528.5 481.5,527.5C 484.167,527.5 486.833,527.5 489.5,527.5C 489.5,528.833 489.5,530.167 489.5,531.5 Z"/></g>
<g><path style="opacity:0.996" fill="#999999" d="M 509.5,531.5 C 506.803,530.37 504.137,530.37 501.5,531.5C 501.5,530.167 501.5,528.833 501.5,527.5C 503.857,527.337 506.19,527.503 508.5,528C 509.337,529.011 509.67,530.178 509.5,531.5 Z"/></g>
<g><path style="opacity:0.918" fill="#626262" d="M 676.5,527.5 C 675.735,530.096 675.401,532.763 675.5,535.5C 673.883,534.411 673.05,532.744 673,530.5C 672.536,531.094 672.369,531.761 672.5,532.5C 670.801,531.489 669.301,530.155 668,528.5C 666.923,529.429 665.756,530.096 664.5,530.5C 664.5,529.5 664.5,528.5 664.5,527.5C 668.6,528.005 672.6,528.005 676.5,527.5 Z"/></g>
<g><path style="opacity:0.086" fill="#6c6c6c" d="M 728.5,530.5 C 725.5,529.167 722.5,529.167 719.5,530.5C 721.845,527.925 724.845,526.925 728.5,527.5C 728.5,528.5 728.5,529.5 728.5,530.5 Z"/></g>
<g><path style="opacity:0.736" fill="#e9e9e9" d="M 749.5,527.5 C 750.833,530.167 750.833,532.833 749.5,535.5C 746.5,535.5 743.5,535.5 740.5,535.5C 740.5,537.5 740.5,539.5 740.5,541.5C 742.5,541.5 744.5,541.5 746.5,541.5C 747.209,542.404 748.209,542.737 749.5,542.5C 749.675,544.621 749.341,546.621 748.5,548.5C 745.482,548.335 742.482,548.502 739.5,549C 740.833,551.333 740.833,553.667 739.5,556C 740.044,556.717 740.711,557.217 741.5,557.5C 743.717,558.369 746.05,558.702 748.5,558.5C 748.5,560.5 748.5,562.5 748.5,564.5C 744.833,564.5 741.167,564.5 737.5,564.5C 736.33,562.721 734.664,561.721 732.5,561.5C 732.5,550.167 732.5,538.833 732.5,527.5C 738.167,527.5 743.833,527.5 749.5,527.5 Z"/></g>
<g><path style="opacity:0.267" fill="#5e5e5e" d="M 795.5,527.5 C 796.708,528.234 798.041,528.567 799.5,528.5C 799.5,530.833 799.5,533.167 799.5,535.5C 796.941,535.802 794.607,535.468 792.5,534.5C 793.833,534.5 795.167,534.5 796.5,534.5C 796.552,532.097 796.219,529.764 795.5,527.5 Z"/></g>
<g><path style="opacity:0.961" fill="#dedede" d="M 453.5,527.5 C 457.846,527.334 462.179,527.501 466.5,528C 468.852,528.24 470.852,529.073 472.5,530.5C 474.144,533.004 475.644,535.671 477,538.5C 477.499,543.489 477.666,548.489 477.5,553.5C 477.5,553.833 477.5,554.167 477.5,554.5C 474.656,557.409 471.656,560.076 468.5,562.5C 466.989,563.502 465.322,564.169 463.5,564.5C 463.421,563.07 463.754,561.736 464.5,560.5C 463.388,559.735 462.721,558.735 462.5,557.5C 469.821,554.177 472.321,548.511 470,540.5C 467.468,536.093 463.635,534.426 458.5,535.5C 458.5,534.5 458.5,533.5 458.5,532.5C 457.448,532.351 456.448,532.517 455.5,533C 453.586,535.622 451.586,538.122 449.5,540.5C 449.5,537.833 449.5,535.167 449.5,532.5C 449.5,531.5 449.5,530.5 449.5,529.5C 451.483,529.843 452.817,529.176 453.5,527.5 Z"/></g>
<g><path style="opacity:0.865" fill="#dadada" d="M 527.5,529.5 C 529.256,530.552 529.923,532.219 529.5,534.5C 528.167,534.5 526.833,534.5 525.5,534.5C 524.883,534.389 524.383,534.056 524,533.5C 522.782,535.019 521.282,536.186 519.5,537C 520.337,538.011 520.67,539.178 520.5,540.5C 523.535,540.539 526.202,541.539 528.5,543.5C 528.833,545.833 530.167,547.167 532.5,547.5C 536.11,554.06 534.776,559.393 528.5,563.5C 524.217,564.492 519.884,564.826 515.5,564.5C 514.986,562.488 514.82,560.488 515,558.5C 516.356,557.62 517.856,557.286 519.5,557.5C 526.718,557.311 528.051,554.645 523.5,549.5C 520.245,547.074 517.412,544.074 515,540.5C 514.833,539.5 514.667,538.5 514.5,537.5C 516.412,531.232 520.745,528.565 527.5,529.5 Z"/></g>
<g><path style="opacity:1" fill="#8b8b8b" d="M 556.5,527.5 C 559.553,528.424 562.553,528.424 565.5,527.5C 564.498,529.011 563.831,530.678 563.5,532.5C 561.381,532.468 560.048,533.468 559.5,535.5C 557.833,535.5 556.167,535.5 554.5,535.5C 556.202,533.2 556.868,530.533 556.5,527.5 Z"/></g>
<g><path style="opacity:0.693" fill="#e9e9e9" d="M 659.5,527.5 C 659.721,530.279 659.388,532.946 658.5,535.5C 655.15,535.335 651.817,535.502 648.5,536C 649.406,537.699 649.739,539.533 649.5,541.5C 651.167,541.5 652.833,541.5 654.5,541.5C 655.209,542.404 656.209,542.737 657.5,542.5C 657.552,544.903 657.219,547.236 656.5,549.5C 653.813,549.336 651.146,549.503 648.5,550C 649.806,554.499 649.806,558.999 648.5,563.5C 645.169,563.982 642.503,562.982 640.5,560.5C 640.5,549.5 640.5,538.5 640.5,527.5C 646.833,527.5 653.167,527.5 659.5,527.5 Z"/></g>
<g><path style="opacity:0.392" fill="#6a6a6a" d="M 659.5,527.5 C 661.369,529.635 662.036,532.302 661.5,535.5C 660.5,535.5 659.5,535.5 658.5,535.5C 659.388,532.946 659.721,530.279 659.5,527.5 Z"/></g>
<g><path style="opacity:0.431" fill="#626262" d="M 749.5,527.5 C 750.5,527.5 751.5,527.5 752.5,527.5C 752.5,530.167 752.5,532.833 752.5,535.5C 751.5,535.5 750.5,535.5 749.5,535.5C 750.833,532.833 750.833,530.167 749.5,527.5 Z"/></g>
<g><path style="opacity:1" fill="#808080" d="M 770.5,527.5 C 775.559,527.386 777.393,529.72 776,534.5C 772.606,535.456 769.106,535.789 765.5,535.5C 767.607,534.532 769.941,534.198 772.5,534.5C 772.532,531.924 771.865,529.591 770.5,527.5 Z"/></g>
<g><path style="opacity:0.867" fill="#a0a0a0" d="M 787.5,527.5 C 785.35,529.76 783.183,532.093 781,534.5C 779.492,540.011 781.325,543.845 786.5,546C 787.252,546.671 787.586,547.504 787.5,548.5C 781.88,547.547 778.546,544.213 777.5,538.5C 778.093,532.244 781.426,528.577 787.5,527.5 Z"/></g>
<g><path style="opacity:0.701" fill="#f2f2f2" d="M 458.5,535.5 C 457.508,542.648 457.175,549.981 457.5,557.5C 459.167,557.5 460.833,557.5 462.5,557.5C 462.721,558.735 463.388,559.735 464.5,560.5C 463.754,561.736 463.421,563.07 463.5,564.5C 460.5,564.5 457.5,564.5 454.5,564.5C 453.035,563.263 451.368,562.263 449.5,561.5C 449.5,554.5 449.5,547.5 449.5,540.5C 451.586,538.122 453.586,535.622 455.5,533C 456.448,532.517 457.448,532.351 458.5,532.5C 458.5,533.5 458.5,534.5 458.5,535.5 Z"/></g>
<g><path style="opacity:0.718" fill="#6b6b6b" d="M 520.5,527.5 C 518.153,529.581 515.82,531.581 513.5,533.5C 513.998,529.432 516.331,527.432 520.5,527.5 Z"/></g>
<g><path style="opacity:0.969" fill="#6b6b6b" d="M 527.5,527.5 C 530.477,528.678 533.477,528.678 536.5,527.5C 535.115,530.358 535.448,533.024 537.5,535.5C 536.167,535.5 534.833,535.5 533.5,535.5C 533.167,528.833 532.833,528.833 532.5,535.5C 529.941,535.802 527.607,535.468 525.5,534.5C 526.833,534.5 528.167,534.5 529.5,534.5C 529.923,532.219 529.256,530.552 527.5,529.5C 527.5,528.833 527.5,528.167 527.5,527.5 Z"/></g>
<g><path style="opacity:0.678" fill="#808080" d="M 572.5,527.5 C 580.255,527.422 584.255,531.255 584.5,539C 584.453,541.295 583.787,543.129 582.5,544.5C 584.459,539.326 583.459,534.826 579.5,531C 576.826,530.33 574.493,529.163 572.5,527.5 Z"/></g>
<g><path style="opacity:0.176" fill="#6d6d6d" d="M 760.5,528.5 C 759.118,530.549 757.452,532.215 755.5,533.5C 756.167,530.833 757.833,529.167 760.5,528.5 Z"/></g>
<g><path style="opacity:0.975" fill="#d8d8d8" d="M 616.5,531.5 C 618.431,539.412 621.098,547.079 624.5,554.5C 624.5,556.5 624.5,558.5 624.5,560.5C 620.54,560.995 618.207,559.328 617.5,555.5C 618.575,556.562 619.575,556.562 620.5,555.5C 619.333,552.5 618.167,549.5 617,546.5C 615.927,546.799 614.76,546.799 613.5,546.5C 611.804,538.734 610.471,539.067 609.5,547.5C 609.134,548.695 608.301,549.361 607,549.5C 605.7,548.293 604.2,547.626 602.5,547.5C 602.662,549.527 602.495,551.527 602,553.5C 600.121,555.527 598.954,557.86 598.5,560.5C 600.167,560.5 601.833,560.5 603.5,560.5C 601.735,561.461 599.735,561.795 597.5,561.5C 597.5,560.167 597.5,558.833 597.5,557.5C 597.5,557.167 597.5,556.833 597.5,556.5C 598.117,556.389 598.617,556.056 599,555.5C 600.31,551.93 601.143,548.263 601.5,544.5C 601.918,543.778 602.584,543.278 603.5,543C 603.043,542.586 602.709,542.086 602.5,541.5C 604.107,539.083 605.107,536.416 605.5,533.5C 607.119,531.598 609.119,530.265 611.5,529.5C 613.304,529.986 614.971,530.653 616.5,531.5 Z M 613.5,546.5 C 612.34,546.437 611.006,546.77 609.5,547.5C 610.471,539.067 611.804,538.734 613.5,546.5 Z"/></g>
<g><path style="opacity:0.756" fill="#e9e9e9" d="M 770.5,527.5 C 771.865,529.591 772.532,531.924 772.5,534.5C 769.941,534.198 767.607,534.532 765.5,535.5C 762.993,535.632 762.326,536.632 763.5,538.5C 764.264,542.695 766.764,545.028 771,545.5C 772.564,548.371 774.064,551.204 775.5,554C 774.747,555.877 773.914,557.711 773,559.5C 771.082,560.542 769.249,561.708 767.5,563C 765.098,563.814 762.765,563.647 760.5,562.5C 759.147,561.476 758.48,560.143 758.5,558.5C 759.791,558.737 760.791,558.404 761.5,557.5C 766.501,558.329 768.668,556.329 768,551.5C 766.729,550.117 765.229,549.117 763.5,548.5C 761.903,546.236 759.903,544.236 757.5,542.5C 756.92,539.689 756.254,537.023 755.5,534.5C 755.5,534.167 755.5,533.833 755.5,533.5C 757.452,532.215 759.118,530.549 760.5,528.5C 763.728,527.586 767.061,527.253 770.5,527.5 Z"/></g>
<g><path style="opacity:0.62" fill="#b0b0b0" d="M 793.5,527.5 C 794.167,527.5 794.833,527.5 795.5,527.5C 796.219,529.764 796.552,532.097 796.5,534.5C 795.167,534.5 793.833,534.5 792.5,534.5C 790.833,535.167 789.167,535.833 787.5,536.5C 786.295,534.59 786.962,533.257 789.5,532.5C 791.071,533.309 792.738,533.643 794.5,533.5C 794.483,531.435 794.15,529.435 793.5,527.5 Z"/></g>
<g><path style="opacity:0.73" fill="#ededed" d="M 565.5,527.5 C 567.833,527.5 570.167,527.5 572.5,527.5C 574.493,529.163 576.826,530.33 579.5,531C 583.459,534.826 584.459,539.326 582.5,544.5C 582.443,545.609 582.11,546.609 581.5,547.5C 580.503,547.47 579.836,547.97 579.5,549C 580.27,552.249 581.27,555.415 582.5,558.5C 582.167,559.167 581.833,559.833 581.5,560.5C 578.825,558.582 576.825,556.249 575.5,553.5C 573.866,552.793 572.532,551.627 571.5,550C 570.552,549.517 569.552,549.351 568.5,549.5C 568.5,553.167 568.5,556.833 568.5,560.5C 565.553,561.424 562.553,561.424 559.5,560.5C 559.5,552.167 559.5,543.833 559.5,535.5C 560.048,533.468 561.381,532.468 563.5,532.5C 563.831,530.678 564.498,529.011 565.5,527.5 Z M 568.5,535.5 C 570.857,535.337 573.19,535.503 575.5,536C 577.223,539.408 576.223,541.741 572.5,543C 571.207,543.49 569.873,543.657 568.5,543.5C 568.5,540.833 568.5,538.167 568.5,535.5 Z"/></g>
<g><path style="opacity:0.744" fill="#e8e8e8" d="M 709.5,531.5 C 713.162,535.692 716.328,540.359 719,545.5C 719.499,540.511 719.666,535.511 719.5,530.5C 722.5,529.167 725.5,529.167 728.5,530.5C 728.5,540.5 728.5,550.5 728.5,560.5C 725.148,561.707 721.814,561.707 718.5,560.5C 717.31,558.645 715.977,556.812 714.5,555C 715.056,554.617 715.389,554.117 715.5,553.5C 714.247,549.403 711.914,546.07 708.5,543.5C 707.5,548.068 707.167,553.401 707.5,559.5C 705.896,560.287 705.229,561.62 705.5,563.5C 703.282,563.386 701.282,562.72 699.5,561.5C 699.5,552.833 699.5,544.167 699.5,535.5C 700.831,528.49 704.164,527.157 709.5,531.5 Z"/></g>
<g><path style="opacity:0.355" fill="#dbdbdb" d="M 405.5,530.5 C 408.609,530.264 411.609,530.597 414.5,531.5C 414.5,540.833 414.5,550.167 414.5,559.5C 411.838,561.268 408.838,561.935 405.5,561.5C 405.5,560.833 405.5,560.167 405.5,559.5C 407.766,559.859 409.599,559.192 411,557.5C 410.974,551.283 411.808,545.283 413.5,539.5C 412.978,534.149 410.311,532.482 405.5,534.5C 405.5,533.167 405.5,531.833 405.5,530.5 Z"/></g>
<g><path style="opacity:0.772" fill="#ececec" d="M 445.5,529.5 C 445.5,540.167 445.5,550.833 445.5,561.5C 443.473,561.662 441.473,561.495 439.5,561C 436.961,559.279 434.628,557.446 432.5,555.5C 430.007,551.852 427.507,548.186 425,544.5C 424.501,549.489 424.334,554.489 424.5,559.5C 422.833,559.5 421.167,559.5 419.5,559.5C 419.334,550.494 419.5,541.494 420,532.5C 422.414,531.144 424.581,531.478 426.5,533.5C 427.5,535.167 428.833,536.5 430.5,537.5C 433.621,540.138 435.788,543.472 437,547.5C 437.499,542.177 437.666,536.844 437.5,531.5C 439.916,530.032 442.583,529.365 445.5,529.5 Z"/></g>
<g><path style="opacity:0.039" fill="#969696" d="M 360.5,532.5 C 360.509,534.308 360.009,535.975 359,537.5C 358.667,537.167 358.333,536.833 358,536.5C 356.261,538.318 354.094,539.318 351.5,539.5C 353.047,535.532 356.047,533.199 360.5,532.5 Z"/></g>
<g><path style="opacity:0.647" fill="#f3f3f3" d="M 405.5,559.5 C 405.5,551.167 405.5,542.833 405.5,534.5C 410.311,532.482 412.978,534.149 413.5,539.5C 411.808,545.283 410.974,551.283 411,557.5C 409.599,559.192 407.766,559.859 405.5,559.5 Z"/></g>
<g><path style="opacity:0.621" fill="#ededed" d="M 586.5,529.5 C 589.785,529.21 592.785,529.877 595.5,531.5C 595.5,540.833 595.5,550.167 595.5,559.5C 593.18,562.494 590.18,563.161 586.5,561.5C 586.5,550.833 586.5,540.167 586.5,529.5 Z"/></g>
<g><path style="opacity:0.642" fill="#efefef" d="M 664.5,533.5 C 666.467,533.261 668.301,533.594 670,534.5C 670.5,541.826 670.666,549.159 670.5,556.5C 670.241,560.068 668.241,561.401 664.5,560.5C 664.5,551.5 664.5,542.5 664.5,533.5 Z"/></g>
<g><path style="opacity:0.173" fill="#808080" d="M 755.5,534.5 C 756.254,537.023 756.92,539.689 757.5,542.5C 759.903,544.236 761.903,546.236 763.5,548.5C 757.611,547.59 754.611,544.09 754.5,538C 754.514,536.615 754.848,535.449 755.5,534.5 Z"/></g>
<g><path style="opacity:0.416" fill="#6f6f6f" d="M 35.5,539.5 C 37.8477,539.592 39.5144,540.592 40.5,542.5C 37.715,543.084 36.0483,542.084 35.5,539.5 Z"/></g>
<g><path style="opacity:0.131" fill="#575757" d="M 329.5,534.5 C 329.986,536.952 329.986,539.618 329.5,542.5C 328.5,542.5 327.5,542.5 326.5,542.5C 327.129,539.603 328.129,536.936 329.5,534.5 Z"/></g>
<g><path style="opacity:0.495" fill="#c8c8c8" d="M 672.5,532.5 C 672.5,540.5 672.5,548.5 672.5,556.5C 671.833,556.5 671.167,556.5 670.5,556.5C 670.666,549.159 670.5,541.826 670,534.5C 668.301,533.594 666.467,533.261 664.5,533.5C 664.5,532.5 664.5,531.5 664.5,530.5C 665.756,530.096 666.923,529.429 668,528.5C 669.301,530.155 670.801,531.489 672.5,532.5 Z"/></g>
<g><path style="opacity:0.773" fill="#9a9a9a" d="M 472.5,530.5 C 476.413,532.65 478.58,535.984 479,540.5C 479.939,545.136 479.439,549.469 477.5,553.5C 477.666,548.489 477.499,543.489 477,538.5C 475.644,535.671 474.144,533.004 472.5,530.5 Z"/></g>
<g><path style="opacity:0.875" fill="#ababab" d="M 520.5,527.5 C 522.833,527.5 525.167,527.5 527.5,527.5C 527.5,528.167 527.5,528.833 527.5,529.5C 520.745,528.565 516.412,531.232 514.5,537.5C 514.667,538.5 514.833,539.5 515,540.5C 517.412,544.074 520.245,547.074 523.5,549.5C 514.026,547.591 510.693,542.258 513.5,533.5C 515.82,531.581 518.153,529.581 520.5,527.5 Z"/></g>
<g><path style="opacity:0.004" fill="#414141" d="M 528.5,543.5 C 530.773,543.957 532.106,545.29 532.5,547.5C 530.167,547.167 528.833,545.833 528.5,543.5 Z"/></g>
<g><path style="opacity:0.982" fill="#717171" d="M 654.5,541.5 C 656.467,541.261 658.301,541.594 660,542.5C 660.497,544.81 660.663,547.143 660.5,549.5C 659.167,549.5 657.833,549.5 656.5,549.5C 657.219,547.236 657.552,544.903 657.5,542.5C 656.209,542.737 655.209,542.404 654.5,541.5 Z"/></g>
<g><path style="opacity:0.267" fill="#474747" d="M 746.5,541.5 C 748.144,541.286 749.644,541.62 751,542.5C 751.495,544.473 751.662,546.473 751.5,548.5C 750.5,548.5 749.5,548.5 748.5,548.5C 749.341,546.621 749.675,544.621 749.5,542.5C 748.209,542.737 747.209,542.404 746.5,541.5 Z"/></g>
<g><path style="opacity:0.004" fill="#808080" d="M 795.5,543.5 C 798.797,545.133 800.464,547.8 800.5,551.5C 798.336,549.178 796.669,546.511 795.5,543.5 Z"/></g>
<g><path style="opacity:0.777" fill="#f1f1f1" d="M 617.5,555.5 C 616.833,555.5 616.167,555.5 615.5,555.5C 614.486,554.235 612.986,553.569 611,553.5C 609.293,553.508 607.793,553.842 606.5,554.5C 604.755,556.033 603.755,558.033 603.5,560.5C 601.833,560.5 600.167,560.5 598.5,560.5C 598.954,557.86 600.121,555.527 602,553.5C 602.495,551.527 602.662,549.527 602.5,547.5C 604.2,547.626 605.7,548.293 607,549.5C 608.301,549.361 609.134,548.695 609.5,547.5C 611.006,546.77 612.34,546.437 613.5,546.5C 614.76,546.799 615.927,546.799 617,546.5C 618.167,549.5 619.333,552.5 620.5,555.5C 619.575,556.562 618.575,556.562 617.5,555.5 Z"/></g>
<g><path style="opacity:0.071" fill="#757575" d="M 601.5,544.5 C 601.143,548.263 600.31,551.93 599,555.5C 598.617,556.056 598.117,556.389 597.5,556.5C 597.966,552.114 599.299,548.114 601.5,544.5 Z"/></g>
<g><path style="opacity:0.969" fill="#bababa" d="M 426.5,533.5 C 424.581,531.478 422.414,531.144 420,532.5C 419.5,541.494 419.334,550.494 419.5,559.5C 421.167,559.5 422.833,559.5 424.5,559.5C 424.768,561.099 424.434,562.432 423.5,563.5C 422.127,563.657 420.793,563.49 419.5,563C 418.922,561.583 417.922,560.75 416.5,560.5C 416.193,550.418 416.526,540.418 417.5,530.5C 419.819,529.833 422.153,529.666 424.5,530C 425.823,530.816 426.489,531.983 426.5,533.5 Z"/></g>
<g><path style="opacity:0.894" fill="#eaeaea" d="M 481.5,530.5 C 484.237,530.401 486.904,530.735 489.5,531.5C 489.099,539.585 489.599,547.585 491,555.5C 495.194,557.996 498.527,556.996 501,552.5C 501.5,545.508 501.666,538.508 501.5,531.5C 504.137,530.37 506.803,530.37 509.5,531.5C 509.5,537.833 509.5,544.167 509.5,550.5C 508.5,550.5 507.5,550.5 506.5,550.5C 506.785,552.288 506.452,553.955 505.5,555.5C 503.38,558.71 501.047,561.71 498.5,564.5C 496.5,564.5 494.5,564.5 492.5,564.5C 489.036,561.266 485.37,558.266 481.5,555.5C 481.5,547.167 481.5,538.833 481.5,530.5 Z"/></g>
<g><path style="opacity:0.063" fill="#a3a3a3" d="M 708.5,543.5 C 711.914,546.07 714.247,549.403 715.5,553.5C 714.504,553.586 713.671,553.252 713,552.5C 710.953,549.834 709.453,546.834 708.5,543.5 Z"/></g>
<g><path style="opacity:0.222" fill="#b9b9b9" d="M 763.5,538.5 C 768.118,541.278 772.618,544.278 777,547.5C 777.498,550.817 777.665,554.15 777.5,557.5C 775.003,558.129 773.67,559.796 773.5,562.5C 769.066,564.237 764.399,564.904 759.5,564.5C 756.867,563.34 756.034,561.34 757,558.5C 758.356,557.62 759.856,557.286 761.5,557.5C 760.791,558.404 759.791,558.737 758.5,558.5C 758.48,560.143 759.147,561.476 760.5,562.5C 762.765,563.647 765.098,563.814 767.5,563C 769.249,561.708 771.082,560.542 773,559.5C 773.914,557.711 774.747,555.877 775.5,554C 774.064,551.204 772.564,548.371 771,545.5C 766.764,545.028 764.264,542.695 763.5,538.5 Z"/></g>
<g><path style="opacity:1" fill="#d2d2d2" d="M 332.5,530.5 C 333.649,530.791 334.316,531.624 334.5,533C 334.559,537.798 334.226,542.632 333.5,547.5C 334.741,551.197 336.407,554.697 338.5,558C 340.367,558.711 341.867,558.211 343,556.5C 344.018,552.709 344.851,548.875 345.5,545C 345.836,543.97 346.503,543.47 347.5,543.5C 348.797,544.849 348.63,546.182 347,547.5C 346.501,551.486 346.334,555.486 346.5,559.5C 344.866,560.207 343.532,561.373 342.5,563C 339.779,563.602 337.113,563.435 334.5,562.5C 332.658,551.974 331.991,541.307 332.5,530.5 Z"/></g>
<g><path style="opacity:0.906" fill="#b4b4b4" d="M 581.5,547.5 C 582.388,551.216 583.388,554.882 584.5,558.5C 584.5,560.167 584.5,561.833 584.5,563.5C 581.583,563.635 578.916,562.968 576.5,561.5C 576.896,558.956 576.229,556.789 574.5,555C 575.056,554.617 575.389,554.117 575.5,553.5C 576.825,556.249 578.825,558.582 581.5,560.5C 581.833,559.833 582.167,559.167 582.5,558.5C 581.27,555.415 580.27,552.249 579.5,549C 579.836,547.97 580.503,547.47 581.5,547.5 Z"/></g>
<g><path style="opacity:0.054" fill="#4a4a4a" d="M 750.5,556.5 C 754.242,556.526 757.909,556.859 761.5,557.5C 759.856,557.286 758.356,557.62 757,558.5C 756.034,561.34 756.867,563.34 759.5,564.5C 757.4,564.523 755.567,563.856 754,562.5C 752.923,563.429 751.756,564.096 750.5,564.5C 751.714,561.871 751.714,559.204 750.5,556.5 Z"/></g>
<g><path style="opacity:0.184" fill="#555555" d="M 786.5,557.5 C 780.37,557.196 779.037,559.529 782.5,564.5C 779.43,563.757 777.764,561.757 777.5,558.5C 780.346,556.366 783.346,556.033 786.5,557.5 Z"/></g>
<g><path style="opacity:0.196" fill="#949494" d="M 432.5,555.5 C 434.628,557.446 436.961,559.279 439.5,561C 441.473,561.495 443.473,561.662 445.5,561.5C 445.5,561.833 445.5,562.167 445.5,562.5C 443.283,563.369 440.95,563.702 438.5,563.5C 435.529,561.557 433.529,558.891 432.5,555.5 Z"/></g>
<g><path style="opacity:0.698" fill="#e1e1e1" d="M 787.5,527.5 C 789.5,527.5 791.5,527.5 793.5,527.5C 794.15,529.435 794.483,531.435 794.5,533.5C 792.738,533.643 791.071,533.309 789.5,532.5C 786.962,533.257 786.295,534.59 787.5,536.5C 787.33,537.822 787.663,538.989 788.5,540C 790.804,541.839 793.137,543.006 795.5,543.5C 796.669,546.511 798.336,549.178 800.5,551.5C 800.5,553.833 800.5,556.167 800.5,558.5C 798.227,558.957 796.894,560.29 796.5,562.5C 792.134,564.371 787.467,565.038 782.5,564.5C 779.037,559.529 780.37,557.196 786.5,557.5C 788.861,557.326 791.194,556.993 793.5,556.5C 792.657,552.987 790.657,550.32 787.5,548.5C 787.586,547.504 787.252,546.671 786.5,546C 781.325,543.845 779.492,540.011 781,534.5C 783.183,532.093 785.35,529.76 787.5,527.5 Z"/></g>
<g><path style="opacity:0.914" fill="#929292" d="M 481.5,555.5 C 485.37,558.266 489.036,561.266 492.5,564.5C 486.763,564.102 483.097,561.102 481.5,555.5 Z"/></g>
<g><path style="opacity:0.953" fill="#515151" d="M 519.5,557.5 C 517.856,557.286 516.356,557.62 515,558.5C 514.82,560.488 514.986,562.488 515.5,564.5C 512.374,563.194 511.207,560.86 512,557.5C 514.605,556.186 517.105,556.186 519.5,557.5 Z"/></g>
<g><path style="opacity:0.986" fill="#b3b3b3" d="M 741.5,557.5 C 744.287,556.523 747.287,556.19 750.5,556.5C 751.714,559.204 751.714,561.871 750.5,564.5C 749.833,564.5 749.167,564.5 748.5,564.5C 748.5,562.5 748.5,560.5 748.5,558.5C 746.05,558.702 743.717,558.369 741.5,557.5 Z"/></g>
<g><path style="opacity:0.208" fill="#7c7c7c" d="M 477.5,554.5 C 476.452,559.209 473.452,561.875 468.5,562.5C 471.656,560.076 474.656,557.409 477.5,554.5 Z"/></g>
<g><path style="opacity:0.22" fill="#acacac" d="M 509.5,550.5 C 509.141,557.931 505.475,562.598 498.5,564.5C 501.047,561.71 503.38,558.71 505.5,555.5C 506.452,553.955 506.785,552.288 506.5,550.5C 507.5,550.5 508.5,550.5 509.5,550.5 Z"/></g>
<g><path style="opacity:1" fill="#a6a6a6" d="M 624.5,554.5 C 626.04,556.838 626.706,559.505 626.5,562.5C 623.946,563.388 621.279,563.721 618.5,563.5C 617.117,561.022 616.117,558.355 615.5,555.5C 616.167,555.5 616.833,555.5 617.5,555.5C 618.207,559.328 620.54,560.995 624.5,560.5C 624.5,558.5 624.5,556.5 624.5,554.5 Z"/></g>
<g><path style="opacity:0.91" fill="#949494" d="M 670.5,556.5 C 671.167,556.5 671.833,556.5 672.5,556.5C 672.5,557.833 672.5,559.167 672.5,560.5C 670.59,562.284 668.256,563.284 665.5,563.5C 664.596,562.791 664.263,561.791 664.5,560.5C 668.241,561.401 670.241,560.068 670.5,556.5 Z"/></g>
<g><path style="opacity:0.027" fill="#434343" d="M 777.5,557.5 C 777.5,557.833 777.5,558.167 777.5,558.5C 776.527,560.139 775.194,561.473 773.5,562.5C 773.67,559.796 775.003,558.129 777.5,557.5 Z"/></g>
<g><path style="opacity:0.122" fill="#464646" d="M 800.5,558.5 C 800.167,560.833 798.833,562.167 796.5,562.5C 796.894,560.29 798.227,558.957 800.5,558.5 Z"/></g>
<g><path style="opacity:0.969" fill="#5a5a5a" d="M 551.5,559.5 C 550.466,563.534 547.8,565.201 543.5,564.5C 543.5,563.5 543.5,562.5 543.5,561.5C 546.451,561.713 549.118,561.046 551.5,559.5 Z"/></g>
<g><path style="opacity:0.275" fill="#363636" d="M 584.5,558.5 C 585.461,560.265 585.795,562.265 585.5,564.5C 582.753,564.813 580.086,564.48 577.5,563.5C 577.137,562.817 576.804,562.15 576.5,561.5C 578.916,562.968 581.583,563.635 584.5,563.5C 584.5,561.833 584.5,560.167 584.5,558.5 Z"/></g>
<g><path style="opacity:0.243" fill="#333333" d="M 672.5,560.5 C 671.311,564.33 668.978,565.33 665.5,563.5C 668.256,563.284 670.59,562.284 672.5,560.5 Z"/></g>
<g><path style="opacity:0.969" fill="#a1a1a1" d="M 682.5,560.5 C 684.833,560.5 687.167,560.5 689.5,560.5C 689.5,561.5 689.5,562.5 689.5,563.5C 687.097,563.552 684.764,563.219 682.5,562.5C 682.5,561.833 682.5,561.167 682.5,560.5 Z"/></g>
<g><path style="opacity:0.434" fill="#5b5b5b" d="M 414.5,559.5 C 413.457,563.685 410.791,565.185 406.5,564C 405.748,563.329 405.414,562.496 405.5,561.5C 408.838,561.935 411.838,561.268 414.5,559.5 Z"/></g>
<g><path style="opacity:0.498" fill="#717171" d="M 449.5,561.5 C 451.368,562.263 453.035,563.263 454.5,564.5C 451.715,565.084 450.048,564.084 449.5,561.5 Z"/></g>
<g><path style="opacity:0.494" fill="#858585" d="M 559.5,560.5 C 562.553,561.424 565.553,561.424 568.5,560.5C 568.845,563.488 567.512,564.821 564.5,564.5C 561.397,564.798 559.73,563.465 559.5,560.5 Z"/></g>
<g><path style="opacity:0.498" fill="#808080" d="M 606.5,554.5 C 606.938,554.435 607.272,554.601 607.5,555C 606.236,557.958 604.902,560.791 603.5,563.5C 601.05,563.702 598.717,563.369 596.5,562.5C 593.823,564.432 590.823,564.932 587.5,564C 586.748,563.329 586.414,562.496 586.5,561.5C 590.18,563.161 593.18,562.494 595.5,559.5C 596.167,558.833 596.833,558.167 597.5,557.5C 597.5,558.833 597.5,560.167 597.5,561.5C 599.735,561.795 601.735,561.461 603.5,560.5C 603.755,558.033 604.755,556.033 606.5,554.5 Z"/></g>
<g><path style="opacity:0.498" fill="#8a8a8a" d="M 718.5,560.5 C 721.814,561.707 725.148,561.707 728.5,560.5C 728.763,563.734 727.263,565.068 724,564.5C 720.867,564.858 719.033,563.525 718.5,560.5 Z"/></g>
<g><path style="opacity:0.02" fill="#252525" d="M 416.5,560.5 C 417.922,560.75 418.922,561.583 419.5,563C 420.793,563.49 422.127,563.657 423.5,563.5C 420.022,565.33 417.689,564.33 416.5,560.5 Z"/></g>
<g><path style="opacity:0.02" fill="#141414" d="M 445.5,562.5 C 444.848,563.725 443.681,564.392 442,564.5C 440.615,564.486 439.449,564.152 438.5,563.5C 440.95,563.702 443.283,563.369 445.5,562.5 Z"/></g>
<g><path style="opacity:0.018" fill="#1c1c1c" d="M 596.5,562.5 C 598.717,563.369 601.05,563.702 603.5,563.5C 602.551,564.152 601.385,564.486 600,564.5C 598.319,564.392 597.152,563.725 596.5,562.5 Z"/></g>
<g><path style="opacity:0.004" fill="#2b2b2b" d="M 626.5,562.5 C 625.666,563.748 624.333,564.415 622.5,564.5C 620.955,564.489 619.622,564.156 618.5,563.5C 621.279,563.721 623.946,563.388 626.5,562.5 Z"/></g>
<g><path style="opacity:0.02" fill="#363636" d="M 640.5,560.5 C 642.503,562.982 645.169,563.982 648.5,563.5C 646.372,564.629 644.039,564.796 641.5,564C 640.663,562.989 640.33,561.822 640.5,560.5 Z"/></g>
<g><path style="opacity:0.02" fill="#181818" d="M 682.5,562.5 C 684.764,563.219 687.097,563.552 689.5,563.5C 688.551,564.152 687.385,564.486 686,564.5C 684.319,564.392 683.152,563.725 682.5,562.5 Z"/></g>
<g><path style="opacity:0.018" fill="#313131" d="M 707.5,559.5 C 708.799,561.153 708.466,562.653 706.5,564C 704.5,564.667 702.5,564.667 700.5,564C 699.748,563.329 699.414,562.496 699.5,561.5C 701.282,562.72 703.282,563.386 705.5,563.5C 705.229,561.62 705.896,560.287 707.5,559.5 Z"/></g>
<g><path style="opacity:0.02" fill="#686868" d="M 732.5,561.5 C 734.664,561.721 736.33,562.721 737.5,564.5C 735.833,564.5 734.167,564.5 732.5,564.5C 732.5,563.5 732.5,562.5 732.5,561.5 Z"/></g>
<g><path style="opacity:0.294" fill="#494949" d="M 346.5,559.5 C 346.167,561.5 345.833,563.5 345.5,565.5C 342.148,566.553 338.815,566.553 335.5,565.5C 334.873,564.583 334.539,563.583 334.5,562.5C 337.113,563.435 339.779,563.602 342.5,563C 343.532,561.373 344.866,560.207 346.5,559.5 Z"/></g>
</svg>
