<?xml version="1.0" encoding="UTF-8" standalone="no"?>
<svg
   width="1024"
   zoomAndPan="magnify"
   viewBox="0 0 768 192"
   height="256"
   preserveAspectRatio="xMidYMid"
   version="1.0"
   id="svg66"
   xmlns="http://www.w3.org/2000/svg"
   xmlns:svg="http://www.w3.org/2000/svg">
  <defs
     id="defs33">
    <clipPath
       id="a5bd51dc70">
      <path
         d="M 0,21 H 15 V 164 H 0 Z m 0,0"
         clip-rule="nonzero"
         id="path7" />
    </clipPath>
    <clipPath
       id="a98467a042">
      <path
         d="M 40,-46.691406 140.71875,125.51953 -52.855469,238.73047 -153.57422,66.519531 Z m 0,0"
         clip-rule="nonzero"
         id="path8" />
    </clipPath>
    <clipPath
       id="cc8756217e">
      <path
         d="M 40,-46.691406 140.71875,125.51953 -52.855469,238.73047 -153.57422,66.519531 Z m 0,0"
         clip-rule="nonzero"
         id="path9" />
    </clipPath>
    <clipPath
       id="49547b4d67">
      <path
         d="m 5,20 h 94 v 93 H 5 Z m 0,0"
         clip-rule="nonzero"
         id="path10" />
    </clipPath>
    <clipPath
       id="84f813f2b7">
      <path
         d="M 40,-46.691406 140.71875,125.51953 -52.855469,238.73047 -153.57422,66.519531 Z m 0,0"
         clip-rule="nonzero"
         id="path11" />
    </clipPath>
    <clipPath
       id="0b9ba494cb">
      <path
         d="M 40,-46.691406 140.71875,125.51953 -52.855469,238.73047 -153.57422,66.519531 Z m 0,0"
         clip-rule="nonzero"
         id="path12" />
    </clipPath>
    <clipPath
       id="9c463b961e">
      <path
         d="m 0,107 h 71 v 74 H 0 Z m 0,0"
         clip-rule="nonzero"
         id="path13" />
    </clipPath>
    <clipPath
       id="3ce7a6134b">
      <path
         d="M 40,-46.691406 140.71875,125.51953 -52.855469,238.73047 -153.57422,66.519531 Z m 0,0"
         clip-rule="nonzero"
         id="path14" />
    </clipPath>
    <clipPath
       id="2c14e26725">
      <path
         d="M 40,-46.691406 140.71875,125.51953 -52.855469,238.73047 -153.57422,66.519531 Z m 0,0"
         clip-rule="nonzero"
         id="path15" />
    </clipPath>
    <clipPath
       id="3628fb0203">
      <path
         d="m 728,10 h 40 v 139 h -40 z m 0,0"
         clip-rule="nonzero"
         id="path16" />
    </clipPath>
    <clipPath
       id="f09fea22b4">
      <path
         d="M 754.41406,238.67969 602.39844,111.8125 743.20312,-56.902344 895.21875,69.96875 Z m 0,0"
         clip-rule="nonzero"
         id="path17" />
    </clipPath>
    <clipPath
       id="e6eed715bc">
      <path
         d="M 754.41406,238.67969 602.39844,111.8125 743.20312,-56.902344 895.21875,69.96875 Z m 0,0"
         clip-rule="nonzero"
         id="path18" />
    </clipPath>
    <clipPath
       id="70381fbd22">
      <path
         d="m 760,41 h 8 v 77 h -8 z m 0,0"
         clip-rule="nonzero"
         id="path19" />
    </clipPath>
    <clipPath
       id="9cf302ef67">
      <path
         d="M 754.41406,238.67969 602.39844,111.8125 743.20312,-56.902344 895.21875,69.96875 Z m 0,0"
         clip-rule="nonzero"
         id="path20" />
    </clipPath>
    <clipPath
       id="df55e00d1f">
      <path
         d="M 754.41406,238.67969 602.39844,111.8125 743.20312,-56.902344 895.21875,69.96875 Z m 0,0"
         clip-rule="nonzero"
         id="path21" />
    </clipPath>
    <clipPath
       id="594abe087e">
      <path
         d="m 660,91 h 94 v 93 h -94 z m 0,0"
         clip-rule="nonzero"
         id="path22" />
    </clipPath>
    <clipPath
       id="529ddfc4b7">
      <path
         d="M 754.41406,238.67969 602.39844,111.8125 743.20312,-56.902344 895.21875,69.96875 Z m 0,0"
         clip-rule="nonzero"
         id="path23" />
    </clipPath>
    <clipPath
       id="1748db2e56">
      <path
         d="M 754.41406,238.67969 602.39844,111.8125 743.20312,-56.902344 895.21875,69.96875 Z m 0,0"
         clip-rule="nonzero"
         id="path24" />
    </clipPath>
    <clipPath
       id="2206ec708b">
      <path
         d="m 681,111 h 52 v 52 h -52 z m 0,0"
         clip-rule="nonzero"
         id="path25" />
    </clipPath>
    <clipPath
       id="4cefe877c6">
      <path
         d="M 754.41406,238.67969 602.39844,111.8125 743.20312,-56.902344 895.21875,69.96875 Z m 0,0"
         clip-rule="nonzero"
         id="path26" />
    </clipPath>
    <clipPath
       id="3189349500">
      <path
         d="M 754.41406,238.67969 602.39844,111.8125 743.20312,-56.902344 895.21875,69.96875 Z m 0,0"
         clip-rule="nonzero"
         id="path27" />
    </clipPath>
    <clipPath
       id="afc9347d72">
      <path
         d="m 659,20 h 75 v 76 h -75 z m 0,0"
         clip-rule="nonzero"
         id="path28" />
    </clipPath>
    <clipPath
       id="025f2c3f4f">
      <path
         d="M 754.41406,238.67969 602.39844,111.8125 743.20312,-56.902344 895.21875,69.96875 Z m 0,0"
         clip-rule="nonzero"
         id="path29" />
    </clipPath>
    <clipPath
       id="209e0ae916">
      <path
         d="M 754.41406,238.67969 602.39844,111.8125 743.20312,-56.902344 895.21875,69.96875 Z m 0,0"
         clip-rule="nonzero"
         id="path30" />
    </clipPath>
    <clipPath
       id="77a17a9bdb">
      <path
         d="m 675,37 h 43 v 42 h -43 z m 0,0"
         clip-rule="nonzero"
         id="path31" />
    </clipPath>
    <clipPath
       id="20b205322a">
      <path
         d="M 754.41406,238.67969 602.39844,111.8125 743.20312,-56.902344 895.21875,69.96875 Z m 0,0"
         clip-rule="nonzero"
         id="path32" />
    </clipPath>
    <clipPath
       id="fdc58bcaa5">
      <path
         d="M 754.41406,238.67969 602.39844,111.8125 743.20312,-56.902344 895.21875,69.96875 Z m 0,0"
         clip-rule="nonzero"
         id="path33" />
    </clipPath>
  </defs>
  <rect
     x="-76.800003"
     width="921.59998"
     fill="#ffffff"
     y="-19.200001"
     height="230.39999"
     fill-opacity="1"
     id="rect33" />
  <rect
     x="-76.800003"
     width="921.59998"
     fill="#121316"
     y="-19.200001"
     height="230.39999"
     fill-opacity="1"
     id="rect34"
     style="fill:#666666" />
  <g
     clip-path="url(#a5bd51dc70)"
     id="g42">
    <g
       clip-path="url(#a98467a042)"
       id="g41">
      <g
         clip-path="url(#cc8756217e)"
         id="g40">
        <path
           fill="#ff4d00"
           d="M -6.753906,119.19922 10.292969,118.375 14.640625,101.76953 0.144531,92.667969 c 0.0625,-5.5 -0.679687,-11.046875 -2.269531,-16.464844 L 9.382812,63.523438 0.71875,48.707031 -15.972656,52.523438 c -3.945313,-4.039063 -8.417969,-7.40625 -13.238282,-10.050782 L -30.039062,25.375 -46.640625,21.027344 -55.714844,35.480469 c -5.535156,-0.08203 -11.117187,0.652343 -16.570312,2.242187 l -12.601563,-11.445312 -14.816406,8.667968 3.777344,16.527344 c -4.113279,3.988282 -7.531249,8.519532 -10.207029,13.414063 l -16.89844,0.816406 -4.35156,16.601563 14.28906,8.972656 c -0.0859,5.609375 0.66406,11.269536 2.29297,16.792966 l -11.32813,12.48047 8.66407,14.81641 16.429684,-3.75391 c 4.015625,4.12891 8.582031,7.55469 13.515625,10.23047 l 0.8125,16.85156 16.605469,4.35156 8.996093,-14.33203 c 5.578125,0.0664 11.203125,-0.6914 16.691407,-2.32031 l 12.558593,11.39453 14.8125,-8.66406 -3.792969,-16.59375 c 4.0625,-3.96484 7.4375,-8.46875 10.082032,-13.33203 z m -82.128906,-8.14453 c -10.46875,-17.89844 -4.445313,-40.894534 13.457031,-51.363284 17.898437,-10.46875 40.894531,-4.445312 51.363281,13.453125 10.46875,17.898438 4.445312,40.894529 -13.457031,51.367189 -17.898438,10.46875 -40.898438,4.4414 -51.363281,-13.45703 z m 0,0"
           fill-opacity="1"
           fill-rule="nonzero"
           id="path40" />
      </g>
    </g>
  </g>
  <g
     clip-path="url(#49547b4d67)"
     id="g45">
    <g
       clip-path="url(#84f813f2b7)"
       id="g44">
      <g
         clip-path="url(#0b9ba494cb)"
         id="g43">
        <path
           fill="#ff4d00"
           d="m 24.511719,41.445312 -10.890625,-2.113281 -5.355469,9.898438 7.707031,7.941406 c -0.929687,3.554687 -1.332031,7.28125 -1.152344,11.050781 l -9.15625,6.1875 3.210938,10.78125 11.050781,0.164063 c 1.914063,3.257812 4.289063,6.148437 7.011719,8.621093 l -2.105469,10.859378 9.898438,5.35547 7.960937,-7.72657 c 3.539063,0.91016 7.242188,1.30079 10.992188,1.11719 l 6.222656,9.21485 10.78125,-3.21485 0.167969,-11.156249 c 3.203125,-1.902343 6.054687,-4.242187 8.492187,-6.929687 L 90.335938,93.625 95.6875,83.726562 87.875,75.675781 c 0.890625,-3.492187 1.285156,-7.144531 1.117188,-10.839843 L 98.292969,58.550781 95.082031,47.765625 83.855469,47.597656 c -1.882813,-3.1875 -4.207031,-6.027344 -6.867188,-8.460937 L 79.121094,28.121094 69.222656,22.765625 61.195312,30.5625 C 57.683594,29.648438 54.019531,29.246094 50.296875,29.410156 l -6.246094,-9.246094 -10.785156,3.214844 -0.164063,11.113282 c -3.242187,1.902343 -6.125,4.25 -8.589843,6.953124 z m 20.359375,1.464844 C 57.898438,39.03125 71.605469,46.445312 75.488281,59.472656 79.371094,72.5 71.957031,86.210938 58.929688,90.089844 45.898438,93.972656 32.191406,86.558594 28.308594,73.53125 24.429688,60.503906 31.839844,46.792969 44.871094,42.910156 Z m 0,0"
           fill-opacity="1"
           fill-rule="nonzero"
           id="path42" />
      </g>
    </g>
  </g>
  <g
     clip-path="url(#9c463b961e)"
     id="g48">
    <g
       clip-path="url(#3ce7a6134b)"
       id="g47">
      <g
         clip-path="url(#2c14e26725)"
         id="g46">
        <path
           fill="#ff4d00"
           d="m 51.84375,167.71875 c 2.3125,-1.70313 4.390625,-3.75 6.148438,-6.11328 l 8.898437,0.8164 3.453125,-8.26171 -6.828125,-5.75782 c 0.445313,-2.91015 0.445313,-5.83203 0.03125,-8.66797 l 6.863281,-5.71093 -3.394531,-8.28125 -8.871094,0.75781 c -1.707031,-2.33594 -3.761719,-4.42969 -6.136719,-6.20312 l 0.8125,-8.84375 L 44.5625,108 l -5.703125,6.76172 c -2.949219,-0.46094 -5.910156,-0.46484 -8.792969,-0.043 l -5.644531,-6.78906 -8.28125,3.39844 0.746094,8.76953 c -2.367188,1.72656 -4.488281,3.8164 -6.28125,6.22656 l -8.753907,-0.80469 -3.453124,8.26172 6.722656,5.66797 c -0.460938,2.96875 -0.457032,5.94922 -0.023438,8.84375 l -6.769531,5.6289 3.398437,8.28125 8.796876,-0.74609 c 1.71875,2.33984 3.804687,4.44922 6.203124,6.22266 l -0.808593,8.8125 8.261719,3.44922 5.722656,-6.78516 c 2.929687,0.44531 5.863281,0.4375 8.722656,0.0117 l 5.691406,6.84375 8.28125,-3.39844 z m -25.085938,-5.70313 c -9.980468,-4.17187 -14.683593,-15.64453 -10.511718,-25.625 4.171875,-9.98046 15.644531,-14.68359 25.625,-10.51171 9.980468,4.17578 14.6875,15.64453 10.511718,25.625 -4.171874,9.97656 -15.644531,14.68359 -25.625,10.51171 z m 0,0"
           fill-opacity="1"
           fill-rule="nonzero"
           id="path45" />
      </g>
    </g>
  </g>
  <g
     clip-path="url(#3628fb0203)"
     id="g51">
    <g
       clip-path="url(#f09fea22b4)"
       id="g50">
      <g
         clip-path="url(#e6eed715bc)"
         id="g49">
        <path
           fill="#ff4d00"
           d="m 739.5625,44.800781 7.57422,12.035157 c -1.96875,4.070312 -3.14063,8.332031 -4.03516,12.824218 l -13.25,5.605469 c -1.26562,0.375 -1.6875,1.449219 -1.82812,2.761719 l 1.67578,15.679687 c 0.0898,1.03125 0.98047,2.25 2.28906,2.390625 l 14.04297,3.144532 c 1.67969,4.261722 3.59766,8.242192 5.98047,11.660152 l -5.53125,13.47657 c -0.42188,1.07812 -0.0508,2.33984 0.79297,3.04297 l 12.34765,10.30859 c 0.84375,0.70312 2.15235,0.84375 3.13672,0.23437 l 12.26953,-7.85156 c 4.07032,1.96875 8.32813,3.14063 12.54297,3.80078 l 5.60547,13.25 c 0.375,1.26172 1.44922,1.6836 2.76172,1.82813 l 15.96094,-1.44141 c 1.03125,-0.0937 2.24609,-0.98047 2.39062,-2.29297 l 3.14453,-14.03906 c 4.26172,-1.67969 8.24219,-3.59766 11.89453,-6.26172 l 12.96094,5.57813 c 1.07813,0.42187 2.33985,0.0508 3.04297,-0.79297 l 10.30859,-12.35156 c 0.69922,-0.83985 0.84375,-2.15235 0.23438,-3.13282 l -7.57422,-12.03515 c 1.96875,-4.070316 3.14453,-8.332035 4.03516,-12.824222 l 13.01562,-5.324219 c 1.26563,-0.375 1.6875,-1.449219 1.82813,-2.761719 l -1.4375,-15.960938 c -0.0937,-1.03125 -0.98438,-2.25 -2.29297,-2.390624 l -13.75781,-2.910157 c -1.6836,-4.261719 -3.59766,-8.242187 -6.26563,-11.894531 l 5.30078,-13.195312 c 0.42188,-1.078126 0.0469,-2.339844 -0.79297,-3.042969 L 835.58203,21.609375 c -0.83984,-0.703125 -2.15234,-0.84375 -3.13672,-0.234375 l -12.03515,7.574219 c -4.07032,-1.972657 -8.32813,-3.144531 -12.82032,-4.035157 l -5.32812,-13.019531 c -0.3711,-1.261719 -1.44922,-1.683593 -2.75781,-1.824219 l -15.96485,1.4375 c -1.02734,0.09375 -2.24609,0.980469 -2.38672,2.292969 l -2.91406,13.757813 C 773.97656,29.242188 770,31.15625 766.34375,33.820312 l -13.19531,-5.296874 c -1.07422,-0.421876 -2.33985,-0.04688 -3.04297,0.792968 l -10.30469,12.351563 c -0.70312,0.839843 -0.84375,2.152343 -0.23828,3.132812 z m 13.34766,-10.285156 12.68359,5.34375 c 0.79297,0.1875 1.82422,0.09375 2.57422,-0.230469 3.88672,-2.945312 8.61328,-5.191406 13.10937,-7.152344 0.75,-0.328124 1.45313,-1.167968 1.64063,-1.964843 l 2.95703,-13.246094 11.84375,-1.066406 5.28125,12.5 c 0.32812,0.75 1.16797,1.453125 1.96484,1.640625 5.00782,0.847656 9.54688,2.253906 14.41407,4.410156 1.07421,0.421875 2.10546,0.328125 2.57421,-0.230469 l 11.51954,-7.527343 9.26171,7.730468 -4.83203,12.632813 c -0.1875,0.796875 -0.0937,1.824219 0.23438,2.574219 2.94531,3.886718 5.1875,8.617187 6.91797,13.390624 0.32422,0.75 1.16797,1.453126 1.96484,1.640626 l 13.24219,2.960937 1.07031,11.839844 -12.50391,5.28125 c -0.75,0.328125 -1.44921,1.167969 -1.64062,1.964843 -0.84375,5.007813 -2.25391,9.546876 -4.6875,14.179688 -0.42578,1.07813 -0.33203,2.10547 0.23047,2.57422 l 7.52734,11.51953 -7.73047,9.26172 -12.67968,-5.34375 c -0.79688,-0.1875 -1.82813,-0.0937 -2.57422,0.23047 -3.88672,2.94922 -8.61719,5.1914 -12.87891,6.87109 -0.75,0.32813 -1.45312,1.17188 -1.64062,1.96484 L 809.84375,142.02734 798,143.09375 792.67187,130.07812 c -0.32421,-0.75 -1.16796,-1.45312 -1.96093,-1.64062 -4.73047,-0.61328 -9.55078,-2.25391 -13.90235,-4.45703 -1.07422,-0.42188 -2.10547,-0.32813 -2.57422,0.23437 l -11.51953,7.52735 -9.26172,-7.73047 5.34766,-12.68359 c 0.1875,-0.79297 0.0937,-1.82422 -0.23437,-2.57422 -2.94532,-3.88672 -5.42188,-8.33594 -6.8711,-12.875004 -0.32812,-0.75 -1.16797,-1.453125 -1.96484,-1.640625 l -13.75781,-2.914062 -1.07032,-11.839844 13.01953,-5.328125 c 0.7461,-0.328125 1.44922,-1.167969 1.63672,-1.964844 0.84766,-5.007812 2.25391,-9.546875 4.45703,-13.898437 0.42188,-1.074219 0.33204,-2.105469 -0.23046,-2.574219 l -7.52735,-11.519531 7.4961,-8.980469 z m 0,0"
           fill-opacity="1"
           fill-rule="nonzero"
           id="path48" />
      </g>
    </g>
  </g>
  <g
     clip-path="url(#70381fbd22)"
     id="g54">
    <g
       clip-path="url(#9cf302ef67)"
       id="g53">
      <g
         clip-path="url(#df55e00d1f)"
         id="g52">
        <path
           fill="#ff4d00"
           d="m 773.59375,108.4375 c 15.99609,13.35156 39.68359,11.21875 53.03516,-4.78125 13.35156,-15.996094 11.21484,-39.683594 -4.78125,-53.035156 -16,-13.351563 -39.6836,-11.21875 -53.03907,4.78125 -13.11718,15.71875 -11.21484,39.683594 4.78516,53.035156 z m 44.73828,-53.605469 c 13.75391,11.476563 15.5625,31.558594 4.08594,45.312499 -11.47656,13.75 -31.5586,15.5625 -45.3125,4.08594 -13.75391,-11.48047 -15.5625,-31.562501 -4.08594,-45.316408 11.48047,-13.75 31.83984,-15.328124 45.3125,-4.082031 z m 0,0"
           fill-opacity="1"
           fill-rule="nonzero"
           id="path51" />
      </g>
    </g>
  </g>
  <g
     clip-path="url(#594abe087e)"
     id="g57">
    <g
       clip-path="url(#529ddfc4b7)"
       id="g56">
      <g
         clip-path="url(#1748db2e56)"
         id="g55">
        <path
           fill="#ff4d00"
           d="m 739.51953,168.09375 -3.08203,-8.28906 c 1.63672,-1.96485 3.23047,-4.44141 4.30859,-6.875 l 8.70703,-1.30469 c 1.03125,-0.0937 1.96875,-1.21484 2.39063,-2.29297 l 1.41016,-10.25 c 0.14453,-1.30859 -0.46485,-2.29297 -1.54297,-2.71484 l -7.85938,-3.70313 c -0.23047,-2.57422 -0.98047,-5.10547 -2.00781,-7.86718 l 5.0625,-7.20313 c 0.70312,-0.84375 0.5625,-2.38672 -0.0469,-3.37109 l -6.21875,-8.52344 -0.55859,-0.46875 c -0.84375,-0.70313 -1.64062,-0.89063 -2.62109,-0.28125 l -8.28907,3.08203 c -1.96484,-1.64062 -4.44531,-3.23437 -6.8789,-4.3125 l -1.30078,-8.707031 c -0.0937,-1.027344 -1.21875,-1.964844 -2.29297,-2.386719 l -10.25,-1.414062 c -1.3125,-0.140626 -2.29297,0.46875 -2.71485,1.542968 l -3.70312,7.863284 c -2.57813,0.23047 -5.10547,0.97656 -7.86719,2.0039 L 686.96092,97.5625 C 686.11717,96.859375 684.5742,97 683.58982,97.60547 l -8.52343,6.21875 c -0.98438,0.60937 -1.35938,2.19922 -1.03125,2.94922 l 2.84765,8.5664 c -1.64062,1.96485 -3,4.16407 -4.07812,6.59766 l -8.70703,1.30469 c -1.02735,0.0937 -1.96485,1.21484 -2.38672,2.29297 l -1.41407,10.25 c -0.14062,1.30859 0.46875,2.29296 1.54297,2.71484 l 8.14063,3.9375 c 0.23437,2.57422 0.98047,5.10156 1.72656,7.63281 l -5.05859,7.20313 c -0.70313,0.84375 -0.5625,2.38672 0.043,3.37109 l 6.21875,8.52344 c 0.60937,0.98437 2.19921,1.35937 2.94921,1.03125 l 8.56641,-2.84766 c 1.96484,1.63672 4.16406,2.9961 6.59766,4.07422 l 1.30468,8.70703 c 0.0937,1.03125 1.21485,1.96875 2.29297,2.39063 l 10.48438,1.13281 c 1.30859,0.14062 2.29297,-0.46875 2.71484,-1.54297 l 4.21875,-7.91016 c 2.57422,-0.23046 5.10156,-0.97656 7.62891,-1.72656 l 7.20703,5.0625 c 0.83984,0.70313 2.38672,0.5625 3.37109,-0.043 l 8.52344,-6.22265 c 0.69922,-0.83985 1.125,-1.91797 0.75,-3.17969 z m -11.09766,3.59375 -6.6875,-5.10547 c -0.84375,-0.70312 -1.87109,-0.60937 -2.62109,-0.28125 -2.99609,1.30859 -6.03906,2.10156 -9.12891,2.37891 -1.03125,0.0937 -2.01562,0.69922 -2.20312,1.49609 l -3.75,7.34766 -6.31641,-0.98828 -1.25781,-8.19141 c -0.0937,-1.03125 -0.9375,-1.73438 -1.49609,-2.20313 -2.94922,-1.03125 -5.71094,-2.85937 -7.95313,-4.73437 -0.84375,-0.70313 -1.64062,-0.89063 -2.62109,-0.28125 l -8.05469,2.80078 -3.83594,-5.10156 4.82813,-6.92578 c 0.70312,-0.84375 0.60937,-1.8711 0.28125,-2.6211 -1.3086,-2.99609 -1.82031,-5.80468 -2.37891,-9.1289 0.1875,-0.79688 -0.42187,-1.77735 -1.49609,-2.20313 l -7.58203,-3.46875 0.98828,-6.3164 8.1914,-1.25782 c 1.26563,-0.375 1.73438,-0.93359 2.4375,-1.77734 1.03125,-2.94922 2.85938,-5.70703 4.73438,-7.95312 0.70312,-0.84375 0.89062,-1.63672 0.28125,-2.6211 l -2.80078,-8.05469 5.10156,-3.83203 6.69141,5.10547 c 0.84375,0.70313 1.87109,0.60938 2.62109,0.28125 2.99609,-1.30859 6.03906,-2.10156 9.12891,-2.3789 1.03125,-0.0937 2.01172,-0.69922 2.20312,-1.4961 l 3.75,-7.347655 6.31641,0.988281 1.25781,8.191404 c 0.0937,1.03125 0.93359,1.73438 1.49609,2.20313 2.94922,1.03125 5.70704,2.85937 8.23438,4.96875 0.84375,0.70312 1.63672,0.89062 2.62109,0.28125 l 8.28907,-3.08203 3.83203,5.10547 -5.10547,6.6875 c -0.70313,0.84375 -0.60938,1.87109 -0.28516,2.62109 1.3086,2.99609 2.10156,6.03906 2.38281,9.1289 0.0937,1.03125 0.69922,2.01563 1.4961,2.20313 l 7.34375,3.75 -0.98438,6.31641 -8.19531,1.25781 c -1.02734,0.0937 -1.73047,0.93359 -2.19922,1.49609 -1.03125,2.94922 -2.85937,5.71094 -4.96875,8.23438 -0.70312,0.84375 -0.89062,1.63672 -0.28125,2.62109 l 2.51953,7.82031 z m 0,0"
           fill-opacity="1"
           fill-rule="nonzero"
           id="path54" />
      </g>
    </g>
  </g>
  <g
     clip-path="url(#2206ec708b)"
     id="g60">
    <g
       clip-path="url(#4cefe877c6)"
       id="g59">
      <g
         clip-path="url(#3189349500)"
         id="g58">
        <path
           fill="#ff4d00"
           d="m 727.57031,121.93359 c -1.16797,-1.45312 -2.61719,-3.14062 -4.30078,-4.54687 -8.98437,-7.49219 -21.99609,-7.87891 -31.50391,-1.05078 -5.33593,4.11328 -9.22656,9.91406 -10.16796,16.75 -0.94141,6.83203 0.6914,13.43359 4.57421,19.05468 1.16797,1.44922 2.61719,3.13672 4.30079,4.54297 8.98046,7.4961 21.99609,7.87891 31.5,1.05078 5.33984,-4.11328 9.23046,-9.91406 10.17187,-16.75 0.94141,-6.83203 -0.69141,-13.43359 -4.57422,-19.05078 z m -8.58984,31.39844 c -7.53906,5.61328 -17.69531,5.23047 -24.71094,-0.625 -1.125,-0.9375 -2.29297,-2.39062 -3.18359,-3.60547 -3.22657,-4.12109 -4.48438,-9.46094 -3.6836,-14.98437 0.79688,-5.51953 3.51563,-9.91797 8.15235,-13.19141 7.53906,-5.61328 17.69922,-5.23047 24.71484,0.625 1.12109,0.9375 2.29297,2.39063 3.17969,3.60938 2.99219,4.40234 4.2539,9.73828 3.45312,15.26171 -0.84765,5.00782 -3.51953,9.91797 -7.92187,12.91016 z m 0,0"
           fill-opacity="1"
           fill-rule="nonzero"
           id="path57" />
      </g>
    </g>
  </g>
  <g
     clip-path="url(#afc9347d72)"
     id="g63">
    <g
       clip-path="url(#025f2c3f4f)"
       id="g62">
      <g
         clip-path="url(#209e0ae916)"
         id="g61">
        <path
           fill="#ff4d00"
           d="m 667.95312,36.464844 2.89844,6.226562 c -0.89062,1.636719 -1.78125,3.277344 -2.39062,5.148438 l -6.60157,1.632812 C 660.59375,49.847656 659.89453,50.6875 659.75,52 l -0.28516,8.328125 c -0.14062,1.3125 0.46485,2.296875 1.82422,2.953125 l 6.17578,2.296875 c 0.41797,1.777344 1.1211,3.792969 2.05469,5.523437 l -3.88672,5.804688 c -0.42578,1.074219 -0.5664,2.386719 0.27735,3.085938 l 5.7539,6.230468 c 0.83985,0.703125 1.91797,1.125 3.17969,0.753906 l 6.22656,-2.898437 c 1.64063,0.890625 3.27735,1.78125 5.14844,2.390625 l 1.63281,6.601562 c 0.375,1.261719 1.21485,1.964844 2.52735,2.105469 l 8.33203,0.289063 c 1.30859,0.140625 2.29297,-0.464844 2.94922,-1.824219 l 2.29687,-6.175781 c 1.78125,-0.421875 3.79297,-1.121094 5.52734,-2.054688 l 5.75391,3.375 c 1.07422,0.421875 2.38672,0.5625 3.08984,-0.28125 l 6.23047,-5.75 c 0.70313,-0.84375 1.125,-1.921875 0.75,-3.183594 l -2.89843,-6.226562 c 0.89062,-1.640625 2.01562,-3.558594 2.625,-5.429688 l 6.36718,-1.351562 c 1.26563,-0.375 1.96875,-1.214844 2.10938,-2.527344 l 0.28515,-8.332031 c 0.14454,-1.308594 -0.46484,-2.292969 -1.54296,-2.714844 l -6.17579,-2.296875 c -0.41796,-1.78125 -1.12109,-3.792968 -2.05468,-5.527344 l 3.375,-5.753906 c 0.42187,-1.074218 0.5625,-2.386718 -0.28125,-3.089844 l -5.75,-6.230468 -0.28125,-0.234375 c -0.84375,-0.699219 -2.15235,-0.84375 -2.90235,-0.515625 l -6.22656,2.898437 c -1.63672,-0.890625 -3.55469,-2.015625 -5.42969,-2.625 l -1.63281,-6.601562 c -0.37109,-1.265625 -1.21484,-1.96875 -2.52344,-2.109375 l -8.33203,-0.285156 c -1.3125,-0.140626 -2.29687,0.464843 -2.95312,1.820312 l -2.29688,6.179688 c -1.77734,0.417968 -3.79297,1.121093 -5.52344,2.054687 l -5.75781,-3.375 c -1.07422,-0.421875 -2.38672,-0.5625 -3.08594,0.277344 l -6.23046,5.753906 c -0.70313,0.84375 -0.84375,2.152344 -0.23829,3.136719 z m 8.80469,-3.128906 5.47266,3.140624 c 0.84375,0.703126 1.87109,0.609376 2.85547,0 1.96484,-1.214843 4.49609,-1.960937 6.78906,-2.429687 1.03125,-0.08984 1.73047,-0.933594 1.92187,-1.730469 l 2.0625,-5.894531 4.16407,0.144531 1.58984,6.085938 c 0.0898,1.027344 0.93359,1.730468 1.73047,1.917968 2.38672,0.566407 4.58594,1.921876 6.78125,3.28125 0.84375,0.703126 1.875,0.613282 2.62109,0.285157 l 5.48047,-2.570313 3.36719,2.808594 -3.14063,5.476562 c -0.70312,0.839844 -0.60937,1.871094 0,2.855469 0.98047,2.246094 1.96094,4.492188 2.42969,6.789063 0.0899,1.027344 0.9336,1.730468 1.73047,1.917968 l 5.89453,2.066407 -0.14453,4.164062 -6.08594,1.585938 c -1.02734,0.09375 -1.73047,0.9375 -1.91797,1.730469 -0.5664,2.386718 -1.92578,4.585937 -3.28515,6.785156 -0.69922,0.84375 -0.60938,1.871094 -0.28125,2.621094 l 2.61719,5.992187 -3.3711,2.902344 -5.47656,-3.140625 c -0.83984,-0.703125 -1.87109,-0.609375 -2.85547,-0.0039 -2.24609,0.984374 -4.49219,1.964843 -6.78906,2.429687 -1.02735,0.09375 -1.73047,0.933594 -1.91797,1.730469 l -2.06641,5.898437 -4.16406,-0.144531 -1.58594,-6.085938 c -0.0937,-1.03125 -0.9375,-1.734374 -1.73047,-1.921874 -2.38671,-0.5625 -4.58593,-1.921876 -6.5039,-3.046876 -0.84375,-0.703124 -1.8711,-0.609374 -2.6211,-0.28125 l -5.48046,2.570313 -2.89844,-3.375 3.14062,-5.472656 c 0.70313,-0.84375 0.60938,-1.871094 0,-2.855469 -1.21484,-1.964844 -1.96093,-4.496094 -2.42578,-6.789062 -0.0937,-1.03125 -0.9375,-1.730469 -1.73047,-1.921876 l -5.89843,-2.0625 0.14453,-4.164062 6.08593,-1.589844 c 1.03125,-0.08984 1.73047,-0.933594 1.92188,-1.730468 0.5625,-2.386719 1.92187,-4.585938 3.04687,-6.503907 0.70313,-0.839843 0.60938,-1.871093 0.28125,-2.621093 l -2.85156,-5.710938 z m 0,0"
           fill-opacity="1"
           fill-rule="nonzero"
           id="path60" />
      </g>
    </g>
  </g>
  <g
     clip-path="url(#77a17a9bdb)"
     id="g66">
    <g
       clip-path="url(#20b205322a)"
       id="g65">
      <g
         clip-path="url(#fdc58bcaa5)"
         id="g64">
        <path
           fill="#ff4d00"
           d="m 683.04687,74.296875 c 3.64844,3.042969 7.67188,4.5 12.35157,4.59375 5.47656,0.285156 11,-1.769531 15.07812,-5.511719 4.07422,-3.742187 6.46485,-8.886718 6.75,-14.363281 C 717.65234,52.226562 714.75391,46 709.70312,41.785156 c -3.64843,-3.046875 -7.67187,-4.5 -12.35546,-4.597656 -11.46485,-0.523438 -21.30079,8.410156 -21.82422,19.878906 -0.19532,6.503906 2.46875,13.011719 7.52343,17.230469 z m 14.29688,-31.398437 c 3.37109,-0.04297 6.60156,1.222656 9.125,3.332031 3.64844,3.042969 5.89453,7.773437 5.5625,12.734375 -0.14453,4.164062 -1.87891,7.957031 -5.01563,10.574218 -3.14062,2.621094 -6.88671,4.253907 -11.05078,4.109376 -3.37109,0.04687 -6.59765,-1.21875 -9.125,-3.328126 -3.64843,-3.046874 -5.89062,-7.773437 -5.5625,-12.734374 0.24219,-8.847657 7.45313,-15.207032 16.06641,-14.6875 z m 0,0"
           fill-opacity="1"
           fill-rule="nonzero"
           id="path63" />
      </g>
    </g>
  </g>
</svg>
