<?xml version="1.0" encoding="UTF-8" standalone="no"?>
<svg
   version="1.1"
   width="1678"
   height="2000"
   style="clip-rule:evenodd;fill-rule:evenodd;image-rendering:optimizeQuality;shape-rendering:geometricPrecision;text-rendering:geometricPrecision"
   id="svg110"
   xmlns="http://www.w3.org/2000/svg"
   xmlns:svg="http://www.w3.org/2000/svg">
  <defs
     id="defs110" />
  <g
     id="g111">
    <g
       id="g1">
      <path
         style="opacity:0.999"
         fill="#fefefe"
         d="m 701.5,226.5 c 6.007,8.675 11.007,18.008 15,28 0.457,0.798 1.124,1.131 2,1 14.046,46.687 2.379,85.521 -35,116.5 -5.398,3.698 -11.065,6.864 -17,9.5 -18.099,7.153 -36.766,10.487 -56,10 -38.614,-5.382 -66.114,-25.716 -82.5,-61 -14.928,-40.769 -8.595,-77.769 19,-111 37.065,-33.815 78.565,-40.315 124.5,-19.5 12.046,6.548 22.046,15.381 30,26.5 z"
         id="path1" />
    </g>
    <g
       id="g2">
      <path
         style="opacity:0.996"
         fill="#fefefe"
         d="m 924.5,380.5 c -53.637,0.987 -107.304,1.32 -161,1 -6.999,-1.153 -11.499,-5.486 -13.5,-13 -0.667,-52.333 -0.667,-104.667 0,-157 1.675,-6.341 5.508,-10.841 11.5,-13.5 53.667,-0.667 107.333,-0.667 161,0 5.833,1.833 9.667,5.667 11.5,11.5 0.667,53.667 0.667,107.333 0,161 -1.612,4.952 -4.779,8.285 -9.5,10 z"
         id="path2" />
    </g>
    <g
       id="g3">
      <path
         style="opacity:0.993"
         fill="#fefefe"
         d="m 1141.5,381.5 c -53.7,0.32 -107.36,-0.013 -161,-1 -5.201,-2.022 -8.701,-5.689 -10.5,-11 -0.667,-53.333 -0.667,-106.667 0,-160 2.562,-5.561 6.728,-9.394 12.5,-11.5 53.33,-0.667 106.67,-0.667 160,0 5.03,1.689 8.86,4.856 11.5,9.5 1.65,53.942 1.99,107.942 1,162 -2.42,6.954 -6.92,10.954 -13.5,12 z"
         id="path3" />
    </g>
    <g
       id="g4">
      <path
         style="opacity:0.151"
         fill="#dbdbdb"
         d="m 701.5,226.5 c 7.946,8.211 13.613,17.877 17,29 -0.876,0.131 -1.543,-0.202 -2,-1 -3.993,-9.992 -8.993,-19.325 -15,-28 z"
         id="path4" />
    </g>
    <g
       id="g5">
      <path
         style="opacity:0.294"
         fill="#dfdfdf"
         d="m 924.5,380.5 c -0.847,1.466 -2.18,2.3 -4,2.5 -52,0.667 -104,0.667 -156,0 -0.556,-0.383 -0.889,-0.883 -1,-1.5 53.696,0.32 107.363,-0.013 161,-1 z"
         id="path5" />
    </g>
    <g
       id="g6">
      <path
         style="opacity:0.294"
         fill="#dfdfdf"
         d="m 980.5,380.5 c 53.64,0.987 107.3,1.32 161,1 -0.11,0.617 -0.44,1.117 -1,1.5 -52,0.667 -104,0.667 -156,0 -1.82,-0.2 -3.153,-1.034 -4,-2.5 z"
         id="path6" />
    </g>
    <g
       id="g7">
      <path
         style="opacity:0.246"
         fill="#dddddd"
         d="m 666.5,381.5 c -1.249,1.636 -2.916,2.803 -5,3.5 -16.597,6.635 -33.597,8.802 -51,6.5 19.234,0.487 37.901,-2.847 56,-10 z"
         id="path7" />
    </g>
    <g
       id="g8">
      <path
         style="opacity:0.286"
         fill="#dfdfdf"
         d="m 704.5,419.5 c -53.637,-0.987 -107.304,-1.32 -161,-1 0.111,-0.617 0.444,-1.117 1,-1.5 51.667,-0.667 103.333,-0.667 155,0 1.991,0.374 3.658,1.207 5,2.5 z"
         id="path8" />
    </g>
    <g
       id="g9">
      <path
         style="opacity:0.286"
         fill="#dfdfdf"
         d="m 921.5,418.5 c -53.69,-0.316 -107.356,0.017 -161,1 1.056,-1.377 2.389,-2.21 4,-2.5 51.667,-0.667 103.333,-0.667 155,0 0.916,0.278 1.582,0.778 2,1.5 z"
         id="path9" />
    </g>
    <g
       id="g10">
      <path
         style="opacity:0.995"
         fill="#fefefe"
         d="m 543.5,418.5 c 53.696,-0.32 107.363,0.013 161,1 5.857,1.86 9.19,5.86 10,12 -0.833,52.498 -1.333,105.165 -1.5,158 -0.36,1.921 -1.194,3.588 -2.5,5 -3.826,3.224 -7.826,5.891 -12,8 -52.334,0.167 -104.668,0 -157,-0.5 -5.833,-1.833 -9.667,-5.667 -11.5,-11.5 -0.667,-53.667 -0.667,-107.333 0,-161 2.806,-6.358 7.306,-10.025 13.5,-11 z"
         id="path10" />
    </g>
    <g
       id="g11">
      <path
         style="opacity:0.996"
         fill="#fefefe"
         d="m 921.5,418.5 c 6.036,1.45 10.203,5.117 12.5,11 0.667,53.667 0.667,107.333 0,161 -1.833,5.833 -5.667,9.667 -11.5,11.5 -53.667,0.667 -107.333,0.667 -161,0 -6.02,-2.683 -9.853,-7.183 -11.5,-13.5 -0.667,-52.333 -0.667,-104.667 0,-157 1.245,-6.072 4.745,-10.072 10.5,-12 53.644,-0.983 107.31,-1.316 161,-1 z"
         id="path11" />
    </g>
    <g
       id="g12">
      <path
         style="opacity:0.051"
         fill="#e1e1e1"
         d="m 714.5,431.5 c 1.165,52.498 1.332,105.165 0.5,158 -0.561,2.225 -1.561,4.225 -3,6 -3.623,4.061 -8.123,6.395 -13.5,7 4.174,-2.109 8.174,-4.776 12,-8 1.306,-1.412 2.14,-3.079 2.5,-5 0.167,-52.835 0.667,-105.502 1.5,-158 z"
         id="path12" />
    </g>
    <g
       id="g13">
      <path
         style="opacity:0.993"
         fill="#fefefe"
         d="m 714.5,652.5 c -0.833,52.165 -1.333,104.498 -1.5,157 -1.833,5.833 -5.667,9.667 -11.5,11.5 -53,0.667 -106,0.667 -159,0 -2.15,-1.411 -4.484,-2.245 -7,-2.5 -1.828,-4.194 -3.828,-8.194 -6,-12 -0.167,-52.001 0,-104.001 0.5,-156 1.766,-6.098 5.599,-10.265 11.5,-12.5 53.333,-0.667 106.667,-0.667 160,0 7.38,2.208 11.713,7.041 13,14.5 z"
         id="path13" />
    </g>
    <g
       id="g14">
      <path
         style="opacity:0.994"
         fill="#fefefe"
         d="m 932.5,813.5 c -2.984,3.482 -6.651,5.982 -11,7.5 -53,0.667 -106,0.667 -159,0 -1.845,-1.128 -3.845,-1.628 -6,-1.5 -3.399,-2.447 -5.565,-5.78 -6.5,-10 -0.667,-52.333 -0.667,-104.667 0,-157 1.354,-7.348 5.521,-12.181 12.5,-14.5 53.333,-0.667 106.667,-0.667 160,0 5.833,1.833 9.667,5.667 11.5,11.5 0.667,54 0.667,108 0,162 -0.278,0.916 -0.778,1.582 -1.5,2 z"
         id="path14" />
    </g>
    <g
       id="g15">
      <path
         style="opacity:0.99"
         fill="#fefefe"
         d="m 1152.5,646.5 c 1.15,54.315 1.31,108.649 0.5,163 -1.06,6.062 -4.56,9.895 -10.5,11.5 -53,0.667 -106,0.667 -159,0 -1.746,-0.471 -3.413,-1.138 -5,-2 -4.101,-3.233 -7.101,-7.066 -9,-11.5 -0.167,-52.334 0,-104.668 0.5,-157 2.167,-6.167 6.333,-10.333 12.5,-12.5 53.33,-0.667 106.67,-0.667 160,0 4.73,1.231 8.06,4.064 10,8.5 z"
         id="path15" />
    </g>
    <g
       id="g16">
      <path
         style="opacity:0.96"
         fill="#eeeeee"
         d="m 932.5,813.5 c -1.941,4.997 -5.607,8.164 -11,9.5 -52.667,0.667 -105.333,0.667 -158,0 -2.674,-0.67 -5.007,-1.837 -7,-3.5 2.155,-0.128 4.155,0.372 6,1.5 53,0.667 106,0.667 159,0 4.349,-1.518 8.016,-4.018 11,-7.5 z"
         id="path16" />
    </g>
    <g
       id="g17">
      <path
         style="opacity:0.278"
         fill="#e7e7e7"
         d="m 714.5,652.5 c 1.165,52.165 1.332,104.498 0.5,157 -2.315,6.595 -6.815,11.095 -13.5,13.5 -53,0.667 -106,0.667 -159,0 -8.024,-2.531 -12.358,-8.031 -13,-16.5 2.172,3.806 4.172,7.806 6,12 2.516,0.255 4.85,1.089 7,2.5 53,0.667 106,0.667 159,0 5.833,-1.833 9.667,-5.667 11.5,-11.5 0.167,-52.502 0.667,-104.835 1.5,-157 z"
         id="path17" />
    </g>
    <g
       id="g18">
      <path
         style="opacity:0.278"
         fill="#e9e9e9"
         d="m 1152.5,646.5 c 1.29,1.342 2.13,3.009 2.5,5 0.67,52.667 0.67,105.333 0,158 -1.76,6.762 -5.93,11.262 -12.5,13.5 -53,0.667 -106,0.667 -159,0 -7.543,-2.596 -12.209,-7.762 -14,-15.5 1.899,4.434 4.899,8.267 9,11.5 1.587,0.862 3.254,1.529 5,2 53,0.667 106,0.667 159,0 5.94,-1.605 9.44,-5.438 10.5,-11.5 0.81,-54.351 0.65,-108.685 -0.5,-163 z"
         id="path18" />
    </g>
    <g
       id="g19">
      <path
         style="opacity:0.994"
         fill="#fefefe"
         d="m 705.5,860.5 c 3.227,3.435 5.727,7.435 7.5,12 0.167,52.502 0.667,104.835 1.5,157 0,0.33 0,0.67 0,1 -2.415,2.6 -4.749,5.43 -7,8.5 -2.217,1.28 -4.551,2.28 -7,3 -52.333,0.67 -104.667,0.67 -157,0 -3.635,-0.82 -6.635,-2.65 -9,-5.5 -1.485,-3.32 -3.152,-6.32 -5,-9 -0.167,-52.334 0,-104.668 0.5,-157 1.859,-5.86 5.693,-9.693 11.5,-11.5 53.667,-0.667 107.333,-0.667 161,0 1.027,0.513 2.027,1.013 3,1.5 z"
         id="path19" />
    </g>
    <g
       id="g20">
      <path
         style="opacity:0.995"
         fill="#fefefe"
         d="m 920.5,1043.5 c -52.165,-0.83 -104.498,-1.33 -157,-1.5 -4.858,-1.07 -8.525,-3.57 -11,-7.5 -1.293,-1.34 -2.126,-3.01 -2.5,-5 -0.667,-52.333 -0.667,-104.667 0,-157 1.675,-6.341 5.508,-10.841 11.5,-13.5 54,-0.667 108,-0.667 162,0 4.833,2.167 8.333,5.667 10.5,10.5 0.667,54 0.667,108 0,162 -2.204,6.71 -6.704,10.71 -13.5,12 z"
         id="path20" />
    </g>
    <g
       id="g21">
      <path
         style="opacity:0.047"
         fill="#e0e0e0"
         d="m 705.5,860.5 c 5.21,2.377 8.377,6.377 9.5,12 0.832,52.502 0.665,104.835 -0.5,157 -0.833,-52.165 -1.333,-104.498 -1.5,-157 -1.773,-4.565 -4.273,-8.565 -7.5,-12 z"
         id="path21" />
    </g>
    <g
       id="g22">
      <path
         style="opacity:0.727"
         fill="#e3e3e3"
         d="m 529.5,1027.5 c 1.848,2.68 3.515,5.68 5,9 2.365,2.85 5.365,4.68 9,5.5 52.333,0.67 104.667,0.67 157,0 2.449,-0.72 4.783,-1.72 7,-3 2.251,-3.07 4.585,-5.9 7,-8.5 -2.184,7.02 -6.851,11.52 -14,13.5 -52.333,0.67 -104.667,0.67 -157,0 -8.468,-2.3 -13.135,-7.8 -14,-16.5 z"
         id="path22" />
    </g>
    <g
       id="g23">
      <path
         style="opacity:0.086"
         fill="#e1e1e1"
         d="m 752.5,1034.5 c 2.475,3.93 6.142,6.43 11,7.5 52.502,0.17 104.835,0.67 157,1.5 -52.165,1.17 -104.498,1.33 -157,0.5 -5.733,-0.91 -9.399,-4.07 -11,-9.5 z"
         id="path23" />
    </g>
    <g
       id="g24">
      <path
         style="opacity:0.998"
         fill="#fcfcfc"
         d="m 575.5,1191.5 c -0.876,-0.13 -1.543,0.2 -2,1 -2.55,6.49 -5.383,12.83 -8.5,19 -9.462,-4.66 -19.295,-7.33 -29.5,-8 -9.794,-2.19 -19.127,-1.02 -28,3.5 -8.709,10.24 -7.709,19.57 3,28 16.986,8.49 33.652,17.49 50,27 1.21,1.04 2.21,2.21 3,3.5 2.259,3.44 4.759,6.77 7.5,10 2.322,4.99 4.822,9.66 7.5,14 2.063,7.61 2.396,15.27 1,23 -4.085,19.08 -15.418,32.08 -34,39 -0.798,0.46 -1.131,1.12 -1,2 -20.147,5.85 -40.48,6.52 -61,2 -0.12,-1.09 -0.787,-1.75 -2,-2 -6.951,-1.54 -13.618,-3.87 -20,-7 -0.999,-11.65 -1.332,-23.31 -1,-35 3.649,0.91 7.149,2.24 10.5,4 0.383,-0.56 0.883,-0.89 1.5,-1 10.809,3.79 21.809,6.79 33,9 8.894,2.78 17.894,2.28 27,-1.5 10.087,-8.11 11.587,-17.61 4.5,-28.5 -1.356,-0.88 -2.856,-1.21 -4.5,-1 0,-0.33 0,-0.67 0,-1 -0.782,-1.95 -2.116,-3.45 -4,-4.5 -16.607,-7.64 -32.607,-16.3 -48,-26 -6.783,-5.94 -11.783,-13.11 -15,-21.5 -0.457,-0.8 -1.124,-1.13 -2,-1 -9.208,-37.75 5.126,-60.92 43,-69.5 25.96,-3.6 50.294,0.73 73,13 -0.935,3.37 -2.268,6.53 -4,9.5 z"
         id="path24" />
    </g>
    <g
       id="g25">
      <path
         style="opacity:0.998"
         fill="#fcfcfc"
         d="m 1468.5,1343.5 c -10.51,6.17 -21.84,10.17 -34,12 -1.21,0.25 -1.88,0.91 -2,2 -68.84,5.83 -103.84,-25.84 -105,-95 0.1,-9.81 1.1,-19.48 3,-29 3.07,-7 5.9,-14.33 8.5,-22 8.66,-18.16 22.5,-30.5 41.5,-37 0.8,-0.46 1.13,-1.12 1,-2 25.89,-7.3 51.56,-6.46 77,2.5 21.26,10.22 34.59,26.56 40,49 1.89,1.08 2.23,2.41 1,4 2,3.15 3.17,6.65 3.5,10.5 5.51,30.93 0.51,59.93 -15,87 -5.44,7.28 -11.94,13.28 -19.5,18 z m -60,-141 c 25.65,-2.32 42.15,8.35 49.5,32 5.68,22.48 4.34,44.48 -4,66 -7.76,15.55 -20.42,23.22 -38,23 -19.58,0.07 -32.91,-8.93 -40,-27 -6.09,-20.11 -6.93,-40.44 -2.5,-61 4.89,-18.23 16.56,-29.23 35,-33 z"
         id="path25" />
    </g>
    <g
       id="g26">
      <path
         style="opacity:0.969"
         fill="#ededed"
         d="m 732.5,1170.5 c 0,0.67 0,1.33 0,2 -46,0 -92,0 -138,0 45.655,-2 91.655,-2.66 138,-2 z"
         id="path26" />
    </g>
    <g
       id="g27">
      <path
         style="opacity:0.97"
         fill="#ededed"
         d="m 965.5,1170.5 c 0,0.67 0,1.33 0,2 -46,0 -92,0 -138,0 45.655,-2 91.655,-2.66 138,-2 z"
         id="path27" />
    </g>
    <g
       id="g28">
      <path
         style="opacity:0.968"
         fill="#ededed"
         d="m 1308.5,1170.5 c 0.33,11.18 -0.01,22.18 -1,33 0,-10.33 0,-20.67 0,-31 -46,0 -92,0 -138,0 45.99,-2 92.32,-2.66 139,-2 z"
         id="path28" />
    </g>
    <g
       id="g29">
      <path
         style="opacity:0.285"
         fill="#d5d5d5"
         d="m 178.5,1170.5 c 0,61.67 0,123.33 0,185 -0.617,-0.11 -1.117,-0.44 -1.5,-1 -0.667,-61 -0.667,-122 0,-183 0.383,-0.56 0.883,-0.89 1.5,-1 z"
         id="path29" />
    </g>
    <g
       id="g30">
      <path
         style="opacity:0.994"
         fill="#fdfdfd"
         d="m 178.5,1170.5 c 13.333,0 26.667,0 40,0 0,61.67 0,123.33 0,185 -13.333,0 -26.667,0 -40,0 0,-61.67 0,-123.33 0,-185 z"
         id="path30" />
    </g>
    <g
       id="g31">
      <path
         style="opacity:0.928"
         fill="#e8e8e8"
         d="m 332.5,1203.5 c -0.996,0.09 -1.829,-0.25 -2.5,-1 -5.5,-9.67 -11,-19.33 -16.5,-29 -16.32,-1 -32.653,-1.33 -49,-1 0,61 0,122 0,183 -1.996,-61.32 -2.663,-122.99 -2,-185 17.346,-0.33 34.679,0 52,1 6.428,10.43 12.428,21.09 18,32 z"
         id="path31" />
    </g>
    <g
       id="g32">
      <path
         style="opacity:0.987"
         fill="#fefefe"
         d="m 332.5,1203.5 c 14.583,24.83 28.916,49.83 43,75 0.495,1.98 0.995,3.98 1.5,6 4.679,6.7 9.346,13.37 14,20 1.084,-3.38 1.584,-6.88 1.5,-10.5 -0.019,-3.25 -0.686,-6.08 -2,-8.5 0,-1.67 0,-3.33 0,-5 0.993,-35.93 1.326,-71.93 1,-108 11.667,0 23.333,0 35,0 0,61 0,122 0,183 -17.333,0 -34.667,0 -52,0 0.149,-1.05 -0.017,-2.05 -0.5,-3 -19.776,-33.89 -39.276,-67.89 -58.5,-102 0.438,0.07 0.772,-0.1 1,-0.5 -6.169,-10.99 -12.503,-21.82 -19,-32.5 -0.798,0.46 -1.131,1.12 -1,2 -0.172,0.99 0.162,1.66 1,2 0.903,44.66 1.236,89.33 1,134 -11.333,0 -22.667,0 -34,0 0,-61 0,-122 0,-183 16.347,-0.33 32.68,0 49,1 5.5,9.67 11,19.33 16.5,29 0.671,0.75 1.504,1.09 2.5,1 z"
         id="path32" />
    </g>
    <g
       id="g33">
      <path
         style="opacity:0.527"
         fill="#e7e7e7"
         d="m 426.5,1172.5 c -11.667,0 -23.333,0 -35,0 0.326,36.07 -0.007,72.07 -1,108 -0.998,-36.5 -1.332,-73.16 -1,-110 12.712,-0.65 25.045,0.02 37,2 z"
         id="path33" />
    </g>
    <g
       id="g34">
      <path
         style="opacity:0.979"
         fill="#fefefe"
         d="m 594.5,1172.5 c 46,0 92,0 138,0 0,10.33 0,20.67 0,31 -16.333,0 -32.667,0 -49,0 0,50.67 0,101.33 0,152 -13.333,0 -26.667,0 -40,0 0,-50 0,-100 0,-150 0.543,-0.06 0.876,-0.39 1,-1 -16.653,-1 -33.32,-1.33 -50,-1 0,-10.33 0,-20.67 0,-31 z"
         id="path34" />
    </g>
    <g
       id="g35">
      <path
         style="opacity:0.881"
         fill="#e5e5e5"
         d="m 799.5,1170.5 c 0,0.67 0,1.33 0,2 -12.667,0 -25.333,0 -38,0 0,61 0,122 0,183 -1.996,-61.32 -2.663,-122.99 -2,-185 13.333,0 26.667,0 40,0 z"
         id="path35" />
    </g>
    <g
       id="g36">
      <path
         style="opacity:0.993"
         fill="#fefefe"
         d="m 799.5,1172.5 c 0,61 0,122 0,183 -12.667,0 -25.333,0 -38,0 0,-61 0,-122 0,-183 12.667,0 25.333,0 38,0 z"
         id="path36" />
    </g>
    <g
       id="g37">
      <path
         style="opacity:0.043"
         fill="#cccccc"
         d="m 799.5,1170.5 c 1.333,30.49 2,61.33 2,92.5 0,31.17 -0.667,62.01 -2,92.5 0,-61 0,-122 0,-183 0,-0.67 0,-1.33 0,-2 z"
         id="path37" />
    </g>
    <g
       id="g38">
      <path
         style="opacity:0.98"
         fill="#fefefe"
         d="m 827.5,1172.5 c 46,0 92,0 138,0 0,10.33 0,20.67 0,31 -16.333,0 -32.667,0 -49,0 0,50.67 0,101.33 0,152 -13.333,0 -26.667,0 -40,0 0,-50 0,-100 0,-150 0.543,-0.06 0.876,-0.39 1,-1 -16.653,-1 -33.32,-1.33 -50,-1 0,-10.33 0,-20.67 0,-31 z"
         id="path38" />
    </g>
    <g
       id="g39">
      <path
         style="opacity:0.999"
         fill="#fdfdfd"
         d="m 1033.5,1287.5 c 2.21,29.46 17.88,40.96 47,34.5 15.06,-4.91 22.73,-15.41 23,-31.5 1.99,-38.99 2.66,-78.32 2,-118 12.33,0 24.67,0 37,0 -0.33,43.41 0.01,86.74 1,130 -0.4,5.59 -1.73,10.92 -4,16 -1,-0.09 -1.83,0.25 -2.5,1 -6.45,14.95 -17.29,25.29 -32.5,31 -0.8,0.46 -1.13,1.12 -1,2 -18.95,6.26 -38.28,7.6 -58,4 0.03,-1 -0.47,-1.66 -1.5,-2 -7.13,-1.71 -13.96,-4.21 -20.5,-7.5 -6.18,-4.69 -12.18,-9.52 -18,-14.5 -7.327,-9.3 -11.327,-19.97 -12,-32 0.994,-42.59 1.328,-85.26 1,-128 12.33,0 24.67,0 37,0 -0.66,38.68 0.01,77.01 2,115 z"
         id="path39" />
    </g>
    <g
       id="g40">
      <path
         style="opacity:0.434"
         fill="#e6e6e6"
         d="m 1033.5,1287.5 c -1.99,-37.99 -2.66,-76.32 -2,-115 -12.33,0 -24.67,0 -37,0 0.328,42.74 -0.006,85.41 -1,128 -0.999,-43.16 -1.332,-86.5 -1,-130 13.67,0 27.33,0 41,0 0,39 0,78 0,117 z"
         id="path40" />
    </g>
    <g
       id="g41">
      <path
         style="opacity:0.306"
         fill="#e5e5e5"
         d="m 1143.5,1302.5 c -0.99,-43.26 -1.33,-86.59 -1,-130 -12.33,0 -24.67,0 -37,0 0.66,39.68 -0.01,79.01 -2,118 0,-40 0,-80 0,-120 13.67,0 27.33,0 41,0 0.33,44.17 0,88.17 -1,132 z"
         id="path41" />
    </g>
    <g
       id="g42">
      <path
         style="opacity:0.99"
         fill="#fefefe"
         d="m 1169.5,1172.5 c 46,0 92,0 138,0 0,10.33 0,20.67 0,31 -16.33,0 -32.67,0 -49,0 0,50.67 0,101.33 0,152 -13,0 -26,0 -39,0 0,-50 0,-100 0,-150 -16.3,-1.99 -32.97,-2.65 -50,-2 0,-10.33 0,-20.67 0,-31 z"
         id="path42" />
    </g>
    <g
       id="g43">
      <path
         style="opacity:0.153"
         fill="#dadada"
         d="m 1381.5,1172.5 c 0.13,0.88 -0.2,1.54 -1,2 -19,6.5 -32.84,18.84 -41.5,37 -2.6,7.67 -5.43,15 -8.5,22 4.57,-30.84 21.57,-51.17 51,-61 z"
         id="path43" />
    </g>
    <g
       id="g44">
      <path
         style="opacity:0.458"
         fill="#dbdbdb"
         d="m 575.5,1191.5 c -2.867,7.27 -5.534,14.6 -8,22 -10.694,-3.57 -21.361,-6.9 -32,-10 10.205,0.67 20.038,3.34 29.5,8 3.117,-6.17 5.95,-12.51 8.5,-19 0.457,-0.8 1.124,-1.13 2,-1 z"
         id="path44" />
    </g>
    <g
       id="g45">
      <path
         style="opacity:0.731"
         fill="#dadada"
         d="m 594.5,1203.5 c 16.68,-0.33 33.347,0 50,1 -0.124,0.61 -0.457,0.94 -1,1 -16.701,0.65 -33.034,-0.01 -49,-2 z"
         id="path45" />
    </g>
    <g
       id="g46">
      <path
         style="opacity:0.732"
         fill="#dadada"
         d="m 827.5,1203.5 c 16.68,-0.33 33.347,0 50,1 -0.124,0.61 -0.457,0.94 -1,1 -16.701,0.65 -33.034,-0.01 -49,-2 z"
         id="path46" />
    </g>
    <g
       id="g47">
      <path
         style="opacity:0.089"
         fill="#d7d7d7"
         d="m 1169.5,1203.5 c 17.03,-0.65 33.7,0.01 50,2 -17.03,0.65 -33.7,-0.01 -50,-2 z"
         id="path47" />
    </g>
    <g
       id="g48">
      <path
         style="opacity:0.258"
         fill="#d6d6d6"
         d="m 1308.5,1170.5 c 0.99,11.49 1.33,23.15 1,35 -16.33,0 -32.67,0 -49,0 0.17,49.67 0,99.33 -0.5,149 -0.38,0.56 -0.88,0.89 -1.5,1 0,-50.67 0,-101.33 0,-152 16.33,0 32.67,0 49,0 0.99,-10.82 1.33,-21.82 1,-33 z"
         id="path48" />
    </g>
    <g
       id="g49">
      <path
         style="opacity:0.417"
         fill="#d5d5d5"
         d="m 732.5,1170.5 c 1.978,11.29 2.645,22.95 2,35 -16.667,0 -33.333,0 -50,0 0.332,50.17 -10e-4,100.17 -1,150 0,-50.67 0,-101.33 0,-152 16.333,0 32.667,0 49,0 0,-10.33 0,-20.67 0,-31 0,-0.67 0,-1.33 0,-2 z"
         id="path49" />
    </g>
    <g
       id="g50">
      <path
         style="opacity:0.354"
         fill="#d4d4d4"
         d="m 965.5,1170.5 c 1.978,11.29 2.645,22.95 2,35 -16.667,0 -33.333,0 -50,0 0.332,50.17 -10e-4,100.17 -1,150 0,-50.67 0,-101.33 0,-152 16.333,0 32.667,0 49,0 0,-10.33 0,-20.67 0,-31 0,-0.67 0,-1.33 0,-2 z"
         id="path50" />
    </g>
    <g
       id="g51">
      <path
         style="opacity:0.949"
         fill="#d6d6d6"
         d="m 315.5,1250.5 c -6,-9.67 -12,-19.33 -18,-29 0.172,-0.99 -0.162,-1.66 -1,-2 -0.131,-0.88 0.202,-1.54 1,-2 6.497,10.68 12.831,21.51 19,32.5 -0.228,0.4 -0.562,0.57 -1,0.5 z"
         id="path51" />
    </g>
    <g
       id="g52">
      <path
         style="opacity:0.498"
         fill="#d9d9d9"
         d="m 1408.5,1202.5 c -18.44,3.77 -30.11,14.77 -35,33 2.49,-18.67 13.33,-30.01 32.5,-34 1.07,0.03 1.9,0.36 2.5,1 z"
         id="path52" />
    </g>
    <g
       id="g53">
      <path
         style="opacity:0.243"
         fill="#d9d9d9"
         d="m 563.5,1265.5 c 8.165,5.87 13.165,13.87 15,24 -2.678,-4.34 -5.178,-9.01 -7.5,-14 -2.741,-3.23 -5.241,-6.56 -7.5,-10 z"
         id="path53" />
    </g>
    <g
       id="g54">
      <path
         style="opacity:0.256"
         fill="#d4d4d4"
         d="m 463.5,1238.5 c 0.876,-0.13 1.543,0.2 2,1 3.217,8.39 8.217,15.56 15,21.5 15.393,9.7 31.393,18.36 48,26 1.884,1.05 3.218,2.55 4,4.5 -16.105,-8.22 -32.105,-16.72 -48,-25.5 -10.038,-6.94 -17.038,-16.1 -21,-27.5 z"
         id="path54" />
    </g>
    <g
       id="g55">
      <path
         style="opacity:0.18"
         fill="#d5d5d5"
         d="m 375.5,1278.5 c 5.309,7.26 10.142,14.93 14.5,23 0.499,-5.32 0.666,-10.66 0.5,-16 1.314,2.42 1.981,5.25 2,8.5 0.084,3.62 -0.416,7.12 -1.5,10.5 -4.654,-6.63 -9.321,-13.3 -14,-20 -0.505,-2.02 -1.005,-4.02 -1.5,-6 z"
         id="path55" />
    </g>
    <g
       id="g56">
      <path
         style="opacity:0.807"
         fill="#dddddd"
         d="m 472.5,1314.5 c -0.617,0.11 -1.117,0.44 -1.5,1 -3.351,-1.76 -6.851,-3.09 -10.5,-4 -0.332,11.69 10e-4,23.35 1,35 6.382,3.13 13.049,5.46 20,7 1.213,0.25 1.88,0.91 2,2 -8.469,-1.27 -16.469,-3.93 -24,-8 -0.981,-12.62 -1.314,-25.28 -1,-38 5.138,0.58 9.805,2.25 14,5 z"
         id="path56" />
    </g>
    <g
       id="g57">
      <path
         style="opacity:0.77"
         fill="#e1e1e1"
         d="m 532.5,1292.5 c 1.644,-0.21 3.144,0.12 4.5,1 7.087,10.89 5.587,20.39 -4.5,28.5 -9.106,3.78 -18.106,4.28 -27,1.5 6.009,0.17 12.009,0 18,-0.5 11.925,-2.36 17.092,-9.53 15.5,-21.5 -1.227,-3.72 -3.393,-6.72 -6.5,-9 z"
         id="path57" />
    </g>
    <g
       id="g58">
      <path
         style="opacity:0.141"
         fill="#d5d5d5"
         d="m 579.5,1312.5 c -3.364,20.7 -15.03,34.37 -35,41 -0.131,-0.88 0.202,-1.54 1,-2 18.582,-6.92 29.915,-19.92 34,-39 z"
         id="path58" />
    </g>
    <g
       id="g59">
      <path
         style="opacity:0.094"
         fill="#d1d1d1"
         d="m 1139.5,1318.5 c -7.13,16.46 -19.13,27.79 -36,34 -0.13,-0.88 0.2,-1.54 1,-2 15.21,-5.71 26.05,-16.05 32.5,-31 0.67,-0.75 1.5,-1.09 2.5,-1 z"
         id="path59" />
    </g>
    <g
       id="g60">
      <path
         style="opacity:0.263"
         fill="#d8d8d8"
         d="m 1005.5,1332.5 c 5.82,4.98 11.82,9.81 18,14.5 6.54,3.29 13.37,5.79 20.5,7.5 1.03,0.34 1.53,1 1.5,2 -16.61,-2.62 -29.94,-10.62 -40,-24 z"
         id="path60" />
    </g>
    <g
       id="g61">
      <path
         style="opacity:0.027"
         fill="#d8d8d8"
         d="m 1468.5,1343.5 c -0.41,1.14 -1.07,2.14 -2,3 -10.56,6.08 -21.89,9.74 -34,11 0.12,-1.09 0.79,-1.75 2,-2 12.16,-1.83 23.49,-5.83 34,-12 z"
         id="path61" />
    </g>
    <g
       id="g62">
      <path
         style="opacity:0.471"
         fill="#d3d3d3"
         d="m 1184.5,1394.5 c -2.24,-0.8 -3.24,-2.47 -3,-5 -16,-0.17 -32,0 -48,0.5 -0.76,1.44 -1.43,2.94 -2,4.5 -0.46,0.8 -1.12,1.13 -2,1 0.96,-2.25 1.62,-4.58 2,-7 17.01,-0.33 34.01,0 51,1 0.96,1.58 1.62,3.24 2,5 z"
         id="path62" />
    </g>
    <g
       id="g63">
      <path
         style="opacity:0.149"
         fill="#dadada"
         d="m 410.5,1423.5 c 0,-11 0,-22 0,-33 -34.667,0 -69.333,0 -104,0 0,61 0,122 0,183 -1.996,-60.99 -2.663,-122.32 -2,-184 36,0 72,0 108,0 0.167,11.01 0,22.01 -0.5,33 -0.383,0.56 -0.883,0.89 -1.5,1 z"
         id="path63" />
    </g>
    <g
       id="g64">
      <path
         style="opacity:0.305"
         fill="#d2d2d2"
         d="m 447.5,1389.5 c -0.996,61.26 -1.329,122.6 -1,184 -0.667,-30.5 -1,-61.16 -1,-92 0,-31.01 0.667,-61.67 2,-92 z"
         id="path64" />
    </g>
    <g
       id="g65">
      <path
         style="opacity:0.992"
         fill="#eeeeee"
         d="m 447.5,1389.5 c 35.333,0 70.667,0 106,0 0.167,11.01 0,22.01 -0.5,33 -0.383,0.56 -0.883,0.89 -1.5,1 0,-10.67 0,-21.33 0,-32 -34.667,0 -69.333,0 -104,0 0,60.67 0,121.33 0,182 -0.333,0 -0.667,0 -1,0 -0.329,-61.4 0.004,-122.74 1,-184 z"
         id="path65" />
    </g>
    <g
       id="g66">
      <path
         style="opacity:0.462"
         fill="#d6d6d6"
         d="m 662.5,1390.5 c -24.333,0 -48.667,0 -73,0 0,61 0,122 0,183 -0.999,-61.16 -1.332,-122.5 -1,-184 24.839,-0.33 49.506,0 74,1 z"
         id="path66" />
    </g>
    <g
       id="g67">
      <path
         style="opacity:0.996"
         fill="#fdfdfd"
         d="m 662.5,1390.5 c 20.228,0.96 37.895,7.96 53,21 8.9,9.43 15.567,20.43 20,33 0.457,0.8 1.124,1.13 2,1 5.651,20.4 6.484,41.07 2.5,62 -0.903,4.98 -2.403,9.64 -4.5,14 -0.876,-0.13 -1.543,0.2 -2,1 -4.429,9.87 -10.095,18.87 -17,27 -11.734,11.04 -25.734,18.2 -42,21.5 -4.319,0.76 -8.652,1.43 -13,2 -23.998,0.5 -47.998,0.67 -72,0.5 0,-61 0,-122 0,-183 24.333,0 48.667,0 73,0 z m -32,33 c 13.517,-0.72 26.851,0.45 40,3.5 15.442,6.45 24.608,17.95 27.5,34.5 4.239,21.1 1.405,41.1 -8.5,60 -2.099,2.49 -4.432,4.83 -7,7 -5.804,3.9 -11.804,7.23 -18,10 -0.65,-0.3 -1.317,-0.64 -2,-1 -3.058,1.64 -6.392,2.47 -10,2.5 -7.326,0.5 -14.659,0.67 -22,0.5 0,-39 0,-78 0,-117 z"
         id="path67" />
    </g>
    <g
       id="g68">
      <path
         style="opacity:0.188"
         fill="#d3d3d3"
         d="m 780.5,1389.5 c -0.996,61.26 -1.329,122.6 -1,184 -0.667,-30.5 -1,-61.16 -1,-92 0,-31.01 0.667,-61.67 2,-92 z"
         id="path68" />
    </g>
    <g
       id="g69">
      <path
         style="opacity:0.992"
         fill="#ececec"
         d="m 780.5,1389.5 c 35.333,0 70.667,0 106,0 0.167,11.01 0,22.01 -0.5,33 -0.383,0.56 -0.883,0.89 -1.5,1 0,-10.67 0,-21.33 0,-32 -34.667,0 -69.333,0 -104,0 0,60.67 0,121.33 0,182 -0.333,0 -0.667,0 -1,0 -0.329,-61.4 0.004,-122.74 1,-184 z"
         id="path69" />
    </g>
    <g
       id="g70">
      <path
         style="opacity:0.337"
         fill="#d5d5d5"
         d="m 992.5,1390.5 c -23.333,0 -46.667,0 -70,0 0,61 0,122 0,183 -0.999,-61.16 -1.332,-122.5 -1,-184 23.839,-0.33 47.506,0 71,1 z"
         id="path70" />
    </g>
    <g
       id="g71">
      <path
         style="opacity:0.998"
         fill="#fdfdfd"
         d="m 1184.5,1394.5 c 1.4,3.2 2.4,6.53 3,10 -0.54,0.06 -0.88,0.39 -1,1 4.73,14.04 9.57,28.04 14.5,42 0.42,1.26 1.25,1.92 2.5,2 1.07,2.2 1.73,4.53 2,7 -0.54,0.06 -0.88,0.39 -1,1 7.27,20.63 14.43,41.3 21.5,62 0.55,2.26 1.72,3.93 3.5,5 6.26,16.12 11.93,32.45 17,49 -15,0 -30,0 -45,0 -2.79,-11.05 -5.79,-22.05 -9,-33 0.75,-3.64 0.08,-7.14 -2,-10.5 -22.34,-0.83 -44.67,-0.67 -67,0.5 0.12,0.61 0.46,0.94 1,1 -3.54,13.81 -7.54,27.48 -12,41 -29.29,0.98 -58.62,1.32 -88,1 -13.5,-20.99 -26.499,-42.33 -39,-64 -0.049,-2.6 -1.049,-4.77 -3,-6.5 -6.992,-0.5 -13.992,-0.67 -21,-0.5 0,23.67 0,47.33 0,71 -13,0 -26,0 -39,0 0,-61 0,-122 0,-183 23.333,0 46.667,0 70,0 13.47,0.27 25.8,3.94 37,11 -0.09,1 0.25,1.83 1,2.5 3.28,1.56 6.12,3.73 8.5,6.5 3.44,5.05 5.94,10.55 7.5,16.5 0.34,1.03 1,1.53 2,1.5 2.63,10.34 2.63,20.67 0,31 -3.53,5.77 -7.03,11.77 -10.5,18 -2.04,1.87 -3.87,3.87 -5.5,6 -4.33,3.93 -9.17,7.26 -14.5,10 0.13,1.69 0.63,3.36 1.5,5 11.92,19.1 24.08,38.1 36.5,57 1.11,0.81 2.28,1.47 3.5,2 2.98,3.93 5.98,7.93 9,12 16.05,-45.4 32.05,-90.74 48,-136 1.25,-0.08 2.08,-0.74 2.5,-2 2.73,-8.37 5.57,-16.7 8.5,-25 -0.12,-0.61 -0.46,-0.94 -1,-1 0.6,-3.47 1.6,-6.8 3,-10 0.88,0.13 1.54,-0.2 2,-1 0.57,-1.56 1.24,-3.06 2,-4.5 16,-0.5 32,-0.67 48,-0.5 -0.24,2.53 0.76,4.2 3,5 z m -221,29 c 11.97,-0.71 23.637,0.79 35,4.5 5.31,1.98 8.48,5.82 9.5,11.5 1.5,7.91 0.17,15.24 -4,22 -7.734,6.08 -16.568,9.08 -26.5,9 -4.667,0 -9.333,0 -14,0 0,-15.67 0,-31.33 0,-47 z m 214,65 c 0.16,2.33 0.83,4.49 2,6.5 -14.67,0.67 -29.33,0.67 -44,0 1.5,-3 2.5,-6.17 3,-9.5 0,-0.33 0,-0.67 0,-1 4.44,-11.66 8.11,-23.66 11,-36 2.76,-8.13 5.26,-16.46 7.5,-25 6.77,21.8 13.6,43.47 20.5,65 z"
         id="path71" />
    </g>
    <g
       id="g72">
      <path
         style="opacity:0.991"
         fill="#fefefe"
         d="m 410.5,1423.5 c -21.742,0.32 -43.409,-0.01 -65,-1 -1.984,15.3 -2.651,30.96 -2,47 20.667,0 41.333,0 62,0 0,10.33 0,20.67 0,31 -20.576,-0.33 -41.076,0.01 -61.5,1 -0.5,24 -0.667,48 -0.5,72 -12.333,0 -24.667,0 -37,0 0,-61 0,-122 0,-183 34.667,0 69.333,0 104,0 0,11 0,22 0,33 z"
         id="path72" />
    </g>
    <g
       id="g73">
      <path
         style="opacity:0.989"
         fill="#fefefe"
         d="m 551.5,1423.5 c -21.333,0 -42.667,0 -64,0 -0.06,-0.54 -0.393,-0.88 -1,-1 -0.999,13.32 -1.333,26.65 -1,40 20.667,0 41.333,0 62,0 0,10.67 0,21.33 0,32 -20,0 -40,0 -60,0 -1.984,15.3 -2.651,30.96 -2,47 22,0 44,0 66,0 0,10.67 0,21.33 0,32 -34.667,0 -69.333,0 -104,0 0,-60.67 0,-121.33 0,-182 34.667,0 69.333,0 104,0 0,10.67 0,21.33 0,32 z"
         id="path73" />
    </g>
    <g
       id="g74">
      <path
         style="opacity:0.99"
         fill="#fefefe"
         d="m 884.5,1423.5 c -21.333,0 -42.667,0 -64,0 -0.06,-0.54 -0.393,-0.88 -1,-1 -0.999,13.32 -1.333,26.65 -1,40 20.667,0 41.333,0 62,0 0,10.67 0,21.33 0,32 -20,0 -40,0 -60,0 -1.984,15.3 -2.651,30.96 -2,47 22,0 44,0 66,0 0,10.67 0,21.33 0,32 -34.667,0 -69.333,0 -104,0 0,-60.67 0,-121.33 0,-182 34.667,0 69.333,0 104,0 0,10.67 0,21.33 0,32 z"
         id="path74" />
    </g>
    <g
       id="g75">
      <path
         style="opacity:0.121"
         fill="#d8d8d8"
         d="m 1382.5,1573.5 c 0,-10.67 0,-21.33 0,-32 -25,0 -50,0 -75,0 0,-50.33 0,-100.67 0,-151 -12.67,0 -25.33,0 -38,0 0,61 0,122 0,183 -2,-60.99 -2.66,-122.32 -2,-184 14,0 28,0 42,0 0,50.33 0,100.67 0,151 24.67,0 49.33,0 74,0 0.33,11.18 -0.01,22.18 -1,33 z"
         id="path75" />
    </g>
    <g
       id="g76">
      <path
         style="opacity:0.996"
         fill="#fefefe"
         d="m 1382.5,1573.5 c -37.67,0 -75.33,0 -113,0 0,-61 0,-122 0,-183 12.67,0 25.33,0 38,0 0,50.33 0,100.67 0,151 25,0 50,0 75,0 0,10.67 0,21.33 0,32 z"
         id="path76" />
    </g>
    <g
       id="g77">
      <path
         style="opacity:0.369"
         fill="#d7d7d7"
         d="m 1187.5,1404.5 c 6.1,14.62 11.43,29.62 16,45 -1.25,-0.08 -2.08,-0.74 -2.5,-2 -4.93,-13.96 -9.77,-27.96 -14.5,-42 0.12,-0.61 0.46,-0.94 1,-1 z"
         id="path77" />
    </g>
    <g
       id="g78">
      <path
         style="opacity:0.122"
         fill="#d6d6d6"
         d="m 1029.5,1401.5 c 10.57,5.92 16.91,14.92 19,27 -1,0.03 -1.66,-0.47 -2,-1.5 -1.56,-5.95 -4.06,-11.45 -7.5,-16.5 -2.38,-2.77 -5.22,-4.94 -8.5,-6.5 -0.75,-0.67 -1.09,-1.5 -1,-2.5 z"
         id="path78" />
    </g>
    <g
       id="g79">
      <path
         style="opacity:0.565"
         fill="#d9d9d9"
         d="m 1126.5,1405.5 c 0.54,0.06 0.88,0.39 1,1 -2.93,8.3 -5.77,16.63 -8.5,25 -0.42,1.26 -1.25,1.92 -2.5,2 2.76,-9.62 6.1,-18.96 10,-28 z"
         id="path79" />
    </g>
    <g
       id="g80">
      <path
         style="opacity:0.474"
         fill="#d1d1d1"
         d="m 963.5,1423.5 c 0,15.67 0,31.33 0,47 4.667,0 9.333,0 14,0 -5.14,0.99 -10.474,1.32 -16,1 -0.333,-16.35 10e-4,-32.68 1,-49 0.607,0.12 0.94,0.46 1,1 z"
         id="path80" />
    </g>
    <g
       id="g81">
      <path
         style="opacity:0.203"
         fill="#cacaca"
         d="m 630.5,1423.5 c 0,39 0,78 0,117 -1.333,-19.32 -2,-38.99 -2,-59 0.333,-19.67 0.667,-39.33 1,-59 0.607,0.12 0.94,0.46 1,1 z"
         id="path81" />
    </g>
    <g
       id="g82">
      <path
         style="opacity:0.2"
         fill="#d8d8d8"
         d="m 715.5,1411.5 c 4.602,2.77 8.436,6.43 11.5,11 4.591,7.18 8.091,14.85 10.5,23 -0.876,0.13 -1.543,-0.2 -2,-1 -4.433,-12.57 -11.1,-23.57 -20,-33 z"
         id="path82" />
    </g>
    <g
       id="g83">
      <path
         style="opacity:0.67"
         fill="#d8d8d8"
         d="m 487.5,1423.5 c 0,12.67 0,25.33 0,38 20.667,0 41.333,0 62,0 0.644,11.38 -0.023,22.38 -2,33 0,-10.67 0,-21.33 0,-32 -20.667,0 -41.333,0 -62,0 -0.333,-13.35 10e-4,-26.68 1,-40 0.607,0.12 0.94,0.46 1,1 z"
         id="path83" />
    </g>
    <g
       id="g84">
      <path
         style="opacity:0.667"
         fill="#dadada"
         d="m 820.5,1423.5 c 0,12.67 0,25.33 0,38 20.667,0 41.333,0 62,0 0.644,11.38 -0.023,22.38 -2,33 0,-10.67 0,-21.33 0,-32 -20.667,0 -41.333,0 -62,0 -0.333,-13.35 10e-4,-26.68 1,-40 0.607,0.12 0.94,0.46 1,1 z"
         id="path84" />
    </g>
    <g
       id="g85">
      <path
         style="opacity:0.388"
         fill="#d4d4d4"
         d="m 1048.5,1459.5 c -1.48,6.63 -4.32,12.63 -8.5,18 -2.11,2.62 -4.61,4.62 -7.5,6 1.63,-2.13 3.46,-4.13 5.5,-6 3.47,-6.23 6.97,-12.23 10.5,-18 z"
         id="path85" />
    </g>
    <g
       id="g86">
      <path
         style="opacity:0.239"
         fill="#dadada"
         d="m 1149.5,1448.5 c -2.89,12.34 -6.56,24.34 -11,36 -0.6,-0.24 -0.93,-0.74 -1,-1.5 3.37,-10.44 6.54,-20.94 9.5,-31.5 0.24,-1.62 1.07,-2.62 2.5,-3 z"
         id="path86" />
    </g>
    <g
       id="g87">
      <path
         style="opacity:0.606"
         fill="#d8d8d8"
         d="m 1138.5,1485.5 c -0.5,3.33 -1.5,6.5 -3,9.5 14.67,0.67 29.33,0.67 44,0 -1.17,-2.01 -1.84,-4.17 -2,-6.5 2.46,2.32 3.79,5.32 4,9 -16,0 -32,0 -48,0 0.54,-4.66 2.21,-8.66 5,-12 z"
         id="path87" />
    </g>
    <g
       id="g88">
      <path
         style="opacity:0.576"
         fill="#dadada"
         d="m 1205.5,1456.5 c 8.57,22.37 16.57,45.03 24,68 -1.78,-1.07 -2.95,-2.74 -3.5,-5 -7.07,-20.7 -14.23,-41.37 -21.5,-62 0.12,-0.61 0.46,-0.94 1,-1 z"
         id="path88" />
    </g>
    <g
       id="g89">
      <path
         style="opacity:0.365"
         fill="#e3e3e3"
         d="m 345.5,1422.5 c 0,15.33 0,30.67 0,46 20.667,0 41.333,0 62,0 0.321,11.25 -0.013,22.41 -1,33.5 -20.24,0.83 -40.406,0.66 -60.5,-0.5 0.159,24.35 -0.674,48.35 -2.5,72 -0.167,-24 0,-48 0.5,-72 20.424,-0.99 40.924,-1.33 61.5,-1 0,-10.33 0,-20.67 0,-31 -20.667,0 -41.333,0 -62,0 -0.651,-16.04 0.016,-31.7 2,-47 z"
         id="path89" />
    </g>
    <g
       id="g90">
      <path
         style="opacity:0.472"
         fill="#d5d5d5"
         d="m 985.5,1509.5 c -1.465,-0.91 -2.465,-2.24 -3,-4 -6.298,-1 -12.632,-1.33 -19,-1 0.656,23.36 -0.01,46.36 -2,69 0,-23.67 0,-47.33 0,-71 7.008,-0.17 14.008,0 21,0.5 1.951,1.73 2.951,3.9 3,6.5 z"
         id="path90" />
    </g>
    <g
       id="g91">
      <path
         style="opacity:0.075"
         fill="#cccccc"
         d="m 1192.5,1540.5 c -0.98,-2.55 -1.98,-5.22 -3,-8 -21.66,-1 -43.32,-1.33 -65,-1 -0.54,-0.06 -0.88,-0.39 -1,-1 22.33,-1.17 44.66,-1.33 67,-0.5 2.08,3.36 2.75,6.86 2,10.5 z"
         id="path91" />
    </g>
    <g
       id="g92">
      <path
         style="opacity:0.067"
         fill="#d7d7d7"
         d="m 1019.5,1498.5 c 14.11,19.11 27.44,38.78 40,59 -1.22,-0.53 -2.39,-1.19 -3.5,-2 -12.42,-18.9 -24.58,-37.9 -36.5,-57 z"
         id="path92" />
    </g>
    <g
       id="g93">
      <path
         style="opacity:0.42"
         fill="#dbdbdb"
         d="m 689.5,1521.5 c 0.149,1.05 -0.017,2.05 -0.5,3 -6.42,7.63 -14.587,12.3 -24.5,14 6.196,-2.77 12.196,-6.1 18,-10 2.568,-2.17 4.901,-4.51 7,-7 z"
         id="path93" />
    </g>
    <g
       id="g94">
      <path
         style="opacity:0.357"
         fill="#d5d5d5"
         d="m 735.5,1521.5 c -3.393,11.49 -9.726,20.82 -19,28 6.905,-8.13 12.571,-17.13 17,-27 0.457,-0.8 1.124,-1.13 2,-1 z"
         id="path94" />
    </g>
    <g
       id="g95">
      <path
         style="opacity:0.681"
         fill="#dfdfdf"
         d="m 487.5,1494.5 c 0,15.33 0,30.67 0,46 22,0 44,0 66,0 0.644,11.38 -0.023,22.38 -2,33 0,-10.67 0,-21.33 0,-32 -22,0 -44,0 -66,0 -0.651,-16.04 0.016,-31.7 2,-47 z"
         id="path95" />
    </g>
    <g
       id="g96">
      <path
         style="opacity:0.678"
         fill="#e0e0e0"
         d="m 820.5,1494.5 c 0,15.33 0,30.67 0,46 22,0 44,0 66,0 0.644,11.38 -0.023,22.38 -2,33 0,-10.67 0,-21.33 0,-32 -22,0 -44,0 -66,0 -0.651,-16.04 0.016,-31.7 2,-47 z"
         id="path96" />
    </g>
    <g
       id="g97">
      <path
         style="opacity:0.285"
         fill="#c6c6c6"
         d="m 1112.5,1572.5 c -14.32,1.33 -28.98,2 -44,2 -14.84,0 -29.5,-0.33 -44,-1 29.38,0.32 58.71,-0.02 88,-1 z"
         id="path97" />
    </g>
    <g
       id="g98">
      <path
         style="opacity:0.976"
         fill="#fbfbfb"
         d="m 849.5,1696.5 c -1.129,2.13 -1.296,4.46 -0.5,7 2.825,-3.46 5.991,-6.62 9.5,-9.5 6.393,-2.98 12.726,-5.48 19,-7.5 11.786,-1.86 22.453,0.64 32,7.5 5.979,5.12 9.479,11.62 10.5,19.5 0.5,26.66 0.667,53.33 0.5,80 -5.667,0 -11.333,0 -17,0 0.453,-25.71 -0.047,-51.38 -1.5,-77 -3.529,-10.44 -10.862,-15.11 -22,-14 -12.721,-0.81 -21.721,4.52 -27,16 -1.798,5.18 -2.798,10.51 -3,16 -0.5,19.66 -0.667,39.33 -0.5,59 -5.667,0 -11.333,0 -17,0 0,-49.67 0,-99.33 0,-149 5.667,0 11.333,0 17,0 0,17.33 0,34.67 0,52 z"
         id="path98" />
    </g>
    <g
       id="g99">
      <path
         style="opacity:0.983"
         fill="#f4f4f4"
         d="m 957.5,1649.5 c 12.179,0.92 16.012,7.25 11.5,19 -3.394,4.58 -7.894,6.08 -13.5,4.5 -2.5,-1.17 -4.333,-3 -5.5,-5.5 -0.667,-4.33 -0.667,-8.67 0,-13 1.913,-2.78 4.413,-4.45 7.5,-5 z"
         id="path99" />
    </g>
    <g
       id="g100">
      <path
         style="opacity:0.19"
         fill="#c4c4c4"
         d="m 653.5,1654.5 c -17,0 -34,0 -51,0 0,46.33 0,92.67 0,139 -0.999,-46.5 -1.332,-93.16 -1,-140 17.508,-0.33 34.841,0 52,1 z"
         id="path100" />
    </g>
    <g
       id="g101">
      <path
         style="opacity:0.989"
         fill="#fbfbfb"
         d="m 653.5,1654.5 c 3.734,-0.18 7.401,0.16 11,1 6.619,2.84 13.285,6.01 20,9.5 2.118,3.95 4.785,7.45 8,10.5 3.532,11.72 2.366,23.06 -3.5,34 -4.892,5.7 -11.059,9.2 -18.5,10.5 19.101,3.05 28.768,14.22 29,33.5 -0.868,22.7 -12.534,35.87 -35,39.5 -20.664,0.5 -41.331,0.67 -62,0.5 0,-46.33 0,-92.67 0,-139 17,0 34,0 51,0 z m -2,16 c 21.828,1.68 28.995,12.68 21.5,33 -4.069,4.79 -9.236,7.62 -15.5,8.5 -12.634,1.26 -25.301,1.76 -38,1.5 0.982,-14.25 1.316,-28.59 1,-43 10.333,0 20.667,0 31,0 z m 2,58 c 22.705,2.19 30.871,14.19 24.5,36 -1.377,2.25 -2.877,4.42 -4.5,6.5 -6.221,3.46 -12.887,5.63 -20,6.5 -11,0 -22,0 -33,0 0.325,-16.24 -0.009,-32.41 -1,-48.5 11.328,-0.5 22.662,-0.67 34,-0.5 z"
         id="path101" />
    </g>
    <g
       id="g102">
      <path
         style="opacity:0.575"
         fill="#d7d7d7"
         d="m 664.5,1655.5 c 11.185,1.01 20.019,6.01 26.5,15 0.608,1.65 1.108,3.32 1.5,5 -3.215,-3.05 -5.882,-6.55 -8,-10.5 -6.715,-3.49 -13.381,-6.66 -20,-9.5 z"
         id="path102" />
    </g>
    <g
       id="g103">
      <path
         style="opacity:0.332"
         fill="#dedede"
         d="m 651.5,1670.5 c -10.333,0 -20.667,0 -31,0 0.316,14.41 -0.018,28.75 -1,43 -0.996,-14.82 -1.329,-29.82 -1,-45 11.384,-0.64 22.384,0.02 33,2 z"
         id="path103" />
    </g>
    <g
       id="g104">
      <path
         style="opacity:0.987"
         fill="#f8f8f8"
         d="m 739.5,1707.5 c -2,0 -4,0 -6,0 -0.981,-3.31 -1.981,-6.64 -3,-10 3.171,-2.16 6.171,-4.49 9,-7 12.015,-3.8 24.348,-4.96 37,-3.5 14.046,2.38 22.546,10.55 25.5,24.5 0.5,27.33 0.667,54.66 0.5,82 -4.679,0.17 -9.345,0 -14,-0.5 -1.165,-3.82 -2.332,-7.65 -3.5,-11.5 -12.138,12.75 -26.971,17.25 -44.5,13.5 -20.366,-6.55 -27.866,-20.38 -22.5,-41.5 4.179,-9.02 11.013,-15.19 20.5,-18.5 3.623,-1.16 7.289,-2.16 11,-3 11.64,-1.2 23.307,-2.03 35,-2.5 2.591,-16.55 -4.242,-25.88 -20.5,-28 -8.433,0.98 -16.6,2.98 -24.5,6 z m 40,36 c 1.667,0 3.333,0 5,0 1.396,28.77 -11.938,40.6 -40,35.5 -5.662,-3.16 -8.328,-7.99 -8,-14.5 -0.203,-3.91 0.63,-7.58 2.5,-11 3.597,-2.6 7.43,-4.77 11.5,-6.5 9.744,-1.75 19.411,-2.92 29,-3.5 z"
         id="path104" />
    </g>
    <g
       id="g105">
      <path
         style="opacity:0.988"
         fill="#f8f8f8"
         d="m 1027.5,1686.5 c 8.01,-0.17 16.01,0 24,0.5 13.46,2.79 21.63,10.96 24.5,24.5 0.5,27.33 0.67,54.66 0.5,82 -4.35,0.17 -8.68,0 -13,-0.5 -1.29,-4.1 -2.46,-8.27 -3.5,-12.5 -4.74,6.4 -10.91,10.9 -18.5,13.5 -8.61,1.51 -17.28,1.84 -26,1 -15.832,-3.64 -23.832,-13.64 -24,-30 -0.144,-15.06 6.856,-25.06 21,-30 3.92,-1.31 7.92,-2.31 12,-3 11.64,-1.2 23.31,-2.03 35,-2.5 2.64,-17.1 -4.53,-26.44 -21.5,-28 -4.54,0.65 -9.04,1.48 -13.5,2.5 -5.54,2.35 -11.2,4.18 -17,5.5 -0.87,-3.41 -2.03,-6.74 -3.5,-10 -0.8,-1.76 -0.63,-3.43 0.5,-5 7.48,-3.59 15.15,-6.26 23,-8 z m 26,57 c 2,0 4,0 6,0 0.55,28.63 -13.12,40.46 -41,35.5 -5.66,-3.16 -8.33,-7.99 -8,-14.5 0.43,-9.61 5.43,-15.44 15,-17.5 9.41,-1.73 18.74,-2.9 28,-3.5 z"
         id="path105" />
    </g>
    <g
       id="g106">
      <path
         style="opacity:0.514"
         fill="#e5e5e5"
         d="m 968.5,1689.5 c -5.333,0 -10.667,0 -16,0 0,34.67 0,69.33 0,104 -1.333,-17.15 -2,-34.65 -2,-52.5 0.167,-17.5 0.333,-35 0.5,-52.5 2.914,-0.64 5.914,-0.98 9,-1 3.252,0.02 6.085,0.69 8.5,2 z"
         id="path106" />
    </g>
    <g
       id="g107">
      <path
         style="opacity:0.939"
         fill="#fefefe"
         d="m 968.5,1689.5 c 0,34.67 0,69.33 0,104 -5.333,0 -10.667,0 -16,0 0,-34.67 0,-69.33 0,-104 5.333,0 10.667,0 16,0 z"
         id="path107" />
    </g>
    <g
       id="g108">
      <path
         style="opacity:0.404"
         fill="#d9d9d9"
         d="m 877.5,1686.5 c -6.274,2.02 -12.607,4.52 -19,7.5 -3.509,2.88 -6.675,6.04 -9.5,9.5 -0.796,-2.54 -0.629,-4.87 0.5,-7 -0.157,1.37 0.01,2.71 0.5,4 6.868,-9.02 16.035,-13.68 27.5,-14 z"
         id="path108" />
    </g>
    <g
       id="g109">
      <path
         style="opacity:0.245"
         fill="#d3d3d3"
         d="m 739.5,1690.5 c -2.829,2.51 -5.829,4.84 -9,7 1.019,3.36 2.019,6.69 3,10 2,0 4,0 6,0 -1.938,1.66 -4.272,2.33 -7,2 -1.704,-4.6 -2.871,-9.26 -3.5,-14 3.172,-2.34 6.672,-4 10.5,-5 z"
         id="path109" />
    </g>
    <g
       id="g110">
      <path
         style="opacity:0.357"
         fill="#e7e7e7"
         d="m 653.5,1728.5 c -11.338,-0.17 -22.672,0 -34,0.5 0.991,16.09 1.325,32.26 1,48.5 11,0 22,0 33,0 -11.285,1.98 -22.952,2.65 -35,2 0,-17.67 0,-35.33 0,-53 12.048,-0.65 23.715,0.02 35,2 z"
         id="path110" />
    </g>
  </g>
</svg>
