<svg xmlns="http://www.w3.org/2000/svg" viewBox="0 0 1365.3 1365.3">
  <path fill="#333" d="M525.2 1189.5c-5.6-6.4-8.9-6.9-15-2.2l-4.3 3.2-9-3.2c-19.6-7.1-25.4-11-26.7-18.1-1.3-7-6.4-11.2-12.8-10.7-10.7.8-27.6-14.5-29.5-26.7-1.5-9.3-9.4-21.1-14.2-21.1-8.8 0-22.4-25.2-19-35.3 2.4-7.5-2.6-25.4-8.6-30.8-6.3-5.6-12.6-29.5-9.6-36.6 3.5-8.3 1.3-31.6-3.4-37-4.9-5.7-6-36-1.4-39.3 5.4-3.9 9.1-25.8 5.2-30.1-4.9-5.4.6-35.1 6.6-36 3.9-.6 7.2-4.5 7.6-9 .3-4-5.3-6.8-35.8-18-8-3-15.2-6-16-6.6-2.4-1.9-27.2-9.3-31.2-9.3-5 0-38.6 7.5-41.8 9.4-1.3.7-3 1-3.6.6-.6-.4-1.5-.2-2 .5-.3.6-4.7 2-9.7 2.8-12.6 2.3-15.8 6.6-11.5 14.9 1.9 3.7 2.2 14.4.4 14.4-.6 0-1.4 1.9-2 4.2-.4 2.2-3 6.4-5.8 9.1-5.2 5.2-8.7 12.6-7.2 15.2.4.9 2 2.9 3.5 4.5 2.6 3 2.6 3.3.6 7.6-4 8.4-11.8 18.1-14.5 18.1-4 0-8.6 5.6-9.6 11.7-1.2 7-20.6 24.4-29.5 26.2-.8.2-2.9 1-4.7 1.9-10 4.6-25.6 6.9-29 4.1-4.4-3.3-8.7-3.3-11.8.3-4.6 5-32.4 1-35.9-5.1-3.7-6.5-10-11.3-13.6-10.5-4.6 1-5.6.3-11.8-8a43.5 43.5 0 0 0-6.1-7c-.7-.3-1.2-1.3-1.2-2.4 0-1-.6-1.9-1.3-1.9-.7 0-1.3-2-1.3-4.5 0-6.8-2-11-8.2-17.2a45.6 45.6 0 0 1-11.8-26c0-5.7-2.6-14.9-5-17.7a7.4 7.4 0 0 1-1.7-3.7c0-.8-.5-1.5-1.1-1.5-2 0-4.7-15.2-5-28 0-11.6-2.8-24.5-6-28.7-2.5-3.4-2.8-15.4-.5-20.3 2.8-6 4.3-28.4 2.2-32.8-4-8.2-2.2-20.6 4.2-29.3 2.2-3 3-6.5 3.6-17.3.6-11.4 1.4-14.8 4.5-20.6 3.8-7.3 6.1-9.8 6.1-6.9 0 2.7 9.5-7 11.5-11.8 1-2.3 1.8-6.3 1.8-8.7 0-5.4 2.8-8.3 14.3-14.8 12-6.7 13-6.9 18.4-2.8l4.6 3.6L93 640c4-7.3 37.1-9 55.5-2.8 9.8 3.2 12.3 2.9 7.4-1.1-6-5-2.5-17.5 5-17.5 4 0 4-2.3-.2-5.6-6-4.7-1.4-20.7 5.2-18 5.4 2.3 6.1 2.4 6.1 1 0-.8-.6-1.4-1.3-1.4-.7 0-2.2-1.8-3.3-4-4.9-9.3-.7-18 8.3-17.1 4.8.4 4.9.3 7.2-7 3.8-12 4.8-10.7-22.2-26.9-7.9-4.7-9.1-8.2-8.3-22.8.8-12.4 1.1-13.2 13.1-34.9a14375.8 14375.8 0 0 1 45.5-84.7c12.4-23 18.2-34.2 48.6-92 40.2-76.7 42-79.2 59.7-90l8-4.7 25.3.8c40.5 1.2 46.7 1.4 100 3.7 51.9 2.2 141.3 8.7 168.7 12.2 8.5 1 34 3.5 56.7 5.4 46 3.8 53.1 5 66.8 11.8 17.3 8.4 23.7 16.7 31.1 40.2a231 231 0 0 0 6.2 17.7c1.2 2.4 4.2 11 6.8 19.3a269 269 0 0 0 6.5 19c1 2.2 4.8 12.7 8.3 23.3 12.1 36 33.7 98 35.5 102 1 2.2 4.1 11.2 6.8 20a135 135 0 0 0 6.3 17.7c.8.9 1 1.6.4 1.6s-.4.8.4 1.7a9 9 0 0 1 1.6 3c1 5 9.7 30.8 12.1 36.2 3 6.7 10.3 11.5 43.2 28.6 5.9 3 11.3 6 12 6.5.7.6 6.4 3.7 12.7 7A2248 2248 0 0 1 960 602c7.7 4.2 20.3 11 28 15a182 182 0 0 1 14.7 8.3c.3.4 4.5 2.8 9.3 5.3l19.3 10.3c5.9 3.2 13.4 7.2 16.7 8.8 3.3 1.6 6.3 3.3 6.7 3.8.3.5 5.1 3 10.6 5.8 28.2 14.1 35.5 19.8 36.8 28.4 1.1 7.2-1.3 56.7-4.3 86.3l-2.5 26-2.5 22c-2.8 23.1-2.9 22 1.8 22 4.9 0 4.4 1.8 9-32 1.5-11.6 1-11.1 10.5-10.3 21.6 1.7 47.8 24.3 57.7 49.9 11 27.8 7.8 71.6-6 85.5a85 85 0 0 0-5.3 6.3c-18.9 24.8-61.2 17.7-86.5-14.4-6.8-8.6-16.7-4.7-11.1 4.3 34.6 57 103.3 53.1 121.7-6.6 1.2-4 2.8-8.6 3.4-10 5.8-13.5 3.7-44.6-4.4-68.2-9.5-27.4-32.8-50.8-58.3-58.5-8.6-2.6-12-3.3-15-3.3s-3.6-.6-3.6-3.7c0-2.7 6.6-68 8.2-81.3.1-1 .9-1.7 1.7-1.7.7 0 3.1-1 5.3-2 2-1.1 4.1-1.7 4.5-1.4.4.4 1.3.2 2.2-.5 4-3.4 17.4-3.2 21.7.4a14 14 0 0 0 17.6.7c4.5-3.3 7.8-3 24.8 2.4 13.2 4.2 14 4.8 14 11.2 0 8.9 12.5 14.5 19.9 9 7.7-5.7 30 10.3 30.2 21.6.2 10.9 8.3 21.8 15.1 20.6 5.1-.8 5.1-.8 11.1 8.2 8.4 12.8 9 14.2 9 20.7 0 6.3 8.6 25 11.6 25 3.6.1 6.9 6.2 9.8 18.3l3 12.7-3.6 3c-6.1 4.8-4.2 23.8 2.8 28.4l3.4 2.3-.8 15.3-.8 15.4-4.6 4c-5.8 5.1-7.9 17.4-4.2 24.7 3.2 6.1-5.6 28-11.3 28-8.2 0-13.3 10.8-9.6 20.6 2.1 5.8 2 5.9-1.5 10.5a30 30 0 0 0-3.5 5.4c0 3.7-14.9 15-19 14.5-5.2-.6-9 3-9 8.5 0 11.5-34.1 30-51.6 27.8-7-1-7.5-.8-11.8 3.4l-4.5 4.4-13-1a264 264 0 0 0-17-.8c-3 0-5.4-1.3-9.5-5.4-6.7-6.5-14.1-8.3-19.7-4.6-6.4 4.2-32-5.4-34-12.8-1.7-6.7-11-12.7-16.2-10.5-8.6 3.5-26.7-14.3-26.7-26.4 0-8.4-7.7-18-15-19l-5.7-.6-7.3-14.3-7.2-14.2 2.4-4.5c2.7-5 2-14-1-15.1a285 285 0 0 0-33 6.2 4039.1 4039.1 0 0 0-97.2 21.7c-24.1 6.5-37.5 6-62.1-2.6-15.5-5.3-17.2-5.3-30.6.9a557 557 0 0 1-23.3 8.7c-91.4 31.5-82.6 27.3-82.7 39.7 0 6.4.6 8.5 3.3 11.7 3.6 4.3 3.6 3.8.5 27-1.4 10.9-2.6 13.1-7.1 14-6.9 1.1-10.6 13.6-8 27 2 10-13.5 34.3-21.5 34-7.2-.1-16.2 12.7-14.8 21.2.8 4.5-6.2 15.4-11.7 18.5a20 20 0 0 0-3.4 2.2c-.3.4-4.8 3.8-9.8 7.6l-9.2 7-8.8-.9-8.8-.8-3.3 4.5c-7.2 10-13.1 12-36.7 12.8l-18.7.6zm-19.1-86.6c38-18 46-113.3 15.6-186.6-1.9-4.6-3.9-8.3-4.5-8.3-.6 0-1.4-1.4-2-3a93.6 93.6 0 0 0-19.5-25.7c-34.2-31-70.9-7.8-80.4 50.7-5.2 32.1-.2 89.5 9.8 111.5l6.1 13.7c16.7 37.8 50.3 59.3 74.9 47.7zm-25.4-25.5c-19-9.4-28-28.7-18.3-39 12-12.8 30.4 10.3 30.9 38.6 0 4-5.2 4-12.6.4zm31.2-20.4c-6.5-12-2.5-40 7.1-49.6 4.6-4.6 5.4-5 6.5-3 1.1 2 .8 24-.6 33-1 7.3-7.4 25.3-8.9 25.3-.6 0-2.5-2.6-4.1-5.7zm-31.4-38.2c-20-12.2-21-69.5-1.3-69.5 4.8 0 9.6 4.4 16 14.6 16 25.1 4.7 66.7-14.7 54.9zm-41.6-7.3c-8.1-8.5-10.7-49.4-3.9-60 2.8-4 4.7-4.5 6-1.2a8.2 8.2 0 0 0 1.7 3c9 6.7 11.8 46.3 4 57.3-3.5 4.9-4 5-7.8 1zm72.9-53.2c-10.6-10.3-15.6-29.6-9.8-37.8 1-1.6 1.5-3.2 1-3.7-.4-.4-.2-.8.5-.8 5 0 19.9 39.4 17.3 46-1.1 3.1-2.8 2.4-9-3.7zM456.6 930a35 35 0 0 1-9.1-9.3l-2.6-4.7 3.9-7.2c7-13.1 11.4-16.8 20-16.8 12.2 0 17.5 4.1 13.2 10.2a82 82 0 0 0-5.1 16.5c-4.3 18-8 20-20.3 11.3zm145.3 143.5c6.6-13 6.5-30.8-.3-30.8-5 0-10.3 11.5-10.2 22.1 0 16.3 4.7 20.2 10.5 8.7zm42.1-39.6c4.5-7.7 4.4-6.6 2.1-23.2-1-6.9-5.2-16-7.5-16-9.2 0-11.4 30.7-3.1 43.6 2.8 4.4 3.8 3.9 8.5-4.4zm-35-27.2c6.8-8.6 2.6-34.6-6.7-40.6-9.5-6.2-17 6.5-11 18.5 1.9 3.6 3.4 7.6 3.4 8.9 0 1.3.5 2.7 1.1 3 .7.5 1.6 3 2.2 5.8 1.4 7.8 6.7 10 11 4.4zm66-32.6c9-12.4.8-49-8.7-38.4-6 6.9-5.3 29.8 1.3 37.7 4 4.7 4.4 4.7 7.3.7zM637.2 955c7.6-6.1.9-41-8.6-44.7-4.7-1.8-12.6 8-11 13.7 1.8 5.7 6.5 18.3 7.5 20.1a27 27 0 0 1 2 6.4c.9 3.7 3.6 6.8 6.3 6.9.5 0 2.2-1 3.8-2.4zm82.7-2.7a727 727 0 0 1 25-7.6c15.7-4.5 16-5 7-11.6-7.4-5.6-9.5-5.9-20-2.9l-18.2 5c-13.6 3.6-13.2 3.2-11.1 12.9 2 9.4 1.7 9.4 17.3 4.2zm-121.7-21.4c5.1-7.7 1.3-18.7-10.6-30.9-11.3-11.4-22-3.2-14.2 10.8 13.5 24 19.1 28.5 24.8 20zm231 .5c2.1-2.5 1-15-1.6-17.3a98 98 0 0 0-18.4-5.3 421 421 0 0 1-23.2-5.7l-6.5-2.1-3.1 3.6c-7.6 8.8-3.5 12.5 22.8 21.5 22.7 7.7 27.4 8.5 30 5.3zm49.4-2a261 261 0 0 0 18-4c2.2-.7 18-4 35.3-7.4l34-6.6 33.9-6.5a1101.6 1101.6 0 0 0 40.1-8.3l33.7-6.4c17.5-3.3 33-6.4 34.7-7 1.6-.5 3.2-1 3.6-1 9.7-1.9 16.9-9.8 15.5-17.2-1.4-7.5-3.6-8.4-12.7-5a389 389 0 0 1-39.6 8.2 1053.6 1053.6 0 0 0-39.7 7.3c-23.8 4-70.2 13-72.2 14a9 9 0 0 1-4 1.2h-2a2368.3 2368.3 0 0 1-66.6 13c-1.1.5-3 1-4 1.2l-13.4 2.8L862 910l.4 6.2a35 35 0 0 1-.9 11c-1.6 5.8-2 5.8 17.2 2zm389.3-5.4c3.9-7.1-2.3-29.9-8-29.9-6 0-7.2 5.4-3.9 17.6 4.3 15.7 8 19.6 12 12.3zM659 892.3c4.7-4 4.7-6.5.2-18-6.3-16.1-17.8-25.1-17.8-14 0 1.4-.6 3.6-1.3 5-1 1.8-.3 4.6 2.6 10.9 2 4.7 4.5 11.2 5.4 14.5 2.1 8 4 10.3 5.8 7.1.7-1.3 3-3.8 5-5.5zm-549.2.2c36.6-31.2 12-176.5-30-176.5-13.4 0-25.1 16.4-30 41.7-2.6 14-1.7 57.2 1.5 69.9 13.3 53 39 81.5 58.5 65zm-12-16c-4.3-1.8.5-14.1 6.6-17.3 6.6-3.5 7.8-1.8 4.9 6.9-3.6 10.8-5.7 12.7-11.5 10.4zm-23.3-30.2c-6.7-13.6-10.5-40-6-41.7 6.5-2.5 12.5 7 15 23.4 2 13.7 2 15.6 0 20.3-2.9 6.8-5 6.3-9-2zm25.4-12.6a90 90 0 0 1-9.1-23.8c-3.9-13 2.9-35.2 10.6-35.2 2.3 0 8 6.2 8 8.8 0 .7 1 2.9 2 5 10.3 19.6.3 58.7-11.5 45.2zm-28-64.7c-6.4-10.4 4.5-29.7 14.9-26.1 4.4 1.6 7.6 5 5.8 6.2-.7.5-2.3 5-3.6 10.2-3.8 14.7-11.3 19-17 9.7zm1227.5 125c1.2-1.7 2.3-4 2.4-5 .2-.9.7-2.3 1.2-3.1 1-1.6-1.7-8.5-3.3-8.6-.6 0-1-.7-1-1.7s-1.7-3.7-3.8-6.2c-7.9-9.5-10.8-.8-5.3 15.8 4.2 13 6 14.6 9.8 8.9zM720 888c8.5-2.3 16.6-4.7 18.1-5.4 1.5-.6 13.2-4 26-7.2a349.6 349.6 0 0 0 34.5-10.2l7.1-1.8-.8-8.3c-1.3-13-2.3-13.6-14.1-8.8a38.9 38.9 0 0 1-4.4 1.6c-.6.5-45.7 12.1-47.6 12.3a181.6 181.6 0 0 1-22.3 6.6c-19 4.8-18.7 4.5-16.5 13.2l2 8.3c1 4.5-.6 4.5 18-.4zm122.5-25.4c1.7-11.3 3.3-22.1 3.7-24l6.6-44.6c7-47.8 6.8-46.5 8-52.9.8-4.2.6-5-1.9-5.7a15 15 0 0 1-4.5-2.5 123.1 123.1 0 0 0-21.6-10.2 399.4 399.4 0 0 0-29.4-12.7c-7.3-2.7-13.9-5.5-14.6-6-.8-.6-8-3.6-16-6.8-8.1-3.2-15-6.2-15.4-6.6-.3-.4-8.1-3.8-17.3-7.6a1999 1999 0 0 1-32.7-13.7 3042.2 3042.2 0 0 0-66.6-28c-7.4-3-15.1-6.3-17.2-7.4-4.8-2.3-8-2.5-7.2-.2.4.9 2 8.1 3.7 16 3.8 18.3 3.7 18 26 26a1122.4 1122.4 0 0 1 73.6 27.8c7 2.5 15.1 5.7 18.2 7 3 1.4 12.4 5 20.9 8.1 8.4 3.1 15.9 6 16.6 6.6.8.6 7.7 3.3 15.4 6a426 426 0 0 1 35.1 14.2l10.5 4.3-.8 6.8a586 586 0 0 0-1.6 21c-1.1 18.1-1.1 18.2-10.1 16a57.5 57.5 0 0 1-10.5-3.6 458.2 458.2 0 0 0-24-8c-9.1-2.8-17-5.6-17.4-6.3-.5-.6-1.1-1-1.4-1-.3.1-1.4 0-2.5-.5a3828.2 3828.2 0 0 0-42.3-14.4c-2.4-.8-4.7-1.2-5-.8-1 1-1.2 22.3-.3 23.3.8.7 30.3 9.7 70.3 21.3a342.4 342.4 0 0 1 32.4 10.4l7.8 2.2-.9 17a1571 1571 0 0 1-2 30.9c-1 13.6.4 20.2 4 18 .4-.2 1.7 0 2.7.7 3.8 2.4 4.6.2 7.7-20.1zM612.8 874c6.4-9.8-8-32.3-20-31-8.4.8-7.6 7 2.8 21.7 9.9 13.8 13.1 15.5 17.2 9.3zm-47.5-13.2c0-8-21.2-26-28.9-24.6-8 1.6-5 9.8 8.6 23.5l13 13.1 3.7-3.8a12 12 0 0 0 3.6-8.2zm699-5.8c5-6 .8-19-9.3-28.8-10.6-10.1-16 1.5-6.8 14.8a25 25 0 0 1 4.1 7.3c-.2.6.2 1 .9 1 .6 0 1.9 1.8 2.8 4 1.9 4.5 5.2 5.2 8.3 1.7zm-637.6-25.2c3-7.9-22.4-34.9-27.8-29.5-4.6 4.6-2 9.8 10.8 21.6 13.4 12.4 15 13.2 17 8zm662.5-3 3-6.7-7-11.4c-7.5-12.3-8.5-13-10.8-8-1.8 4 1 15.6 6.3 26 4.1 8.2 4.8 8.2 8.5 0zm-884.6-6.3 4.5-5c1.1-1.5 2.8-2 5-1.3 5.2 1.3 12-6 13.2-14 1.2-8 1.7-8.5 14.6-15.5 11.7-6.3 14.2-7 19.8-5.4 2.6.7 6.4.2 12-1.7a114 114 0 0 1 22.7-3.7l14.3-1v-3.6c0-11.5-54.5-5-80.7 9.7-11.1 6.2-30 22.3-30 25.5 0 .7-1 2.2-2 3.4-9.7 10-9.9 10.7-3.8 16.1 4.5 4 5 4.1 6.2 1.8a27 27 0 0 1 4.2-5.3zm164.5 3.2c5.2-5.2-3.7-14.7-19.8-21-8.3-3.3-7.5-3.4-8.5.6-1.7 6.7.2 9.5 9 13.2a69 69 0 0 1 11.5 6.2c4 3 5.6 3.2 7.8 1zm104.2-9.2c0-9.5-12.7-21.3-26.4-24.6l-7.2-1.7c-4.2-1-5.6-.8-8.4 1.4-7 5.5-3.8 9.3 12 14.5 9.3 3 25.3 11 26.8 13.4 1.2 1.9 3.2 0 3.2-3zm-511-7.8c5.6-8.2 5-18-1.3-21.9-4.3-2.7-8.2 3-6.5 9.4a51 51 0 0 1 1.5 11.6c0 7.5 1.7 7.7 6.3 1zm351-5.3c.7-1.4 1.4-3.1 1.4-3.9a72 72 0 0 0-20-7.7c-11.9-2.1-14.7-2-15.5.1-1.4 3.7 2.4 6.2 15.7 10.2 15.2 4.5 16.6 4.6 18.4 1.3zM262.8 796a128 128 0 0 1 14-4c1.3 0 1.8-1.7 1.7-5-.2-7.3-1.8-11.7-4-11.2-36.5 9.7-36.2 9.6-34.4 14.3.7 1.9 1.2 5.2 1.2 7.5 0 4.9 1.7 4.7 21.5-1.6zm660.7-1.1c10.4-7.7 13.8-14.4 13.8-27.2 0-22.9-16.8-32-32.8-18-21.9 19.2-4 62 19 45.2zm-607.5.8c0-1-2.8-12.2-6-25-6.6-25.3-6.5-25.1-7.8-28a542 542 0 0 1-6-22.7l-8-30c-3.7-13.2-7.3-30-6.5-30.8.5-.5 110.6 35.2 117.6 38.2a572 572 0 0 0 22.7 7.2c11 3.4 21.2 6.7 22.7 7.4 3.5 1.6 37.8 12 39.8 12a189.5 189.5 0 0 0 32.6 10.7c.7 0 5.2-6.8 9.9-15 13.9-24.3 21-37 27.3-48.4l13.7-24a976 976 0 0 0 11.9-20.8l4-7.6-4.7-16.4-10.6-37.8a390.5 390.5 0 0 0-7.2-24c-.7-1.5-3.1-9.9-5.4-18.7-2.3-8.8-6.2-22.6-8.6-30.7-2.5-8-6.8-23-9.5-33.3a281 281 0 0 0-6-20.7c-1-2-9.2-30-20.6-71.3a500.2 500.2 0 0 0-10-32c-2.6-8.2-2.8-8-11.4 16.3a204 204 0 0 1-7.1 18.3c-7.7 10-1 37.2 12.5 51.8 1.5 1.6 3.3 3.8 4 5l7.8 11.2a78.4 78.4 0 0 1 11.7 24.4 233 233 0 0 0 6.3 17.7c.6 1 3.4 9.2 6.2 18a304 304 0 0 0 6.8 20c1 2.2 4.5 12.5 7.7 22.8 3.3 10.4 6.6 20.1 7.4 21.7.9 1.5 4.2 11.4 7.6 22 3.3 10.7 6.9 21 8 23 2.2 4.4 2.4 7.4.6 9.2-.6.7-4.6 7.6-8.8 15.3a4346.7 4346.7 0 0 1-27 49.2 78.2 78.2 0 0 0-5.6 10.9c0 .5-.8 1.8-1.7 2.8a81 81 0 0 0-6.2 10.4 283 283 0 0 1-4.9 9.1c-.3.5-23.2-5.7-27.2-7.4a3916 3916 0 0 0-73.3-22.3 376.2 376.2 0 0 1-23.4-7.4c-1.4-.8-12.5-4.3-24.6-7.9a2623.6 2623.6 0 0 1-68-20.8c-.4 0-2.2-.8-4-1.6-1.9-.7-6.4-2-10-2.9-9.6-2.3-9-1-16.4-30.1a3663.2 3663.2 0 0 0-15-57c-.8-2.8-2.1-5-3-5-1 0-3.1-.8-5-1.8a330 330 0 0 0-22-8.2c-10.2-3.5-19.4-7-20.2-7.7-1-.7-2.6-1-3.8-.8-1.3.3 4.6 5.3 15 12.7 25.5 18.3 24.5 16.9 33 49.1a1969 1969 0 0 0 6.7 24.7l6.7 25.3a710.6 710.6 0 0 0 9 32c.8 2 5.5 19 19.8 73.3a598 598 0 0 0 10.4 35.9c2 6.6 2.6 7.3 8.1 9.5 7.5 3 8 3 8 1zm927.3-4.2c6-9.1-20.3-36.9-26.7-28.2-3.6 4.9-2.2 8.3 8.2 20 11 12.3 14.7 14 18.5 8.2zm-560.6-4c0-15.7-40.6-29.9-47.5-16.6-2.6 5-2.7 5 9.5 7.3 5.7 1 12.4 3.1 15 4.5 2.8 1.5 5.5 2.6 6.3 2.7.7 0 4 1.7 7.3 3.9 8.3 5.3 9.4 5.1 9.4-1.9zM576.5 786c1.3-4.3-30-21.3-33-18-2.9 3.3-2 10.4 1.4 11.3 4.3 1 16.3 6.3 23.1 10 5 2.8 7 2 8.5-3.3zm477.3-11.8c22.1-9.3 20.2-54.6-2.2-52.5-13 1.2-20.3 11.8-20.2 29.6 0 18.9 9.3 28.4 22.4 22.9zM692 764.5c0-14.5-39.9-32.4-46-20.6-3 5.8-2.6 6.4 3.7 7.5 3 .5 6.2 1.4 7 2a4 4 0 0 0 2 1c2.6.2 19.6 7.2 24.6 10.1 7 4.3 8.7 4.2 8.7 0zm-537.9-10c4.3-8.4-.8-21.2-8.5-21.2-2.4 0-3 .6-2.4 2.2a235 235 0 0 1 4.8 22.2c0 2.7 4.2.5 6.1-3.3zm1048.6-13c0-3.6-21-17.5-26.4-17.5-2.9 0-3 .5-2.7 5.7.4 5.5.7 5.8 11.7 12.7l11.4 7 3-3.4c1.6-2 3-4 3-4.5zm-506-8c-3.4-5.5-8.9-9-18.7-12.2-3-.9-6-2-6.7-2.6-6.7-4.6-15.2-4.1-15.3 1 0 .9-.6 1.6-1.3 1.6-3.3 0-1.2 5.3 2.3 6.1 10.4 2.2 25.9 7.7 33 11.8 10 5.6 12.6 3.5 6.8-5.7zm-452-5.3 14.6-5-.3-4.5c-.6-7-9.8-42.6-12.7-49.2l-2.6-5.8-2.7 4.5c-1.5 2.5-5.3 10.6-8.4 18-3 7.5-7 15.5-8.6 17.8-3 4.1-3 4.3-.7 11.8l3.8 12.5c.8 2.8 1.8 5 2.2 5l15.4-5.1zm-110-21c3.2-3.8-12-19.7-16.2-17-1.3.7 6.3 16.6 8.7 18.1a5.7 5.7 0 0 0 7.5-1zm789.2-2.6a1545.9 1545.9 0 0 0 60.1-8l85-11.2c1.9-.4-.8-2.8-6-5.4a46 46 0 0 1-8.1-5c-1-.9-2.3-1.7-3-1.7-.6 0-6.7-3.2-13.5-7a873.6 873.6 0 0 0-47-26.3c-.6 0-6-3-11.9-6.5-6-3.6-13.8-8-17.5-9.8-3.7-1.8-12.5-6.7-19.6-10.8a105 105 0 0 0-14.3-7.6c-.8 0-1.4-.5-1.4-1.2s-1.3-1.7-2.8-2.1c-1.6-.5-9.8-4.8-18.4-9.6-52-29.2-56.7-31.6-60.5-30.5-3.5 1.1-214.3 21.5-227.3 22-4.9.2-1.5 6.5 4.6 8.8 3.5 1.3 8.2 3.4 10.4 4.7 2.2 1.3 7.9 4 12.6 6 4.8 2 13.5 5.8 19.4 8.6l30 14a6063.5 6063.5 0 0 1 44.5 20.7c.3 0 6.8 2.9 14.4 6.4 7.5 3.6 18 8.2 23 10.3 5.2 2.1 9.7 4.2 10 4.7.4.4 7.6 3.7 16 7.2 8.5 3.5 16.6 7.2 18 8.1 1.5 1 7.2 3.6 12.7 5.8a739 739 0 0 1 27.4 12c20.5 9.6 14.5 9.2 63.2 3.4zm-38.7-32c-6.2-4-20-13.2-30.8-20.6a217.7 217.7 0 0 0-21-13.3c-.8 0-1.4-.6-1.4-1.4 0-.7-.7-1.3-1.5-1.3s-3-1.5-4.6-3.3c-1.7-1.9-2.9-3.4-2.6-3.4l23.6 8.1c12.7 4.4 28.8 9.9 35.8 12.1a118 118 0 0 1 14 5.2c.7.6 9.4 3.6 19.3 6.7 31 9.7 33.2 12.5 11.3 14a534 534 0 0 0-27.5 3.9c-2.6.4-6.4-1.3-14.6-6.7zm-678.3-6.5c1.5-2.9 4.2-9.2 6-14a235 235 0 0 1 5.2-12.8 215 215 0 0 0 9.9-29.9c0-12.3-12.4-41.5-16.2-37.8-4 4-5.3 16.4-1.8 16.4 2.3 0 4.7 4.1 4.7 8 0 3.8-8.3 12-12 12-3 0-3 0 .5 3.5 6 6.2 4.2 15.2-4 18.6-4.5 2-4.5 2-1.9 4.6 5.7 5.6.4 18.6-7.4 18.6-5.5 0-4.4 6 2.2 11.7 3.5 3.2 6.8 7 7.3 8.6 1.1 3.4 2.7 1.9 7.5-7.5zm140.2-21.4a6480.5 6480.5 0 0 1-14.4-82 15991.1 15991.1 0 0 1-16.6-95.3 41 41 0 0 1 0-14c1.7-7.8 1.5-7.4 5.7-16.6 2-4.3 3.5-8.2 3.5-8.8 0-.5 3.3-6 7.2-12.4 10.2-16.1 13-24.4 19-55.9 7.8-41.2 11-43.6 60-43.7 39.5 0 48.7 2.8 52.7 16.3 2.1 6.8 2.6 6.5 6.7-4.6l8.5-23c10.2-27 1.3-40.1-28.7-42.2a986.4 986.4 0 0 0-59.3-3.8 1568 1568 0 0 1-40-2c-8.3-1-21 1-22.2 3.3-1.6 3.2-3 7.1-3.3 10-.2 1.5-1 5.4-1.9 8.8A4184 4184 0 0 0 304.5 398a752 752 0 0 1-7.2 41.3c-.6 1.5-1.1 3.6-1.2 4.7 0 1.1-1 7.1-2 13.3l-2.7 16.5-.8 5.2 4.6-.9c5.4-1 4.2-4.5 10.9 32.6l5.2 28.6c.4 1.5 2.8 14.7 5.4 29.4a1855.2 1855.2 0 0 0 11.5 60.6c3.2 17.8 2.4 16.2 8.8 17.4 7.7 1.6 10.4 1 10.1-2zm47.5-13.7c0-10.9-1.4-24.2-4.6-43l-3.2-19.3c-4-23.9-9.8-50.9-16.1-74-3.1-11.4-6-22-6.3-23.7-.8-3.5-4.4-4-4.4-.7a766 766 0 0 0 8.6 65l6 32.7a872 872 0 0 0 16.7 74.3c2 5.3 3.4.5 3.3-11.3zM621 559.6c.8-.5 1.7-4.4 2.2-8.8 4.8-45.9 66.8-96.8 107.5-88.1 27.8 5.9 40.1 39 27.6 74.6a51 51 0 0 0-3 10.4c.4.4 59.8-5.2 72.6-7 5.8-.7 6.3-1.3 4.3-5.7-1-2-7.7-21.7-15-43.7-7.3-22-14-41.8-15-44a251 251 0 0 1-6.1-18 329.8 329.8 0 0 0-8.4-24l-6.4-20c-3-9.9-6-18.6-6.6-19.3a267 267 0 0 1-7.2-21.3 608 608 0 0 0-7.4-22.7c-.7-1.5-3.4-9.9-6.1-18.7-11.2-36.4-12.4-37.4-48.6-38.5L660 263c-12.8-.6-32-1.1-42.7-1.3-10.6-.1-36-.6-56.4-1.2-51.2-1.3-52.2.2-35.7 52.7a9662 9662 0 0 1 15.2 48l6.3 22.7a627.3 627.3 0 0 0 7.3 25.3l1 2.7c.5 1.1 3.3 10.7 6.3 21.3 3 10.7 6.3 21.5 7.2 24a443 443 0 0 1 7.4 24c3 10.7 6 20.6 6.8 22 .7 1.5 3.7 11.7 6.8 22.7a188.7 188.7 0 0 0 7.7 24.2c-.3 1 .3 2.9 2.8 9.2 1 2.7 16.6 2.9 21 .2zm46.2-2.9c10.2-1 18.8-2.2 19.3-2.6 1.7-1.8-11.5-13-21.2-18l-10.2-5.4-2.3 3.4c-3 4.5-7.4 17.4-7.4 21.4 0 3.7-1.5 3.6 21.8 1.2zm70-23c22-51.5-14.7-67-63-26.6l-3.7 3.2 9.8 7.3a104 104 0 0 1 13.5 11.6c2.8 3.3 4 4 6 3 8.3-4.3 21.7-2.4 27.8 4 5 5.2 6.4 4.8 9.6-2.5zM226 487.3l30.4-3.8a19 19 0 0 0 6-1.4c.9-1 5.7-28.2 20.1-114.8 3.7-22 7.3-41.8 8-44 4.4-13.9 2.7-17.7-3-7-2 3.9-6.5 11.8-9.8 17.7l-14.4 26a20718.6 20718.6 0 0 1-46 84.6c0 .4-3.9 7.5-8.6 15.7A120 120 0 0 0 200 477c0 .9-.5 1.7-1 1.7-1 0-7 11-7 12.6 0 .3 2 .2 4.3-.1l29.7-4z"/>
</svg>
